G04 #@! TF.GenerationSoftware,KiCad,Pcbnew,(6.0.0)*
G04 #@! TF.CreationDate,2022-02-02T14:41:14+01:00*
G04 #@! TF.ProjectId,jamma_mahjong,6a616d6d-615f-46d6-9168-6a6f6e672e6b,rev?*
G04 #@! TF.SameCoordinates,Original*
G04 #@! TF.FileFunction,Paste,Top*
G04 #@! TF.FilePolarity,Positive*
%FSLAX46Y46*%
G04 Gerber Fmt 4.6, Leading zero omitted, Abs format (unit mm)*
G04 Created by KiCad (PCBNEW (6.0.0)) date 2022-02-02 14:41:14*
%MOMM*%
%LPD*%
G01*
G04 APERTURE LIST*
%ADD10R,2.350000X8.000000*%
G04 APERTURE END LIST*
D10*
X229720000Y-52020000D03*
X229720000Y-52020000D03*
X225760000Y-52020000D03*
X225760000Y-52020000D03*
X221800000Y-52020000D03*
X221800000Y-52020000D03*
X217840000Y-52020000D03*
X217840000Y-52020000D03*
X213880000Y-52020000D03*
X213880000Y-52020000D03*
X209920000Y-52020000D03*
X209920000Y-52020000D03*
X202000000Y-52020000D03*
X202000000Y-52020000D03*
X198040000Y-52020000D03*
X198040000Y-52020000D03*
X194080000Y-52020000D03*
X194080000Y-52020000D03*
X190120000Y-52020000D03*
X190120000Y-52020000D03*
X186160000Y-52020000D03*
X186160000Y-52020000D03*
X182200000Y-52020000D03*
X182200000Y-52020000D03*
X178240000Y-52020000D03*
X178240000Y-52020000D03*
X174280000Y-52020000D03*
X174280000Y-52020000D03*
X170320000Y-52020000D03*
X170320000Y-52020000D03*
X166360000Y-52020000D03*
X166360000Y-52020000D03*
X162400000Y-52020000D03*
X162400000Y-52020000D03*
X158440000Y-52020000D03*
X158440000Y-52020000D03*
X154480000Y-52020000D03*
X154480000Y-52020000D03*
X150520000Y-52020000D03*
X150520000Y-52020000D03*
X146560000Y-52020000D03*
X146560000Y-52020000D03*
X142600000Y-52020000D03*
X142600000Y-52020000D03*
X138640000Y-52020000D03*
X138640000Y-52020000D03*
X134680000Y-52020000D03*
X134680000Y-52020000D03*
X130720000Y-52020000D03*
X130720000Y-52020000D03*
X126760000Y-52020000D03*
X126760000Y-52020000D03*
X122800000Y-52020000D03*
X122800000Y-52020000D03*
X229720000Y-52020000D03*
X229720000Y-52020000D03*
X225760000Y-52020000D03*
X225760000Y-52020000D03*
X221800000Y-52020000D03*
X221800000Y-52020000D03*
X217840000Y-52020000D03*
X217840000Y-52020000D03*
X213880000Y-52020000D03*
X213880000Y-52020000D03*
X209920000Y-52020000D03*
X209920000Y-52020000D03*
X202000000Y-52020000D03*
X202000000Y-52020000D03*
X198040000Y-52020000D03*
X198040000Y-52020000D03*
X194080000Y-52020000D03*
X194080000Y-52020000D03*
X190120000Y-52020000D03*
X190120000Y-52020000D03*
X186160000Y-52020000D03*
X186160000Y-52020000D03*
X182200000Y-52020000D03*
X182200000Y-52020000D03*
X178240000Y-52020000D03*
X178240000Y-52020000D03*
X174280000Y-52020000D03*
X174280000Y-52020000D03*
X170320000Y-52020000D03*
X170320000Y-52020000D03*
X166360000Y-52020000D03*
X166360000Y-52020000D03*
X162400000Y-52020000D03*
X162400000Y-52020000D03*
X158440000Y-52020000D03*
X158440000Y-52020000D03*
X154480000Y-52020000D03*
X154480000Y-52020000D03*
X150520000Y-52020000D03*
X150520000Y-52020000D03*
X146560000Y-52020000D03*
X146560000Y-52020000D03*
X142600000Y-52020000D03*
X142600000Y-52020000D03*
X138640000Y-52020000D03*
X138640000Y-52020000D03*
X134680000Y-52020000D03*
X134680000Y-52020000D03*
X130720000Y-52020000D03*
X130720000Y-52020000D03*
X126760000Y-52020000D03*
X126760000Y-52020000D03*
X122800000Y-52020000D03*
X122800000Y-52020000D03*
X229720000Y-81230000D03*
X229720000Y-81230000D03*
X225760000Y-81230000D03*
X225760000Y-81230000D03*
X221800000Y-81230000D03*
X221800000Y-81230000D03*
X217840000Y-81230000D03*
X217840000Y-81230000D03*
X213880000Y-81230000D03*
X213880000Y-81230000D03*
X209920000Y-81230000D03*
X209920000Y-81230000D03*
X205993160Y-81232540D03*
X202000000Y-81230000D03*
X202000000Y-81230000D03*
X198040000Y-81230000D03*
X198040000Y-81230000D03*
X194080000Y-81230000D03*
X194080000Y-81230000D03*
X190120000Y-81230000D03*
X190120000Y-81230000D03*
X186160000Y-81230000D03*
X186160000Y-81230000D03*
X182200000Y-81230000D03*
X182200000Y-81230000D03*
X178240000Y-81230000D03*
X178240000Y-81230000D03*
X174280000Y-81230000D03*
X174280000Y-81230000D03*
X170320000Y-81230000D03*
X170320000Y-81230000D03*
X166360000Y-81230000D03*
X166360000Y-81230000D03*
X162400000Y-81230000D03*
X162400000Y-81230000D03*
X158440000Y-81230000D03*
X158440000Y-81230000D03*
X154480000Y-81230000D03*
X154480000Y-81230000D03*
X150520000Y-81230000D03*
X150520000Y-81230000D03*
X146560000Y-81230000D03*
X146560000Y-81230000D03*
X142600000Y-81230000D03*
X142600000Y-81230000D03*
X138640000Y-81230000D03*
X138640000Y-81230000D03*
X134680000Y-81230000D03*
X134680000Y-81230000D03*
X130720000Y-81230000D03*
X130720000Y-81230000D03*
X126760000Y-81230000D03*
X126760000Y-81230000D03*
X122800000Y-81230000D03*
X122800000Y-81230000D03*
X229720000Y-81230000D03*
X229720000Y-81230000D03*
X225760000Y-81230000D03*
X225760000Y-81230000D03*
X221800000Y-81230000D03*
X221800000Y-81230000D03*
X217840000Y-81230000D03*
X217840000Y-81230000D03*
X213880000Y-81230000D03*
X213880000Y-81230000D03*
X209920000Y-81230000D03*
X209920000Y-81230000D03*
X205993160Y-81232540D03*
X202000000Y-81230000D03*
X202000000Y-81230000D03*
X198040000Y-81230000D03*
X198040000Y-81230000D03*
X194080000Y-81230000D03*
X194080000Y-81230000D03*
X190120000Y-81230000D03*
X190120000Y-81230000D03*
X186160000Y-81230000D03*
X186160000Y-81230000D03*
X182200000Y-81230000D03*
X182200000Y-81230000D03*
X178240000Y-81230000D03*
X178240000Y-81230000D03*
X174280000Y-81230000D03*
X174280000Y-81230000D03*
X170320000Y-81230000D03*
X170320000Y-81230000D03*
X166360000Y-81230000D03*
X166360000Y-81230000D03*
X162400000Y-81230000D03*
X162400000Y-81230000D03*
X158440000Y-81230000D03*
X158440000Y-81230000D03*
X154480000Y-81230000D03*
X154480000Y-81230000D03*
X150520000Y-81230000D03*
X150520000Y-81230000D03*
X146560000Y-81230000D03*
X146560000Y-81230000D03*
X142600000Y-81230000D03*
X142600000Y-81230000D03*
X138640000Y-81230000D03*
X138640000Y-81230000D03*
X134680000Y-81230000D03*
X134680000Y-81230000D03*
X130720000Y-81230000D03*
X130720000Y-81230000D03*
X126760000Y-81230000D03*
X126760000Y-81230000D03*
X122800000Y-81230000D03*
X122800000Y-81230000D03*
M02*
