G04 #@! TF.GenerationSoftware,KiCad,Pcbnew,(6.0.0)*
G04 #@! TF.CreationDate,2022-01-04T21:47:13+01:00*
G04 #@! TF.ProjectId,jamma_mahjong,6a616d6d-615f-46d6-9168-6a6f6e672e6b,rev?*
G04 #@! TF.SameCoordinates,Original*
G04 #@! TF.FileFunction,Soldermask,Top*
G04 #@! TF.FilePolarity,Negative*
%FSLAX46Y46*%
G04 Gerber Fmt 4.6, Leading zero omitted, Abs format (unit mm)*
G04 Created by KiCad (PCBNEW (6.0.0)) date 2022-01-04 21:47:13*
%MOMM*%
%LPD*%
G01*
G04 APERTURE LIST*
G04 Aperture macros list*
%AMRoundRect*
0 Rectangle with rounded corners*
0 $1 Rounding radius*
0 $2 $3 $4 $5 $6 $7 $8 $9 X,Y pos of 4 corners*
0 Add a 4 corners polygon primitive as box body*
4,1,4,$2,$3,$4,$5,$6,$7,$8,$9,$2,$3,0*
0 Add four circle primitives for the rounded corners*
1,1,$1+$1,$2,$3*
1,1,$1+$1,$4,$5*
1,1,$1+$1,$6,$7*
1,1,$1+$1,$8,$9*
0 Add four rect primitives between the rounded corners*
20,1,$1+$1,$2,$3,$4,$5,0*
20,1,$1+$1,$4,$5,$6,$7,0*
20,1,$1+$1,$6,$7,$8,$9,0*
20,1,$1+$1,$8,$9,$2,$3,0*%
G04 Aperture macros list end*
%ADD10R,2.350000X8.000000*%
%ADD11C,2.781000*%
%ADD12RoundRect,0.250000X0.600000X0.725000X-0.600000X0.725000X-0.600000X-0.725000X0.600000X-0.725000X0*%
%ADD13O,1.700000X1.950000*%
%ADD14RoundRect,0.250000X0.600000X0.750000X-0.600000X0.750000X-0.600000X-0.750000X0.600000X-0.750000X0*%
%ADD15O,1.700000X2.000000*%
G04 APERTURE END LIST*
D10*
X229720000Y-52020000D03*
X229720000Y-52020000D03*
X225760000Y-52020000D03*
X225760000Y-52020000D03*
X221800000Y-52020000D03*
X221800000Y-52020000D03*
X217840000Y-52020000D03*
X217840000Y-52020000D03*
X213880000Y-52020000D03*
X213880000Y-52020000D03*
X209920000Y-52020000D03*
X209920000Y-52020000D03*
X202000000Y-52020000D03*
X202000000Y-52020000D03*
X198040000Y-52020000D03*
X198040000Y-52020000D03*
X194080000Y-52020000D03*
X194080000Y-52020000D03*
X190120000Y-52020000D03*
X190120000Y-52020000D03*
X186160000Y-52020000D03*
X186160000Y-52020000D03*
X182200000Y-52020000D03*
X182200000Y-52020000D03*
X178240000Y-52020000D03*
X178240000Y-52020000D03*
X174280000Y-52020000D03*
X174280000Y-52020000D03*
X170320000Y-52020000D03*
X170320000Y-52020000D03*
X166360000Y-52020000D03*
X166360000Y-52020000D03*
X162400000Y-52020000D03*
X162400000Y-52020000D03*
X158440000Y-52020000D03*
X158440000Y-52020000D03*
X154480000Y-52020000D03*
X154480000Y-52020000D03*
X150520000Y-52020000D03*
X150520000Y-52020000D03*
X146560000Y-52020000D03*
X146560000Y-52020000D03*
X142600000Y-52020000D03*
X142600000Y-52020000D03*
X138640000Y-52020000D03*
X138640000Y-52020000D03*
X134680000Y-52020000D03*
X134680000Y-52020000D03*
X130720000Y-52020000D03*
X130720000Y-52020000D03*
X126760000Y-52020000D03*
X126760000Y-52020000D03*
X122800000Y-52020000D03*
X122800000Y-52020000D03*
X229720000Y-52020000D03*
X229720000Y-52020000D03*
X225760000Y-52020000D03*
X225760000Y-52020000D03*
X221800000Y-52020000D03*
X221800000Y-52020000D03*
X217840000Y-52020000D03*
X217840000Y-52020000D03*
X213880000Y-52020000D03*
X213880000Y-52020000D03*
X209920000Y-52020000D03*
X209920000Y-52020000D03*
X202000000Y-52020000D03*
X202000000Y-52020000D03*
X198040000Y-52020000D03*
X198040000Y-52020000D03*
X194080000Y-52020000D03*
X194080000Y-52020000D03*
X190120000Y-52020000D03*
X190120000Y-52020000D03*
X186160000Y-52020000D03*
X186160000Y-52020000D03*
X182200000Y-52020000D03*
X182200000Y-52020000D03*
X178240000Y-52020000D03*
X178240000Y-52020000D03*
X174280000Y-52020000D03*
X174280000Y-52020000D03*
X170320000Y-52020000D03*
X170320000Y-52020000D03*
X166360000Y-52020000D03*
X166360000Y-52020000D03*
X162400000Y-52020000D03*
X162400000Y-52020000D03*
X158440000Y-52020000D03*
X158440000Y-52020000D03*
X154480000Y-52020000D03*
X154480000Y-52020000D03*
X150520000Y-52020000D03*
X150520000Y-52020000D03*
X146560000Y-52020000D03*
X146560000Y-52020000D03*
X142600000Y-52020000D03*
X142600000Y-52020000D03*
X138640000Y-52020000D03*
X138640000Y-52020000D03*
X134680000Y-52020000D03*
X134680000Y-52020000D03*
X130720000Y-52020000D03*
X130720000Y-52020000D03*
X126760000Y-52020000D03*
X126760000Y-52020000D03*
X122800000Y-52020000D03*
X122800000Y-52020000D03*
X229720000Y-81230000D03*
X229720000Y-81230000D03*
X225760000Y-81230000D03*
X225760000Y-81230000D03*
X221800000Y-81230000D03*
X221800000Y-81230000D03*
X217840000Y-81230000D03*
X217840000Y-81230000D03*
X213880000Y-81230000D03*
X213880000Y-81230000D03*
X209920000Y-81230000D03*
X209920000Y-81230000D03*
X205993160Y-81232540D03*
X202000000Y-81230000D03*
X202000000Y-81230000D03*
X198040000Y-81230000D03*
X198040000Y-81230000D03*
X194080000Y-81230000D03*
X194080000Y-81230000D03*
X190120000Y-81230000D03*
X190120000Y-81230000D03*
X186160000Y-81230000D03*
X186160000Y-81230000D03*
X182200000Y-81230000D03*
X182200000Y-81230000D03*
X178240000Y-81230000D03*
X178240000Y-81230000D03*
X174280000Y-81230000D03*
X174280000Y-81230000D03*
X170320000Y-81230000D03*
X170320000Y-81230000D03*
X166360000Y-81230000D03*
X166360000Y-81230000D03*
X162400000Y-81230000D03*
X162400000Y-81230000D03*
X158440000Y-81230000D03*
X158440000Y-81230000D03*
X154480000Y-81230000D03*
X154480000Y-81230000D03*
X150520000Y-81230000D03*
X150520000Y-81230000D03*
X146560000Y-81230000D03*
X146560000Y-81230000D03*
X142600000Y-81230000D03*
X142600000Y-81230000D03*
X138640000Y-81230000D03*
X138640000Y-81230000D03*
X134680000Y-81230000D03*
X134680000Y-81230000D03*
X130720000Y-81230000D03*
X130720000Y-81230000D03*
X126760000Y-81230000D03*
X126760000Y-81230000D03*
X122800000Y-81230000D03*
X122800000Y-81230000D03*
X229720000Y-81230000D03*
X229720000Y-81230000D03*
X225760000Y-81230000D03*
X225760000Y-81230000D03*
X221800000Y-81230000D03*
X221800000Y-81230000D03*
X217840000Y-81230000D03*
X217840000Y-81230000D03*
X213880000Y-81230000D03*
X213880000Y-81230000D03*
X209920000Y-81230000D03*
X209920000Y-81230000D03*
X205993160Y-81232540D03*
X202000000Y-81230000D03*
X202000000Y-81230000D03*
X198040000Y-81230000D03*
X198040000Y-81230000D03*
X194080000Y-81230000D03*
X194080000Y-81230000D03*
X190120000Y-81230000D03*
X190120000Y-81230000D03*
X186160000Y-81230000D03*
X186160000Y-81230000D03*
X182200000Y-81230000D03*
X182200000Y-81230000D03*
X178240000Y-81230000D03*
X178240000Y-81230000D03*
X174280000Y-81230000D03*
X174280000Y-81230000D03*
X170320000Y-81230000D03*
X170320000Y-81230000D03*
X166360000Y-81230000D03*
X166360000Y-81230000D03*
X162400000Y-81230000D03*
X162400000Y-81230000D03*
X158440000Y-81230000D03*
X158440000Y-81230000D03*
X154480000Y-81230000D03*
X154480000Y-81230000D03*
X150520000Y-81230000D03*
X150520000Y-81230000D03*
X146560000Y-81230000D03*
X146560000Y-81230000D03*
X142600000Y-81230000D03*
X142600000Y-81230000D03*
X138640000Y-81230000D03*
X138640000Y-81230000D03*
X134680000Y-81230000D03*
X134680000Y-81230000D03*
X130720000Y-81230000D03*
X130720000Y-81230000D03*
X126760000Y-81230000D03*
X126760000Y-81230000D03*
X122800000Y-81230000D03*
X122800000Y-81230000D03*
D11*
X194450000Y-64000000D03*
X189750000Y-64000000D03*
X185050000Y-64000000D03*
D12*
X227000000Y-73000000D03*
D13*
X224500000Y-73000000D03*
X222000000Y-73000000D03*
X219500000Y-73000000D03*
X217000000Y-73000000D03*
X214500000Y-73000000D03*
D12*
X176750000Y-73000000D03*
D13*
X174250000Y-73000000D03*
X171750000Y-73000000D03*
X169250000Y-73000000D03*
X166750000Y-73000000D03*
X164250000Y-73000000D03*
D14*
X227450000Y-62100000D03*
D15*
X224950000Y-62100000D03*
M02*
