%FSLAX45Y45*%
G04 Gerber Fmt 4.5, Leading zero omitted, Abs format (unit mm)*
G04 Created by KiCad (PCBNEW (5.1.10)-1) date 2021-12-14 16:32:32*
%MOMM*%
%LPD*%
G01*
G04 APERTURE LIST*
%TA.AperFunction,Profile*%
%ADD10C,0.050000*%
%TD*%
%ADD11C,0.200000*%
%ADD12C,0.300000*%
G04 APERTURE END LIST*
D10*
X20345400Y-4749800D02*
X20370800Y-4775200D01*
X12115800Y-5537200D02*
X12115800Y-4749800D01*
X12115800Y-8559800D02*
X12115800Y-5537200D01*
X13944600Y-8559800D02*
X12115800Y-8559800D01*
X18161000Y-8559800D02*
X13944600Y-8559800D01*
X23139400Y-8559800D02*
X18161000Y-8559800D01*
X23139400Y-4749800D02*
X23139400Y-8559800D01*
X20853400Y-4749800D02*
X23139400Y-4749800D01*
X20828000Y-4775200D02*
X20853400Y-4749800D01*
X20828000Y-5562600D02*
X20828000Y-4775200D01*
X20777200Y-5613400D02*
X20828000Y-5562600D01*
X20421600Y-5613400D02*
X20777200Y-5613400D01*
X20370800Y-5562600D02*
X20421600Y-5613400D01*
X20370800Y-4775200D02*
X20370800Y-5562600D01*
X12115800Y-4749800D02*
X20345400Y-4749800D01*
D11*
D12*
X12399728Y-9028014D02*
X12399728Y-8728014D01*
X12471157Y-8728014D01*
X12514014Y-8742300D01*
X12542586Y-8770872D01*
X12556871Y-8799443D01*
X12571157Y-8856586D01*
X12571157Y-8899443D01*
X12556871Y-8956586D01*
X12542586Y-8985157D01*
X12514014Y-9013729D01*
X12471157Y-9028014D01*
X12399728Y-9028014D01*
X12699728Y-9028014D02*
X12699728Y-8828014D01*
X12699728Y-8885157D02*
X12714014Y-8856586D01*
X12728300Y-8842300D01*
X12756871Y-8828014D01*
X12785443Y-8828014D01*
X12885443Y-9028014D02*
X12885443Y-8828014D01*
X12885443Y-8728014D02*
X12871157Y-8742300D01*
X12885443Y-8756586D01*
X12899728Y-8742300D01*
X12885443Y-8728014D01*
X12885443Y-8756586D01*
X13071157Y-9028014D02*
X13042586Y-9013729D01*
X13028300Y-8985157D01*
X13028300Y-8728014D01*
X13228300Y-9028014D02*
X13199728Y-9013729D01*
X13185443Y-8985157D01*
X13185443Y-8728014D01*
X13571157Y-9028014D02*
X13571157Y-8728014D01*
X13671157Y-8942300D01*
X13771157Y-8728014D01*
X13771157Y-9028014D01*
X14042586Y-9028014D02*
X14042586Y-8870872D01*
X14028300Y-8842300D01*
X13999728Y-8828014D01*
X13942586Y-8828014D01*
X13914014Y-8842300D01*
X14042586Y-9013729D02*
X14014014Y-9028014D01*
X13942586Y-9028014D01*
X13914014Y-9013729D01*
X13899728Y-8985157D01*
X13899728Y-8956586D01*
X13914014Y-8928014D01*
X13942586Y-8913729D01*
X14014014Y-8913729D01*
X14042586Y-8899443D01*
X14185443Y-8828014D02*
X14185443Y-9128014D01*
X14185443Y-8842300D02*
X14214014Y-8828014D01*
X14271157Y-8828014D01*
X14299728Y-8842300D01*
X14314014Y-8856586D01*
X14328300Y-8885157D01*
X14328300Y-8970872D01*
X14314014Y-8999443D01*
X14299728Y-9013729D01*
X14271157Y-9028014D01*
X14214014Y-9028014D01*
X14185443Y-9013729D01*
X14456871Y-8999443D02*
X14471157Y-9013729D01*
X14456871Y-9028014D01*
X14442586Y-9013729D01*
X14456871Y-8999443D01*
X14456871Y-9028014D01*
X14456871Y-8842300D02*
X14471157Y-8856586D01*
X14456871Y-8870872D01*
X14442586Y-8856586D01*
X14456871Y-8842300D01*
X14456871Y-8870872D01*
M02*
