G04 #@! TF.GenerationSoftware,KiCad,Pcbnew,(5.1.10)-1*
G04 #@! TF.CreationDate,2021-12-14T16:32:23+01:00*
G04 #@! TF.ProjectId,jamma_mahjong,6a616d6d-615f-46d6-9168-6a6f6e672e6b,rev?*
G04 #@! TF.SameCoordinates,Original*
G04 #@! TF.FileFunction,Legend,Bot*
G04 #@! TF.FilePolarity,Positive*
%FSLAX46Y46*%
G04 Gerber Fmt 4.6, Leading zero omitted, Abs format (unit mm)*
G04 Created by KiCad (PCBNEW (5.1.10)-1) date 2021-12-14 16:32:23*
%MOMM*%
%LPD*%
G01*
G04 APERTURE LIST*
%ADD10C,0.100000*%
%ADD11C,0.120000*%
%ADD12C,1.200000*%
G04 APERTURE END LIST*
D10*
X152309523Y-58753571D02*
X152333333Y-58777380D01*
X152404761Y-58801190D01*
X152452380Y-58801190D01*
X152523809Y-58777380D01*
X152571428Y-58729761D01*
X152595238Y-58682142D01*
X152619047Y-58586904D01*
X152619047Y-58515476D01*
X152595238Y-58420238D01*
X152571428Y-58372619D01*
X152523809Y-58325000D01*
X152452380Y-58301190D01*
X152404761Y-58301190D01*
X152333333Y-58325000D01*
X152309523Y-58348809D01*
X151880952Y-58467857D02*
X151880952Y-58801190D01*
X152095238Y-58467857D02*
X152095238Y-58729761D01*
X152071428Y-58777380D01*
X152023809Y-58801190D01*
X151952380Y-58801190D01*
X151904761Y-58777380D01*
X151880952Y-58753571D01*
X151714285Y-58467857D02*
X151523809Y-58467857D01*
X151642857Y-58301190D02*
X151642857Y-58729761D01*
X151619047Y-58777380D01*
X151571428Y-58801190D01*
X151523809Y-58801190D01*
X151047619Y-58467857D02*
X150857142Y-58467857D01*
X150976190Y-58301190D02*
X150976190Y-58729761D01*
X150952380Y-58777380D01*
X150904761Y-58801190D01*
X150857142Y-58801190D01*
X150619047Y-58801190D02*
X150666666Y-58777380D01*
X150690476Y-58753571D01*
X150714285Y-58705952D01*
X150714285Y-58563095D01*
X150690476Y-58515476D01*
X150666666Y-58491666D01*
X150619047Y-58467857D01*
X150547619Y-58467857D01*
X150500000Y-58491666D01*
X150476190Y-58515476D01*
X150452380Y-58563095D01*
X150452380Y-58705952D01*
X150476190Y-58753571D01*
X150500000Y-58777380D01*
X150547619Y-58801190D01*
X150619047Y-58801190D01*
X149642857Y-58801190D02*
X149642857Y-58301190D01*
X149642857Y-58777380D02*
X149690476Y-58801190D01*
X149785714Y-58801190D01*
X149833333Y-58777380D01*
X149857142Y-58753571D01*
X149880952Y-58705952D01*
X149880952Y-58563095D01*
X149857142Y-58515476D01*
X149833333Y-58491666D01*
X149785714Y-58467857D01*
X149690476Y-58467857D01*
X149642857Y-58491666D01*
X149404761Y-58801190D02*
X149404761Y-58467857D01*
X149404761Y-58301190D02*
X149428571Y-58325000D01*
X149404761Y-58348809D01*
X149380952Y-58325000D01*
X149404761Y-58301190D01*
X149404761Y-58348809D01*
X149190476Y-58777380D02*
X149142857Y-58801190D01*
X149047619Y-58801190D01*
X149000000Y-58777380D01*
X148976190Y-58729761D01*
X148976190Y-58705952D01*
X149000000Y-58658333D01*
X149047619Y-58634523D01*
X149119047Y-58634523D01*
X149166666Y-58610714D01*
X149190476Y-58563095D01*
X149190476Y-58539285D01*
X149166666Y-58491666D01*
X149119047Y-58467857D01*
X149047619Y-58467857D01*
X149000000Y-58491666D01*
X148547619Y-58801190D02*
X148547619Y-58539285D01*
X148571428Y-58491666D01*
X148619047Y-58467857D01*
X148714285Y-58467857D01*
X148761904Y-58491666D01*
X148547619Y-58777380D02*
X148595238Y-58801190D01*
X148714285Y-58801190D01*
X148761904Y-58777380D01*
X148785714Y-58729761D01*
X148785714Y-58682142D01*
X148761904Y-58634523D01*
X148714285Y-58610714D01*
X148595238Y-58610714D01*
X148547619Y-58586904D01*
X148309523Y-58801190D02*
X148309523Y-58301190D01*
X148309523Y-58491666D02*
X148261904Y-58467857D01*
X148166666Y-58467857D01*
X148119047Y-58491666D01*
X148095238Y-58515476D01*
X148071428Y-58563095D01*
X148071428Y-58705952D01*
X148095238Y-58753571D01*
X148119047Y-58777380D01*
X148166666Y-58801190D01*
X148261904Y-58801190D01*
X148309523Y-58777380D01*
X147785714Y-58801190D02*
X147833333Y-58777380D01*
X147857142Y-58729761D01*
X147857142Y-58301190D01*
X147404761Y-58777380D02*
X147452380Y-58801190D01*
X147547619Y-58801190D01*
X147595238Y-58777380D01*
X147619047Y-58729761D01*
X147619047Y-58539285D01*
X147595238Y-58491666D01*
X147547619Y-58467857D01*
X147452380Y-58467857D01*
X147404761Y-58491666D01*
X147380952Y-58539285D01*
X147380952Y-58586904D01*
X147619047Y-58634523D01*
X152047619Y-59317857D02*
X152047619Y-59817857D01*
X152047619Y-59341666D02*
X152000000Y-59317857D01*
X151904761Y-59317857D01*
X151857142Y-59341666D01*
X151833333Y-59365476D01*
X151809523Y-59413095D01*
X151809523Y-59555952D01*
X151833333Y-59603571D01*
X151857142Y-59627380D01*
X151904761Y-59651190D01*
X152000000Y-59651190D01*
X152047619Y-59627380D01*
X151380952Y-59651190D02*
X151380952Y-59389285D01*
X151404761Y-59341666D01*
X151452380Y-59317857D01*
X151547619Y-59317857D01*
X151595238Y-59341666D01*
X151380952Y-59627380D02*
X151428571Y-59651190D01*
X151547619Y-59651190D01*
X151595238Y-59627380D01*
X151619047Y-59579761D01*
X151619047Y-59532142D01*
X151595238Y-59484523D01*
X151547619Y-59460714D01*
X151428571Y-59460714D01*
X151380952Y-59436904D01*
X151142857Y-59317857D02*
X151142857Y-59651190D01*
X151142857Y-59365476D02*
X151119047Y-59341666D01*
X151071428Y-59317857D01*
X151000000Y-59317857D01*
X150952380Y-59341666D01*
X150928571Y-59389285D01*
X150928571Y-59651190D01*
X150500000Y-59627380D02*
X150547619Y-59651190D01*
X150642857Y-59651190D01*
X150690476Y-59627380D01*
X150714285Y-59579761D01*
X150714285Y-59389285D01*
X150690476Y-59341666D01*
X150642857Y-59317857D01*
X150547619Y-59317857D01*
X150500000Y-59341666D01*
X150476190Y-59389285D01*
X150476190Y-59436904D01*
X150714285Y-59484523D01*
X150190476Y-59651190D02*
X150238095Y-59627380D01*
X150261904Y-59579761D01*
X150261904Y-59151190D01*
X149666666Y-59317857D02*
X149571428Y-59651190D01*
X149476190Y-59413095D01*
X149380952Y-59651190D01*
X149285714Y-59317857D01*
X149095238Y-59651190D02*
X149095238Y-59317857D01*
X149095238Y-59151190D02*
X149119047Y-59175000D01*
X149095238Y-59198809D01*
X149071428Y-59175000D01*
X149095238Y-59151190D01*
X149095238Y-59198809D01*
X148857142Y-59651190D02*
X148857142Y-59317857D01*
X148857142Y-59413095D02*
X148833333Y-59365476D01*
X148809523Y-59341666D01*
X148761904Y-59317857D01*
X148714285Y-59317857D01*
X148357142Y-59627380D02*
X148404761Y-59651190D01*
X148500000Y-59651190D01*
X148547619Y-59627380D01*
X148571428Y-59579761D01*
X148571428Y-59389285D01*
X148547619Y-59341666D01*
X148500000Y-59317857D01*
X148404761Y-59317857D01*
X148357142Y-59341666D01*
X148333333Y-59389285D01*
X148333333Y-59436904D01*
X148571428Y-59484523D01*
X148142857Y-59627380D02*
X148095238Y-59651190D01*
X148000000Y-59651190D01*
X147952380Y-59627380D01*
X147928571Y-59579761D01*
X147928571Y-59555952D01*
X147952380Y-59508333D01*
X148000000Y-59484523D01*
X148071428Y-59484523D01*
X148119047Y-59460714D01*
X148142857Y-59413095D01*
X148142857Y-59389285D01*
X148119047Y-59341666D01*
X148071428Y-59317857D01*
X148000000Y-59317857D01*
X147952380Y-59341666D01*
D11*
X152500000Y-59000000D02*
X156000000Y-59000000D01*
%LPC*%
D10*
G04 #@! TO.C,J2*
G36*
X228549200Y-77241400D02*
G01*
X230886000Y-77241400D01*
X230886000Y-85229700D01*
X228549200Y-85229700D01*
X228549200Y-77241400D01*
G37*
X228549200Y-77241400D02*
X230886000Y-77241400D01*
X230886000Y-85229700D01*
X228549200Y-85229700D01*
X228549200Y-77241400D01*
G36*
X224599500Y-77241400D02*
G01*
X226936300Y-77241400D01*
X226936300Y-85229700D01*
X224599500Y-85229700D01*
X224599500Y-77241400D01*
G37*
X224599500Y-77241400D02*
X226936300Y-77241400D01*
X226936300Y-85229700D01*
X224599500Y-85229700D01*
X224599500Y-77241400D01*
G36*
X216674700Y-77241400D02*
G01*
X219011500Y-77241400D01*
X219011500Y-85229700D01*
X216674700Y-85229700D01*
X216674700Y-77241400D01*
G37*
X216674700Y-77241400D02*
X219011500Y-77241400D01*
X219011500Y-85229700D01*
X216674700Y-85229700D01*
X216674700Y-77241400D01*
G36*
X220624400Y-77241400D02*
G01*
X222961200Y-77241400D01*
X222961200Y-85229700D01*
X220624400Y-85229700D01*
X220624400Y-77241400D01*
G37*
X220624400Y-77241400D02*
X222961200Y-77241400D01*
X222961200Y-85229700D01*
X220624400Y-85229700D01*
X220624400Y-77241400D01*
G36*
X212712300Y-77241400D02*
G01*
X215049100Y-77241400D01*
X215049100Y-85229700D01*
X212712300Y-85229700D01*
X212712300Y-77241400D01*
G37*
X212712300Y-77241400D02*
X215049100Y-77241400D01*
X215049100Y-85229700D01*
X212712300Y-85229700D01*
X212712300Y-77241400D01*
G36*
X208762600Y-77241400D02*
G01*
X211099400Y-77241400D01*
X211099400Y-85229700D01*
X208762600Y-85229700D01*
X208762600Y-77241400D01*
G37*
X208762600Y-77241400D02*
X211099400Y-77241400D01*
X211099400Y-85229700D01*
X208762600Y-85229700D01*
X208762600Y-77241400D01*
G36*
X200825100Y-77228700D02*
G01*
X203161900Y-77228700D01*
X203161900Y-85217000D01*
X200825100Y-85217000D01*
X200825100Y-77228700D01*
G37*
X200825100Y-77228700D02*
X203161900Y-77228700D01*
X203161900Y-85217000D01*
X200825100Y-85217000D01*
X200825100Y-77228700D01*
G36*
X196875400Y-77228700D02*
G01*
X199212200Y-77228700D01*
X199212200Y-85217000D01*
X196875400Y-85217000D01*
X196875400Y-77228700D01*
G37*
X196875400Y-77228700D02*
X199212200Y-77228700D01*
X199212200Y-85217000D01*
X196875400Y-85217000D01*
X196875400Y-77228700D01*
G36*
X188950600Y-77228700D02*
G01*
X191287400Y-77228700D01*
X191287400Y-85217000D01*
X188950600Y-85217000D01*
X188950600Y-77228700D01*
G37*
X188950600Y-77228700D02*
X191287400Y-77228700D01*
X191287400Y-85217000D01*
X188950600Y-85217000D01*
X188950600Y-77228700D01*
G36*
X192900300Y-77228700D02*
G01*
X195237100Y-77228700D01*
X195237100Y-85217000D01*
X192900300Y-85217000D01*
X192900300Y-77228700D01*
G37*
X192900300Y-77228700D02*
X195237100Y-77228700D01*
X195237100Y-85217000D01*
X192900300Y-85217000D01*
X192900300Y-77228700D01*
G36*
X184988200Y-77228700D02*
G01*
X187325000Y-77228700D01*
X187325000Y-85217000D01*
X184988200Y-85217000D01*
X184988200Y-77228700D01*
G37*
X184988200Y-77228700D02*
X187325000Y-77228700D01*
X187325000Y-85217000D01*
X184988200Y-85217000D01*
X184988200Y-77228700D01*
G36*
X181038500Y-77228700D02*
G01*
X183375300Y-77228700D01*
X183375300Y-85217000D01*
X181038500Y-85217000D01*
X181038500Y-77228700D01*
G37*
X181038500Y-77228700D02*
X183375300Y-77228700D01*
X183375300Y-85217000D01*
X181038500Y-85217000D01*
X181038500Y-77228700D01*
G36*
X177076100Y-77241400D02*
G01*
X179412900Y-77241400D01*
X179412900Y-85229700D01*
X177076100Y-85229700D01*
X177076100Y-77241400D01*
G37*
X177076100Y-77241400D02*
X179412900Y-77241400D01*
X179412900Y-85229700D01*
X177076100Y-85229700D01*
X177076100Y-77241400D01*
G36*
X165201600Y-77241400D02*
G01*
X167538400Y-77241400D01*
X167538400Y-85229700D01*
X165201600Y-85229700D01*
X165201600Y-77241400D01*
G37*
X165201600Y-77241400D02*
X167538400Y-77241400D01*
X167538400Y-85229700D01*
X165201600Y-85229700D01*
X165201600Y-77241400D01*
G36*
X169151300Y-77241400D02*
G01*
X171488100Y-77241400D01*
X171488100Y-85229700D01*
X169151300Y-85229700D01*
X169151300Y-77241400D01*
G37*
X169151300Y-77241400D02*
X171488100Y-77241400D01*
X171488100Y-85229700D01*
X169151300Y-85229700D01*
X169151300Y-77241400D01*
G36*
X157289500Y-77241400D02*
G01*
X159626300Y-77241400D01*
X159626300Y-85229700D01*
X157289500Y-85229700D01*
X157289500Y-77241400D01*
G37*
X157289500Y-77241400D02*
X159626300Y-77241400D01*
X159626300Y-85229700D01*
X157289500Y-85229700D01*
X157289500Y-77241400D01*
G36*
X161239200Y-77241400D02*
G01*
X163576000Y-77241400D01*
X163576000Y-85229700D01*
X161239200Y-85229700D01*
X161239200Y-77241400D01*
G37*
X161239200Y-77241400D02*
X163576000Y-77241400D01*
X163576000Y-85229700D01*
X161239200Y-85229700D01*
X161239200Y-77241400D01*
G36*
X173126400Y-77241400D02*
G01*
X175463200Y-77241400D01*
X175463200Y-85229700D01*
X173126400Y-85229700D01*
X173126400Y-77241400D01*
G37*
X173126400Y-77241400D02*
X175463200Y-77241400D01*
X175463200Y-85229700D01*
X173126400Y-85229700D01*
X173126400Y-77241400D01*
G36*
X153289000Y-77241400D02*
G01*
X155625800Y-77241400D01*
X155625800Y-85229700D01*
X153289000Y-85229700D01*
X153289000Y-77241400D01*
G37*
X153289000Y-77241400D02*
X155625800Y-77241400D01*
X155625800Y-85229700D01*
X153289000Y-85229700D01*
X153289000Y-77241400D01*
G36*
X145376900Y-77241400D02*
G01*
X147713700Y-77241400D01*
X147713700Y-85229700D01*
X145376900Y-85229700D01*
X145376900Y-77241400D01*
G37*
X145376900Y-77241400D02*
X147713700Y-77241400D01*
X147713700Y-85229700D01*
X145376900Y-85229700D01*
X145376900Y-77241400D01*
G36*
X149326600Y-77241400D02*
G01*
X151663400Y-77241400D01*
X151663400Y-85229700D01*
X149326600Y-85229700D01*
X149326600Y-77241400D01*
G37*
X149326600Y-77241400D02*
X151663400Y-77241400D01*
X151663400Y-85229700D01*
X149326600Y-85229700D01*
X149326600Y-77241400D01*
G36*
X125577600Y-77254100D02*
G01*
X127914400Y-77254100D01*
X127914400Y-85242400D01*
X125577600Y-85242400D01*
X125577600Y-77254100D01*
G37*
X125577600Y-77254100D02*
X127914400Y-77254100D01*
X127914400Y-85242400D01*
X125577600Y-85242400D01*
X125577600Y-77254100D01*
G36*
X133489700Y-77254100D02*
G01*
X135826500Y-77254100D01*
X135826500Y-85242400D01*
X133489700Y-85242400D01*
X133489700Y-77254100D01*
G37*
X133489700Y-77254100D02*
X135826500Y-77254100D01*
X135826500Y-85242400D01*
X133489700Y-85242400D01*
X133489700Y-77254100D01*
G36*
X137464800Y-77254100D02*
G01*
X139801600Y-77254100D01*
X139801600Y-85242400D01*
X137464800Y-85242400D01*
X137464800Y-77254100D01*
G37*
X137464800Y-77254100D02*
X139801600Y-77254100D01*
X139801600Y-85242400D01*
X137464800Y-85242400D01*
X137464800Y-77254100D01*
G36*
X141414500Y-77254100D02*
G01*
X143751300Y-77254100D01*
X143751300Y-85242400D01*
X141414500Y-85242400D01*
X141414500Y-77254100D01*
G37*
X141414500Y-77254100D02*
X143751300Y-77254100D01*
X143751300Y-85242400D01*
X141414500Y-85242400D01*
X141414500Y-77254100D01*
G36*
X129540000Y-77254100D02*
G01*
X131876800Y-77254100D01*
X131876800Y-85242400D01*
X129540000Y-85242400D01*
X129540000Y-77254100D01*
G37*
X129540000Y-77254100D02*
X131876800Y-77254100D01*
X131876800Y-85242400D01*
X129540000Y-85242400D01*
X129540000Y-77254100D01*
G36*
X121627900Y-77254100D02*
G01*
X123964700Y-77254100D01*
X123964700Y-85242400D01*
X121627900Y-85242400D01*
X121627900Y-77254100D01*
G37*
X121627900Y-77254100D02*
X123964700Y-77254100D01*
X123964700Y-85242400D01*
X121627900Y-85242400D01*
X121627900Y-77254100D01*
G36*
X204835760Y-77243940D02*
G01*
X207172560Y-77243940D01*
X207172560Y-85232240D01*
X204835760Y-85232240D01*
X204835760Y-77243940D01*
G37*
X204835760Y-77243940D02*
X207172560Y-77243940D01*
X207172560Y-85232240D01*
X204835760Y-85232240D01*
X204835760Y-77243940D01*
G04 #@! TO.C,J1*
G36*
X228549200Y-48031400D02*
G01*
X230886000Y-48031400D01*
X230886000Y-56019700D01*
X228549200Y-56019700D01*
X228549200Y-48031400D01*
G37*
X228549200Y-48031400D02*
X230886000Y-48031400D01*
X230886000Y-56019700D01*
X228549200Y-56019700D01*
X228549200Y-48031400D01*
G36*
X224599500Y-48031400D02*
G01*
X226936300Y-48031400D01*
X226936300Y-56019700D01*
X224599500Y-56019700D01*
X224599500Y-48031400D01*
G37*
X224599500Y-48031400D02*
X226936300Y-48031400D01*
X226936300Y-56019700D01*
X224599500Y-56019700D01*
X224599500Y-48031400D01*
G36*
X216674700Y-48031400D02*
G01*
X219011500Y-48031400D01*
X219011500Y-56019700D01*
X216674700Y-56019700D01*
X216674700Y-48031400D01*
G37*
X216674700Y-48031400D02*
X219011500Y-48031400D01*
X219011500Y-56019700D01*
X216674700Y-56019700D01*
X216674700Y-48031400D01*
G36*
X220624400Y-48031400D02*
G01*
X222961200Y-48031400D01*
X222961200Y-56019700D01*
X220624400Y-56019700D01*
X220624400Y-48031400D01*
G37*
X220624400Y-48031400D02*
X222961200Y-48031400D01*
X222961200Y-56019700D01*
X220624400Y-56019700D01*
X220624400Y-48031400D01*
G36*
X212712300Y-48031400D02*
G01*
X215049100Y-48031400D01*
X215049100Y-56019700D01*
X212712300Y-56019700D01*
X212712300Y-48031400D01*
G37*
X212712300Y-48031400D02*
X215049100Y-48031400D01*
X215049100Y-56019700D01*
X212712300Y-56019700D01*
X212712300Y-48031400D01*
G36*
X208762600Y-48031400D02*
G01*
X211099400Y-48031400D01*
X211099400Y-56019700D01*
X208762600Y-56019700D01*
X208762600Y-48031400D01*
G37*
X208762600Y-48031400D02*
X211099400Y-48031400D01*
X211099400Y-56019700D01*
X208762600Y-56019700D01*
X208762600Y-48031400D01*
G36*
X200825100Y-48018700D02*
G01*
X203161900Y-48018700D01*
X203161900Y-56007000D01*
X200825100Y-56007000D01*
X200825100Y-48018700D01*
G37*
X200825100Y-48018700D02*
X203161900Y-48018700D01*
X203161900Y-56007000D01*
X200825100Y-56007000D01*
X200825100Y-48018700D01*
G36*
X196875400Y-48018700D02*
G01*
X199212200Y-48018700D01*
X199212200Y-56007000D01*
X196875400Y-56007000D01*
X196875400Y-48018700D01*
G37*
X196875400Y-48018700D02*
X199212200Y-48018700D01*
X199212200Y-56007000D01*
X196875400Y-56007000D01*
X196875400Y-48018700D01*
G36*
X188950600Y-48018700D02*
G01*
X191287400Y-48018700D01*
X191287400Y-56007000D01*
X188950600Y-56007000D01*
X188950600Y-48018700D01*
G37*
X188950600Y-48018700D02*
X191287400Y-48018700D01*
X191287400Y-56007000D01*
X188950600Y-56007000D01*
X188950600Y-48018700D01*
G36*
X192900300Y-48018700D02*
G01*
X195237100Y-48018700D01*
X195237100Y-56007000D01*
X192900300Y-56007000D01*
X192900300Y-48018700D01*
G37*
X192900300Y-48018700D02*
X195237100Y-48018700D01*
X195237100Y-56007000D01*
X192900300Y-56007000D01*
X192900300Y-48018700D01*
G36*
X184988200Y-48018700D02*
G01*
X187325000Y-48018700D01*
X187325000Y-56007000D01*
X184988200Y-56007000D01*
X184988200Y-48018700D01*
G37*
X184988200Y-48018700D02*
X187325000Y-48018700D01*
X187325000Y-56007000D01*
X184988200Y-56007000D01*
X184988200Y-48018700D01*
G36*
X181038500Y-48018700D02*
G01*
X183375300Y-48018700D01*
X183375300Y-56007000D01*
X181038500Y-56007000D01*
X181038500Y-48018700D01*
G37*
X181038500Y-48018700D02*
X183375300Y-48018700D01*
X183375300Y-56007000D01*
X181038500Y-56007000D01*
X181038500Y-48018700D01*
G36*
X177076100Y-48031400D02*
G01*
X179412900Y-48031400D01*
X179412900Y-56019700D01*
X177076100Y-56019700D01*
X177076100Y-48031400D01*
G37*
X177076100Y-48031400D02*
X179412900Y-48031400D01*
X179412900Y-56019700D01*
X177076100Y-56019700D01*
X177076100Y-48031400D01*
G36*
X165201600Y-48031400D02*
G01*
X167538400Y-48031400D01*
X167538400Y-56019700D01*
X165201600Y-56019700D01*
X165201600Y-48031400D01*
G37*
X165201600Y-48031400D02*
X167538400Y-48031400D01*
X167538400Y-56019700D01*
X165201600Y-56019700D01*
X165201600Y-48031400D01*
G36*
X169151300Y-48031400D02*
G01*
X171488100Y-48031400D01*
X171488100Y-56019700D01*
X169151300Y-56019700D01*
X169151300Y-48031400D01*
G37*
X169151300Y-48031400D02*
X171488100Y-48031400D01*
X171488100Y-56019700D01*
X169151300Y-56019700D01*
X169151300Y-48031400D01*
G36*
X157289500Y-48031400D02*
G01*
X159626300Y-48031400D01*
X159626300Y-56019700D01*
X157289500Y-56019700D01*
X157289500Y-48031400D01*
G37*
X157289500Y-48031400D02*
X159626300Y-48031400D01*
X159626300Y-56019700D01*
X157289500Y-56019700D01*
X157289500Y-48031400D01*
G36*
X161239200Y-48031400D02*
G01*
X163576000Y-48031400D01*
X163576000Y-56019700D01*
X161239200Y-56019700D01*
X161239200Y-48031400D01*
G37*
X161239200Y-48031400D02*
X163576000Y-48031400D01*
X163576000Y-56019700D01*
X161239200Y-56019700D01*
X161239200Y-48031400D01*
G36*
X173126400Y-48031400D02*
G01*
X175463200Y-48031400D01*
X175463200Y-56019700D01*
X173126400Y-56019700D01*
X173126400Y-48031400D01*
G37*
X173126400Y-48031400D02*
X175463200Y-48031400D01*
X175463200Y-56019700D01*
X173126400Y-56019700D01*
X173126400Y-48031400D01*
G36*
X153289000Y-48031400D02*
G01*
X155625800Y-48031400D01*
X155625800Y-56019700D01*
X153289000Y-56019700D01*
X153289000Y-48031400D01*
G37*
X153289000Y-48031400D02*
X155625800Y-48031400D01*
X155625800Y-56019700D01*
X153289000Y-56019700D01*
X153289000Y-48031400D01*
G36*
X145376900Y-48031400D02*
G01*
X147713700Y-48031400D01*
X147713700Y-56019700D01*
X145376900Y-56019700D01*
X145376900Y-48031400D01*
G37*
X145376900Y-48031400D02*
X147713700Y-48031400D01*
X147713700Y-56019700D01*
X145376900Y-56019700D01*
X145376900Y-48031400D01*
G36*
X149326600Y-48031400D02*
G01*
X151663400Y-48031400D01*
X151663400Y-56019700D01*
X149326600Y-56019700D01*
X149326600Y-48031400D01*
G37*
X149326600Y-48031400D02*
X151663400Y-48031400D01*
X151663400Y-56019700D01*
X149326600Y-56019700D01*
X149326600Y-48031400D01*
G36*
X125577600Y-48044100D02*
G01*
X127914400Y-48044100D01*
X127914400Y-56032400D01*
X125577600Y-56032400D01*
X125577600Y-48044100D01*
G37*
X125577600Y-48044100D02*
X127914400Y-48044100D01*
X127914400Y-56032400D01*
X125577600Y-56032400D01*
X125577600Y-48044100D01*
G36*
X133489700Y-48044100D02*
G01*
X135826500Y-48044100D01*
X135826500Y-56032400D01*
X133489700Y-56032400D01*
X133489700Y-48044100D01*
G37*
X133489700Y-48044100D02*
X135826500Y-48044100D01*
X135826500Y-56032400D01*
X133489700Y-56032400D01*
X133489700Y-48044100D01*
G36*
X137464800Y-48044100D02*
G01*
X139801600Y-48044100D01*
X139801600Y-56032400D01*
X137464800Y-56032400D01*
X137464800Y-48044100D01*
G37*
X137464800Y-48044100D02*
X139801600Y-48044100D01*
X139801600Y-56032400D01*
X137464800Y-56032400D01*
X137464800Y-48044100D01*
G36*
X141414500Y-48044100D02*
G01*
X143751300Y-48044100D01*
X143751300Y-56032400D01*
X141414500Y-56032400D01*
X141414500Y-48044100D01*
G37*
X141414500Y-48044100D02*
X143751300Y-48044100D01*
X143751300Y-56032400D01*
X141414500Y-56032400D01*
X141414500Y-48044100D01*
G36*
X129540000Y-48044100D02*
G01*
X131876800Y-48044100D01*
X131876800Y-56032400D01*
X129540000Y-56032400D01*
X129540000Y-48044100D01*
G37*
X129540000Y-48044100D02*
X131876800Y-48044100D01*
X131876800Y-56032400D01*
X129540000Y-56032400D01*
X129540000Y-48044100D01*
G36*
X121627900Y-48044100D02*
G01*
X123964700Y-48044100D01*
X123964700Y-56032400D01*
X121627900Y-56032400D01*
X121627900Y-48044100D01*
G37*
X121627900Y-48044100D02*
X123964700Y-48044100D01*
X123964700Y-56032400D01*
X121627900Y-56032400D01*
X121627900Y-48044100D01*
G04 #@! TD*
D12*
G04 #@! TO.C,J3*
X224060000Y-72960000D03*
X224060000Y-70960000D03*
X224060000Y-68960000D03*
X224060000Y-66960000D03*
X224060000Y-64960000D03*
X224060000Y-62960000D03*
X224060000Y-60960000D03*
X226060000Y-72960000D03*
X226060000Y-70960000D03*
X226060000Y-68960000D03*
X226060000Y-66960000D03*
X226060000Y-64960000D03*
X226060000Y-62960000D03*
G36*
G01*
X225709999Y-60360000D02*
X226410001Y-60360000D01*
G75*
G02*
X226660000Y-60609999I0J-249999D01*
G01*
X226660000Y-61310001D01*
G75*
G02*
X226410001Y-61560000I-249999J0D01*
G01*
X225709999Y-61560000D01*
G75*
G02*
X225460000Y-61310001I0J249999D01*
G01*
X225460000Y-60609999D01*
G75*
G02*
X225709999Y-60360000I249999J0D01*
G01*
G37*
G04 #@! TD*
M02*
