G04 #@! TF.GenerationSoftware,KiCad,Pcbnew,(5.1.10)-1*
G04 #@! TF.CreationDate,2021-12-14T16:32:22+01:00*
G04 #@! TF.ProjectId,jamma_mahjong,6a616d6d-615f-46d6-9168-6a6f6e672e6b,rev?*
G04 #@! TF.SameCoordinates,Original*
G04 #@! TF.FileFunction,Copper,L1,Top*
G04 #@! TF.FilePolarity,Positive*
%FSLAX46Y46*%
G04 Gerber Fmt 4.6, Leading zero omitted, Abs format (unit mm)*
G04 Created by KiCad (PCBNEW (5.1.10)-1) date 2021-12-14 16:32:22*
%MOMM*%
%LPD*%
G01*
G04 APERTURE LIST*
G04 #@! TA.AperFunction,ComponentPad*
%ADD10C,1.200000*%
G04 #@! TD*
G04 #@! TA.AperFunction,SMDPad,CuDef*
%ADD11R,2.350000X8.000000*%
G04 #@! TD*
G04 #@! TA.AperFunction,ViaPad*
%ADD12C,0.800000*%
G04 #@! TD*
G04 #@! TA.AperFunction,Conductor*
%ADD13C,2.000000*%
G04 #@! TD*
G04 #@! TA.AperFunction,Conductor*
%ADD14C,1.500000*%
G04 #@! TD*
G04 #@! TA.AperFunction,Conductor*
%ADD15C,0.250000*%
G04 #@! TD*
G04 APERTURE END LIST*
D10*
G04 #@! TO.P,J3,14*
G04 #@! TO.N,KEY5-1*
X224060000Y-72960000D03*
G04 #@! TO.P,J3,12*
G04 #@! TO.N,KEY4-11*
X224060000Y-70960000D03*
G04 #@! TO.P,J3,10*
G04 #@! TO.N,KEY3-9*
X224060000Y-68960000D03*
G04 #@! TO.P,J3,8*
G04 #@! TO.N,KEY2-8*
X224060000Y-66960000D03*
G04 #@! TO.P,J3,6*
G04 #@! TO.N,KEY1-5*
X224060000Y-64960000D03*
G04 #@! TO.P,J3,4*
G04 #@! TO.N,KEY0-4*
X224060000Y-62960000D03*
G04 #@! TO.P,J3,2*
G04 #@! TO.N,GND*
X224060000Y-60960000D03*
G04 #@! TO.P,J3,13*
G04 #@! TO.N,COM4-7*
X226060000Y-72960000D03*
G04 #@! TO.P,J3,11*
G04 #@! TO.N,COM3-10*
X226060000Y-70960000D03*
G04 #@! TO.P,J3,9*
G04 #@! TO.N,COM2-6*
X226060000Y-68960000D03*
G04 #@! TO.P,J3,7*
G04 #@! TO.N,COM1-2*
X226060000Y-66960000D03*
G04 #@! TO.P,J3,5*
G04 #@! TO.N,COM0-3*
X226060000Y-64960000D03*
G04 #@! TO.P,J3,3*
G04 #@! TO.N,COIN*
X226060000Y-62960000D03*
G04 #@! TO.P,J3,1*
G04 #@! TO.N,5V*
G04 #@! TA.AperFunction,ComponentPad*
G36*
G01*
X225709999Y-60360000D02*
X226410001Y-60360000D01*
G75*
G02*
X226660000Y-60609999I0J-249999D01*
G01*
X226660000Y-61310001D01*
G75*
G02*
X226410001Y-61560000I-249999J0D01*
G01*
X225709999Y-61560000D01*
G75*
G02*
X225460000Y-61310001I0J249999D01*
G01*
X225460000Y-60609999D01*
G75*
G02*
X225709999Y-60360000I249999J0D01*
G01*
G37*
G04 #@! TD.AperFunction*
G04 #@! TD*
D11*
G04 #@! TO.P,J2,7*
G04 #@! TO.N,TEST*
X205993160Y-81232540D03*
G04 #@! TO.P,J2,19*
G04 #@! TO.N,GND*
X158440000Y-81230000D03*
G04 #@! TO.P,J2,20*
X154480000Y-81230000D03*
G04 #@! TO.P,J2,6*
G04 #@! TO.N,Net-(J2-Pad6)*
X209920000Y-81230000D03*
G04 #@! TO.P,J2,8*
G04 #@! TO.N,GREEN*
X202000000Y-81230000D03*
G04 #@! TO.P,J2,11*
G04 #@! TO.N,Net-(J2-Pad11)*
X190120000Y-81230000D03*
G04 #@! TO.P,J2,13*
G04 #@! TO.N,Net-(J2-Pad13)*
X182200000Y-81230000D03*
G04 #@! TO.P,J2,1*
G04 #@! TO.N,COM1-2*
X229720000Y-81230000D03*
G04 #@! TO.P,J2,2*
G04 #@! TO.N,COM3-10*
X225760000Y-81230000D03*
G04 #@! TO.P,J2,3*
G04 #@! TO.N,Net-(J2-Pad3)*
X221800000Y-81230000D03*
G04 #@! TO.P,J2,4*
G04 #@! TO.N,Net-(J2-Pad4)*
X217840000Y-81230000D03*
G04 #@! TO.P,J2,9*
G04 #@! TO.N,SYNC*
X198040000Y-81230000D03*
G04 #@! TO.P,J2,10*
G04 #@! TO.N,SPK-*
X194080000Y-81230000D03*
G04 #@! TO.P,J2,14*
G04 #@! TO.N,Net-(J2-Pad14)*
X178240000Y-81230000D03*
G04 #@! TO.P,J2,15*
G04 #@! TO.N,Net-(J2-Pad15)*
X174280000Y-81230000D03*
G04 #@! TO.P,J2,5*
G04 #@! TO.N,GND*
X213880000Y-81230000D03*
G04 #@! TO.P,J2,12*
G04 #@! TO.N,Net-(J2-Pad12)*
X186160000Y-81230000D03*
G04 #@! TO.P,J2,16*
G04 #@! TO.N,Net-(J2-Pad16)*
X170320000Y-81230000D03*
G04 #@! TO.P,J2,17*
G04 #@! TO.N,COIN*
X166360000Y-81230000D03*
G04 #@! TO.P,J2,18*
G04 #@! TO.N,Net-(J2-Pad18)*
X162400000Y-81230000D03*
G04 #@! TO.P,J2,21*
G04 #@! TO.N,5V*
X150520000Y-81230000D03*
G04 #@! TO.P,J2,26*
X130720000Y-81230000D03*
G04 #@! TO.P,J2,25*
X134680000Y-81230000D03*
G04 #@! TO.P,J2,23*
G04 #@! TO.N,12V*
X142600000Y-81230000D03*
G04 #@! TO.P,J2,27*
G04 #@! TO.N,GND*
X126760000Y-81230000D03*
G04 #@! TO.P,J2,22*
G04 #@! TO.N,5V*
X146560000Y-81230000D03*
G04 #@! TO.P,J2,28*
G04 #@! TO.N,GND*
X122800000Y-81230000D03*
G04 #@! TO.P,J2,24*
G04 #@! TO.N,Net-(J2-Pad24)*
X138640000Y-81230000D03*
G04 #@! TO.P,J2,28*
G04 #@! TO.N,GND*
X122800000Y-81230000D03*
G04 #@! TO.P,J2,27*
X126760000Y-81230000D03*
G04 #@! TO.P,J2,26*
G04 #@! TO.N,5V*
X130720000Y-81230000D03*
G04 #@! TO.P,J2,25*
X134680000Y-81230000D03*
G04 #@! TO.P,J2,24*
G04 #@! TO.N,Net-(J2-Pad24)*
X138640000Y-81230000D03*
G04 #@! TO.P,J2,23*
G04 #@! TO.N,12V*
X142600000Y-81230000D03*
G04 #@! TO.P,J2,22*
G04 #@! TO.N,5V*
X146560000Y-81230000D03*
G04 #@! TO.P,J2,21*
X150520000Y-81230000D03*
G04 #@! TO.P,J2,20*
G04 #@! TO.N,GND*
X154480000Y-81230000D03*
G04 #@! TO.P,J2,19*
X158440000Y-81230000D03*
G04 #@! TO.P,J2,18*
G04 #@! TO.N,Net-(J2-Pad18)*
X162400000Y-81230000D03*
G04 #@! TO.P,J2,17*
G04 #@! TO.N,COIN*
X166360000Y-81230000D03*
G04 #@! TO.P,J2,16*
G04 #@! TO.N,Net-(J2-Pad16)*
X170320000Y-81230000D03*
G04 #@! TO.P,J2,15*
G04 #@! TO.N,Net-(J2-Pad15)*
X174280000Y-81230000D03*
G04 #@! TO.P,J2,14*
G04 #@! TO.N,Net-(J2-Pad14)*
X178240000Y-81230000D03*
G04 #@! TO.P,J2,13*
G04 #@! TO.N,Net-(J2-Pad13)*
X182200000Y-81230000D03*
G04 #@! TO.P,J2,12*
G04 #@! TO.N,Net-(J2-Pad12)*
X186160000Y-81230000D03*
G04 #@! TO.P,J2,11*
G04 #@! TO.N,Net-(J2-Pad11)*
X190120000Y-81230000D03*
G04 #@! TO.P,J2,10*
G04 #@! TO.N,SPK-*
X194080000Y-81230000D03*
G04 #@! TO.P,J2,9*
G04 #@! TO.N,SYNC*
X198040000Y-81230000D03*
G04 #@! TO.P,J2,8*
G04 #@! TO.N,GREEN*
X202000000Y-81230000D03*
G04 #@! TO.P,J2,6*
G04 #@! TO.N,Net-(J2-Pad6)*
X209920000Y-81230000D03*
G04 #@! TO.P,J2,5*
G04 #@! TO.N,GND*
X213880000Y-81230000D03*
G04 #@! TO.P,J2,4*
G04 #@! TO.N,Net-(J2-Pad4)*
X217840000Y-81230000D03*
G04 #@! TO.P,J2,3*
G04 #@! TO.N,Net-(J2-Pad3)*
X221800000Y-81230000D03*
G04 #@! TO.P,J2,2*
G04 #@! TO.N,COM3-10*
X225760000Y-81230000D03*
G04 #@! TO.P,J2,1*
G04 #@! TO.N,COM1-2*
X229720000Y-81230000D03*
G04 #@! TD*
G04 #@! TO.P,J1,19*
G04 #@! TO.N,COM1-2*
X158440000Y-52020000D03*
G04 #@! TO.P,J1,20*
G04 #@! TO.N,COM2-6*
X154480000Y-52020000D03*
G04 #@! TO.P,J1,6*
G04 #@! TO.N,12V*
X209920000Y-52020000D03*
G04 #@! TO.P,J1,8*
G04 #@! TO.N,Net-(J1-Pad8)*
X202000000Y-52020000D03*
G04 #@! TO.P,J1,11*
G04 #@! TO.N,Net-(J1-Pad11)*
X190120000Y-52020000D03*
G04 #@! TO.P,J1,13*
G04 #@! TO.N,BLUE*
X182200000Y-52020000D03*
G04 #@! TO.P,J1,1*
G04 #@! TO.N,GND*
X229720000Y-52020000D03*
G04 #@! TO.P,J1,2*
X225760000Y-52020000D03*
G04 #@! TO.P,J1,3*
G04 #@! TO.N,5V*
X221800000Y-52020000D03*
G04 #@! TO.P,J1,4*
X217840000Y-52020000D03*
G04 #@! TO.P,J1,9*
G04 #@! TO.N,Net-(J1-Pad9)*
X198040000Y-52020000D03*
G04 #@! TO.P,J1,10*
G04 #@! TO.N,SPK+*
X194080000Y-52020000D03*
G04 #@! TO.P,J1,14*
G04 #@! TO.N,Net-(J1-Pad14)*
X178240000Y-52020000D03*
G04 #@! TO.P,J1,15*
G04 #@! TO.N,TEST*
X174280000Y-52020000D03*
G04 #@! TO.P,J1,5*
G04 #@! TO.N,-5V*
X213880000Y-52020000D03*
G04 #@! TO.P,J1,12*
G04 #@! TO.N,RED*
X186160000Y-52020000D03*
G04 #@! TO.P,J1,16*
G04 #@! TO.N,COIN*
X170320000Y-52020000D03*
G04 #@! TO.P,J1,17*
G04 #@! TO.N,Net-(J1-Pad17)*
X166360000Y-52020000D03*
G04 #@! TO.P,J1,18*
G04 #@! TO.N,COM0-3*
X162400000Y-52020000D03*
G04 #@! TO.P,J1,21*
G04 #@! TO.N,COM3-10*
X150520000Y-52020000D03*
G04 #@! TO.P,J1,26*
G04 #@! TO.N,Net-(J1-Pad26)*
X130720000Y-52020000D03*
G04 #@! TO.P,J1,25*
G04 #@! TO.N,Net-(J1-Pad25)*
X134680000Y-52020000D03*
G04 #@! TO.P,J1,23*
G04 #@! TO.N,Net-(J1-Pad23)*
X142600000Y-52020000D03*
G04 #@! TO.P,J1,27*
G04 #@! TO.N,GND*
X126760000Y-52020000D03*
G04 #@! TO.P,J1,22*
G04 #@! TO.N,COM4-7*
X146560000Y-52020000D03*
G04 #@! TO.P,J1,28*
G04 #@! TO.N,GND*
X122800000Y-52020000D03*
G04 #@! TO.P,J1,24*
G04 #@! TO.N,Net-(J1-Pad24)*
X138640000Y-52020000D03*
G04 #@! TO.P,J1,28*
G04 #@! TO.N,GND*
X122800000Y-52020000D03*
G04 #@! TO.P,J1,27*
X126760000Y-52020000D03*
G04 #@! TO.P,J1,26*
G04 #@! TO.N,Net-(J1-Pad26)*
X130720000Y-52020000D03*
G04 #@! TO.P,J1,25*
G04 #@! TO.N,Net-(J1-Pad25)*
X134680000Y-52020000D03*
G04 #@! TO.P,J1,24*
G04 #@! TO.N,Net-(J1-Pad24)*
X138640000Y-52020000D03*
G04 #@! TO.P,J1,23*
G04 #@! TO.N,Net-(J1-Pad23)*
X142600000Y-52020000D03*
G04 #@! TO.P,J1,22*
G04 #@! TO.N,COM4-7*
X146560000Y-52020000D03*
G04 #@! TO.P,J1,21*
G04 #@! TO.N,COM3-10*
X150520000Y-52020000D03*
G04 #@! TO.P,J1,20*
G04 #@! TO.N,COM2-6*
X154480000Y-52020000D03*
G04 #@! TO.P,J1,19*
G04 #@! TO.N,COM1-2*
X158440000Y-52020000D03*
G04 #@! TO.P,J1,18*
G04 #@! TO.N,COM0-3*
X162400000Y-52020000D03*
G04 #@! TO.P,J1,17*
G04 #@! TO.N,Net-(J1-Pad17)*
X166360000Y-52020000D03*
G04 #@! TO.P,J1,16*
G04 #@! TO.N,COIN*
X170320000Y-52020000D03*
G04 #@! TO.P,J1,15*
G04 #@! TO.N,TEST*
X174280000Y-52020000D03*
G04 #@! TO.P,J1,14*
G04 #@! TO.N,Net-(J1-Pad14)*
X178240000Y-52020000D03*
G04 #@! TO.P,J1,13*
G04 #@! TO.N,BLUE*
X182200000Y-52020000D03*
G04 #@! TO.P,J1,12*
G04 #@! TO.N,RED*
X186160000Y-52020000D03*
G04 #@! TO.P,J1,11*
G04 #@! TO.N,Net-(J1-Pad11)*
X190120000Y-52020000D03*
G04 #@! TO.P,J1,10*
G04 #@! TO.N,SPK+*
X194080000Y-52020000D03*
G04 #@! TO.P,J1,9*
G04 #@! TO.N,Net-(J1-Pad9)*
X198040000Y-52020000D03*
G04 #@! TO.P,J1,8*
G04 #@! TO.N,Net-(J1-Pad8)*
X202000000Y-52020000D03*
G04 #@! TO.P,J1,6*
G04 #@! TO.N,12V*
X209920000Y-52020000D03*
G04 #@! TO.P,J1,5*
G04 #@! TO.N,-5V*
X213880000Y-52020000D03*
G04 #@! TO.P,J1,4*
G04 #@! TO.N,5V*
X217840000Y-52020000D03*
G04 #@! TO.P,J1,3*
X221800000Y-52020000D03*
G04 #@! TO.P,J1,2*
G04 #@! TO.N,GND*
X225760000Y-52020000D03*
G04 #@! TO.P,J1,1*
X229720000Y-52020000D03*
G04 #@! TD*
D12*
G04 #@! TO.N,12V*
X209923091Y-59607040D03*
X166981081Y-63476980D03*
X161313020Y-63476980D03*
X163853020Y-63476980D03*
X208197040Y-59607040D03*
G04 #@! TO.N,GND*
X156210000Y-71120000D03*
X126760000Y-73900000D03*
X126760000Y-58660000D03*
X122800000Y-58810000D03*
X122800000Y-74050000D03*
X126760000Y-70090000D03*
X126760000Y-63740000D03*
X122800000Y-63890000D03*
X122800000Y-70240000D03*
X213880000Y-73140000D03*
X158440000Y-75240000D03*
X154480000Y-75390000D03*
X213880000Y-74410000D03*
X154622500Y-72707500D03*
X157797500Y-72707500D03*
X229720000Y-59205000D03*
X229720000Y-57935000D03*
G04 #@! TO.N,5V*
X149860000Y-73660000D03*
X147320000Y-74930000D03*
X135890000Y-73660000D03*
X130810000Y-73660000D03*
X134680000Y-74870000D03*
X130810000Y-74930000D03*
X146560000Y-75690000D03*
X150520000Y-74905000D03*
X219075000Y-59055000D03*
X217840000Y-57820000D03*
G04 #@! TO.N,BLUE*
X197861835Y-69117645D03*
X196325703Y-68469297D03*
G04 #@! TO.N,SPK+*
X191770000Y-59055000D03*
X191770000Y-57785000D03*
G04 #@! TO.N,TEST*
X189829649Y-73458922D03*
X189921591Y-61292473D03*
G04 #@! TO.N,RED*
X200660000Y-64770000D03*
X199390000Y-63500000D03*
G04 #@! TO.N,COIN*
X214630000Y-58420000D03*
X171626430Y-57697278D03*
G04 #@! TO.N,GREEN*
X187796231Y-66016595D03*
X186337182Y-66031041D03*
G04 #@! TO.N,COM1-2*
X154961734Y-65130971D03*
G04 #@! TO.N,COM3-10*
X152702700Y-63133097D03*
G04 #@! TO.N,SYNC*
X184150000Y-71120000D03*
X185420000Y-71120000D03*
G04 #@! TO.N,SPK-*
X195580000Y-73660000D03*
X195580000Y-74930000D03*
G04 #@! TO.N,SERVICE*
X189748069Y-59853333D03*
X209550000Y-63500000D03*
G04 #@! TO.N,COM4-7*
X151840872Y-61892587D03*
G04 #@! TO.N,KEY2-8*
X182592678Y-75113073D03*
G04 #@! TO.N,KEY4-11*
X174242060Y-75193495D03*
G04 #@! TO.N,KEY0-4*
X190443096Y-75437173D03*
G04 #@! TO.N,KEY5-1*
X170405561Y-74877300D03*
G04 #@! TO.N,KEY1-5*
X186914009Y-75365151D03*
G04 #@! TO.N,COM2-6*
X154000000Y-64000000D03*
G04 #@! TO.N,COM0-3*
X156241419Y-64099389D03*
G04 #@! TO.N,KEY3-9*
X178239174Y-75290359D03*
G04 #@! TD*
D13*
G04 #@! TO.N,12V*
X209920000Y-59603949D02*
X209923091Y-59607040D01*
X209920000Y-52020000D02*
X209920000Y-58050000D01*
X142600000Y-75230000D02*
X142600000Y-81230000D01*
X166981081Y-63476980D02*
X163853020Y-63476980D01*
X209920000Y-58050000D02*
X209920000Y-59603949D01*
X209923091Y-59607040D02*
X208197040Y-59607040D01*
X161313020Y-63476980D02*
X163853020Y-63476980D01*
X142600000Y-75230000D02*
X142601474Y-75230000D01*
X142601474Y-75230000D02*
X149639465Y-68192009D01*
X156597991Y-68192009D02*
X161313020Y-63476980D01*
X149639465Y-68192009D02*
X156597991Y-68192009D01*
G04 #@! TO.N,GND*
X126760000Y-81230000D02*
X122800000Y-81230000D01*
X122800000Y-81230000D02*
X122800000Y-74050000D01*
X126760000Y-81230000D02*
X126760000Y-73900000D01*
X154480000Y-81230000D02*
X158440000Y-81230000D01*
X158440000Y-73350000D02*
X156210000Y-71120000D01*
X158440000Y-81230000D02*
X158440000Y-75240000D01*
X154480000Y-72850000D02*
X156210000Y-71120000D01*
X154480000Y-81230000D02*
X154480000Y-75390000D01*
X126760000Y-73900000D02*
X126760000Y-70090000D01*
X126760000Y-58660000D02*
X126760000Y-52020000D01*
X122800000Y-58810000D02*
X122800000Y-52020000D01*
X122800000Y-74050000D02*
X122800000Y-70240000D01*
X126760000Y-70090000D02*
X126760000Y-63740000D01*
X126760000Y-63740000D02*
X126760000Y-58660000D01*
X122800000Y-63890000D02*
X122800000Y-58810000D01*
X122800000Y-70240000D02*
X122800000Y-63890000D01*
X213880000Y-81230000D02*
X213880000Y-74410000D01*
X122800000Y-52020000D02*
X127050000Y-52020000D01*
X158440000Y-75240000D02*
X158440000Y-73350000D01*
X154480000Y-75390000D02*
X154480000Y-72850000D01*
X213880000Y-74410000D02*
X213880000Y-73140000D01*
D14*
X225760000Y-52020000D02*
X229720000Y-52020000D01*
X229720000Y-52020000D02*
X229720000Y-59840000D01*
D13*
G04 #@! TO.N,5V*
X150520000Y-81230000D02*
X146560000Y-81230000D01*
X150520000Y-74320000D02*
X149860000Y-73660000D01*
X150520000Y-81230000D02*
X150520000Y-74320000D01*
X146560000Y-75690000D02*
X147320000Y-74930000D01*
X146560000Y-81230000D02*
X146560000Y-75690000D01*
X217840000Y-52020000D02*
X221800000Y-52020000D01*
X134680000Y-81230000D02*
X130720000Y-81230000D01*
X134680000Y-74870000D02*
X134680000Y-74870000D01*
X134680000Y-81230000D02*
X134680000Y-74870000D01*
X130810000Y-81140000D02*
X130720000Y-81230000D01*
X130810000Y-73660000D02*
X130810000Y-74930000D01*
X134680000Y-74870000D02*
X135890000Y-73660000D01*
X130810000Y-74930000D02*
X130810000Y-81140000D01*
D14*
X221800000Y-55430000D02*
X221800000Y-52020000D01*
X226060000Y-59690000D02*
X221800000Y-55430000D01*
X226060000Y-60960000D02*
X226060000Y-59690000D01*
D13*
X217840000Y-57820000D02*
X217840000Y-57820000D01*
X217840000Y-52020000D02*
X217840000Y-57820000D01*
X217840000Y-57820000D02*
X219075000Y-59055000D01*
D14*
G04 #@! TO.N,BLUE*
X182200000Y-67424103D02*
X182200000Y-52020000D01*
X183245194Y-68469297D02*
X182200000Y-67424103D01*
X196325703Y-68469297D02*
X183245194Y-68469297D01*
X197213487Y-68469297D02*
X197861835Y-69117645D01*
X196325703Y-68469297D02*
X197213487Y-68469297D01*
G04 #@! TO.N,SPK+*
X194080000Y-56110000D02*
X194080000Y-52020000D01*
X191770000Y-58420000D02*
X192405000Y-57785000D01*
X192405000Y-57785000D02*
X194080000Y-56110000D01*
X191770000Y-57785000D02*
X191770000Y-58778323D01*
D15*
G04 #@! TO.N,TEST*
X174280000Y-52020000D02*
X174280000Y-65060000D01*
X174280000Y-65060000D02*
X174280000Y-66421307D01*
X174280000Y-66421307D02*
X181619470Y-73760777D01*
X189527794Y-73760777D02*
X189829649Y-73458922D01*
X181619470Y-73760777D02*
X189527794Y-73760777D01*
X189921591Y-61292473D02*
X203532473Y-61292473D01*
X205993160Y-63753160D02*
X205993160Y-81232540D01*
X203532473Y-61292473D02*
X205993160Y-63753160D01*
D14*
G04 #@! TO.N,RED*
X199193291Y-63303291D02*
X187594505Y-63303291D01*
X186160000Y-61868786D02*
X186160000Y-52020000D01*
X187594505Y-63303291D02*
X186160000Y-61868786D01*
X199390000Y-63500000D02*
X199193291Y-63303291D01*
X200660000Y-64770000D02*
X199390000Y-63500000D01*
D15*
G04 #@! TO.N,COIN*
X170320000Y-52020000D02*
X170320000Y-64630000D01*
X166360000Y-68590000D02*
X166360000Y-81230000D01*
X170320000Y-64630000D02*
X166360000Y-68590000D01*
X225134999Y-62034999D02*
X220784999Y-62034999D01*
X226060000Y-62960000D02*
X225134999Y-62034999D01*
X218134997Y-62034999D02*
X214630000Y-58530002D01*
X220784999Y-62034999D02*
X218134997Y-62034999D01*
X214630000Y-58530002D02*
X214630000Y-58420000D01*
X171626430Y-57697278D02*
X170900164Y-57697278D01*
X170320000Y-57117114D02*
X170320000Y-52020000D01*
X170900164Y-57697278D02*
X170320000Y-57117114D01*
D14*
G04 #@! TO.N,GREEN*
X202000000Y-81230000D02*
X202000000Y-69658353D01*
X202000000Y-69658353D02*
X198344341Y-66002694D01*
X198344341Y-66002694D02*
X187857279Y-66002694D01*
X187810132Y-66002694D02*
X187796231Y-66016595D01*
X187857279Y-66002694D02*
X187810132Y-66002694D01*
X186351628Y-66016595D02*
X186337182Y-66031041D01*
X187796231Y-66016595D02*
X186351628Y-66016595D01*
D15*
G04 #@! TO.N,COM1-2*
X229720000Y-70620000D02*
X226060000Y-66960000D01*
X229720000Y-81230000D02*
X229720000Y-70620000D01*
X158440000Y-56270000D02*
X157583584Y-57126416D01*
X158440000Y-52020000D02*
X158440000Y-56270000D01*
X157583584Y-57126416D02*
X155013967Y-57126416D01*
X155013967Y-57126416D02*
X155000908Y-57139475D01*
X155000908Y-65091797D02*
X154961734Y-65130971D01*
X155000908Y-57139475D02*
X155000908Y-65091797D01*
G04 #@! TO.N,COM3-10*
X225760000Y-81230000D02*
X225760000Y-75230000D01*
X225760000Y-75230000D02*
X227330000Y-73660000D01*
X227330000Y-72230000D02*
X226060000Y-70960000D01*
X227330000Y-73660000D02*
X227330000Y-72230000D01*
X150520000Y-52020000D02*
X150520000Y-55230992D01*
X150520000Y-55230992D02*
X152428482Y-57139474D01*
X154008499Y-57139474D02*
X154029990Y-57160965D01*
X152428482Y-57139474D02*
X154008499Y-57139474D01*
X154029990Y-57160965D02*
X154029990Y-62132257D01*
X153029150Y-63133097D02*
X152702700Y-63133097D01*
X154029990Y-62132257D02*
X153029150Y-63133097D01*
D14*
G04 #@! TO.N,SYNC*
X198040000Y-73715823D02*
X198045794Y-73710029D01*
X198040000Y-81230000D02*
X198040000Y-73715823D01*
X198045794Y-73710029D02*
X198045794Y-72619432D01*
X198045794Y-72619432D02*
X196546362Y-71120000D01*
X196546362Y-71120000D02*
X185420000Y-71120000D01*
X185420000Y-71120000D02*
X184150000Y-71120000D01*
G04 #@! TO.N,SPK-*
X194080000Y-76430000D02*
X194080000Y-81230000D01*
X195580000Y-74930000D02*
X195580000Y-74930000D01*
X195580000Y-74930000D02*
X194080000Y-76430000D01*
X195580000Y-73660000D02*
X195580000Y-74930000D01*
D15*
G04 #@! TO.N,SERVICE*
X189748069Y-59853333D02*
X206087064Y-59853333D01*
X209550000Y-63316269D02*
X209550000Y-63500000D01*
X206087064Y-59853333D02*
X209550000Y-63316269D01*
G04 #@! TO.N,COM4-7*
X146560000Y-52020000D02*
X146560000Y-54992523D01*
X146560000Y-54992523D02*
X149203156Y-57635679D01*
X149203156Y-57635679D02*
X151031276Y-57635679D01*
X151031276Y-57635679D02*
X153146672Y-57635679D01*
X153538412Y-57635679D02*
X153579980Y-57677247D01*
X153146672Y-57635679D02*
X153538412Y-57635679D01*
X153579980Y-57677247D02*
X153579980Y-61446221D01*
X153133614Y-61892587D02*
X151840872Y-61892587D01*
X153579980Y-61446221D02*
X153133614Y-61892587D01*
G04 #@! TO.N,COM2-6*
X154480000Y-52020000D02*
X154480000Y-63520000D01*
X154480000Y-63520000D02*
X154000000Y-64000000D01*
G04 #@! TO.N,COM0-3*
X162400000Y-52020000D02*
X162400000Y-54963584D01*
X157828253Y-57518157D02*
X157769984Y-57576426D01*
X159845427Y-57518157D02*
X157828253Y-57518157D01*
X162400000Y-54963584D02*
X159845427Y-57518157D01*
X155556366Y-57576426D02*
X155450918Y-57681874D01*
X157769984Y-57576426D02*
X155556366Y-57576426D01*
X155450918Y-57681874D02*
X155450918Y-63348062D01*
X156202245Y-64099389D02*
X156241419Y-64099389D01*
X155450918Y-63348062D02*
X156202245Y-64099389D01*
G04 #@! TD*
M02*
