G04 #@! TF.GenerationSoftware,KiCad,Pcbnew,(6.0.0)*
G04 #@! TF.CreationDate,2022-01-04T21:47:13+01:00*
G04 #@! TF.ProjectId,jamma_mahjong,6a616d6d-615f-46d6-9168-6a6f6e672e6b,rev?*
G04 #@! TF.SameCoordinates,Original*
G04 #@! TF.FileFunction,Copper,L4,Bot*
G04 #@! TF.FilePolarity,Positive*
%FSLAX46Y46*%
G04 Gerber Fmt 4.6, Leading zero omitted, Abs format (unit mm)*
G04 Created by KiCad (PCBNEW (6.0.0)) date 2022-01-04 21:47:13*
%MOMM*%
%LPD*%
G01*
G04 APERTURE LIST*
G04 Aperture macros list*
%AMRoundRect*
0 Rectangle with rounded corners*
0 $1 Rounding radius*
0 $2 $3 $4 $5 $6 $7 $8 $9 X,Y pos of 4 corners*
0 Add a 4 corners polygon primitive as box body*
4,1,4,$2,$3,$4,$5,$6,$7,$8,$9,$2,$3,0*
0 Add four circle primitives for the rounded corners*
1,1,$1+$1,$2,$3*
1,1,$1+$1,$4,$5*
1,1,$1+$1,$6,$7*
1,1,$1+$1,$8,$9*
0 Add four rect primitives between the rounded corners*
20,1,$1+$1,$2,$3,$4,$5,0*
20,1,$1+$1,$4,$5,$6,$7,0*
20,1,$1+$1,$6,$7,$8,$9,0*
20,1,$1+$1,$8,$9,$2,$3,0*%
G04 Aperture macros list end*
G04 #@! TA.AperFunction,SMDPad,CuDef*
%ADD10R,2.350000X8.000000*%
G04 #@! TD*
G04 #@! TA.AperFunction,ComponentPad*
%ADD11C,2.781000*%
G04 #@! TD*
G04 #@! TA.AperFunction,ComponentPad*
%ADD12RoundRect,0.250000X0.600000X0.725000X-0.600000X0.725000X-0.600000X-0.725000X0.600000X-0.725000X0*%
G04 #@! TD*
G04 #@! TA.AperFunction,ComponentPad*
%ADD13O,1.700000X1.950000*%
G04 #@! TD*
G04 #@! TA.AperFunction,ComponentPad*
%ADD14RoundRect,0.250000X0.600000X0.750000X-0.600000X0.750000X-0.600000X-0.750000X0.600000X-0.750000X0*%
G04 #@! TD*
G04 #@! TA.AperFunction,ComponentPad*
%ADD15O,1.700000X2.000000*%
G04 #@! TD*
G04 #@! TA.AperFunction,SMDPad,CuDef*
%ADD16RoundRect,0.250000X0.450000X-0.350000X0.450000X0.350000X-0.450000X0.350000X-0.450000X-0.350000X0*%
G04 #@! TD*
G04 #@! TA.AperFunction,ViaPad*
%ADD17C,0.800000*%
G04 #@! TD*
G04 #@! TA.AperFunction,Conductor*
%ADD18C,2.000000*%
G04 #@! TD*
G04 #@! TA.AperFunction,Conductor*
%ADD19C,1.500000*%
G04 #@! TD*
G04 #@! TA.AperFunction,Conductor*
%ADD20C,0.500000*%
G04 #@! TD*
G04 APERTURE END LIST*
D10*
X229720000Y-52020000D03*
X229720000Y-52020000D03*
X225760000Y-52020000D03*
X225760000Y-52020000D03*
X221800000Y-52020000D03*
X221800000Y-52020000D03*
X217840000Y-52020000D03*
X217840000Y-52020000D03*
X213880000Y-52020000D03*
X213880000Y-52020000D03*
X209920000Y-52020000D03*
X209920000Y-52020000D03*
X202000000Y-52020000D03*
X202000000Y-52020000D03*
X198040000Y-52020000D03*
X198040000Y-52020000D03*
X194080000Y-52020000D03*
X194080000Y-52020000D03*
X190120000Y-52020000D03*
X190120000Y-52020000D03*
X186160000Y-52020000D03*
X186160000Y-52020000D03*
X182200000Y-52020000D03*
X182200000Y-52020000D03*
X178240000Y-52020000D03*
X178240000Y-52020000D03*
X174280000Y-52020000D03*
X174280000Y-52020000D03*
X170320000Y-52020000D03*
X170320000Y-52020000D03*
X166360000Y-52020000D03*
X166360000Y-52020000D03*
X162400000Y-52020000D03*
X162400000Y-52020000D03*
X158440000Y-52020000D03*
X158440000Y-52020000D03*
X154480000Y-52020000D03*
X154480000Y-52020000D03*
X150520000Y-52020000D03*
X150520000Y-52020000D03*
X146560000Y-52020000D03*
X146560000Y-52020000D03*
X142600000Y-52020000D03*
X142600000Y-52020000D03*
X138640000Y-52020000D03*
X138640000Y-52020000D03*
X134680000Y-52020000D03*
X134680000Y-52020000D03*
X130720000Y-52020000D03*
X130720000Y-52020000D03*
X126760000Y-52020000D03*
X126760000Y-52020000D03*
X122800000Y-52020000D03*
X122800000Y-52020000D03*
X229720000Y-81230000D03*
X229720000Y-81230000D03*
X225760000Y-81230000D03*
X225760000Y-81230000D03*
X221800000Y-81230000D03*
X221800000Y-81230000D03*
X217840000Y-81230000D03*
X217840000Y-81230000D03*
X213880000Y-81230000D03*
X213880000Y-81230000D03*
X209920000Y-81230000D03*
X209920000Y-81230000D03*
X205993160Y-81232540D03*
X202000000Y-81230000D03*
X202000000Y-81230000D03*
X198040000Y-81230000D03*
X198040000Y-81230000D03*
X194080000Y-81230000D03*
X194080000Y-81230000D03*
X190120000Y-81230000D03*
X190120000Y-81230000D03*
X186160000Y-81230000D03*
X186160000Y-81230000D03*
X182200000Y-81230000D03*
X182200000Y-81230000D03*
X178240000Y-81230000D03*
X178240000Y-81230000D03*
X174280000Y-81230000D03*
X174280000Y-81230000D03*
X170320000Y-81230000D03*
X170320000Y-81230000D03*
X166360000Y-81230000D03*
X166360000Y-81230000D03*
X162400000Y-81230000D03*
X162400000Y-81230000D03*
X158440000Y-81230000D03*
X158440000Y-81230000D03*
X154480000Y-81230000D03*
X154480000Y-81230000D03*
X150520000Y-81230000D03*
X150520000Y-81230000D03*
X146560000Y-81230000D03*
X146560000Y-81230000D03*
X142600000Y-81230000D03*
X142600000Y-81230000D03*
X138640000Y-81230000D03*
X138640000Y-81230000D03*
X134680000Y-81230000D03*
X134680000Y-81230000D03*
X130720000Y-81230000D03*
X130720000Y-81230000D03*
X126760000Y-81230000D03*
X126760000Y-81230000D03*
X122800000Y-81230000D03*
X122800000Y-81230000D03*
D11*
X194450000Y-64000000D03*
X189750000Y-64000000D03*
X185050000Y-64000000D03*
D12*
X227000000Y-73000000D03*
D13*
X224500000Y-73000000D03*
X222000000Y-73000000D03*
X219500000Y-73000000D03*
X217000000Y-73000000D03*
X214500000Y-73000000D03*
D12*
X176750000Y-73000000D03*
D13*
X174250000Y-73000000D03*
X171750000Y-73000000D03*
X169250000Y-73000000D03*
X166750000Y-73000000D03*
X164250000Y-73000000D03*
D14*
X227450000Y-62100000D03*
D15*
X224950000Y-62100000D03*
D16*
X213100000Y-60000000D03*
X213100000Y-58000000D03*
D17*
X209250000Y-61900000D03*
X142494000Y-75946000D03*
X142500000Y-58900000D03*
X142500000Y-60100000D03*
X142500000Y-57700000D03*
X209250000Y-64300000D03*
X209920000Y-57130000D03*
X209250000Y-63100000D03*
X210650000Y-64300000D03*
X142494000Y-74930000D03*
X122800000Y-57200000D03*
X158500000Y-76000000D03*
X126760000Y-57240000D03*
X126800000Y-58800000D03*
X154500000Y-76000000D03*
X225800000Y-59000000D03*
X122800000Y-58800000D03*
X225760000Y-57600000D03*
X156600000Y-76000000D03*
X122800000Y-75800000D03*
X177500000Y-66000000D03*
X229750000Y-59000000D03*
X156600000Y-75000000D03*
X122800000Y-74200000D03*
X206248000Y-72898000D03*
X207264000Y-72898000D03*
X177500000Y-67250000D03*
X154500000Y-75000000D03*
X227600000Y-59000000D03*
X158500000Y-75000000D03*
X126800000Y-74200000D03*
X229720000Y-57600000D03*
X227600000Y-57600000D03*
X126750000Y-75750000D03*
X219800000Y-57600000D03*
X134500000Y-74500000D03*
X130750000Y-75750000D03*
X130750000Y-74500000D03*
X150500000Y-76000000D03*
X150500000Y-75000000D03*
X132600000Y-75800000D03*
X132600000Y-74400000D03*
X217840000Y-57660000D03*
X148400000Y-76000000D03*
X130200000Y-58400000D03*
X221800000Y-57600000D03*
X132600000Y-58400000D03*
X134680000Y-75820000D03*
X146500000Y-75000000D03*
X148400000Y-75000000D03*
X146500000Y-76000000D03*
X221800000Y-59000000D03*
X219800000Y-59000000D03*
X217800000Y-59000000D03*
X135000000Y-58400000D03*
X214950000Y-58900000D03*
X214950000Y-57650000D03*
X214950000Y-60200000D03*
X199900000Y-74422000D03*
X190950000Y-74422000D03*
X198200000Y-74422000D03*
X189738000Y-74422000D03*
X197000000Y-61250000D03*
X175250000Y-68250000D03*
X203708000Y-67818000D03*
X190950000Y-69750000D03*
X189700000Y-69750000D03*
X198200000Y-69800000D03*
X199900000Y-69800000D03*
X199898000Y-67310000D03*
X190950000Y-67310000D03*
X189738000Y-67310000D03*
X198201018Y-67311018D03*
X172500000Y-62750000D03*
X172500000Y-66250000D03*
X198200000Y-72000000D03*
X199900000Y-72000000D03*
X190950000Y-72000000D03*
X189700000Y-72000000D03*
X209804000Y-75692000D03*
X181356000Y-73152000D03*
X172500000Y-68000000D03*
X172500000Y-64500000D03*
X172500000Y-61000000D03*
X138750000Y-58800000D03*
X214900000Y-64300000D03*
X212800000Y-61900000D03*
X214900000Y-61900000D03*
X138750000Y-57650000D03*
X138800000Y-60200000D03*
X212800000Y-64300000D03*
D18*
X142494000Y-74930000D02*
X142494000Y-81124000D01*
X209920000Y-52020000D02*
X209920000Y-57130000D01*
X142494000Y-81124000D02*
X142600000Y-81230000D01*
X158440000Y-75060000D02*
X158500000Y-75000000D01*
X122800000Y-52020000D02*
X122800000Y-56950000D01*
X225760000Y-52020000D02*
X229720000Y-52020000D01*
X122800000Y-81230000D02*
X122800000Y-75800000D01*
X229720000Y-52020000D02*
X229720000Y-58970000D01*
X154500000Y-75000000D02*
X154500000Y-76000000D01*
X158440000Y-81230000D02*
X158440000Y-75060000D01*
X126760000Y-81230000D02*
X126760000Y-75760000D01*
X154500000Y-76000000D02*
X154500000Y-81210000D01*
X126760000Y-52020000D02*
X126760000Y-57240000D01*
D19*
X210058000Y-72898000D02*
X207264000Y-72898000D01*
X213880000Y-76720000D02*
X210058000Y-72898000D01*
D18*
X154480000Y-81230000D02*
X158440000Y-81230000D01*
X154500000Y-81210000D02*
X154480000Y-81230000D01*
D19*
X206248000Y-72898000D02*
X207264000Y-72898000D01*
D18*
X122800000Y-56950000D02*
X122750000Y-57000000D01*
X126760000Y-75760000D02*
X126750000Y-75750000D01*
X229720000Y-58970000D02*
X229750000Y-59000000D01*
X126760000Y-57240000D02*
X126750000Y-57250000D01*
X225760000Y-52020000D02*
X225760000Y-57600000D01*
D19*
X213880000Y-81230000D02*
X213880000Y-76720000D01*
D18*
X130720000Y-81230000D02*
X134680000Y-81230000D01*
X130750000Y-81200000D02*
X130720000Y-81230000D01*
X146500000Y-75000000D02*
X146500000Y-76000000D01*
D19*
X227450000Y-63750000D02*
X225800000Y-65400000D01*
D18*
X217840000Y-58960000D02*
X217840000Y-57660000D01*
X217800000Y-59000000D02*
X217840000Y-58960000D01*
X217840000Y-52020000D02*
X221800000Y-52020000D01*
X146500000Y-81170000D02*
X146560000Y-81230000D01*
D19*
X227450000Y-62100000D02*
X227450000Y-63750000D01*
D18*
X146500000Y-76000000D02*
X146500000Y-81170000D01*
X134680000Y-81230000D02*
X134680000Y-74680000D01*
X217840000Y-52020000D02*
X217840000Y-57660000D01*
X130750000Y-74500000D02*
X130750000Y-75750000D01*
X150520000Y-81230000D02*
X150520000Y-75020000D01*
X134680000Y-74680000D02*
X134500000Y-74500000D01*
X221800000Y-52020000D02*
X221800000Y-57600000D01*
X130750000Y-75750000D02*
X130750000Y-81200000D01*
X146560000Y-81230000D02*
X150520000Y-81230000D01*
X150520000Y-75020000D02*
X150500000Y-75000000D01*
D19*
X225800000Y-65400000D02*
X222000000Y-65400000D01*
D18*
X221800000Y-59000000D02*
X221800000Y-57600000D01*
D19*
X213100000Y-58000000D02*
X213750000Y-57350000D01*
X213750000Y-57350000D02*
X213750000Y-52150000D01*
X213750000Y-52150000D02*
X213880000Y-52020000D01*
X198200000Y-74422000D02*
X198040000Y-74582000D01*
X198040000Y-74582000D02*
X198040000Y-81230000D01*
D18*
X198000000Y-65250000D02*
X198000000Y-62250000D01*
X198000000Y-62250000D02*
X197000000Y-61250000D01*
X194080000Y-81230000D02*
X194080000Y-69170000D01*
X194080000Y-69170000D02*
X198000000Y-65250000D01*
D19*
X202000000Y-71900000D02*
X202000000Y-81230000D01*
X199900000Y-69800000D02*
X202000000Y-71900000D01*
X182250000Y-64750000D02*
X182250000Y-62250000D01*
X182250000Y-62250000D02*
X186160000Y-58340000D01*
X186160000Y-58340000D02*
X186160000Y-52020000D01*
X189738000Y-67310000D02*
X184810000Y-67310000D01*
X184810000Y-67310000D02*
X182250000Y-64750000D01*
D20*
X161000000Y-56750000D02*
X161500000Y-56250000D01*
X158949520Y-59300480D02*
X161000000Y-57250000D01*
X158949520Y-61710250D02*
X158949520Y-59300480D01*
X159989270Y-62750000D02*
X158949520Y-61710250D01*
X161500000Y-56250000D02*
X161750000Y-56250000D01*
X161750000Y-56250000D02*
X162400000Y-55600000D01*
X162400000Y-55600000D02*
X162400000Y-52020000D01*
X161000000Y-57250000D02*
X161000000Y-56750000D01*
X172500000Y-62750000D02*
X159989270Y-62750000D01*
X154480000Y-55980000D02*
X154480000Y-52020000D01*
X172500000Y-66250000D02*
X161250000Y-66250000D01*
X155750000Y-57010730D02*
X155510730Y-57010730D01*
X157500000Y-62500000D02*
X157500000Y-58760730D01*
X155510730Y-57010730D02*
X154480000Y-55980000D01*
X157500000Y-58760730D02*
X155750000Y-57010730D01*
X161250000Y-66250000D02*
X157500000Y-62500000D01*
D19*
X185250000Y-72000000D02*
X179500000Y-66250000D01*
X179500000Y-61000000D02*
X182200000Y-58300000D01*
X189700000Y-72000000D02*
X185250000Y-72000000D01*
X182200000Y-58300000D02*
X182200000Y-52020000D01*
X179500000Y-66250000D02*
X179500000Y-61000000D01*
D20*
X181356000Y-73152000D02*
X181356000Y-73106000D01*
X176250000Y-64500000D02*
X177400000Y-63350000D01*
X176250000Y-68000000D02*
X176250000Y-64500000D01*
X181356000Y-73106000D02*
X176250000Y-68000000D01*
X177400000Y-52860000D02*
X178240000Y-52020000D01*
X177400000Y-63350000D02*
X177400000Y-52860000D01*
X209804000Y-75692000D02*
X209920000Y-75808000D01*
X209920000Y-75808000D02*
X209920000Y-81230000D01*
X162000000Y-68000000D02*
X156750000Y-62750000D01*
X219500000Y-75250000D02*
X218000000Y-75250000D01*
X156750000Y-62750000D02*
X156750000Y-59000000D01*
X221800000Y-81230000D02*
X221800000Y-77550000D01*
X172500000Y-68000000D02*
X162000000Y-68000000D01*
X153500000Y-58750000D02*
X150520000Y-55770000D01*
X156750000Y-59000000D02*
X156500000Y-58750000D01*
X217000000Y-74250000D02*
X217000000Y-73000000D01*
X156500000Y-58750000D02*
X153500000Y-58750000D01*
X218000000Y-75250000D02*
X217000000Y-74250000D01*
X221800000Y-77550000D02*
X219500000Y-75250000D01*
X150520000Y-55770000D02*
X150520000Y-52020000D01*
X178750000Y-76250000D02*
X180250000Y-76250000D01*
X171750000Y-73000000D02*
X174250000Y-75500000D01*
X182200000Y-78200000D02*
X182200000Y-81230000D01*
X178000000Y-75500000D02*
X178750000Y-76250000D01*
X174250000Y-75500000D02*
X178000000Y-75500000D01*
X180250000Y-76250000D02*
X182200000Y-78200000D01*
X169750000Y-74750000D02*
X171250000Y-76250000D01*
X174280000Y-78280000D02*
X174280000Y-81230000D01*
X166750000Y-73000000D02*
X168500000Y-74750000D01*
X168500000Y-74750000D02*
X169750000Y-74750000D01*
X171250000Y-76250000D02*
X172250000Y-76250000D01*
X172250000Y-76250000D02*
X174280000Y-78280000D01*
X177750000Y-74000000D02*
X179500000Y-74000000D01*
X186750000Y-75750000D02*
X189500000Y-75750000D01*
X176750000Y-73000000D02*
X177750000Y-74000000D01*
X189500000Y-75750000D02*
X190120000Y-76370000D01*
X179500000Y-74000000D02*
X180250000Y-74750000D01*
X190120000Y-76370000D02*
X190120000Y-81230000D01*
X180250000Y-74750000D02*
X185750000Y-74750000D01*
X185750000Y-74750000D02*
X186750000Y-75750000D01*
X166250000Y-75500000D02*
X164250000Y-73500000D01*
X170320000Y-77570000D02*
X168250000Y-75500000D01*
X170320000Y-81230000D02*
X170320000Y-77570000D01*
X168250000Y-75500000D02*
X166250000Y-75500000D01*
X164250000Y-73500000D02*
X164250000Y-73000000D01*
X184750000Y-75500000D02*
X186160000Y-76910000D01*
X174250000Y-73000000D02*
X174250000Y-74000000D01*
X186160000Y-76910000D02*
X186160000Y-81230000D01*
X179500000Y-75500000D02*
X184750000Y-75500000D01*
X178750000Y-74750000D02*
X179500000Y-75500000D01*
X175000000Y-74750000D02*
X178750000Y-74750000D01*
X174250000Y-74000000D02*
X175000000Y-74750000D01*
X158440000Y-55940000D02*
X158440000Y-52020000D01*
X224750000Y-75500000D02*
X225760000Y-76510000D01*
X158250000Y-59000000D02*
X159500000Y-57750000D01*
X158250000Y-62000000D02*
X158250000Y-59000000D01*
X225760000Y-76510000D02*
X225760000Y-81230000D01*
X222000000Y-73000000D02*
X224500000Y-75500000D01*
X160750000Y-64500000D02*
X158250000Y-62000000D01*
X159500000Y-57750000D02*
X159500000Y-57000000D01*
X172500000Y-64500000D02*
X160750000Y-64500000D01*
X159500000Y-57000000D02*
X158440000Y-55940000D01*
X224500000Y-75500000D02*
X224750000Y-75500000D01*
X160500000Y-58750000D02*
X164250000Y-58750000D01*
X164250000Y-58750000D02*
X166360000Y-56640000D01*
X229720000Y-75720000D02*
X229720000Y-81230000D01*
X160228540Y-62000000D02*
X159649040Y-61420500D01*
X166360000Y-56640000D02*
X166360000Y-52020000D01*
X171500000Y-62000000D02*
X160228540Y-62000000D01*
X227000000Y-73000000D02*
X229720000Y-75720000D01*
X172500000Y-61000000D02*
X171500000Y-62000000D01*
X159649040Y-59600960D02*
X160500000Y-58750000D01*
X159649040Y-61420500D02*
X159649040Y-59600960D01*
X174000000Y-76250000D02*
X176750000Y-76250000D01*
X172050480Y-75550480D02*
X173300480Y-75550480D01*
X176750000Y-76250000D02*
X178240000Y-77740000D01*
X173300480Y-75550480D02*
X174000000Y-76250000D01*
X169250000Y-73000000D02*
X169500000Y-73000000D01*
X178240000Y-77740000D02*
X178240000Y-81230000D01*
X169500000Y-73000000D02*
X172050480Y-75550480D01*
D18*
X138640000Y-76040000D02*
X138640000Y-81230000D01*
D19*
X213100000Y-60000000D02*
X213100000Y-61600000D01*
D18*
X191250000Y-62500000D02*
X194080000Y-59670000D01*
X189750000Y-64000000D02*
X191250000Y-62500000D01*
X194080000Y-59670000D02*
X194080000Y-52020000D01*
G04 #@! TA.AperFunction,Conductor*
G36*
X211192121Y-56620002D02*
G01*
X211238614Y-56673658D01*
X211250000Y-56726000D01*
X211250000Y-64724000D01*
X211229998Y-64792121D01*
X211176342Y-64838614D01*
X211124000Y-64850000D01*
X208726000Y-64850000D01*
X208657879Y-64829998D01*
X208611386Y-64776342D01*
X208600000Y-64724000D01*
X208600000Y-56726000D01*
X208620002Y-56657879D01*
X208673658Y-56611386D01*
X208726000Y-56600000D01*
X211124000Y-56600000D01*
X211192121Y-56620002D01*
G37*
G04 #@! TD.AperFunction*
G04 #@! TA.AperFunction,Conductor*
G36*
X231142121Y-56620002D02*
G01*
X231188614Y-56673658D01*
X231200000Y-56726000D01*
X231200000Y-68074000D01*
X231179998Y-68142121D01*
X231126342Y-68188614D01*
X231074000Y-68200000D01*
X224126000Y-68200000D01*
X224057879Y-68179998D01*
X224011386Y-68126342D01*
X224000000Y-68074000D01*
X224000000Y-66784500D01*
X224020002Y-66716379D01*
X224073658Y-66669886D01*
X224126000Y-66658500D01*
X225708604Y-66658500D01*
X225725051Y-66659578D01*
X225741516Y-66661746D01*
X225741520Y-66661746D01*
X225747086Y-66662479D01*
X225828489Y-66658640D01*
X225834424Y-66658500D01*
X225856999Y-66658500D01*
X225882989Y-66656181D01*
X225888248Y-66655822D01*
X225971488Y-66651896D01*
X225976947Y-66650646D01*
X225976952Y-66650645D01*
X225988970Y-66647892D01*
X226005899Y-66645211D01*
X226023762Y-66643617D01*
X226029178Y-66642135D01*
X226029180Y-66642135D01*
X226104133Y-66621630D01*
X226109251Y-66620344D01*
X226185000Y-66602995D01*
X226185002Y-66602994D01*
X226190470Y-66601742D01*
X226200970Y-66597263D01*
X226206967Y-66594706D01*
X226223142Y-66589073D01*
X226235039Y-66585818D01*
X226235043Y-66585817D01*
X226240451Y-66584337D01*
X226315667Y-66548461D01*
X226320476Y-66546290D01*
X226391949Y-66515804D01*
X226391950Y-66515804D01*
X226397109Y-66513603D01*
X226412110Y-66503749D01*
X226427025Y-66495346D01*
X226443218Y-66487622D01*
X226447769Y-66484352D01*
X226447772Y-66484350D01*
X226510881Y-66439001D01*
X226515232Y-66436011D01*
X226581010Y-66392804D01*
X226581018Y-66392798D01*
X226584874Y-66390265D01*
X226605662Y-66371743D01*
X226615939Y-66363510D01*
X226625654Y-66356529D01*
X226700062Y-66279746D01*
X226701451Y-66278336D01*
X228275263Y-64704525D01*
X228287654Y-64693657D01*
X228300848Y-64683533D01*
X228305292Y-64680123D01*
X228360139Y-64619846D01*
X228364238Y-64615549D01*
X228380198Y-64599590D01*
X228396942Y-64579564D01*
X228400401Y-64575599D01*
X228452708Y-64518115D01*
X228452709Y-64518114D01*
X228456485Y-64513964D01*
X228466016Y-64498770D01*
X228476085Y-64484910D01*
X228487593Y-64471147D01*
X228528869Y-64398782D01*
X228531579Y-64394253D01*
X228572885Y-64328405D01*
X228575864Y-64323656D01*
X228582553Y-64307017D01*
X228590012Y-64291587D01*
X228596119Y-64280881D01*
X228596123Y-64280872D01*
X228598898Y-64276007D01*
X228626712Y-64197462D01*
X228628573Y-64192537D01*
X228650248Y-64138621D01*
X228659656Y-64115217D01*
X228663296Y-64097639D01*
X228667902Y-64081146D01*
X228673888Y-64064241D01*
X228687352Y-63982021D01*
X228688314Y-63976833D01*
X228704276Y-63899756D01*
X228705213Y-63895233D01*
X228706816Y-63867437D01*
X228708263Y-63854331D01*
X228709286Y-63848086D01*
X228709287Y-63848079D01*
X228710193Y-63842543D01*
X228708516Y-63735769D01*
X228708500Y-63733791D01*
X228708500Y-63262985D01*
X228727241Y-63196868D01*
X228738274Y-63178970D01*
X228738276Y-63178967D01*
X228742115Y-63172738D01*
X228797797Y-63004861D01*
X228808500Y-62900400D01*
X228808500Y-61299600D01*
X228797526Y-61193834D01*
X228741550Y-61026054D01*
X228648478Y-60875652D01*
X228523303Y-60750695D01*
X228492965Y-60731994D01*
X228378968Y-60661725D01*
X228378966Y-60661724D01*
X228372738Y-60657885D01*
X228253498Y-60618335D01*
X228211389Y-60604368D01*
X228211387Y-60604368D01*
X228204861Y-60602203D01*
X228198025Y-60601503D01*
X228198022Y-60601502D01*
X228154969Y-60597091D01*
X228100400Y-60591500D01*
X226799600Y-60591500D01*
X226796354Y-60591837D01*
X226796350Y-60591837D01*
X226700692Y-60601762D01*
X226700688Y-60601763D01*
X226693834Y-60602474D01*
X226687298Y-60604655D01*
X226687296Y-60604655D01*
X226555194Y-60648728D01*
X226526054Y-60658450D01*
X226375652Y-60751522D01*
X226250695Y-60876697D01*
X226246855Y-60882927D01*
X226246854Y-60882928D01*
X226160648Y-61022780D01*
X226107876Y-61070273D01*
X226037804Y-61081697D01*
X225972680Y-61053423D01*
X225962218Y-61043636D01*
X225856766Y-60933094D01*
X225848814Y-60926059D01*
X225672475Y-60794859D01*
X225663438Y-60789255D01*
X225467516Y-60689643D01*
X225457665Y-60685643D01*
X225247760Y-60620466D01*
X225237376Y-60618183D01*
X225221957Y-60616139D01*
X225207793Y-60618335D01*
X225204000Y-60631522D01*
X225204000Y-63566192D01*
X225207973Y-63579723D01*
X225218580Y-63581248D01*
X225336421Y-63556523D01*
X225346617Y-63553463D01*
X225551029Y-63472737D01*
X225560561Y-63468006D01*
X225663236Y-63405701D01*
X225731850Y-63387462D01*
X225799433Y-63409213D01*
X225844527Y-63464050D01*
X225852816Y-63534561D01*
X225817697Y-63602515D01*
X225315617Y-64104595D01*
X225253305Y-64138621D01*
X225226522Y-64141500D01*
X224126000Y-64141500D01*
X224057879Y-64121498D01*
X224011386Y-64067842D01*
X224000000Y-64015500D01*
X224000000Y-63486653D01*
X224020002Y-63418532D01*
X224073658Y-63372039D01*
X224143932Y-63361935D01*
X224201214Y-63385564D01*
X224227531Y-63405145D01*
X224236562Y-63410745D01*
X224432484Y-63510357D01*
X224442335Y-63514357D01*
X224652240Y-63579534D01*
X224662624Y-63581817D01*
X224678043Y-63583861D01*
X224692207Y-63581665D01*
X224696000Y-63568478D01*
X224696000Y-60633808D01*
X224692027Y-60620277D01*
X224681420Y-60618752D01*
X224563579Y-60643477D01*
X224553383Y-60646537D01*
X224348971Y-60727263D01*
X224339439Y-60731994D01*
X224191366Y-60821847D01*
X224122752Y-60840086D01*
X224055169Y-60818335D01*
X224010075Y-60763498D01*
X224000000Y-60714128D01*
X224000000Y-56726000D01*
X224020002Y-56657879D01*
X224073658Y-56611386D01*
X224126000Y-56600000D01*
X231074000Y-56600000D01*
X231142121Y-56620002D01*
G37*
G04 #@! TD.AperFunction*
G04 #@! TA.AperFunction,Conductor*
G36*
X215442121Y-56620002D02*
G01*
X215488614Y-56673658D01*
X215500000Y-56726000D01*
X215500000Y-60616000D01*
X215479998Y-60684121D01*
X215426342Y-60730614D01*
X215374000Y-60742000D01*
X214484500Y-60742000D01*
X214416379Y-60721998D01*
X214369886Y-60668342D01*
X214358500Y-60616000D01*
X214358500Y-59943001D01*
X214343617Y-59776238D01*
X214312966Y-59664198D01*
X214308500Y-59630950D01*
X214308500Y-59599600D01*
X214297526Y-59493834D01*
X214241550Y-59326054D01*
X214148478Y-59175652D01*
X214061537Y-59088862D01*
X214027458Y-59026579D01*
X214032461Y-58955759D01*
X214061382Y-58910671D01*
X214143739Y-58828171D01*
X214152751Y-58816760D01*
X214237816Y-58678757D01*
X214243963Y-58665576D01*
X214295138Y-58511290D01*
X214298005Y-58497914D01*
X214307672Y-58403562D01*
X214308000Y-58397146D01*
X214308000Y-58272115D01*
X214303525Y-58256876D01*
X214302135Y-58255671D01*
X214294452Y-58254000D01*
X212972000Y-58254000D01*
X212903879Y-58233998D01*
X212857386Y-58180342D01*
X212846000Y-58128000D01*
X212846000Y-57727885D01*
X213354000Y-57727885D01*
X213358475Y-57743124D01*
X213359865Y-57744329D01*
X213367548Y-57746000D01*
X214289884Y-57746000D01*
X214305123Y-57741525D01*
X214306328Y-57740135D01*
X214307999Y-57732452D01*
X214307999Y-57602905D01*
X214307662Y-57596386D01*
X214297743Y-57500794D01*
X214294851Y-57487400D01*
X214243412Y-57333216D01*
X214237239Y-57320038D01*
X214151937Y-57182193D01*
X214142901Y-57170792D01*
X214028171Y-57056261D01*
X214016760Y-57047249D01*
X213878757Y-56962184D01*
X213865576Y-56956037D01*
X213711290Y-56904862D01*
X213697914Y-56901995D01*
X213603562Y-56892328D01*
X213597145Y-56892000D01*
X213372115Y-56892000D01*
X213356876Y-56896475D01*
X213355671Y-56897865D01*
X213354000Y-56905548D01*
X213354000Y-57727885D01*
X212846000Y-57727885D01*
X212846000Y-56910116D01*
X212841525Y-56894877D01*
X212840135Y-56893672D01*
X212832452Y-56892001D01*
X212602905Y-56892001D01*
X212596386Y-56892338D01*
X212500794Y-56902257D01*
X212487400Y-56905149D01*
X212365876Y-56945692D01*
X212294926Y-56948276D01*
X212233842Y-56912092D01*
X212202018Y-56848628D01*
X212200000Y-56826168D01*
X212200000Y-56726000D01*
X212220002Y-56657879D01*
X212273658Y-56611386D01*
X212326000Y-56600000D01*
X215374000Y-56600000D01*
X215442121Y-56620002D01*
G37*
G04 #@! TD.AperFunction*
G04 #@! TA.AperFunction,Conductor*
G36*
X144142121Y-57220002D02*
G01*
X144188614Y-57273658D01*
X144200000Y-57326000D01*
X144200000Y-76666395D01*
X144179998Y-76734516D01*
X144126342Y-76781009D01*
X144056068Y-76791113D01*
X144021547Y-76779601D01*
X144021462Y-76779828D01*
X144015291Y-76777515D01*
X144013487Y-76776913D01*
X144013054Y-76776676D01*
X143892606Y-76731522D01*
X143877351Y-76727895D01*
X143826486Y-76722369D01*
X143819672Y-76722000D01*
X142872115Y-76722000D01*
X142856876Y-76726475D01*
X142855671Y-76727865D01*
X142854000Y-76735548D01*
X142854000Y-76800000D01*
X142346000Y-76800000D01*
X142346000Y-76740116D01*
X142341525Y-76724877D01*
X142340135Y-76723672D01*
X142332452Y-76722001D01*
X141380331Y-76722001D01*
X141373510Y-76722371D01*
X141322648Y-76727895D01*
X141307396Y-76731521D01*
X141186944Y-76776677D01*
X141172616Y-76784521D01*
X141112108Y-76800000D01*
X141026000Y-76800000D01*
X140957879Y-76779998D01*
X140911386Y-76726342D01*
X140900000Y-76674000D01*
X140900000Y-57326000D01*
X140920002Y-57257879D01*
X140973658Y-57211386D01*
X141026000Y-57200000D01*
X144074000Y-57200000D01*
X144142121Y-57220002D01*
G37*
G04 #@! TD.AperFunction*
G04 #@! TA.AperFunction,Conductor*
G36*
X140142121Y-57220002D02*
G01*
X140188614Y-57273658D01*
X140200000Y-57326000D01*
X140200000Y-76649965D01*
X140179998Y-76718086D01*
X140126342Y-76764579D01*
X140056068Y-76774683D01*
X140029770Y-76767947D01*
X139932606Y-76731522D01*
X139917351Y-76727895D01*
X139866486Y-76722369D01*
X139859672Y-76722000D01*
X138912115Y-76722000D01*
X138896876Y-76726475D01*
X138895671Y-76727865D01*
X138894000Y-76735548D01*
X138894000Y-76800000D01*
X138386000Y-76800000D01*
X138386000Y-76740116D01*
X138381525Y-76724877D01*
X138380135Y-76723672D01*
X138372452Y-76722001D01*
X137420331Y-76722001D01*
X137413510Y-76722371D01*
X137362648Y-76727895D01*
X137347396Y-76731521D01*
X137226944Y-76776677D01*
X137212616Y-76784521D01*
X137152108Y-76800000D01*
X136926000Y-76800000D01*
X136857879Y-76779998D01*
X136811386Y-76726342D01*
X136800000Y-76674000D01*
X136800000Y-57326000D01*
X136820002Y-57257879D01*
X136873658Y-57211386D01*
X136926000Y-57200000D01*
X140074000Y-57200000D01*
X140142121Y-57220002D01*
G37*
G04 #@! TD.AperFunction*
G04 #@! TA.AperFunction,Conductor*
G36*
X215442121Y-61270002D02*
G01*
X215488614Y-61323658D01*
X215500000Y-61376000D01*
X215500000Y-64724000D01*
X215479998Y-64792121D01*
X215426342Y-64838614D01*
X215374000Y-64850000D01*
X212326000Y-64850000D01*
X212257879Y-64829998D01*
X212211386Y-64776342D01*
X212200000Y-64724000D01*
X212200000Y-61376000D01*
X212220002Y-61307879D01*
X212273658Y-61261386D01*
X212326000Y-61250000D01*
X215374000Y-61250000D01*
X215442121Y-61270002D01*
G37*
G04 #@! TD.AperFunction*
G04 #@! TA.AperFunction,Conductor*
G36*
X223342121Y-56620002D02*
G01*
X223388614Y-56673658D01*
X223400000Y-56726000D01*
X223400000Y-68074000D01*
X223379998Y-68142121D01*
X223326342Y-68188614D01*
X223274000Y-68200000D01*
X216326000Y-68200000D01*
X216257879Y-68179998D01*
X216211386Y-68126342D01*
X216200000Y-68074000D01*
X216200000Y-56726000D01*
X216220002Y-56657879D01*
X216273658Y-56611386D01*
X216326000Y-56600000D01*
X223274000Y-56600000D01*
X223342121Y-56620002D01*
G37*
G04 #@! TD.AperFunction*
G04 #@! TA.AperFunction,Conductor*
G36*
X200492121Y-69020002D02*
G01*
X200538614Y-69073658D01*
X200550000Y-69126000D01*
X200550000Y-70374000D01*
X200529998Y-70442121D01*
X200476342Y-70488614D01*
X200424000Y-70500000D01*
X197576000Y-70500000D01*
X197507879Y-70479998D01*
X197461386Y-70426342D01*
X197450000Y-70374000D01*
X197450000Y-69126000D01*
X197470002Y-69057879D01*
X197523658Y-69011386D01*
X197576000Y-69000000D01*
X200424000Y-69000000D01*
X200492121Y-69020002D01*
G37*
G04 #@! TD.AperFunction*
G04 #@! TA.AperFunction,Conductor*
G36*
X191542121Y-66568002D02*
G01*
X191588614Y-66621658D01*
X191600000Y-66674000D01*
X191600000Y-67922000D01*
X191579998Y-67990121D01*
X191526342Y-68036614D01*
X191474000Y-68048000D01*
X188376000Y-68048000D01*
X188307879Y-68027998D01*
X188261386Y-67974342D01*
X188250000Y-67922000D01*
X188250000Y-66674000D01*
X188270002Y-66605879D01*
X188323658Y-66559386D01*
X188376000Y-66548000D01*
X191474000Y-66548000D01*
X191542121Y-66568002D01*
G37*
G04 #@! TD.AperFunction*
G04 #@! TA.AperFunction,Conductor*
G36*
X200492121Y-73704002D02*
G01*
X200538614Y-73757658D01*
X200550000Y-73810000D01*
X200550000Y-75058000D01*
X200529998Y-75126121D01*
X200476342Y-75172614D01*
X200424000Y-75184000D01*
X197576000Y-75184000D01*
X197507879Y-75163998D01*
X197461386Y-75110342D01*
X197450000Y-75058000D01*
X197450000Y-73810000D01*
X197470002Y-73741879D01*
X197523658Y-73695386D01*
X197576000Y-73684000D01*
X200424000Y-73684000D01*
X200492121Y-73704002D01*
G37*
G04 #@! TD.AperFunction*
G04 #@! TA.AperFunction,Conductor*
G36*
X191542121Y-71270002D02*
G01*
X191588614Y-71323658D01*
X191600000Y-71376000D01*
X191600000Y-72624000D01*
X191579998Y-72692121D01*
X191526342Y-72738614D01*
X191474000Y-72750000D01*
X188376000Y-72750000D01*
X188307879Y-72729998D01*
X188261386Y-72676342D01*
X188250000Y-72624000D01*
X188250000Y-71376000D01*
X188270002Y-71307879D01*
X188323658Y-71261386D01*
X188376000Y-71250000D01*
X191474000Y-71250000D01*
X191542121Y-71270002D01*
G37*
G04 #@! TD.AperFunction*
G04 #@! TA.AperFunction,Conductor*
G36*
X152142121Y-66620002D02*
G01*
X152188614Y-66673658D01*
X152200000Y-66726000D01*
X152200000Y-76474000D01*
X152179998Y-76542121D01*
X152126342Y-76588614D01*
X152074000Y-76600000D01*
X145126000Y-76600000D01*
X145057879Y-76579998D01*
X145011386Y-76526342D01*
X145000000Y-76474000D01*
X145000000Y-66726000D01*
X145020002Y-66657879D01*
X145073658Y-66611386D01*
X145126000Y-66600000D01*
X152074000Y-66600000D01*
X152142121Y-66620002D01*
G37*
G04 #@! TD.AperFunction*
G04 #@! TA.AperFunction,Conductor*
G36*
X159543250Y-66620002D02*
G01*
X159564224Y-66636905D01*
X160163095Y-67235776D01*
X160197121Y-67298088D01*
X160200000Y-67324871D01*
X160200000Y-76474000D01*
X160179998Y-76542121D01*
X160126342Y-76588614D01*
X160074000Y-76600000D01*
X152926000Y-76600000D01*
X152857879Y-76579998D01*
X152811386Y-76526342D01*
X152800000Y-76474000D01*
X152800000Y-66726000D01*
X152820002Y-66657879D01*
X152873658Y-66611386D01*
X152926000Y-66600000D01*
X159475129Y-66600000D01*
X159543250Y-66620002D01*
G37*
G04 #@! TD.AperFunction*
G04 #@! TA.AperFunction,Conductor*
G36*
X136192121Y-57270002D02*
G01*
X136238614Y-57323658D01*
X136250000Y-57376000D01*
X136250000Y-76624000D01*
X136229998Y-76692121D01*
X136176342Y-76738614D01*
X136124000Y-76750000D01*
X136044738Y-76750000D01*
X136000508Y-76741982D01*
X135972605Y-76731522D01*
X135957351Y-76727895D01*
X135906486Y-76722369D01*
X135899672Y-76722000D01*
X134952115Y-76722000D01*
X134936876Y-76726475D01*
X134935671Y-76727865D01*
X134934000Y-76735548D01*
X134934000Y-76750000D01*
X134426000Y-76750000D01*
X134426000Y-76740116D01*
X134421525Y-76724877D01*
X134420135Y-76723672D01*
X134412452Y-76722001D01*
X133460331Y-76722001D01*
X133453510Y-76722371D01*
X133402648Y-76727895D01*
X133387397Y-76731521D01*
X133359492Y-76741982D01*
X133315262Y-76750000D01*
X132084738Y-76750000D01*
X132040508Y-76741982D01*
X132012605Y-76731522D01*
X131997351Y-76727895D01*
X131946486Y-76722369D01*
X131939672Y-76722000D01*
X130992115Y-76722000D01*
X130976876Y-76726475D01*
X130975671Y-76727865D01*
X130974000Y-76735548D01*
X130974000Y-76750000D01*
X130466000Y-76750000D01*
X130466000Y-76740116D01*
X130461525Y-76724877D01*
X130460135Y-76723672D01*
X130452452Y-76722001D01*
X129500331Y-76722001D01*
X129493510Y-76722371D01*
X129442648Y-76727895D01*
X129427397Y-76731521D01*
X129399492Y-76741982D01*
X129355262Y-76750000D01*
X129126000Y-76750000D01*
X129057879Y-76729998D01*
X129011386Y-76676342D01*
X129000000Y-76624000D01*
X129000000Y-57376000D01*
X129020002Y-57307879D01*
X129073658Y-57261386D01*
X129126000Y-57250000D01*
X136124000Y-57250000D01*
X136192121Y-57270002D01*
G37*
G04 #@! TD.AperFunction*
G04 #@! TA.AperFunction,Conductor*
G36*
X121479492Y-56508018D02*
G01*
X121507395Y-56518478D01*
X121522649Y-56522105D01*
X121573514Y-56527631D01*
X121580328Y-56528000D01*
X122527885Y-56528000D01*
X122543124Y-56523525D01*
X122544329Y-56522135D01*
X122546000Y-56514452D01*
X122546000Y-56500000D01*
X123054000Y-56500000D01*
X123054000Y-56509884D01*
X123058475Y-56525123D01*
X123059865Y-56526328D01*
X123067548Y-56527999D01*
X124019669Y-56527999D01*
X124026490Y-56527629D01*
X124077352Y-56522105D01*
X124092603Y-56518479D01*
X124120508Y-56508018D01*
X124164738Y-56500000D01*
X125395262Y-56500000D01*
X125439492Y-56508018D01*
X125467395Y-56518478D01*
X125482649Y-56522105D01*
X125533514Y-56527631D01*
X125540328Y-56528000D01*
X126487885Y-56528000D01*
X126503124Y-56523525D01*
X126504329Y-56522135D01*
X126506000Y-56514452D01*
X126506000Y-56500000D01*
X127014000Y-56500000D01*
X127014000Y-56509884D01*
X127018475Y-56525123D01*
X127019865Y-56526328D01*
X127027548Y-56527999D01*
X127979669Y-56527999D01*
X127986490Y-56527629D01*
X128037352Y-56522105D01*
X128052607Y-56518478D01*
X128079771Y-56508295D01*
X128150578Y-56503112D01*
X128212947Y-56537033D01*
X128247076Y-56599289D01*
X128250000Y-56626277D01*
X128250000Y-76623723D01*
X128229998Y-76691844D01*
X128176342Y-76738337D01*
X128106068Y-76748441D01*
X128079771Y-76741705D01*
X128052609Y-76731522D01*
X128037351Y-76727895D01*
X127986486Y-76722369D01*
X127979672Y-76722000D01*
X127032115Y-76722000D01*
X127016876Y-76726475D01*
X127015671Y-76727865D01*
X127014000Y-76735548D01*
X127014000Y-76750000D01*
X126506000Y-76750000D01*
X126506000Y-76740116D01*
X126501525Y-76724877D01*
X126500135Y-76723672D01*
X126492452Y-76722001D01*
X125540331Y-76722001D01*
X125533510Y-76722371D01*
X125482648Y-76727895D01*
X125467397Y-76731521D01*
X125439492Y-76741982D01*
X125395262Y-76750000D01*
X124164738Y-76750000D01*
X124120508Y-76741982D01*
X124092605Y-76731522D01*
X124077351Y-76727895D01*
X124026486Y-76722369D01*
X124019672Y-76722000D01*
X123072115Y-76722000D01*
X123056876Y-76726475D01*
X123055671Y-76727865D01*
X123054000Y-76735548D01*
X123054000Y-76750000D01*
X122546000Y-76750000D01*
X122546000Y-76740116D01*
X122541525Y-76724877D01*
X122540135Y-76723672D01*
X122532452Y-76722001D01*
X121580331Y-76722001D01*
X121573510Y-76722371D01*
X121522648Y-76727895D01*
X121507397Y-76731521D01*
X121479492Y-76741982D01*
X121435262Y-76750000D01*
X121434000Y-76750000D01*
X121365879Y-76729998D01*
X121319386Y-76676342D01*
X121308000Y-76624000D01*
X121308000Y-56626000D01*
X121328002Y-56557879D01*
X121381658Y-56511386D01*
X121434000Y-56500000D01*
X121435262Y-56500000D01*
X121479492Y-56508018D01*
G37*
G04 #@! TD.AperFunction*
M02*
