G04 #@! TF.GenerationSoftware,KiCad,Pcbnew,(6.0.0)*
G04 #@! TF.CreationDate,2022-01-04T21:47:13+01:00*
G04 #@! TF.ProjectId,jamma_mahjong,6a616d6d-615f-46d6-9168-6a6f6e672e6b,rev?*
G04 #@! TF.SameCoordinates,Original*
G04 #@! TF.FileFunction,Copper,L2,Inr*
G04 #@! TF.FilePolarity,Positive*
%FSLAX46Y46*%
G04 Gerber Fmt 4.6, Leading zero omitted, Abs format (unit mm)*
G04 Created by KiCad (PCBNEW (6.0.0)) date 2022-01-04 21:47:13*
%MOMM*%
%LPD*%
G01*
G04 APERTURE LIST*
G04 Aperture macros list*
%AMRoundRect*
0 Rectangle with rounded corners*
0 $1 Rounding radius*
0 $2 $3 $4 $5 $6 $7 $8 $9 X,Y pos of 4 corners*
0 Add a 4 corners polygon primitive as box body*
4,1,4,$2,$3,$4,$5,$6,$7,$8,$9,$2,$3,0*
0 Add four circle primitives for the rounded corners*
1,1,$1+$1,$2,$3*
1,1,$1+$1,$4,$5*
1,1,$1+$1,$6,$7*
1,1,$1+$1,$8,$9*
0 Add four rect primitives between the rounded corners*
20,1,$1+$1,$2,$3,$4,$5,0*
20,1,$1+$1,$4,$5,$6,$7,0*
20,1,$1+$1,$6,$7,$8,$9,0*
20,1,$1+$1,$8,$9,$2,$3,0*%
G04 Aperture macros list end*
G04 #@! TA.AperFunction,ComponentPad*
%ADD10C,2.781000*%
G04 #@! TD*
G04 #@! TA.AperFunction,ComponentPad*
%ADD11RoundRect,0.250000X0.600000X0.725000X-0.600000X0.725000X-0.600000X-0.725000X0.600000X-0.725000X0*%
G04 #@! TD*
G04 #@! TA.AperFunction,ComponentPad*
%ADD12O,1.700000X1.950000*%
G04 #@! TD*
G04 #@! TA.AperFunction,ComponentPad*
%ADD13RoundRect,0.250000X0.600000X0.750000X-0.600000X0.750000X-0.600000X-0.750000X0.600000X-0.750000X0*%
G04 #@! TD*
G04 #@! TA.AperFunction,ComponentPad*
%ADD14O,1.700000X2.000000*%
G04 #@! TD*
G04 #@! TA.AperFunction,ViaPad*
%ADD15C,0.800000*%
G04 #@! TD*
G04 #@! TA.AperFunction,Conductor*
%ADD16C,2.000000*%
G04 #@! TD*
G04 #@! TA.AperFunction,Conductor*
%ADD17C,1.500000*%
G04 #@! TD*
G04 #@! TA.AperFunction,Conductor*
%ADD18C,0.500000*%
G04 #@! TD*
G04 APERTURE END LIST*
D10*
X194450000Y-64000000D03*
X189750000Y-64000000D03*
X185050000Y-64000000D03*
D11*
X227000000Y-73000000D03*
D12*
X224500000Y-73000000D03*
X222000000Y-73000000D03*
X219500000Y-73000000D03*
X217000000Y-73000000D03*
X214500000Y-73000000D03*
D11*
X176750000Y-73000000D03*
D12*
X174250000Y-73000000D03*
X171750000Y-73000000D03*
X169250000Y-73000000D03*
X166750000Y-73000000D03*
X164250000Y-73000000D03*
D13*
X227450000Y-62100000D03*
D14*
X224950000Y-62100000D03*
D15*
X209250000Y-61900000D03*
X142494000Y-75946000D03*
X142500000Y-58900000D03*
X142500000Y-60100000D03*
X142500000Y-57700000D03*
X209250000Y-64300000D03*
X209920000Y-57130000D03*
X209250000Y-63100000D03*
X210650000Y-64300000D03*
X142494000Y-74930000D03*
X122800000Y-57200000D03*
X158500000Y-76000000D03*
X126760000Y-57240000D03*
X126800000Y-58800000D03*
X154500000Y-76000000D03*
X225800000Y-59000000D03*
X122800000Y-58800000D03*
X225760000Y-57600000D03*
X156600000Y-76000000D03*
X122800000Y-75800000D03*
X177500000Y-66000000D03*
X229750000Y-59000000D03*
X156600000Y-75000000D03*
X122800000Y-74200000D03*
X206248000Y-72898000D03*
X207264000Y-72898000D03*
X177500000Y-67250000D03*
X154500000Y-75000000D03*
X227600000Y-59000000D03*
X158500000Y-75000000D03*
X126800000Y-74200000D03*
X229720000Y-57600000D03*
X227600000Y-57600000D03*
X126750000Y-75750000D03*
X219800000Y-57600000D03*
X134500000Y-74500000D03*
X130750000Y-75750000D03*
X130750000Y-74500000D03*
X150500000Y-76000000D03*
X150500000Y-75000000D03*
X132600000Y-75800000D03*
X132600000Y-74400000D03*
X217840000Y-57660000D03*
X148400000Y-76000000D03*
X130200000Y-58400000D03*
X221800000Y-57600000D03*
X132600000Y-58400000D03*
X134680000Y-75820000D03*
X146500000Y-75000000D03*
X148400000Y-75000000D03*
X146500000Y-76000000D03*
X221800000Y-59000000D03*
X219800000Y-59000000D03*
X217800000Y-59000000D03*
X135000000Y-58400000D03*
X214950000Y-58900000D03*
X214950000Y-57650000D03*
X214950000Y-60200000D03*
X199900000Y-74422000D03*
X190950000Y-74422000D03*
X198200000Y-74422000D03*
X189738000Y-74422000D03*
X197000000Y-61250000D03*
X175250000Y-68250000D03*
X203708000Y-67818000D03*
X190950000Y-69750000D03*
X189700000Y-69750000D03*
X198200000Y-69800000D03*
X199900000Y-69800000D03*
X199898000Y-67310000D03*
X190950000Y-67310000D03*
X189738000Y-67310000D03*
X198201018Y-67311018D03*
X172500000Y-62750000D03*
X172500000Y-66250000D03*
X198200000Y-72000000D03*
X199900000Y-72000000D03*
X190950000Y-72000000D03*
X189700000Y-72000000D03*
X209804000Y-75692000D03*
X181356000Y-73152000D03*
X172500000Y-68000000D03*
X172500000Y-64500000D03*
X172500000Y-61000000D03*
X138750000Y-58800000D03*
X214900000Y-64300000D03*
X212800000Y-61900000D03*
X214900000Y-61900000D03*
X138750000Y-57650000D03*
X138800000Y-60200000D03*
X212800000Y-64300000D03*
D16*
X194500000Y-55000000D02*
X200750000Y-61250000D01*
X144100000Y-55000000D02*
X194500000Y-55000000D01*
X207500000Y-61250000D02*
X209750000Y-63500000D01*
X142500000Y-56600000D02*
X144100000Y-55000000D01*
X200750000Y-61250000D02*
X207500000Y-61250000D01*
X142500000Y-58900000D02*
X142500000Y-57700000D01*
X142500000Y-57700000D02*
X142500000Y-56600000D01*
X142500000Y-60100000D02*
X142500000Y-58900000D01*
D17*
X198200000Y-74422000D02*
X190950000Y-74422000D01*
X198200000Y-74422000D02*
X199900000Y-74422000D01*
X190950000Y-74422000D02*
X189738000Y-74422000D01*
X190950000Y-69750000D02*
X189700000Y-69750000D01*
X199900000Y-69800000D02*
X198200000Y-69800000D01*
X198150000Y-69750000D02*
X190950000Y-69750000D01*
X198200000Y-69800000D02*
X198150000Y-69750000D01*
X199896982Y-67311018D02*
X198201018Y-67311018D01*
X198200000Y-67310000D02*
X190950000Y-67310000D01*
X198201018Y-67311018D02*
X198200000Y-67310000D01*
X190950000Y-67310000D02*
X189738000Y-67310000D01*
X199898000Y-67310000D02*
X199896982Y-67311018D01*
X198200000Y-72000000D02*
X199900000Y-72000000D01*
X190950000Y-72000000D02*
X189700000Y-72000000D01*
X198200000Y-72000000D02*
X190950000Y-72000000D01*
D18*
X185928000Y-77724000D02*
X181356000Y-73152000D01*
X209804000Y-75692000D02*
X207772000Y-77724000D01*
X207772000Y-77724000D02*
X185928000Y-77724000D01*
D16*
X138750000Y-60150000D02*
X138750000Y-58800000D01*
X138750000Y-55150000D02*
X141400000Y-52500000D01*
X212500000Y-62500000D02*
X212650000Y-62500000D01*
X138750000Y-57650000D02*
X138750000Y-55150000D01*
X208500000Y-58500000D02*
X212500000Y-62500000D01*
X141400000Y-52500000D02*
X197000000Y-52500000D01*
X138750000Y-58800000D02*
X138750000Y-57650000D01*
X203000000Y-58500000D02*
X208500000Y-58500000D01*
X197000000Y-52500000D02*
X203000000Y-58500000D01*
G04 #@! TA.AperFunction,Conductor*
G36*
X191542121Y-69020002D02*
G01*
X191588614Y-69073658D01*
X191600000Y-69126000D01*
X191600000Y-70374000D01*
X191579998Y-70442121D01*
X191526342Y-70488614D01*
X191474000Y-70500000D01*
X188376000Y-70500000D01*
X188307879Y-70479998D01*
X188261386Y-70426342D01*
X188250000Y-70374000D01*
X188250000Y-69126000D01*
X188270002Y-69057879D01*
X188323658Y-69011386D01*
X188376000Y-69000000D01*
X191474000Y-69000000D01*
X191542121Y-69020002D01*
G37*
G04 #@! TD.AperFunction*
G04 #@! TA.AperFunction,Conductor*
G36*
X191542121Y-73704002D02*
G01*
X191588614Y-73757658D01*
X191600000Y-73810000D01*
X191600000Y-75058000D01*
X191579998Y-75126121D01*
X191526342Y-75172614D01*
X191474000Y-75184000D01*
X188376000Y-75184000D01*
X188307879Y-75163998D01*
X188261386Y-75110342D01*
X188250000Y-75058000D01*
X188250000Y-73810000D01*
X188270002Y-73741879D01*
X188323658Y-73695386D01*
X188376000Y-73684000D01*
X191474000Y-73684000D01*
X191542121Y-73704002D01*
G37*
G04 #@! TD.AperFunction*
G04 #@! TA.AperFunction,Conductor*
G36*
X200492121Y-71270002D02*
G01*
X200538614Y-71323658D01*
X200550000Y-71376000D01*
X200550000Y-72624000D01*
X200529998Y-72692121D01*
X200476342Y-72738614D01*
X200424000Y-72750000D01*
X197576000Y-72750000D01*
X197507879Y-72729998D01*
X197461386Y-72676342D01*
X197450000Y-72624000D01*
X197450000Y-71376000D01*
X197470002Y-71307879D01*
X197523658Y-71261386D01*
X197576000Y-71250000D01*
X200424000Y-71250000D01*
X200492121Y-71270002D01*
G37*
G04 #@! TD.AperFunction*
G04 #@! TA.AperFunction,Conductor*
G36*
X200602121Y-66568002D02*
G01*
X200648614Y-66621658D01*
X200660000Y-66674000D01*
X200660000Y-67922000D01*
X200639998Y-67990121D01*
X200586342Y-68036614D01*
X200534000Y-68048000D01*
X197686000Y-68048000D01*
X197617879Y-68027998D01*
X197571386Y-67974342D01*
X197560000Y-67922000D01*
X197560000Y-66674000D01*
X197580002Y-66605879D01*
X197633658Y-66559386D01*
X197686000Y-66548000D01*
X200534000Y-66548000D01*
X200602121Y-66568002D01*
G37*
G04 #@! TD.AperFunction*
G04 #@! TA.AperFunction,Conductor*
G36*
X215442121Y-61270002D02*
G01*
X215488614Y-61323658D01*
X215500000Y-61376000D01*
X215500000Y-64724000D01*
X215479998Y-64792121D01*
X215426342Y-64838614D01*
X215374000Y-64850000D01*
X212326000Y-64850000D01*
X212257879Y-64829998D01*
X212211386Y-64776342D01*
X212200000Y-64724000D01*
X212200000Y-61376000D01*
X212220002Y-61307879D01*
X212273658Y-61261386D01*
X212326000Y-61250000D01*
X215374000Y-61250000D01*
X215442121Y-61270002D01*
G37*
G04 #@! TD.AperFunction*
G04 #@! TA.AperFunction,Conductor*
G36*
X137091621Y-56154002D02*
G01*
X137138114Y-56207658D01*
X137149500Y-56260000D01*
X137149500Y-60212882D01*
X137149693Y-60215330D01*
X137149693Y-60215339D01*
X137155695Y-60291602D01*
X137164317Y-60401148D01*
X137165471Y-60405955D01*
X137165472Y-60405961D01*
X137188625Y-60502400D01*
X137223127Y-60646111D01*
X137225020Y-60650682D01*
X137225021Y-60650684D01*
X137308525Y-60852280D01*
X137319534Y-60878859D01*
X137451164Y-61093659D01*
X137454376Y-61097419D01*
X137454379Y-61097424D01*
X137566401Y-61228584D01*
X137614776Y-61285224D01*
X137618538Y-61288437D01*
X137802576Y-61445621D01*
X137802581Y-61445624D01*
X137806341Y-61448836D01*
X138021141Y-61580466D01*
X138025711Y-61582359D01*
X138025715Y-61582361D01*
X138223467Y-61664272D01*
X138253889Y-61676873D01*
X138338289Y-61697135D01*
X138494039Y-61734528D01*
X138494045Y-61734529D01*
X138498852Y-61735683D01*
X138750000Y-61755449D01*
X139001148Y-61735683D01*
X139005955Y-61734529D01*
X139005961Y-61734528D01*
X139161711Y-61697135D01*
X139246111Y-61676873D01*
X139276533Y-61664272D01*
X139474285Y-61582361D01*
X139474289Y-61582359D01*
X139478859Y-61580466D01*
X139693659Y-61448836D01*
X139697419Y-61445624D01*
X139697424Y-61445621D01*
X139881462Y-61288437D01*
X139885224Y-61285224D01*
X139933599Y-61228584D01*
X140045621Y-61097424D01*
X140045624Y-61097419D01*
X140048836Y-61093659D01*
X140180466Y-60878859D01*
X140191476Y-60852280D01*
X140274979Y-60650684D01*
X140274980Y-60650682D01*
X140276873Y-60646111D01*
X140311375Y-60502400D01*
X140334528Y-60405961D01*
X140334529Y-60405955D01*
X140335683Y-60401148D01*
X140344305Y-60291602D01*
X140350307Y-60215339D01*
X140350307Y-60215330D01*
X140350500Y-60212882D01*
X140350500Y-56260000D01*
X140370502Y-56191879D01*
X140424158Y-56145386D01*
X140476500Y-56134000D01*
X140806068Y-56134000D01*
X140874189Y-56154002D01*
X140920682Y-56207658D01*
X140930786Y-56277932D01*
X140928589Y-56289404D01*
X140914317Y-56348852D01*
X140894551Y-56600000D01*
X140894939Y-56604930D01*
X140899112Y-56657952D01*
X140899500Y-56667838D01*
X140899500Y-60162882D01*
X140899693Y-60165330D01*
X140899693Y-60165339D01*
X140904906Y-60231575D01*
X140914317Y-60351148D01*
X140915471Y-60355955D01*
X140915472Y-60355961D01*
X140935027Y-60437412D01*
X140973127Y-60596111D01*
X140975020Y-60600682D01*
X140975021Y-60600684D01*
X141059539Y-60804728D01*
X141069534Y-60828859D01*
X141201164Y-61043659D01*
X141204376Y-61047419D01*
X141204379Y-61047424D01*
X141348881Y-61216613D01*
X141364776Y-61235224D01*
X141372835Y-61242107D01*
X141552576Y-61395621D01*
X141552581Y-61395624D01*
X141556341Y-61398836D01*
X141771141Y-61530466D01*
X141775711Y-61532359D01*
X141775715Y-61532361D01*
X141999316Y-61624979D01*
X142003889Y-61626873D01*
X142088289Y-61647135D01*
X142244039Y-61684528D01*
X142244045Y-61684529D01*
X142248852Y-61685683D01*
X142500000Y-61705449D01*
X142751148Y-61685683D01*
X142755955Y-61684529D01*
X142755961Y-61684528D01*
X142911711Y-61647135D01*
X142996111Y-61626873D01*
X143000684Y-61624979D01*
X143224285Y-61532361D01*
X143224289Y-61532359D01*
X143228859Y-61530466D01*
X143443659Y-61398836D01*
X143447419Y-61395624D01*
X143447424Y-61395621D01*
X143627165Y-61242107D01*
X143635224Y-61235224D01*
X143651119Y-61216613D01*
X143795621Y-61047424D01*
X143795624Y-61047419D01*
X143798836Y-61043659D01*
X143930466Y-60828859D01*
X143940462Y-60804728D01*
X144024979Y-60600684D01*
X144024980Y-60600682D01*
X144026873Y-60596111D01*
X144064973Y-60437412D01*
X144084528Y-60355961D01*
X144084529Y-60355955D01*
X144085683Y-60351148D01*
X144095094Y-60231575D01*
X144100307Y-60165339D01*
X144100307Y-60165330D01*
X144100500Y-60162882D01*
X144100500Y-57315139D01*
X144120502Y-57247018D01*
X144137405Y-57226044D01*
X144726044Y-56637405D01*
X144788356Y-56603379D01*
X144815139Y-56600500D01*
X193784861Y-56600500D01*
X193852982Y-56620502D01*
X193873956Y-56637405D01*
X197285333Y-60048782D01*
X197319359Y-60111094D01*
X197314294Y-60181909D01*
X197271747Y-60238745D01*
X197205227Y-60263556D01*
X197183067Y-60263187D01*
X197013147Y-60245327D01*
X197013146Y-60245327D01*
X197007019Y-60244683D01*
X196884383Y-60255844D01*
X196817759Y-60261907D01*
X196817758Y-60261907D01*
X196811618Y-60262466D01*
X196805704Y-60264207D01*
X196805702Y-60264207D01*
X196730196Y-60286430D01*
X196623393Y-60317864D01*
X196617928Y-60320721D01*
X196454972Y-60405912D01*
X196454968Y-60405915D01*
X196449512Y-60408767D01*
X196444712Y-60412627D01*
X196444711Y-60412627D01*
X196420596Y-60432016D01*
X196296600Y-60531711D01*
X196170480Y-60682016D01*
X196167516Y-60687408D01*
X196167513Y-60687412D01*
X196145605Y-60727263D01*
X196075956Y-60853954D01*
X196074095Y-60859821D01*
X196074094Y-60859823D01*
X196066717Y-60883079D01*
X196016628Y-61040978D01*
X195994757Y-61235963D01*
X196011175Y-61431483D01*
X196065258Y-61620091D01*
X196069337Y-61628028D01*
X196152123Y-61789113D01*
X196152126Y-61789117D01*
X196154944Y-61794601D01*
X196276818Y-61948369D01*
X196281511Y-61952363D01*
X196281512Y-61952364D01*
X196380290Y-62036430D01*
X196426238Y-62075535D01*
X196431616Y-62078541D01*
X196431618Y-62078542D01*
X196467932Y-62098837D01*
X196597513Y-62171257D01*
X196784118Y-62231889D01*
X196978946Y-62255121D01*
X196985081Y-62254649D01*
X196985083Y-62254649D01*
X197168434Y-62240541D01*
X197168438Y-62240540D01*
X197174576Y-62240068D01*
X197363556Y-62187303D01*
X197538689Y-62098837D01*
X197568515Y-62075535D01*
X197688453Y-61981829D01*
X197693303Y-61978040D01*
X197723084Y-61943539D01*
X197817485Y-61834173D01*
X197817485Y-61834172D01*
X197821509Y-61829511D01*
X197918425Y-61658909D01*
X197980358Y-61472732D01*
X198004949Y-61278071D01*
X198005341Y-61250000D01*
X197987368Y-61066702D01*
X198000627Y-60996954D01*
X198049490Y-60945447D01*
X198118442Y-60928534D01*
X198185593Y-60951584D01*
X198201862Y-60965311D01*
X199570307Y-62333756D01*
X199577012Y-62341009D01*
X199614776Y-62385224D01*
X199618538Y-62388437D01*
X199662740Y-62426189D01*
X199802576Y-62545621D01*
X199802581Y-62545625D01*
X199806341Y-62548836D01*
X200021141Y-62680466D01*
X200025711Y-62682359D01*
X200025715Y-62682361D01*
X200249316Y-62774980D01*
X200249318Y-62774981D01*
X200253889Y-62776874D01*
X200498852Y-62835684D01*
X200750000Y-62855449D01*
X200754930Y-62855061D01*
X200807955Y-62850888D01*
X200817841Y-62850500D01*
X206784861Y-62850500D01*
X206852982Y-62870502D01*
X206873956Y-62887405D01*
X207963095Y-63976544D01*
X207997121Y-64038856D01*
X208000000Y-64065639D01*
X208000000Y-64724000D01*
X208000360Y-64727346D01*
X208000360Y-64727351D01*
X208003832Y-64759640D01*
X208013711Y-64851536D01*
X208014429Y-64854836D01*
X208014429Y-64854837D01*
X208023039Y-64894415D01*
X208025097Y-64903878D01*
X208071692Y-65038508D01*
X208076034Y-65045090D01*
X208155662Y-65165813D01*
X208155667Y-65165820D01*
X208157935Y-65169258D01*
X208204428Y-65222914D01*
X208223639Y-65244046D01*
X208345599Y-65342327D01*
X208417119Y-65373966D01*
X208485068Y-65404026D01*
X208485077Y-65404029D01*
X208488840Y-65405694D01*
X208492795Y-65406855D01*
X208492797Y-65406856D01*
X208502204Y-65409618D01*
X208556961Y-65425696D01*
X208561401Y-65426334D01*
X208561404Y-65426335D01*
X208721554Y-65449361D01*
X208721557Y-65449361D01*
X208726000Y-65450000D01*
X211124000Y-65450000D01*
X211127346Y-65449640D01*
X211127351Y-65449640D01*
X211248172Y-65436651D01*
X211248178Y-65436650D01*
X211251536Y-65436289D01*
X211254837Y-65435571D01*
X211300224Y-65425698D01*
X211300226Y-65425697D01*
X211303878Y-65424903D01*
X211307415Y-65423679D01*
X211307418Y-65423678D01*
X211364199Y-65404026D01*
X211438508Y-65378308D01*
X211500915Y-65337144D01*
X211565813Y-65294338D01*
X211565820Y-65294333D01*
X211569258Y-65292065D01*
X211622914Y-65245572D01*
X211640340Y-65229730D01*
X211704200Y-65198707D01*
X211774694Y-65207134D01*
X211816797Y-65237114D01*
X211816813Y-65237097D01*
X211816937Y-65237214D01*
X211818329Y-65238205D01*
X211823639Y-65244046D01*
X211945599Y-65342327D01*
X212017119Y-65373966D01*
X212085068Y-65404026D01*
X212085077Y-65404029D01*
X212088840Y-65405694D01*
X212092795Y-65406855D01*
X212092797Y-65406856D01*
X212102204Y-65409618D01*
X212156961Y-65425696D01*
X212161401Y-65426334D01*
X212161404Y-65426335D01*
X212321554Y-65449361D01*
X212321557Y-65449361D01*
X212326000Y-65450000D01*
X215374000Y-65450000D01*
X215377346Y-65449640D01*
X215377351Y-65449640D01*
X215498172Y-65436651D01*
X215498178Y-65436650D01*
X215501536Y-65436289D01*
X215504837Y-65435571D01*
X215550224Y-65425698D01*
X215550226Y-65425697D01*
X215553878Y-65424903D01*
X215557415Y-65423679D01*
X215557418Y-65423678D01*
X215614199Y-65404026D01*
X215688508Y-65378308D01*
X215750915Y-65337144D01*
X215815813Y-65294338D01*
X215815820Y-65294333D01*
X215819258Y-65292065D01*
X215872914Y-65245572D01*
X215894046Y-65226361D01*
X215942838Y-65165813D01*
X215987144Y-65110833D01*
X215987145Y-65110832D01*
X215992327Y-65104401D01*
X216024774Y-65031055D01*
X216054026Y-64964932D01*
X216054029Y-64964923D01*
X216055694Y-64961160D01*
X216062551Y-64937809D01*
X216074430Y-64897351D01*
X216074430Y-64897350D01*
X216075696Y-64893039D01*
X216078207Y-64875574D01*
X216099361Y-64728446D01*
X216099361Y-64728443D01*
X216100000Y-64724000D01*
X216100000Y-62370193D01*
X223597289Y-62370193D01*
X223606124Y-62474325D01*
X223607914Y-62484797D01*
X223663130Y-62697535D01*
X223666665Y-62707575D01*
X223756937Y-62907970D01*
X223762106Y-62917256D01*
X223884850Y-63099575D01*
X223891519Y-63107870D01*
X224043228Y-63266900D01*
X224051186Y-63273941D01*
X224227525Y-63405141D01*
X224236562Y-63410745D01*
X224432484Y-63510357D01*
X224442335Y-63514357D01*
X224652240Y-63579534D01*
X224662624Y-63581817D01*
X224678043Y-63583861D01*
X224692207Y-63581665D01*
X224696000Y-63568478D01*
X224696000Y-63566192D01*
X225204000Y-63566192D01*
X225207973Y-63579723D01*
X225218580Y-63581248D01*
X225336421Y-63556523D01*
X225346617Y-63553463D01*
X225551029Y-63472737D01*
X225560561Y-63468006D01*
X225748462Y-63353984D01*
X225757052Y-63347720D01*
X225906953Y-63217643D01*
X225971513Y-63188104D01*
X226041794Y-63198158D01*
X226095482Y-63244613D01*
X226102393Y-63256785D01*
X226129269Y-63310926D01*
X226245060Y-63454940D01*
X226389074Y-63570731D01*
X226445693Y-63598837D01*
X226548481Y-63649862D01*
X226548485Y-63649864D01*
X226554592Y-63652895D01*
X226561214Y-63654546D01*
X226728497Y-63696255D01*
X226728501Y-63696256D01*
X226733893Y-63697600D01*
X226750706Y-63698746D01*
X226774286Y-63700354D01*
X226774299Y-63700354D01*
X226776434Y-63700500D01*
X228123566Y-63700500D01*
X228125701Y-63700354D01*
X228125714Y-63700354D01*
X228149294Y-63698746D01*
X228166107Y-63697600D01*
X228171499Y-63696256D01*
X228171503Y-63696255D01*
X228338786Y-63654546D01*
X228345408Y-63652895D01*
X228351515Y-63649864D01*
X228351519Y-63649862D01*
X228454307Y-63598837D01*
X228510926Y-63570731D01*
X228654940Y-63454940D01*
X228770731Y-63310926D01*
X228826710Y-63198158D01*
X228849862Y-63151519D01*
X228849864Y-63151515D01*
X228852895Y-63145408D01*
X228864323Y-63099575D01*
X228896255Y-62971503D01*
X228896256Y-62971499D01*
X228897600Y-62966107D01*
X228899764Y-62934360D01*
X228900354Y-62925714D01*
X228900354Y-62925701D01*
X228900500Y-62923566D01*
X228900500Y-61276434D01*
X228897600Y-61233893D01*
X228894818Y-61222732D01*
X228854546Y-61061214D01*
X228852895Y-61054592D01*
X228849864Y-61048485D01*
X228849862Y-61048481D01*
X228793125Y-60934187D01*
X228770731Y-60889074D01*
X228654940Y-60745060D01*
X228510926Y-60629269D01*
X228371919Y-60560265D01*
X228351519Y-60550138D01*
X228351515Y-60550136D01*
X228345408Y-60547105D01*
X228302593Y-60536430D01*
X228171503Y-60503745D01*
X228171499Y-60503744D01*
X228166107Y-60502400D01*
X228149294Y-60501254D01*
X228125714Y-60499646D01*
X228125701Y-60499646D01*
X228123566Y-60499500D01*
X226776434Y-60499500D01*
X226774299Y-60499646D01*
X226774286Y-60499646D01*
X226750706Y-60501254D01*
X226733893Y-60502400D01*
X226728501Y-60503744D01*
X226728497Y-60503745D01*
X226597407Y-60536430D01*
X226554592Y-60547105D01*
X226548485Y-60550136D01*
X226548481Y-60550138D01*
X226528081Y-60560265D01*
X226389074Y-60629269D01*
X226245060Y-60745060D01*
X226129269Y-60889074D01*
X226110133Y-60927624D01*
X226101565Y-60944883D01*
X226053359Y-60997006D01*
X225984627Y-61014793D01*
X225917189Y-60992597D01*
X225897536Y-60975831D01*
X225856772Y-60933100D01*
X225848814Y-60926059D01*
X225672475Y-60794859D01*
X225663438Y-60789255D01*
X225467516Y-60689643D01*
X225457665Y-60685643D01*
X225247760Y-60620466D01*
X225237376Y-60618183D01*
X225221957Y-60616139D01*
X225207793Y-60618335D01*
X225204000Y-60631522D01*
X225204000Y-63566192D01*
X224696000Y-63566192D01*
X224696000Y-62372115D01*
X224691525Y-62356876D01*
X224690135Y-62355671D01*
X224682452Y-62354000D01*
X223614030Y-62354000D01*
X223599352Y-62358310D01*
X223597289Y-62370193D01*
X216100000Y-62370193D01*
X216100000Y-61830376D01*
X223592732Y-61830376D01*
X223596475Y-61843124D01*
X223597865Y-61844329D01*
X223605548Y-61846000D01*
X224677885Y-61846000D01*
X224693124Y-61841525D01*
X224694329Y-61840135D01*
X224696000Y-61832452D01*
X224696000Y-60633808D01*
X224692027Y-60620277D01*
X224681420Y-60618752D01*
X224563579Y-60643477D01*
X224553383Y-60646537D01*
X224348971Y-60727263D01*
X224339439Y-60731994D01*
X224151538Y-60846016D01*
X224142948Y-60852280D01*
X223976948Y-60996327D01*
X223969528Y-61003958D01*
X223830174Y-61173911D01*
X223824150Y-61182678D01*
X223715424Y-61373682D01*
X223710959Y-61383346D01*
X223635969Y-61589941D01*
X223633198Y-61600208D01*
X223593877Y-61817655D01*
X223592944Y-61825884D01*
X223592732Y-61830376D01*
X216100000Y-61830376D01*
X216100000Y-61376000D01*
X216098728Y-61364169D01*
X216086651Y-61251828D01*
X216086650Y-61251822D01*
X216086289Y-61248464D01*
X216082237Y-61229838D01*
X216075698Y-61199776D01*
X216075697Y-61199774D01*
X216074903Y-61196122D01*
X216071886Y-61187403D01*
X216030887Y-61068945D01*
X216028308Y-61061492D01*
X215982865Y-60992597D01*
X215944338Y-60934187D01*
X215944333Y-60934180D01*
X215942065Y-60930742D01*
X215895572Y-60877086D01*
X215876361Y-60855954D01*
X215872572Y-60852901D01*
X215872566Y-60852895D01*
X215858050Y-60841198D01*
X215817559Y-60782879D01*
X215815025Y-60711928D01*
X215827553Y-60680856D01*
X215850025Y-60641299D01*
X215865379Y-60614272D01*
X215865381Y-60614267D01*
X215868425Y-60608909D01*
X215930358Y-60422732D01*
X215954949Y-60228071D01*
X215955341Y-60200000D01*
X215936194Y-60004728D01*
X215934413Y-59998829D01*
X215934412Y-59998824D01*
X215881265Y-59822793D01*
X215879484Y-59816894D01*
X215787370Y-59643653D01*
X215776830Y-59630729D01*
X215749275Y-59565301D01*
X215761469Y-59495359D01*
X215769518Y-59481818D01*
X215771509Y-59479511D01*
X215868425Y-59308909D01*
X215930358Y-59122732D01*
X215947636Y-58985963D01*
X216794757Y-58985963D01*
X216811175Y-59181483D01*
X216865258Y-59370091D01*
X216868076Y-59375574D01*
X216952123Y-59539113D01*
X216952126Y-59539117D01*
X216954944Y-59544601D01*
X217076818Y-59698369D01*
X217226238Y-59825535D01*
X217231616Y-59828541D01*
X217231618Y-59828542D01*
X217267932Y-59848837D01*
X217397513Y-59921257D01*
X217584118Y-59981889D01*
X217778946Y-60005121D01*
X217785081Y-60004649D01*
X217785083Y-60004649D01*
X217968434Y-59990541D01*
X217968438Y-59990540D01*
X217974576Y-59990068D01*
X218163556Y-59937303D01*
X218338689Y-59848837D01*
X218368515Y-59825535D01*
X218488453Y-59731829D01*
X218493303Y-59728040D01*
X218523084Y-59693539D01*
X218617485Y-59584173D01*
X218617485Y-59584172D01*
X218621509Y-59579511D01*
X218629582Y-59565301D01*
X218690886Y-59457386D01*
X218741925Y-59408035D01*
X218811543Y-59394113D01*
X218877637Y-59420039D01*
X218912506Y-59462025D01*
X218954944Y-59544601D01*
X219076818Y-59698369D01*
X219226238Y-59825535D01*
X219231616Y-59828541D01*
X219231618Y-59828542D01*
X219267932Y-59848837D01*
X219397513Y-59921257D01*
X219584118Y-59981889D01*
X219778946Y-60005121D01*
X219785081Y-60004649D01*
X219785083Y-60004649D01*
X219968434Y-59990541D01*
X219968438Y-59990540D01*
X219974576Y-59990068D01*
X220163556Y-59937303D01*
X220338689Y-59848837D01*
X220368515Y-59825535D01*
X220488453Y-59731829D01*
X220493303Y-59728040D01*
X220523084Y-59693539D01*
X220617485Y-59584173D01*
X220617485Y-59584172D01*
X220621509Y-59579511D01*
X220629582Y-59565301D01*
X220690886Y-59457386D01*
X220741925Y-59408035D01*
X220811543Y-59394113D01*
X220877637Y-59420039D01*
X220912506Y-59462025D01*
X220954944Y-59544601D01*
X221076818Y-59698369D01*
X221226238Y-59825535D01*
X221231616Y-59828541D01*
X221231618Y-59828542D01*
X221267932Y-59848837D01*
X221397513Y-59921257D01*
X221584118Y-59981889D01*
X221778946Y-60005121D01*
X221785081Y-60004649D01*
X221785083Y-60004649D01*
X221968434Y-59990541D01*
X221968438Y-59990540D01*
X221974576Y-59990068D01*
X222163556Y-59937303D01*
X222338689Y-59848837D01*
X222368515Y-59825535D01*
X222488453Y-59731829D01*
X222493303Y-59728040D01*
X222523084Y-59693539D01*
X222617485Y-59584173D01*
X222617485Y-59584172D01*
X222621509Y-59579511D01*
X222629582Y-59565301D01*
X222678317Y-59479511D01*
X222718425Y-59408909D01*
X222780358Y-59222732D01*
X222804949Y-59028071D01*
X222805341Y-59000000D01*
X222786194Y-58804728D01*
X222784413Y-58798829D01*
X222784412Y-58798824D01*
X222731265Y-58622793D01*
X222729484Y-58616894D01*
X222637370Y-58443653D01*
X222601768Y-58400000D01*
X222585718Y-58380320D01*
X222558165Y-58314888D01*
X222570361Y-58244947D01*
X222587980Y-58218355D01*
X222617485Y-58184173D01*
X222617485Y-58184172D01*
X222621509Y-58179511D01*
X222644455Y-58139120D01*
X222709756Y-58024169D01*
X222718425Y-58008909D01*
X222780358Y-57822732D01*
X222804949Y-57628071D01*
X222805341Y-57600000D01*
X222786194Y-57404728D01*
X222784413Y-57398829D01*
X222784412Y-57398824D01*
X222731265Y-57222793D01*
X222729484Y-57216894D01*
X222637370Y-57043653D01*
X222513361Y-56891602D01*
X222362180Y-56766535D01*
X222189585Y-56673213D01*
X222073908Y-56637405D01*
X222008039Y-56617015D01*
X222008036Y-56617014D01*
X222002152Y-56615193D01*
X221996027Y-56614549D01*
X221996026Y-56614549D01*
X221813147Y-56595327D01*
X221813146Y-56595327D01*
X221807019Y-56594683D01*
X221694424Y-56604930D01*
X221617759Y-56611907D01*
X221617758Y-56611907D01*
X221611618Y-56612466D01*
X221605704Y-56614207D01*
X221605702Y-56614207D01*
X221584314Y-56620502D01*
X221423393Y-56667864D01*
X221417928Y-56670721D01*
X221254972Y-56755912D01*
X221254968Y-56755915D01*
X221249512Y-56758767D01*
X221244712Y-56762627D01*
X221244711Y-56762627D01*
X221210326Y-56790273D01*
X221096600Y-56881711D01*
X220970480Y-57032016D01*
X220967514Y-57037412D01*
X220967511Y-57037416D01*
X220910263Y-57141548D01*
X220859918Y-57191606D01*
X220790501Y-57206499D01*
X220724052Y-57181498D01*
X220688598Y-57139999D01*
X220684618Y-57132514D01*
X220637370Y-57043653D01*
X220513361Y-56891602D01*
X220362180Y-56766535D01*
X220189585Y-56673213D01*
X220073908Y-56637405D01*
X220008039Y-56617015D01*
X220008036Y-56617014D01*
X220002152Y-56615193D01*
X219996027Y-56614549D01*
X219996026Y-56614549D01*
X219813147Y-56595327D01*
X219813146Y-56595327D01*
X219807019Y-56594683D01*
X219694424Y-56604930D01*
X219617759Y-56611907D01*
X219617758Y-56611907D01*
X219611618Y-56612466D01*
X219605704Y-56614207D01*
X219605702Y-56614207D01*
X219584314Y-56620502D01*
X219423393Y-56667864D01*
X219417928Y-56670721D01*
X219254972Y-56755912D01*
X219254968Y-56755915D01*
X219249512Y-56758767D01*
X219244712Y-56762627D01*
X219244711Y-56762627D01*
X219210326Y-56790273D01*
X219096600Y-56881711D01*
X218970480Y-57032016D01*
X218967516Y-57037408D01*
X218967513Y-57037412D01*
X218914381Y-57134060D01*
X218864035Y-57184118D01*
X218794619Y-57199012D01*
X218728169Y-57174011D01*
X218692717Y-57132516D01*
X218677370Y-57103653D01*
X218553361Y-56951602D01*
X218402180Y-56826535D01*
X218229585Y-56733213D01*
X218135868Y-56704203D01*
X218048039Y-56677015D01*
X218048036Y-56677014D01*
X218042152Y-56675193D01*
X218036027Y-56674549D01*
X218036026Y-56674549D01*
X217853147Y-56655327D01*
X217853146Y-56655327D01*
X217847019Y-56654683D01*
X217756928Y-56662882D01*
X217657759Y-56671907D01*
X217657758Y-56671907D01*
X217651618Y-56672466D01*
X217645704Y-56674207D01*
X217645702Y-56674207D01*
X217516734Y-56712165D01*
X217463393Y-56727864D01*
X217457928Y-56730721D01*
X217294972Y-56815912D01*
X217294968Y-56815915D01*
X217289512Y-56818767D01*
X217284712Y-56822627D01*
X217284711Y-56822627D01*
X217257673Y-56844366D01*
X217136600Y-56941711D01*
X217010480Y-57092016D01*
X217007516Y-57097408D01*
X217007513Y-57097412D01*
X216936797Y-57226044D01*
X216915956Y-57263954D01*
X216856628Y-57450978D01*
X216834757Y-57645963D01*
X216851175Y-57841483D01*
X216905258Y-58030091D01*
X216908076Y-58035574D01*
X216992123Y-58199113D01*
X216992126Y-58199117D01*
X216994944Y-58204601D01*
X217005845Y-58218355D01*
X217011922Y-58226022D01*
X217038559Y-58291832D01*
X217025388Y-58361596D01*
X217009698Y-58385276D01*
X216974443Y-58427292D01*
X216974439Y-58427298D01*
X216970480Y-58432016D01*
X216967516Y-58437408D01*
X216967513Y-58437412D01*
X216923818Y-58516894D01*
X216875956Y-58603954D01*
X216816628Y-58790978D01*
X216794757Y-58985963D01*
X215947636Y-58985963D01*
X215954949Y-58928071D01*
X215955341Y-58900000D01*
X215936194Y-58704728D01*
X215934413Y-58698829D01*
X215934412Y-58698824D01*
X215881265Y-58522793D01*
X215879484Y-58516894D01*
X215830019Y-58423865D01*
X215790265Y-58349097D01*
X215790263Y-58349094D01*
X215787370Y-58343653D01*
X215786014Y-58341990D01*
X215765392Y-58275510D01*
X215781821Y-58211359D01*
X215819745Y-58144601D01*
X215868425Y-58058909D01*
X215930358Y-57872732D01*
X215954949Y-57678071D01*
X215955341Y-57650000D01*
X215936194Y-57454728D01*
X215934413Y-57448829D01*
X215934412Y-57448824D01*
X215881265Y-57272793D01*
X215879484Y-57266894D01*
X215787370Y-57093653D01*
X215663361Y-56941602D01*
X215512180Y-56816535D01*
X215339585Y-56723213D01*
X215245868Y-56694203D01*
X215158039Y-56667015D01*
X215158036Y-56667014D01*
X215152152Y-56665193D01*
X215146027Y-56664549D01*
X215146026Y-56664549D01*
X214963147Y-56645327D01*
X214963146Y-56645327D01*
X214957019Y-56644683D01*
X214847138Y-56654683D01*
X214767759Y-56661907D01*
X214767758Y-56661907D01*
X214761618Y-56662466D01*
X214755704Y-56664207D01*
X214755702Y-56664207D01*
X214712185Y-56677015D01*
X214573393Y-56717864D01*
X214567928Y-56720721D01*
X214404972Y-56805912D01*
X214404968Y-56805915D01*
X214399512Y-56808767D01*
X214394712Y-56812627D01*
X214394711Y-56812627D01*
X214382274Y-56822627D01*
X214246600Y-56931711D01*
X214120480Y-57082016D01*
X214117516Y-57087408D01*
X214117513Y-57087412D01*
X214091868Y-57134060D01*
X214025956Y-57253954D01*
X214024095Y-57259821D01*
X214024094Y-57259823D01*
X214022784Y-57263954D01*
X213966628Y-57440978D01*
X213944757Y-57635963D01*
X213961175Y-57831483D01*
X214015258Y-58020091D01*
X214018076Y-58025574D01*
X214102123Y-58189113D01*
X214102126Y-58189117D01*
X214104944Y-58194601D01*
X214108774Y-58199433D01*
X214112112Y-58204613D01*
X214110332Y-58205760D01*
X214133361Y-58262662D01*
X214118393Y-58335812D01*
X214093745Y-58380646D01*
X214025956Y-58503954D01*
X213966628Y-58690978D01*
X213944757Y-58885963D01*
X213961175Y-59081483D01*
X214015258Y-59270091D01*
X214018076Y-59275574D01*
X214102123Y-59439113D01*
X214102126Y-59439117D01*
X214104944Y-59444601D01*
X214108773Y-59449433D01*
X214108775Y-59449435D01*
X214125048Y-59469966D01*
X214151686Y-59535776D01*
X214138516Y-59605540D01*
X214127610Y-59621998D01*
X214127922Y-59622211D01*
X214124438Y-59627299D01*
X214120480Y-59632016D01*
X214117516Y-59637408D01*
X214117513Y-59637412D01*
X214070251Y-59723382D01*
X214025956Y-59803954D01*
X213966628Y-59990978D01*
X213944757Y-60185963D01*
X213961175Y-60381483D01*
X213962872Y-60387402D01*
X213962873Y-60387406D01*
X213992082Y-60489270D01*
X213991631Y-60560265D01*
X213952869Y-60619746D01*
X213888103Y-60648829D01*
X213870963Y-60650000D01*
X212965639Y-60650000D01*
X212897518Y-60629998D01*
X212876544Y-60613095D01*
X210437075Y-58173626D01*
X210403049Y-58111314D01*
X210408114Y-58040499D01*
X210450661Y-57983663D01*
X210454828Y-57980787D01*
X210458689Y-57978837D01*
X210613303Y-57858040D01*
X210621017Y-57849104D01*
X210737485Y-57714173D01*
X210737485Y-57714172D01*
X210741509Y-57709511D01*
X210838425Y-57538909D01*
X210900358Y-57352732D01*
X210924949Y-57158071D01*
X210925341Y-57130000D01*
X210906194Y-56934728D01*
X210904413Y-56928829D01*
X210904412Y-56928824D01*
X210851265Y-56752793D01*
X210849484Y-56746894D01*
X210757370Y-56573653D01*
X210633361Y-56421602D01*
X210555373Y-56357085D01*
X210515635Y-56298251D01*
X210514012Y-56227273D01*
X210551021Y-56166686D01*
X210614911Y-56135725D01*
X210635688Y-56134000D01*
X231014000Y-56134000D01*
X231082121Y-56154002D01*
X231128614Y-56207658D01*
X231140000Y-56260000D01*
X231140000Y-76836000D01*
X231119998Y-76904121D01*
X231066342Y-76950614D01*
X231014000Y-76962000D01*
X210040978Y-76962000D01*
X209972857Y-76941998D01*
X209926364Y-76888342D01*
X209916260Y-76818068D01*
X209945754Y-76753488D01*
X209951883Y-76746905D01*
X210008122Y-76690666D01*
X210063333Y-76658403D01*
X210123721Y-76641542D01*
X210167556Y-76629303D01*
X210342689Y-76540837D01*
X210356339Y-76530173D01*
X210492453Y-76423829D01*
X210497303Y-76420040D01*
X210528263Y-76384173D01*
X210621485Y-76276173D01*
X210621485Y-76276172D01*
X210625509Y-76271511D01*
X210649711Y-76228909D01*
X210680140Y-76175344D01*
X210722425Y-76100909D01*
X210784358Y-75914732D01*
X210808949Y-75720071D01*
X210809341Y-75692000D01*
X210790194Y-75496728D01*
X210788413Y-75490829D01*
X210788412Y-75490824D01*
X210735265Y-75314793D01*
X210733484Y-75308894D01*
X210641370Y-75135653D01*
X210517361Y-74983602D01*
X210366180Y-74858535D01*
X210193585Y-74765213D01*
X210076031Y-74728824D01*
X210012039Y-74709015D01*
X210012036Y-74709014D01*
X210006152Y-74707193D01*
X210000027Y-74706549D01*
X210000026Y-74706549D01*
X209817147Y-74687327D01*
X209817146Y-74687327D01*
X209811019Y-74686683D01*
X209711654Y-74695726D01*
X209621759Y-74703907D01*
X209621758Y-74703907D01*
X209615618Y-74704466D01*
X209609704Y-74706207D01*
X209609702Y-74706207D01*
X209532857Y-74728824D01*
X209427393Y-74759864D01*
X209421928Y-74762721D01*
X209258972Y-74847912D01*
X209258968Y-74847915D01*
X209253512Y-74850767D01*
X209248712Y-74854627D01*
X209248711Y-74854627D01*
X209236843Y-74864169D01*
X209100600Y-74973711D01*
X208974480Y-75124016D01*
X208971516Y-75129408D01*
X208971513Y-75129412D01*
X208908709Y-75243653D01*
X208879956Y-75295954D01*
X208878095Y-75301821D01*
X208878094Y-75301823D01*
X208834744Y-75438478D01*
X208803737Y-75489474D01*
X208123121Y-76170091D01*
X207456617Y-76836595D01*
X207394305Y-76870620D01*
X207367522Y-76873500D01*
X186332479Y-76873500D01*
X186264358Y-76853498D01*
X186243384Y-76836595D01*
X184464789Y-75058000D01*
X187650000Y-75058000D01*
X187650360Y-75061346D01*
X187650360Y-75061351D01*
X187663333Y-75182016D01*
X187663711Y-75185536D01*
X187664429Y-75188836D01*
X187664429Y-75188837D01*
X187666503Y-75198369D01*
X187675097Y-75237878D01*
X187676321Y-75241415D01*
X187676322Y-75241418D01*
X187678982Y-75249104D01*
X187721692Y-75372508D01*
X187726034Y-75379090D01*
X187805662Y-75499813D01*
X187805667Y-75499820D01*
X187807935Y-75503258D01*
X187854428Y-75556914D01*
X187873639Y-75578046D01*
X187995599Y-75676327D01*
X188065715Y-75707345D01*
X188135068Y-75738026D01*
X188135077Y-75738029D01*
X188138840Y-75739694D01*
X188142795Y-75740855D01*
X188142797Y-75740856D01*
X188197309Y-75756862D01*
X188206961Y-75759696D01*
X188211401Y-75760334D01*
X188211404Y-75760335D01*
X188371554Y-75783361D01*
X188371557Y-75783361D01*
X188376000Y-75784000D01*
X191474000Y-75784000D01*
X191477346Y-75783640D01*
X191477351Y-75783640D01*
X191574254Y-75773222D01*
X191587722Y-75772500D01*
X197487000Y-75772500D01*
X197504932Y-75773782D01*
X197571554Y-75783361D01*
X197571557Y-75783361D01*
X197576000Y-75784000D01*
X200424000Y-75784000D01*
X200427346Y-75783640D01*
X200427351Y-75783640D01*
X200548172Y-75770651D01*
X200548178Y-75770650D01*
X200551536Y-75770289D01*
X200554837Y-75769571D01*
X200600224Y-75759698D01*
X200600226Y-75759697D01*
X200603878Y-75758903D01*
X200607415Y-75757679D01*
X200607418Y-75757678D01*
X200670160Y-75735963D01*
X200738508Y-75712308D01*
X200835873Y-75648086D01*
X200865813Y-75628338D01*
X200865820Y-75628333D01*
X200869258Y-75626065D01*
X200922914Y-75579572D01*
X200944046Y-75560361D01*
X200995324Y-75496728D01*
X201037144Y-75444833D01*
X201037145Y-75444832D01*
X201042327Y-75438401D01*
X201080512Y-75352084D01*
X201104026Y-75298932D01*
X201104029Y-75298923D01*
X201105694Y-75295160D01*
X201122514Y-75237878D01*
X201124430Y-75231351D01*
X201124430Y-75231350D01*
X201125696Y-75227039D01*
X201132246Y-75181483D01*
X201149361Y-75062446D01*
X201149361Y-75062443D01*
X201150000Y-75058000D01*
X201150000Y-74964857D01*
X201161805Y-74911607D01*
X201171580Y-74890645D01*
X201171581Y-74890644D01*
X201173903Y-74885663D01*
X201176607Y-74875574D01*
X201233639Y-74662723D01*
X201233639Y-74662722D01*
X201235063Y-74657408D01*
X201255659Y-74422000D01*
X201235063Y-74186592D01*
X201229689Y-74166535D01*
X201175326Y-73963647D01*
X201175325Y-73963645D01*
X201173903Y-73958337D01*
X201168624Y-73947015D01*
X201164145Y-73937412D01*
X201161805Y-73932393D01*
X201150000Y-73879143D01*
X201150000Y-73810000D01*
X201148540Y-73796417D01*
X201136651Y-73685828D01*
X201136650Y-73685822D01*
X201136289Y-73682464D01*
X201124903Y-73630122D01*
X201078308Y-73495492D01*
X201030602Y-73423167D01*
X200994338Y-73368187D01*
X200994333Y-73368180D01*
X200992065Y-73364742D01*
X200945572Y-73311086D01*
X200937545Y-73302257D01*
X200906522Y-73238401D01*
X200912848Y-73185463D01*
X213049500Y-73185463D01*
X213049712Y-73188036D01*
X213049712Y-73188047D01*
X213063649Y-73357565D01*
X213063650Y-73357571D01*
X213064073Y-73362716D01*
X213077254Y-73415193D01*
X213117682Y-73576143D01*
X213122179Y-73594048D01*
X213124237Y-73598781D01*
X213124238Y-73598784D01*
X213210154Y-73796376D01*
X213217288Y-73812784D01*
X213346845Y-74013049D01*
X213350324Y-74016872D01*
X213350326Y-74016875D01*
X213482951Y-74162627D01*
X213507371Y-74189464D01*
X213511422Y-74192663D01*
X213511426Y-74192667D01*
X213690500Y-74334091D01*
X213690504Y-74334093D01*
X213694555Y-74337293D01*
X213699076Y-74339789D01*
X213699078Y-74339790D01*
X213739341Y-74362016D01*
X213903369Y-74452564D01*
X213908238Y-74454288D01*
X213908242Y-74454290D01*
X214123337Y-74530459D01*
X214123339Y-74530460D01*
X214128206Y-74532183D01*
X214243908Y-74552793D01*
X214357940Y-74573106D01*
X214357944Y-74573106D01*
X214363028Y-74574012D01*
X214446860Y-74575036D01*
X214596360Y-74576863D01*
X214596362Y-74576863D01*
X214601529Y-74576926D01*
X214837302Y-74540847D01*
X215064018Y-74466745D01*
X215068606Y-74464357D01*
X215068610Y-74464355D01*
X215270997Y-74358999D01*
X215270998Y-74358998D01*
X215275586Y-74356610D01*
X215279719Y-74353507D01*
X215279722Y-74353505D01*
X215462190Y-74216503D01*
X215462192Y-74216501D01*
X215466325Y-74213398D01*
X215565304Y-74109823D01*
X215627542Y-74044695D01*
X215627543Y-74044694D01*
X215631113Y-74040958D01*
X215644885Y-74020769D01*
X215699796Y-73975766D01*
X215770321Y-73967595D01*
X215834068Y-73998849D01*
X215846220Y-74012083D01*
X215846845Y-74013049D01*
X215850330Y-74016879D01*
X215973036Y-74151730D01*
X216007371Y-74189464D01*
X216011422Y-74192663D01*
X216011426Y-74192667D01*
X216190500Y-74334091D01*
X216190504Y-74334093D01*
X216194555Y-74337293D01*
X216199076Y-74339789D01*
X216199078Y-74339790D01*
X216239341Y-74362016D01*
X216403369Y-74452564D01*
X216408238Y-74454288D01*
X216408242Y-74454290D01*
X216623337Y-74530459D01*
X216623339Y-74530460D01*
X216628206Y-74532183D01*
X216743908Y-74552793D01*
X216857940Y-74573106D01*
X216857944Y-74573106D01*
X216863028Y-74574012D01*
X216946860Y-74575036D01*
X217096360Y-74576863D01*
X217096362Y-74576863D01*
X217101529Y-74576926D01*
X217337302Y-74540847D01*
X217564018Y-74466745D01*
X217568606Y-74464357D01*
X217568610Y-74464355D01*
X217770997Y-74358999D01*
X217770998Y-74358998D01*
X217775586Y-74356610D01*
X217779719Y-74353507D01*
X217779722Y-74353505D01*
X217962190Y-74216503D01*
X217962192Y-74216501D01*
X217966325Y-74213398D01*
X218065304Y-74109823D01*
X218127542Y-74044695D01*
X218127543Y-74044694D01*
X218131113Y-74040958D01*
X218144885Y-74020769D01*
X218199796Y-73975766D01*
X218270321Y-73967595D01*
X218334068Y-73998849D01*
X218346220Y-74012083D01*
X218346845Y-74013049D01*
X218350330Y-74016879D01*
X218473036Y-74151730D01*
X218507371Y-74189464D01*
X218511422Y-74192663D01*
X218511426Y-74192667D01*
X218690500Y-74334091D01*
X218690504Y-74334093D01*
X218694555Y-74337293D01*
X218699076Y-74339789D01*
X218699078Y-74339790D01*
X218739341Y-74362016D01*
X218903369Y-74452564D01*
X218908238Y-74454288D01*
X218908242Y-74454290D01*
X219123337Y-74530459D01*
X219123339Y-74530460D01*
X219128206Y-74532183D01*
X219243908Y-74552793D01*
X219357940Y-74573106D01*
X219357944Y-74573106D01*
X219363028Y-74574012D01*
X219446860Y-74575036D01*
X219596360Y-74576863D01*
X219596362Y-74576863D01*
X219601529Y-74576926D01*
X219837302Y-74540847D01*
X220064018Y-74466745D01*
X220068606Y-74464357D01*
X220068610Y-74464355D01*
X220270997Y-74358999D01*
X220270998Y-74358998D01*
X220275586Y-74356610D01*
X220279719Y-74353507D01*
X220279722Y-74353505D01*
X220462190Y-74216503D01*
X220462192Y-74216501D01*
X220466325Y-74213398D01*
X220565304Y-74109823D01*
X220627542Y-74044695D01*
X220627543Y-74044694D01*
X220631113Y-74040958D01*
X220644885Y-74020769D01*
X220699796Y-73975766D01*
X220770321Y-73967595D01*
X220834068Y-73998849D01*
X220846220Y-74012083D01*
X220846845Y-74013049D01*
X220850330Y-74016879D01*
X220973036Y-74151730D01*
X221007371Y-74189464D01*
X221011422Y-74192663D01*
X221011426Y-74192667D01*
X221190500Y-74334091D01*
X221190504Y-74334093D01*
X221194555Y-74337293D01*
X221199076Y-74339789D01*
X221199078Y-74339790D01*
X221239341Y-74362016D01*
X221403369Y-74452564D01*
X221408238Y-74454288D01*
X221408242Y-74454290D01*
X221623337Y-74530459D01*
X221623339Y-74530460D01*
X221628206Y-74532183D01*
X221743908Y-74552793D01*
X221857940Y-74573106D01*
X221857944Y-74573106D01*
X221863028Y-74574012D01*
X221946860Y-74575036D01*
X222096360Y-74576863D01*
X222096362Y-74576863D01*
X222101529Y-74576926D01*
X222337302Y-74540847D01*
X222564018Y-74466745D01*
X222568606Y-74464357D01*
X222568610Y-74464355D01*
X222770997Y-74358999D01*
X222770998Y-74358998D01*
X222775586Y-74356610D01*
X222779719Y-74353507D01*
X222779722Y-74353505D01*
X222962190Y-74216503D01*
X222962192Y-74216501D01*
X222966325Y-74213398D01*
X223065304Y-74109823D01*
X223127542Y-74044695D01*
X223127543Y-74044694D01*
X223131113Y-74040958D01*
X223144885Y-74020769D01*
X223199796Y-73975766D01*
X223270321Y-73967595D01*
X223334068Y-73998849D01*
X223346220Y-74012083D01*
X223346845Y-74013049D01*
X223350330Y-74016879D01*
X223473036Y-74151730D01*
X223507371Y-74189464D01*
X223511422Y-74192663D01*
X223511426Y-74192667D01*
X223690500Y-74334091D01*
X223690504Y-74334093D01*
X223694555Y-74337293D01*
X223699076Y-74339789D01*
X223699078Y-74339790D01*
X223739341Y-74362016D01*
X223903369Y-74452564D01*
X223908238Y-74454288D01*
X223908242Y-74454290D01*
X224123337Y-74530459D01*
X224123339Y-74530460D01*
X224128206Y-74532183D01*
X224243908Y-74552793D01*
X224357940Y-74573106D01*
X224357944Y-74573106D01*
X224363028Y-74574012D01*
X224446860Y-74575036D01*
X224596360Y-74576863D01*
X224596362Y-74576863D01*
X224601529Y-74576926D01*
X224837302Y-74540847D01*
X225064018Y-74466745D01*
X225068606Y-74464357D01*
X225068610Y-74464355D01*
X225270997Y-74358999D01*
X225270998Y-74358998D01*
X225275586Y-74356610D01*
X225279719Y-74353507D01*
X225279722Y-74353505D01*
X225455398Y-74221602D01*
X225466325Y-74213398D01*
X225469894Y-74209663D01*
X225469901Y-74209657D01*
X225494703Y-74183703D01*
X225556227Y-74148273D01*
X225627140Y-74151730D01*
X225683992Y-74191800D01*
X225795060Y-74329940D01*
X225939074Y-74445731D01*
X225984644Y-74468352D01*
X226098481Y-74524862D01*
X226098485Y-74524864D01*
X226104592Y-74527895D01*
X226111214Y-74529546D01*
X226278497Y-74571255D01*
X226278501Y-74571256D01*
X226283893Y-74572600D01*
X226300706Y-74573746D01*
X226324286Y-74575354D01*
X226324299Y-74575354D01*
X226326434Y-74575500D01*
X227673566Y-74575500D01*
X227675701Y-74575354D01*
X227675714Y-74575354D01*
X227699294Y-74573746D01*
X227716107Y-74572600D01*
X227721499Y-74571256D01*
X227721503Y-74571255D01*
X227888786Y-74529546D01*
X227895408Y-74527895D01*
X227901515Y-74524864D01*
X227901519Y-74524862D01*
X228015356Y-74468352D01*
X228060926Y-74445731D01*
X228204940Y-74329940D01*
X228320731Y-74185926D01*
X228368961Y-74088767D01*
X228399862Y-74026519D01*
X228399864Y-74026515D01*
X228402895Y-74020408D01*
X228412835Y-73980542D01*
X228446255Y-73846503D01*
X228446256Y-73846499D01*
X228447600Y-73841107D01*
X228450500Y-73798566D01*
X228450500Y-72201434D01*
X228447600Y-72158893D01*
X228445833Y-72151803D01*
X228404546Y-71986214D01*
X228402895Y-71979592D01*
X228399864Y-71973485D01*
X228399862Y-71973481D01*
X228361813Y-71896833D01*
X228320731Y-71814074D01*
X228204940Y-71670060D01*
X228060926Y-71554269D01*
X227972539Y-71510393D01*
X227901519Y-71475138D01*
X227901515Y-71475136D01*
X227895408Y-71472105D01*
X227843461Y-71459153D01*
X227721503Y-71428745D01*
X227721499Y-71428744D01*
X227716107Y-71427400D01*
X227699294Y-71426254D01*
X227675714Y-71424646D01*
X227675701Y-71424646D01*
X227673566Y-71424500D01*
X226326434Y-71424500D01*
X226324299Y-71424646D01*
X226324286Y-71424646D01*
X226300706Y-71426254D01*
X226283893Y-71427400D01*
X226278501Y-71428744D01*
X226278497Y-71428745D01*
X226156539Y-71459153D01*
X226104592Y-71472105D01*
X226098485Y-71475136D01*
X226098481Y-71475138D01*
X226027461Y-71510393D01*
X225939074Y-71554269D01*
X225795060Y-71670060D01*
X225698352Y-71790340D01*
X225685503Y-71806321D01*
X225627230Y-71846876D01*
X225556281Y-71849488D01*
X225501236Y-71816443D01*
X225499890Y-71817886D01*
X225496106Y-71814357D01*
X225492629Y-71810536D01*
X225488578Y-71807337D01*
X225488574Y-71807333D01*
X225309500Y-71665909D01*
X225309496Y-71665907D01*
X225305445Y-71662707D01*
X225266125Y-71641001D01*
X225249682Y-71631924D01*
X225096631Y-71547436D01*
X225091762Y-71545712D01*
X225091758Y-71545710D01*
X224876663Y-71469541D01*
X224876661Y-71469540D01*
X224871794Y-71467817D01*
X224754383Y-71446902D01*
X224642060Y-71426894D01*
X224642056Y-71426894D01*
X224636972Y-71425988D01*
X224553140Y-71424964D01*
X224403640Y-71423137D01*
X224403638Y-71423137D01*
X224398471Y-71423074D01*
X224162698Y-71459153D01*
X223935982Y-71533255D01*
X223931394Y-71535643D01*
X223931390Y-71535645D01*
X223895614Y-71554269D01*
X223724414Y-71643390D01*
X223720281Y-71646493D01*
X223720278Y-71646495D01*
X223537810Y-71783497D01*
X223533675Y-71786602D01*
X223530103Y-71790340D01*
X223382786Y-71944498D01*
X223368887Y-71959042D01*
X223365973Y-71963314D01*
X223365972Y-71963315D01*
X223355115Y-71979231D01*
X223300204Y-72024234D01*
X223229679Y-72032405D01*
X223165932Y-72001151D01*
X223153780Y-71987917D01*
X223153155Y-71986951D01*
X222992629Y-71810536D01*
X222988578Y-71807337D01*
X222988574Y-71807333D01*
X222809500Y-71665909D01*
X222809496Y-71665907D01*
X222805445Y-71662707D01*
X222766125Y-71641001D01*
X222749682Y-71631924D01*
X222596631Y-71547436D01*
X222591762Y-71545712D01*
X222591758Y-71545710D01*
X222376663Y-71469541D01*
X222376661Y-71469540D01*
X222371794Y-71467817D01*
X222254383Y-71446902D01*
X222142060Y-71426894D01*
X222142056Y-71426894D01*
X222136972Y-71425988D01*
X222053140Y-71424964D01*
X221903640Y-71423137D01*
X221903638Y-71423137D01*
X221898471Y-71423074D01*
X221662698Y-71459153D01*
X221435982Y-71533255D01*
X221431394Y-71535643D01*
X221431390Y-71535645D01*
X221395614Y-71554269D01*
X221224414Y-71643390D01*
X221220281Y-71646493D01*
X221220278Y-71646495D01*
X221037810Y-71783497D01*
X221033675Y-71786602D01*
X221030103Y-71790340D01*
X220882786Y-71944498D01*
X220868887Y-71959042D01*
X220865973Y-71963314D01*
X220865972Y-71963315D01*
X220855115Y-71979231D01*
X220800204Y-72024234D01*
X220729679Y-72032405D01*
X220665932Y-72001151D01*
X220653780Y-71987917D01*
X220653155Y-71986951D01*
X220492629Y-71810536D01*
X220488578Y-71807337D01*
X220488574Y-71807333D01*
X220309500Y-71665909D01*
X220309496Y-71665907D01*
X220305445Y-71662707D01*
X220266125Y-71641001D01*
X220249682Y-71631924D01*
X220096631Y-71547436D01*
X220091762Y-71545712D01*
X220091758Y-71545710D01*
X219876663Y-71469541D01*
X219876661Y-71469540D01*
X219871794Y-71467817D01*
X219754383Y-71446902D01*
X219642060Y-71426894D01*
X219642056Y-71426894D01*
X219636972Y-71425988D01*
X219553140Y-71424964D01*
X219403640Y-71423137D01*
X219403638Y-71423137D01*
X219398471Y-71423074D01*
X219162698Y-71459153D01*
X218935982Y-71533255D01*
X218931394Y-71535643D01*
X218931390Y-71535645D01*
X218895614Y-71554269D01*
X218724414Y-71643390D01*
X218720281Y-71646493D01*
X218720278Y-71646495D01*
X218537810Y-71783497D01*
X218533675Y-71786602D01*
X218530103Y-71790340D01*
X218382786Y-71944498D01*
X218368887Y-71959042D01*
X218365973Y-71963314D01*
X218365972Y-71963315D01*
X218355115Y-71979231D01*
X218300204Y-72024234D01*
X218229679Y-72032405D01*
X218165932Y-72001151D01*
X218153780Y-71987917D01*
X218153155Y-71986951D01*
X217992629Y-71810536D01*
X217988578Y-71807337D01*
X217988574Y-71807333D01*
X217809500Y-71665909D01*
X217809496Y-71665907D01*
X217805445Y-71662707D01*
X217766125Y-71641001D01*
X217749682Y-71631924D01*
X217596631Y-71547436D01*
X217591762Y-71545712D01*
X217591758Y-71545710D01*
X217376663Y-71469541D01*
X217376661Y-71469540D01*
X217371794Y-71467817D01*
X217254383Y-71446902D01*
X217142060Y-71426894D01*
X217142056Y-71426894D01*
X217136972Y-71425988D01*
X217053140Y-71424964D01*
X216903640Y-71423137D01*
X216903638Y-71423137D01*
X216898471Y-71423074D01*
X216662698Y-71459153D01*
X216435982Y-71533255D01*
X216431394Y-71535643D01*
X216431390Y-71535645D01*
X216395614Y-71554269D01*
X216224414Y-71643390D01*
X216220281Y-71646493D01*
X216220278Y-71646495D01*
X216037810Y-71783497D01*
X216033675Y-71786602D01*
X216030103Y-71790340D01*
X215882786Y-71944498D01*
X215868887Y-71959042D01*
X215865973Y-71963314D01*
X215865972Y-71963315D01*
X215855115Y-71979231D01*
X215800204Y-72024234D01*
X215729679Y-72032405D01*
X215665932Y-72001151D01*
X215653780Y-71987917D01*
X215653155Y-71986951D01*
X215492629Y-71810536D01*
X215488578Y-71807337D01*
X215488574Y-71807333D01*
X215309500Y-71665909D01*
X215309496Y-71665907D01*
X215305445Y-71662707D01*
X215266125Y-71641001D01*
X215249682Y-71631924D01*
X215096631Y-71547436D01*
X215091762Y-71545712D01*
X215091758Y-71545710D01*
X214876663Y-71469541D01*
X214876661Y-71469540D01*
X214871794Y-71467817D01*
X214754383Y-71446902D01*
X214642060Y-71426894D01*
X214642056Y-71426894D01*
X214636972Y-71425988D01*
X214553140Y-71424964D01*
X214403640Y-71423137D01*
X214403638Y-71423137D01*
X214398471Y-71423074D01*
X214162698Y-71459153D01*
X213935982Y-71533255D01*
X213931394Y-71535643D01*
X213931390Y-71535645D01*
X213895614Y-71554269D01*
X213724414Y-71643390D01*
X213720281Y-71646493D01*
X213720278Y-71646495D01*
X213537810Y-71783497D01*
X213533675Y-71786602D01*
X213530103Y-71790340D01*
X213382786Y-71944498D01*
X213368887Y-71959042D01*
X213234475Y-72156082D01*
X213134051Y-72372428D01*
X213070309Y-72602272D01*
X213069760Y-72607409D01*
X213049922Y-72793039D01*
X213049500Y-72796986D01*
X213049500Y-73185463D01*
X200912848Y-73185463D01*
X200914946Y-73167906D01*
X200939070Y-73131093D01*
X200940438Y-73129641D01*
X200944046Y-73126361D01*
X201042327Y-73004401D01*
X201076929Y-72926184D01*
X201104026Y-72864932D01*
X201104029Y-72864923D01*
X201105694Y-72861160D01*
X201122514Y-72803878D01*
X201124430Y-72797351D01*
X201124430Y-72797350D01*
X201125696Y-72793039D01*
X201126335Y-72788596D01*
X201149361Y-72628446D01*
X201149361Y-72628443D01*
X201150000Y-72624000D01*
X201150000Y-72542857D01*
X201161805Y-72489607D01*
X201171580Y-72468645D01*
X201171581Y-72468644D01*
X201173903Y-72463663D01*
X201197012Y-72377420D01*
X201233639Y-72240723D01*
X201233639Y-72240722D01*
X201235063Y-72235408D01*
X201255659Y-72000000D01*
X201235063Y-71764592D01*
X201207094Y-71660210D01*
X201175326Y-71541647D01*
X201175325Y-71541645D01*
X201173903Y-71536337D01*
X201161805Y-71510393D01*
X201150000Y-71457143D01*
X201150000Y-71376000D01*
X201136289Y-71248464D01*
X201124903Y-71196122D01*
X201078308Y-71061492D01*
X201001384Y-70944870D01*
X200980573Y-70876993D01*
X200999763Y-70808639D01*
X201008456Y-70796432D01*
X201037143Y-70760834D01*
X201042327Y-70754401D01*
X201074774Y-70681055D01*
X201104026Y-70614932D01*
X201104029Y-70614923D01*
X201105694Y-70611160D01*
X201122514Y-70553878D01*
X201124430Y-70547351D01*
X201124430Y-70547350D01*
X201125696Y-70543039D01*
X201150000Y-70374000D01*
X201150000Y-70342857D01*
X201161805Y-70289607D01*
X201171580Y-70268645D01*
X201171581Y-70268644D01*
X201173903Y-70263663D01*
X201235063Y-70035408D01*
X201255659Y-69800000D01*
X201235063Y-69564592D01*
X201173903Y-69336337D01*
X201161805Y-69310393D01*
X201150000Y-69257143D01*
X201150000Y-69126000D01*
X201147080Y-69098837D01*
X201136651Y-69001828D01*
X201136650Y-69001822D01*
X201136289Y-68998464D01*
X201132842Y-68982618D01*
X201125698Y-68949776D01*
X201125697Y-68949774D01*
X201124903Y-68946122D01*
X201078308Y-68811492D01*
X201023263Y-68728040D01*
X200994338Y-68684187D01*
X200994333Y-68684180D01*
X200992065Y-68680742D01*
X200989367Y-68677629D01*
X200989363Y-68677623D01*
X200974717Y-68660721D01*
X200945224Y-68596140D01*
X200955329Y-68525866D01*
X200987430Y-68482984D01*
X201032337Y-68444072D01*
X201032338Y-68444071D01*
X201032914Y-68443572D01*
X201054046Y-68424361D01*
X201100228Y-68367052D01*
X201147144Y-68308833D01*
X201147145Y-68308832D01*
X201152327Y-68302401D01*
X201187571Y-68222732D01*
X201214026Y-68162932D01*
X201214029Y-68162923D01*
X201215694Y-68159160D01*
X201232514Y-68101878D01*
X201234430Y-68095351D01*
X201234430Y-68095350D01*
X201235696Y-68091039D01*
X201242929Y-68040732D01*
X201259361Y-67926446D01*
X201259361Y-67926443D01*
X201260000Y-67922000D01*
X201260000Y-67803963D01*
X202702757Y-67803963D01*
X202719175Y-67999483D01*
X202773258Y-68188091D01*
X202776076Y-68193574D01*
X202860123Y-68357113D01*
X202860126Y-68357117D01*
X202862944Y-68362601D01*
X202984818Y-68516369D01*
X202989511Y-68520363D01*
X202989512Y-68520364D01*
X203107003Y-68620356D01*
X203134238Y-68643535D01*
X203139616Y-68646541D01*
X203139618Y-68646542D01*
X203200812Y-68680742D01*
X203305513Y-68739257D01*
X203492118Y-68799889D01*
X203686946Y-68823121D01*
X203693081Y-68822649D01*
X203693083Y-68822649D01*
X203876434Y-68808541D01*
X203876438Y-68808540D01*
X203882576Y-68808068D01*
X204071556Y-68755303D01*
X204246689Y-68666837D01*
X204256837Y-68658909D01*
X204396453Y-68549829D01*
X204401303Y-68546040D01*
X204407283Y-68539113D01*
X204525485Y-68402173D01*
X204525485Y-68402172D01*
X204529509Y-68397511D01*
X204626425Y-68226909D01*
X204688358Y-68040732D01*
X204712949Y-67846071D01*
X204713341Y-67818000D01*
X204694194Y-67622728D01*
X204692413Y-67616829D01*
X204692412Y-67616824D01*
X204639265Y-67440793D01*
X204637484Y-67434894D01*
X204545370Y-67261653D01*
X204421361Y-67109602D01*
X204270180Y-66984535D01*
X204097585Y-66891213D01*
X204003868Y-66862203D01*
X203916039Y-66835015D01*
X203916036Y-66835014D01*
X203910152Y-66833193D01*
X203904027Y-66832549D01*
X203904026Y-66832549D01*
X203721147Y-66813327D01*
X203721146Y-66813327D01*
X203715019Y-66812683D01*
X203592383Y-66823844D01*
X203525759Y-66829907D01*
X203525758Y-66829907D01*
X203519618Y-66830466D01*
X203513704Y-66832207D01*
X203513702Y-66832207D01*
X203384734Y-66870165D01*
X203331393Y-66885864D01*
X203325928Y-66888721D01*
X203162972Y-66973912D01*
X203162968Y-66973915D01*
X203157512Y-66976767D01*
X203152712Y-66980627D01*
X203152711Y-66980627D01*
X203118326Y-67008273D01*
X203004600Y-67099711D01*
X202878480Y-67250016D01*
X202875516Y-67255408D01*
X202875513Y-67255412D01*
X202796813Y-67398567D01*
X202783956Y-67421954D01*
X202782095Y-67427821D01*
X202782094Y-67427823D01*
X202775343Y-67449104D01*
X202724628Y-67608978D01*
X202702757Y-67803963D01*
X201260000Y-67803963D01*
X201260000Y-66674000D01*
X201258378Y-66658909D01*
X201246651Y-66549828D01*
X201246650Y-66549822D01*
X201246289Y-66546464D01*
X201234903Y-66494122D01*
X201188308Y-66359492D01*
X201134603Y-66278071D01*
X201104338Y-66232187D01*
X201104333Y-66232180D01*
X201102065Y-66228742D01*
X201055572Y-66175086D01*
X201036361Y-66153954D01*
X200914401Y-66055673D01*
X200833066Y-66019692D01*
X200774932Y-65993974D01*
X200774923Y-65993971D01*
X200771160Y-65992306D01*
X200703039Y-65972304D01*
X200698599Y-65971666D01*
X200698596Y-65971665D01*
X200538446Y-65948639D01*
X200538443Y-65948639D01*
X200534000Y-65948000D01*
X197686000Y-65948000D01*
X197682654Y-65948360D01*
X197682649Y-65948360D01*
X197585746Y-65958778D01*
X197572278Y-65959500D01*
X195516655Y-65959500D01*
X195448534Y-65939498D01*
X195402041Y-65885842D01*
X195391937Y-65815568D01*
X195421431Y-65750988D01*
X195446653Y-65728735D01*
X195669707Y-65579695D01*
X195669711Y-65579692D01*
X195673415Y-65577217D01*
X195676732Y-65574246D01*
X195676736Y-65574243D01*
X195880124Y-65392074D01*
X195880125Y-65392073D01*
X195883442Y-65389102D01*
X196064867Y-65173270D01*
X196214072Y-64934028D01*
X196328079Y-64676150D01*
X196404613Y-64404781D01*
X196429561Y-64219039D01*
X196441720Y-64128517D01*
X196441721Y-64128509D01*
X196442147Y-64125335D01*
X196444865Y-64038856D01*
X196445985Y-64003222D01*
X196445985Y-64003217D01*
X196446086Y-64000000D01*
X196426172Y-63718749D01*
X196414243Y-63663338D01*
X196367765Y-63447457D01*
X196367765Y-63447455D01*
X196366829Y-63443110D01*
X196269239Y-63178582D01*
X196135351Y-62930444D01*
X195967836Y-62703646D01*
X195961821Y-62697535D01*
X195812273Y-62545621D01*
X195770035Y-62502714D01*
X195766496Y-62500013D01*
X195766489Y-62500007D01*
X195608877Y-62379722D01*
X195545897Y-62331657D01*
X195403158Y-62251719D01*
X195303778Y-62196063D01*
X195303775Y-62196062D01*
X195299892Y-62193887D01*
X195295753Y-62192286D01*
X195295745Y-62192282D01*
X195054202Y-62098837D01*
X195036930Y-62092155D01*
X195032605Y-62091152D01*
X195032600Y-62091151D01*
X194881330Y-62056089D01*
X194762257Y-62028489D01*
X194481353Y-62004160D01*
X194476918Y-62004404D01*
X194476914Y-62004404D01*
X194204267Y-62019409D01*
X194204260Y-62019410D01*
X194199824Y-62019654D01*
X193923287Y-62074660D01*
X193657259Y-62168083D01*
X193653308Y-62170136D01*
X193653302Y-62170138D01*
X193538092Y-62229985D01*
X193407048Y-62298057D01*
X193403433Y-62300640D01*
X193403427Y-62300644D01*
X193181268Y-62459401D01*
X193181264Y-62459404D01*
X193177647Y-62461989D01*
X192973633Y-62656609D01*
X192970877Y-62660105D01*
X192970876Y-62660106D01*
X192833372Y-62834529D01*
X192799076Y-62878033D01*
X192657460Y-63121844D01*
X192655792Y-63125961D01*
X192655789Y-63125968D01*
X192580873Y-63310926D01*
X192551609Y-63383176D01*
X192536615Y-63443539D01*
X192490800Y-63627980D01*
X192483637Y-63656815D01*
X192454899Y-63937301D01*
X192455074Y-63941753D01*
X192462412Y-64128517D01*
X192465968Y-64219039D01*
X192466766Y-64223411D01*
X192466767Y-64223416D01*
X192492541Y-64364539D01*
X192516625Y-64496406D01*
X192518029Y-64500615D01*
X192518031Y-64500622D01*
X192578371Y-64681483D01*
X192605857Y-64763869D01*
X192731885Y-65016090D01*
X192892194Y-65248038D01*
X193083585Y-65455084D01*
X193172967Y-65527852D01*
X193298778Y-65630279D01*
X193298783Y-65630282D01*
X193302240Y-65633097D01*
X193383494Y-65682016D01*
X193455810Y-65725554D01*
X193503854Y-65777826D01*
X193516010Y-65847774D01*
X193488420Y-65913190D01*
X193429842Y-65953305D01*
X193390821Y-65959500D01*
X191563000Y-65959500D01*
X191545068Y-65958218D01*
X191478446Y-65948639D01*
X191478443Y-65948639D01*
X191474000Y-65948000D01*
X190833866Y-65948000D01*
X190765745Y-65927998D01*
X190719252Y-65874342D01*
X190709148Y-65804068D01*
X190738642Y-65739488D01*
X190763864Y-65717235D01*
X190969707Y-65579695D01*
X190969711Y-65579692D01*
X190973415Y-65577217D01*
X190976732Y-65574246D01*
X190976736Y-65574243D01*
X191180124Y-65392074D01*
X191180125Y-65392073D01*
X191183442Y-65389102D01*
X191364867Y-65173270D01*
X191514072Y-64934028D01*
X191628079Y-64676150D01*
X191704613Y-64404781D01*
X191729561Y-64219039D01*
X191741720Y-64128517D01*
X191741721Y-64128509D01*
X191742147Y-64125335D01*
X191744865Y-64038856D01*
X191745985Y-64003222D01*
X191745985Y-64003217D01*
X191746086Y-64000000D01*
X191726172Y-63718749D01*
X191714243Y-63663338D01*
X191667765Y-63447457D01*
X191667765Y-63447455D01*
X191666829Y-63443110D01*
X191569239Y-63178582D01*
X191435351Y-62930444D01*
X191267836Y-62703646D01*
X191261821Y-62697535D01*
X191112273Y-62545621D01*
X191070035Y-62502714D01*
X191066496Y-62500013D01*
X191066489Y-62500007D01*
X190908877Y-62379722D01*
X190845897Y-62331657D01*
X190703158Y-62251719D01*
X190603778Y-62196063D01*
X190603775Y-62196062D01*
X190599892Y-62193887D01*
X190595753Y-62192286D01*
X190595745Y-62192282D01*
X190354202Y-62098837D01*
X190336930Y-62092155D01*
X190332605Y-62091152D01*
X190332600Y-62091151D01*
X190181330Y-62056089D01*
X190062257Y-62028489D01*
X189781353Y-62004160D01*
X189776918Y-62004404D01*
X189776914Y-62004404D01*
X189504267Y-62019409D01*
X189504260Y-62019410D01*
X189499824Y-62019654D01*
X189223287Y-62074660D01*
X188957259Y-62168083D01*
X188953308Y-62170136D01*
X188953302Y-62170138D01*
X188838092Y-62229985D01*
X188707048Y-62298057D01*
X188703433Y-62300640D01*
X188703427Y-62300644D01*
X188481268Y-62459401D01*
X188481264Y-62459404D01*
X188477647Y-62461989D01*
X188273633Y-62656609D01*
X188270877Y-62660105D01*
X188270876Y-62660106D01*
X188133372Y-62834529D01*
X188099076Y-62878033D01*
X187957460Y-63121844D01*
X187955792Y-63125961D01*
X187955789Y-63125968D01*
X187880873Y-63310926D01*
X187851609Y-63383176D01*
X187836615Y-63443539D01*
X187790800Y-63627980D01*
X187783637Y-63656815D01*
X187754899Y-63937301D01*
X187755074Y-63941753D01*
X187762412Y-64128517D01*
X187765968Y-64219039D01*
X187766766Y-64223411D01*
X187766767Y-64223416D01*
X187792541Y-64364539D01*
X187816625Y-64496406D01*
X187818029Y-64500615D01*
X187818031Y-64500622D01*
X187878371Y-64681483D01*
X187905857Y-64763869D01*
X188031885Y-65016090D01*
X188192194Y-65248038D01*
X188383585Y-65455084D01*
X188472967Y-65527852D01*
X188598778Y-65630279D01*
X188598783Y-65630282D01*
X188602240Y-65633097D01*
X188692457Y-65687412D01*
X188736709Y-65714054D01*
X188784753Y-65766325D01*
X188796909Y-65836274D01*
X188769319Y-65901690D01*
X188710742Y-65941805D01*
X188671720Y-65948000D01*
X188376000Y-65948000D01*
X188372654Y-65948360D01*
X188372649Y-65948360D01*
X188251828Y-65961349D01*
X188251822Y-65961350D01*
X188248464Y-65961711D01*
X188245164Y-65962429D01*
X188245163Y-65962429D01*
X188199776Y-65972302D01*
X188199774Y-65972303D01*
X188196122Y-65973097D01*
X188192585Y-65974321D01*
X188192582Y-65974322D01*
X188157417Y-65986493D01*
X188061492Y-66019692D01*
X188003459Y-66057970D01*
X187934187Y-66103662D01*
X187934180Y-66103667D01*
X187930742Y-66105935D01*
X187877086Y-66152428D01*
X187855954Y-66171639D01*
X187757673Y-66293599D01*
X187731435Y-66352910D01*
X187695974Y-66433068D01*
X187695971Y-66433077D01*
X187694306Y-66436840D01*
X187693145Y-66440795D01*
X187693144Y-66440797D01*
X187676414Y-66497776D01*
X187674304Y-66504961D01*
X187673666Y-66509401D01*
X187673665Y-66509404D01*
X187651399Y-66664272D01*
X187650000Y-66674000D01*
X187650000Y-67922000D01*
X187650360Y-67925346D01*
X187650360Y-67925351D01*
X187662765Y-68040732D01*
X187663711Y-68049536D01*
X187675097Y-68101878D01*
X187721692Y-68236508D01*
X187746782Y-68274546D01*
X187805662Y-68363813D01*
X187805667Y-68363820D01*
X187807935Y-68367258D01*
X187854428Y-68420914D01*
X187854943Y-68421481D01*
X187854947Y-68421485D01*
X187871266Y-68439436D01*
X187902288Y-68503296D01*
X187893860Y-68573791D01*
X187862793Y-68617421D01*
X187859565Y-68620356D01*
X187855954Y-68623639D01*
X187827532Y-68658909D01*
X187768770Y-68731829D01*
X187757673Y-68745599D01*
X187730038Y-68808068D01*
X187695974Y-68885068D01*
X187695971Y-68885077D01*
X187694306Y-68888840D01*
X187693145Y-68892795D01*
X187693144Y-68892797D01*
X187676827Y-68948369D01*
X187674304Y-68956961D01*
X187673666Y-68961401D01*
X187673665Y-68961404D01*
X187667380Y-69005121D01*
X187650000Y-69126000D01*
X187650000Y-70374000D01*
X187663711Y-70501536D01*
X187675097Y-70553878D01*
X187721692Y-70688508D01*
X187798616Y-70805130D01*
X187819427Y-70873007D01*
X187800237Y-70941361D01*
X187791546Y-70953566D01*
X187757673Y-70995599D01*
X187731435Y-71054910D01*
X187695974Y-71135068D01*
X187695971Y-71135077D01*
X187694306Y-71138840D01*
X187693145Y-71142795D01*
X187693144Y-71142797D01*
X187676414Y-71199776D01*
X187674304Y-71206961D01*
X187650000Y-71376000D01*
X187650000Y-72624000D01*
X187663711Y-72751536D01*
X187675097Y-72803878D01*
X187721692Y-72938508D01*
X187726034Y-72945090D01*
X187805662Y-73065813D01*
X187805667Y-73065820D01*
X187807935Y-73069258D01*
X187854428Y-73122914D01*
X187862455Y-73131743D01*
X187893478Y-73195599D01*
X187885054Y-73266094D01*
X187860930Y-73302907D01*
X187859562Y-73304359D01*
X187855954Y-73307639D01*
X187852896Y-73311434D01*
X187770077Y-73414207D01*
X187757673Y-73429599D01*
X187739185Y-73471391D01*
X187695974Y-73569068D01*
X187695971Y-73569077D01*
X187694306Y-73572840D01*
X187693145Y-73576795D01*
X187693144Y-73576797D01*
X187676414Y-73633776D01*
X187674304Y-73640961D01*
X187673666Y-73645401D01*
X187673665Y-73645404D01*
X187653210Y-73787677D01*
X187650000Y-73810000D01*
X187650000Y-75058000D01*
X184464789Y-75058000D01*
X182355352Y-72948564D01*
X182323825Y-72895887D01*
X182287265Y-72774793D01*
X182285484Y-72768894D01*
X182193370Y-72595653D01*
X182069361Y-72443602D01*
X181918180Y-72318535D01*
X181745585Y-72225213D01*
X181651869Y-72196203D01*
X181564039Y-72169015D01*
X181564036Y-72169014D01*
X181558152Y-72167193D01*
X181552027Y-72166549D01*
X181552026Y-72166549D01*
X181369147Y-72147327D01*
X181369146Y-72147327D01*
X181363019Y-72146683D01*
X181259742Y-72156082D01*
X181173759Y-72163907D01*
X181173758Y-72163907D01*
X181167618Y-72164466D01*
X181161704Y-72166207D01*
X181161702Y-72166207D01*
X181042012Y-72201434D01*
X180979393Y-72219864D01*
X180973928Y-72222721D01*
X180810972Y-72307912D01*
X180810968Y-72307915D01*
X180805512Y-72310767D01*
X180800712Y-72314627D01*
X180800711Y-72314627D01*
X180766326Y-72342273D01*
X180652600Y-72433711D01*
X180526480Y-72584016D01*
X180523516Y-72589408D01*
X180523513Y-72589412D01*
X180502656Y-72627351D01*
X180431956Y-72755954D01*
X180430095Y-72761821D01*
X180430094Y-72761823D01*
X180402292Y-72849466D01*
X180372628Y-72942978D01*
X180350757Y-73137963D01*
X180367175Y-73333483D01*
X180421258Y-73522091D01*
X180424076Y-73527574D01*
X180508123Y-73691113D01*
X180508126Y-73691117D01*
X180510944Y-73696601D01*
X180632818Y-73850369D01*
X180637511Y-73854363D01*
X180637512Y-73854364D01*
X180770559Y-73967595D01*
X180782238Y-73977535D01*
X180787616Y-73980541D01*
X180787618Y-73980542D01*
X180829509Y-74003954D01*
X180953513Y-74073257D01*
X181103917Y-74122127D01*
X181154075Y-74152864D01*
X183748116Y-76746905D01*
X183782142Y-76809217D01*
X183777077Y-76880032D01*
X183734530Y-76936868D01*
X183668010Y-76961679D01*
X183659021Y-76962000D01*
X151259779Y-76962000D01*
X151191658Y-76941998D01*
X151145165Y-76888342D01*
X151135061Y-76818068D01*
X151164555Y-76753488D01*
X151182205Y-76736711D01*
X151188452Y-76731831D01*
X151188458Y-76731825D01*
X151193303Y-76728040D01*
X151201755Y-76718249D01*
X151317485Y-76584173D01*
X151317485Y-76584172D01*
X151321509Y-76579511D01*
X151345632Y-76537048D01*
X151409949Y-76423829D01*
X151418425Y-76408909D01*
X151480358Y-76222732D01*
X151504949Y-76028071D01*
X151505341Y-76000000D01*
X151486194Y-75804728D01*
X151484413Y-75798829D01*
X151484412Y-75798824D01*
X151431265Y-75622793D01*
X151429484Y-75616894D01*
X151399535Y-75560568D01*
X151385215Y-75491031D01*
X151401229Y-75439179D01*
X151405964Y-75430845D01*
X151418425Y-75408909D01*
X151480358Y-75222732D01*
X151504949Y-75028071D01*
X151505341Y-75000000D01*
X151486194Y-74804728D01*
X151484413Y-74798829D01*
X151484412Y-74798824D01*
X151431265Y-74622793D01*
X151429484Y-74616894D01*
X151337370Y-74443653D01*
X151213361Y-74291602D01*
X151062180Y-74166535D01*
X150889585Y-74073213D01*
X150738741Y-74026519D01*
X150708039Y-74017015D01*
X150708036Y-74017014D01*
X150702152Y-74015193D01*
X150696027Y-74014549D01*
X150696026Y-74014549D01*
X150513147Y-73995327D01*
X150513146Y-73995327D01*
X150507019Y-73994683D01*
X150413291Y-74003213D01*
X150317759Y-74011907D01*
X150317758Y-74011907D01*
X150311618Y-74012466D01*
X150305704Y-74014207D01*
X150305702Y-74014207D01*
X150263870Y-74026519D01*
X150123393Y-74067864D01*
X150117928Y-74070721D01*
X149954972Y-74155912D01*
X149954968Y-74155915D01*
X149949512Y-74158767D01*
X149944712Y-74162627D01*
X149944711Y-74162627D01*
X149923333Y-74179815D01*
X149796600Y-74281711D01*
X149670480Y-74432016D01*
X149667516Y-74437408D01*
X149667513Y-74437412D01*
X149607325Y-74546894D01*
X149575956Y-74603954D01*
X149573578Y-74611452D01*
X149570749Y-74620369D01*
X149531085Y-74679252D01*
X149465882Y-74707345D01*
X149395843Y-74695726D01*
X149343203Y-74648086D01*
X149334296Y-74628211D01*
X149333614Y-74628492D01*
X149331265Y-74622793D01*
X149329484Y-74616894D01*
X149237370Y-74443653D01*
X149113361Y-74291602D01*
X148962180Y-74166535D01*
X148789585Y-74073213D01*
X148638741Y-74026519D01*
X148608039Y-74017015D01*
X148608036Y-74017014D01*
X148602152Y-74015193D01*
X148596027Y-74014549D01*
X148596026Y-74014549D01*
X148413147Y-73995327D01*
X148413146Y-73995327D01*
X148407019Y-73994683D01*
X148313291Y-74003213D01*
X148217759Y-74011907D01*
X148217758Y-74011907D01*
X148211618Y-74012466D01*
X148205704Y-74014207D01*
X148205702Y-74014207D01*
X148163870Y-74026519D01*
X148023393Y-74067864D01*
X148017928Y-74070721D01*
X147854972Y-74155912D01*
X147854968Y-74155915D01*
X147849512Y-74158767D01*
X147844712Y-74162627D01*
X147844711Y-74162627D01*
X147823333Y-74179815D01*
X147696600Y-74281711D01*
X147570480Y-74432016D01*
X147567516Y-74437408D01*
X147567513Y-74437412D01*
X147561099Y-74449080D01*
X147510753Y-74499139D01*
X147441336Y-74514032D01*
X147374887Y-74489031D01*
X147344614Y-74453601D01*
X147343672Y-74454227D01*
X147340268Y-74449104D01*
X147337370Y-74443653D01*
X147213361Y-74291602D01*
X147062180Y-74166535D01*
X146889585Y-74073213D01*
X146738741Y-74026519D01*
X146708039Y-74017015D01*
X146708036Y-74017014D01*
X146702152Y-74015193D01*
X146696027Y-74014549D01*
X146696026Y-74014549D01*
X146513147Y-73995327D01*
X146513146Y-73995327D01*
X146507019Y-73994683D01*
X146413291Y-74003213D01*
X146317759Y-74011907D01*
X146317758Y-74011907D01*
X146311618Y-74012466D01*
X146305704Y-74014207D01*
X146305702Y-74014207D01*
X146263870Y-74026519D01*
X146123393Y-74067864D01*
X146117928Y-74070721D01*
X145954972Y-74155912D01*
X145954968Y-74155915D01*
X145949512Y-74158767D01*
X145944712Y-74162627D01*
X145944711Y-74162627D01*
X145923333Y-74179815D01*
X145796600Y-74281711D01*
X145670480Y-74432016D01*
X145667516Y-74437408D01*
X145667513Y-74437412D01*
X145607325Y-74546894D01*
X145575956Y-74603954D01*
X145516628Y-74790978D01*
X145494757Y-74985963D01*
X145511175Y-75181483D01*
X145565258Y-75370091D01*
X145568074Y-75375570D01*
X145568075Y-75375573D01*
X145601922Y-75441431D01*
X145615270Y-75511162D01*
X145600272Y-75559724D01*
X145575956Y-75603954D01*
X145574092Y-75609829D01*
X145574091Y-75609832D01*
X145550144Y-75685323D01*
X145516628Y-75790978D01*
X145494757Y-75985963D01*
X145511175Y-76181483D01*
X145565258Y-76370091D01*
X145568076Y-76375574D01*
X145652123Y-76539113D01*
X145652126Y-76539117D01*
X145654944Y-76544601D01*
X145776818Y-76698369D01*
X145781511Y-76702363D01*
X145781512Y-76702364D01*
X145825788Y-76740046D01*
X145864701Y-76799429D01*
X145865332Y-76870423D01*
X145827480Y-76930488D01*
X145763164Y-76960553D01*
X145744125Y-76962000D01*
X143184662Y-76962000D01*
X143116541Y-76941998D01*
X143070048Y-76888342D01*
X143059944Y-76818068D01*
X143089438Y-76753488D01*
X143107089Y-76736711D01*
X143182447Y-76677835D01*
X143182453Y-76677829D01*
X143187303Y-76674040D01*
X143200801Y-76658403D01*
X143311485Y-76530173D01*
X143311485Y-76530172D01*
X143315509Y-76525511D01*
X143328659Y-76502364D01*
X143351644Y-76461902D01*
X143412425Y-76354909D01*
X143474358Y-76168732D01*
X143498949Y-75974071D01*
X143499341Y-75946000D01*
X143480194Y-75750728D01*
X143478413Y-75744829D01*
X143478412Y-75744824D01*
X143442153Y-75624728D01*
X143423484Y-75562894D01*
X143420591Y-75557454D01*
X143420589Y-75557448D01*
X143389141Y-75498303D01*
X143374821Y-75428766D01*
X143390835Y-75376914D01*
X143409380Y-75344269D01*
X143412425Y-75338909D01*
X143474358Y-75152732D01*
X143498949Y-74958071D01*
X143499341Y-74930000D01*
X143480194Y-74734728D01*
X143478413Y-74728829D01*
X143478412Y-74728824D01*
X143425265Y-74552793D01*
X143423484Y-74546894D01*
X143331370Y-74373653D01*
X143207361Y-74221602D01*
X143056180Y-74096535D01*
X142883585Y-74003213D01*
X142787733Y-73973542D01*
X142702039Y-73947015D01*
X142702036Y-73947014D01*
X142696152Y-73945193D01*
X142690027Y-73944549D01*
X142690026Y-73944549D01*
X142507147Y-73925327D01*
X142507146Y-73925327D01*
X142501019Y-73924683D01*
X142397863Y-73934071D01*
X142311759Y-73941907D01*
X142311758Y-73941907D01*
X142305618Y-73942466D01*
X142299704Y-73944207D01*
X142299702Y-73944207D01*
X142176248Y-73980542D01*
X142117393Y-73997864D01*
X142111928Y-74000721D01*
X141948972Y-74085912D01*
X141948968Y-74085915D01*
X141943512Y-74088767D01*
X141938712Y-74092627D01*
X141938711Y-74092627D01*
X141915297Y-74111452D01*
X141790600Y-74211711D01*
X141664480Y-74362016D01*
X141661516Y-74367408D01*
X141661513Y-74367412D01*
X141606021Y-74468352D01*
X141569956Y-74533954D01*
X141568095Y-74539821D01*
X141568094Y-74539823D01*
X141545889Y-74609821D01*
X141510628Y-74720978D01*
X141488757Y-74915963D01*
X141505175Y-75111483D01*
X141517003Y-75152732D01*
X141556686Y-75291121D01*
X141559258Y-75300091D01*
X141562073Y-75305568D01*
X141562076Y-75305576D01*
X141600171Y-75379701D01*
X141613519Y-75449431D01*
X141598520Y-75497996D01*
X141569956Y-75549954D01*
X141568095Y-75555821D01*
X141568094Y-75555823D01*
X141548721Y-75616894D01*
X141510628Y-75736978D01*
X141488757Y-75931963D01*
X141505175Y-76127483D01*
X141559258Y-76316091D01*
X141562076Y-76321574D01*
X141646123Y-76485113D01*
X141646126Y-76485117D01*
X141648944Y-76490601D01*
X141770818Y-76644369D01*
X141775511Y-76648363D01*
X141775512Y-76648364D01*
X141883238Y-76740046D01*
X141922151Y-76799429D01*
X141922782Y-76870423D01*
X141884930Y-76930488D01*
X141820614Y-76960553D01*
X141801575Y-76962000D01*
X135167218Y-76962000D01*
X135099097Y-76941998D01*
X135052604Y-76888342D01*
X135042500Y-76818068D01*
X135071994Y-76753488D01*
X135110408Y-76723534D01*
X135178852Y-76688960D01*
X135218689Y-76668837D01*
X135244894Y-76648364D01*
X135313135Y-76595048D01*
X135373303Y-76548040D01*
X135379521Y-76540837D01*
X135497485Y-76404173D01*
X135497485Y-76404172D01*
X135501509Y-76399511D01*
X135515915Y-76374153D01*
X135558361Y-76299434D01*
X135598425Y-76228909D01*
X135660358Y-76042732D01*
X135684949Y-75848071D01*
X135685341Y-75820000D01*
X135666194Y-75624728D01*
X135664413Y-75618829D01*
X135664412Y-75618824D01*
X135611265Y-75442793D01*
X135609484Y-75436894D01*
X135517370Y-75263653D01*
X135417422Y-75141104D01*
X135394791Y-75113355D01*
X135367237Y-75047923D01*
X135379433Y-74977982D01*
X135382878Y-74971483D01*
X135404442Y-74933523D01*
X135418425Y-74908909D01*
X135480358Y-74722732D01*
X135504949Y-74528071D01*
X135505341Y-74500000D01*
X135486194Y-74304728D01*
X135484413Y-74298829D01*
X135484412Y-74298824D01*
X135431265Y-74122793D01*
X135429484Y-74116894D01*
X135337370Y-73943653D01*
X135213361Y-73791602D01*
X135062180Y-73666535D01*
X134889585Y-73573213D01*
X134742149Y-73527574D01*
X134708039Y-73517015D01*
X134708036Y-73517014D01*
X134702152Y-73515193D01*
X134696027Y-73514549D01*
X134696026Y-73514549D01*
X134513147Y-73495327D01*
X134513146Y-73495327D01*
X134507019Y-73494683D01*
X134384383Y-73505844D01*
X134317759Y-73511907D01*
X134317758Y-73511907D01*
X134311618Y-73512466D01*
X134305704Y-73514207D01*
X134305702Y-73514207D01*
X134176734Y-73552165D01*
X134123393Y-73567864D01*
X134117928Y-73570721D01*
X133954972Y-73655912D01*
X133954968Y-73655915D01*
X133949512Y-73658767D01*
X133944712Y-73662627D01*
X133944711Y-73662627D01*
X133925775Y-73677852D01*
X133796600Y-73781711D01*
X133707369Y-73888053D01*
X133676623Y-73924695D01*
X133617513Y-73964022D01*
X133546526Y-73965148D01*
X133486198Y-73927717D01*
X133468850Y-73902858D01*
X133450911Y-73869120D01*
X133437370Y-73843653D01*
X133313361Y-73691602D01*
X133162180Y-73566535D01*
X132989585Y-73473213D01*
X132873100Y-73437155D01*
X132808039Y-73417015D01*
X132808036Y-73417014D01*
X132802152Y-73415193D01*
X132796027Y-73414549D01*
X132796026Y-73414549D01*
X132613147Y-73395327D01*
X132613146Y-73395327D01*
X132607019Y-73394683D01*
X132484383Y-73405844D01*
X132417759Y-73411907D01*
X132417758Y-73411907D01*
X132411618Y-73412466D01*
X132405704Y-73414207D01*
X132405702Y-73414207D01*
X132276734Y-73452165D01*
X132223393Y-73467864D01*
X132217928Y-73470721D01*
X132054972Y-73555912D01*
X132054968Y-73555915D01*
X132049512Y-73558767D01*
X132044712Y-73562627D01*
X132044711Y-73562627D01*
X132027087Y-73576797D01*
X131896600Y-73681711D01*
X131770480Y-73832016D01*
X131767513Y-73837414D01*
X131767511Y-73837416D01*
X131750081Y-73869120D01*
X131699735Y-73919178D01*
X131630318Y-73934071D01*
X131563869Y-73909069D01*
X131542024Y-73888053D01*
X131511290Y-73850369D01*
X131463361Y-73791602D01*
X131312180Y-73666535D01*
X131139585Y-73573213D01*
X130992149Y-73527574D01*
X130958039Y-73517015D01*
X130958036Y-73517014D01*
X130952152Y-73515193D01*
X130946027Y-73514549D01*
X130946026Y-73514549D01*
X130763147Y-73495327D01*
X130763146Y-73495327D01*
X130757019Y-73494683D01*
X130634383Y-73505844D01*
X130567759Y-73511907D01*
X130567758Y-73511907D01*
X130561618Y-73512466D01*
X130555704Y-73514207D01*
X130555702Y-73514207D01*
X130426734Y-73552165D01*
X130373393Y-73567864D01*
X130367928Y-73570721D01*
X130204972Y-73655912D01*
X130204968Y-73655915D01*
X130199512Y-73658767D01*
X130194712Y-73662627D01*
X130194711Y-73662627D01*
X130175775Y-73677852D01*
X130046600Y-73781711D01*
X129920480Y-73932016D01*
X129917516Y-73937408D01*
X129917513Y-73937412D01*
X129860588Y-74040958D01*
X129825956Y-74103954D01*
X129766628Y-74290978D01*
X129744757Y-74485963D01*
X129761175Y-74681483D01*
X129815258Y-74870091D01*
X129818076Y-74875574D01*
X129902123Y-75039113D01*
X129902125Y-75039116D01*
X129904944Y-75044601D01*
X129908774Y-75049433D01*
X129912112Y-75054613D01*
X129910332Y-75055760D01*
X129933361Y-75112662D01*
X129918393Y-75185812D01*
X129889224Y-75238870D01*
X129825956Y-75353954D01*
X129824095Y-75359821D01*
X129824094Y-75359823D01*
X129801372Y-75431452D01*
X129766628Y-75540978D01*
X129744757Y-75735963D01*
X129761175Y-75931483D01*
X129815258Y-76120091D01*
X129828831Y-76146501D01*
X129902123Y-76289113D01*
X129902126Y-76289117D01*
X129904944Y-76294601D01*
X130026818Y-76448369D01*
X130031511Y-76452363D01*
X130031512Y-76452364D01*
X130139891Y-76544601D01*
X130176238Y-76575535D01*
X130181616Y-76578541D01*
X130181618Y-76578542D01*
X130217932Y-76598837D01*
X130347513Y-76671257D01*
X130416090Y-76693539D01*
X130485731Y-76716167D01*
X130544337Y-76756241D01*
X130571974Y-76821637D01*
X130559867Y-76891594D01*
X130511861Y-76943900D01*
X130446795Y-76962000D01*
X122046000Y-76962000D01*
X121977879Y-76941998D01*
X121931386Y-76888342D01*
X121920000Y-76836000D01*
X121920000Y-73185463D01*
X162799500Y-73185463D01*
X162799712Y-73188036D01*
X162799712Y-73188047D01*
X162813649Y-73357565D01*
X162813650Y-73357571D01*
X162814073Y-73362716D01*
X162827254Y-73415193D01*
X162867682Y-73576143D01*
X162872179Y-73594048D01*
X162874237Y-73598781D01*
X162874238Y-73598784D01*
X162960154Y-73796376D01*
X162967288Y-73812784D01*
X163096845Y-74013049D01*
X163100324Y-74016872D01*
X163100326Y-74016875D01*
X163232951Y-74162627D01*
X163257371Y-74189464D01*
X163261422Y-74192663D01*
X163261426Y-74192667D01*
X163440500Y-74334091D01*
X163440504Y-74334093D01*
X163444555Y-74337293D01*
X163449076Y-74339789D01*
X163449078Y-74339790D01*
X163489341Y-74362016D01*
X163653369Y-74452564D01*
X163658238Y-74454288D01*
X163658242Y-74454290D01*
X163873337Y-74530459D01*
X163873339Y-74530460D01*
X163878206Y-74532183D01*
X163993908Y-74552793D01*
X164107940Y-74573106D01*
X164107944Y-74573106D01*
X164113028Y-74574012D01*
X164196860Y-74575036D01*
X164346360Y-74576863D01*
X164346362Y-74576863D01*
X164351529Y-74576926D01*
X164587302Y-74540847D01*
X164814018Y-74466745D01*
X164818606Y-74464357D01*
X164818610Y-74464355D01*
X165020997Y-74358999D01*
X165020998Y-74358998D01*
X165025586Y-74356610D01*
X165029719Y-74353507D01*
X165029722Y-74353505D01*
X165212190Y-74216503D01*
X165212192Y-74216501D01*
X165216325Y-74213398D01*
X165315304Y-74109823D01*
X165377542Y-74044695D01*
X165377543Y-74044694D01*
X165381113Y-74040958D01*
X165394885Y-74020769D01*
X165449796Y-73975766D01*
X165520321Y-73967595D01*
X165584068Y-73998849D01*
X165596220Y-74012083D01*
X165596845Y-74013049D01*
X165600330Y-74016879D01*
X165723036Y-74151730D01*
X165757371Y-74189464D01*
X165761422Y-74192663D01*
X165761426Y-74192667D01*
X165940500Y-74334091D01*
X165940504Y-74334093D01*
X165944555Y-74337293D01*
X165949076Y-74339789D01*
X165949078Y-74339790D01*
X165989341Y-74362016D01*
X166153369Y-74452564D01*
X166158238Y-74454288D01*
X166158242Y-74454290D01*
X166373337Y-74530459D01*
X166373339Y-74530460D01*
X166378206Y-74532183D01*
X166493908Y-74552793D01*
X166607940Y-74573106D01*
X166607944Y-74573106D01*
X166613028Y-74574012D01*
X166696860Y-74575036D01*
X166846360Y-74576863D01*
X166846362Y-74576863D01*
X166851529Y-74576926D01*
X167087302Y-74540847D01*
X167314018Y-74466745D01*
X167318606Y-74464357D01*
X167318610Y-74464355D01*
X167520997Y-74358999D01*
X167520998Y-74358998D01*
X167525586Y-74356610D01*
X167529719Y-74353507D01*
X167529722Y-74353505D01*
X167712190Y-74216503D01*
X167712192Y-74216501D01*
X167716325Y-74213398D01*
X167815304Y-74109823D01*
X167877542Y-74044695D01*
X167877543Y-74044694D01*
X167881113Y-74040958D01*
X167894885Y-74020769D01*
X167949796Y-73975766D01*
X168020321Y-73967595D01*
X168084068Y-73998849D01*
X168096220Y-74012083D01*
X168096845Y-74013049D01*
X168100330Y-74016879D01*
X168223036Y-74151730D01*
X168257371Y-74189464D01*
X168261422Y-74192663D01*
X168261426Y-74192667D01*
X168440500Y-74334091D01*
X168440504Y-74334093D01*
X168444555Y-74337293D01*
X168449076Y-74339789D01*
X168449078Y-74339790D01*
X168489341Y-74362016D01*
X168653369Y-74452564D01*
X168658238Y-74454288D01*
X168658242Y-74454290D01*
X168873337Y-74530459D01*
X168873339Y-74530460D01*
X168878206Y-74532183D01*
X168993908Y-74552793D01*
X169107940Y-74573106D01*
X169107944Y-74573106D01*
X169113028Y-74574012D01*
X169196860Y-74575036D01*
X169346360Y-74576863D01*
X169346362Y-74576863D01*
X169351529Y-74576926D01*
X169587302Y-74540847D01*
X169814018Y-74466745D01*
X169818606Y-74464357D01*
X169818610Y-74464355D01*
X170020997Y-74358999D01*
X170020998Y-74358998D01*
X170025586Y-74356610D01*
X170029719Y-74353507D01*
X170029722Y-74353505D01*
X170212190Y-74216503D01*
X170212192Y-74216501D01*
X170216325Y-74213398D01*
X170315304Y-74109823D01*
X170377542Y-74044695D01*
X170377543Y-74044694D01*
X170381113Y-74040958D01*
X170394885Y-74020769D01*
X170449796Y-73975766D01*
X170520321Y-73967595D01*
X170584068Y-73998849D01*
X170596220Y-74012083D01*
X170596845Y-74013049D01*
X170600330Y-74016879D01*
X170723036Y-74151730D01*
X170757371Y-74189464D01*
X170761422Y-74192663D01*
X170761426Y-74192667D01*
X170940500Y-74334091D01*
X170940504Y-74334093D01*
X170944555Y-74337293D01*
X170949076Y-74339789D01*
X170949078Y-74339790D01*
X170989341Y-74362016D01*
X171153369Y-74452564D01*
X171158238Y-74454288D01*
X171158242Y-74454290D01*
X171373337Y-74530459D01*
X171373339Y-74530460D01*
X171378206Y-74532183D01*
X171493908Y-74552793D01*
X171607940Y-74573106D01*
X171607944Y-74573106D01*
X171613028Y-74574012D01*
X171696860Y-74575036D01*
X171846360Y-74576863D01*
X171846362Y-74576863D01*
X171851529Y-74576926D01*
X172087302Y-74540847D01*
X172314018Y-74466745D01*
X172318606Y-74464357D01*
X172318610Y-74464355D01*
X172520997Y-74358999D01*
X172520998Y-74358998D01*
X172525586Y-74356610D01*
X172529719Y-74353507D01*
X172529722Y-74353505D01*
X172712190Y-74216503D01*
X172712192Y-74216501D01*
X172716325Y-74213398D01*
X172815304Y-74109823D01*
X172877542Y-74044695D01*
X172877543Y-74044694D01*
X172881113Y-74040958D01*
X172894885Y-74020769D01*
X172949796Y-73975766D01*
X173020321Y-73967595D01*
X173084068Y-73998849D01*
X173096220Y-74012083D01*
X173096845Y-74013049D01*
X173100330Y-74016879D01*
X173223036Y-74151730D01*
X173257371Y-74189464D01*
X173261422Y-74192663D01*
X173261426Y-74192667D01*
X173440500Y-74334091D01*
X173440504Y-74334093D01*
X173444555Y-74337293D01*
X173449076Y-74339789D01*
X173449078Y-74339790D01*
X173489341Y-74362016D01*
X173653369Y-74452564D01*
X173658238Y-74454288D01*
X173658242Y-74454290D01*
X173873337Y-74530459D01*
X173873339Y-74530460D01*
X173878206Y-74532183D01*
X173993908Y-74552793D01*
X174107940Y-74573106D01*
X174107944Y-74573106D01*
X174113028Y-74574012D01*
X174196860Y-74575036D01*
X174346360Y-74576863D01*
X174346362Y-74576863D01*
X174351529Y-74576926D01*
X174587302Y-74540847D01*
X174814018Y-74466745D01*
X174818606Y-74464357D01*
X174818610Y-74464355D01*
X175020997Y-74358999D01*
X175020998Y-74358998D01*
X175025586Y-74356610D01*
X175029719Y-74353507D01*
X175029722Y-74353505D01*
X175205398Y-74221602D01*
X175216325Y-74213398D01*
X175219894Y-74209663D01*
X175219901Y-74209657D01*
X175244703Y-74183703D01*
X175306227Y-74148273D01*
X175377140Y-74151730D01*
X175433992Y-74191800D01*
X175545060Y-74329940D01*
X175689074Y-74445731D01*
X175734644Y-74468352D01*
X175848481Y-74524862D01*
X175848485Y-74524864D01*
X175854592Y-74527895D01*
X175861214Y-74529546D01*
X176028497Y-74571255D01*
X176028501Y-74571256D01*
X176033893Y-74572600D01*
X176050706Y-74573746D01*
X176074286Y-74575354D01*
X176074299Y-74575354D01*
X176076434Y-74575500D01*
X177423566Y-74575500D01*
X177425701Y-74575354D01*
X177425714Y-74575354D01*
X177449294Y-74573746D01*
X177466107Y-74572600D01*
X177471499Y-74571256D01*
X177471503Y-74571255D01*
X177638786Y-74529546D01*
X177645408Y-74527895D01*
X177651515Y-74524864D01*
X177651519Y-74524862D01*
X177765356Y-74468352D01*
X177810926Y-74445731D01*
X177954940Y-74329940D01*
X178070731Y-74185926D01*
X178118961Y-74088767D01*
X178149862Y-74026519D01*
X178149864Y-74026515D01*
X178152895Y-74020408D01*
X178162835Y-73980542D01*
X178196255Y-73846503D01*
X178196256Y-73846499D01*
X178197600Y-73841107D01*
X178200500Y-73798566D01*
X178200500Y-72201434D01*
X178197600Y-72158893D01*
X178195833Y-72151803D01*
X178154546Y-71986214D01*
X178152895Y-71979592D01*
X178149864Y-71973485D01*
X178149862Y-71973481D01*
X178111813Y-71896833D01*
X178070731Y-71814074D01*
X177954940Y-71670060D01*
X177810926Y-71554269D01*
X177722539Y-71510393D01*
X177651519Y-71475138D01*
X177651515Y-71475136D01*
X177645408Y-71472105D01*
X177593461Y-71459153D01*
X177471503Y-71428745D01*
X177471499Y-71428744D01*
X177466107Y-71427400D01*
X177449294Y-71426254D01*
X177425714Y-71424646D01*
X177425701Y-71424646D01*
X177423566Y-71424500D01*
X176076434Y-71424500D01*
X176074299Y-71424646D01*
X176074286Y-71424646D01*
X176050706Y-71426254D01*
X176033893Y-71427400D01*
X176028501Y-71428744D01*
X176028497Y-71428745D01*
X175906539Y-71459153D01*
X175854592Y-71472105D01*
X175848485Y-71475136D01*
X175848481Y-71475138D01*
X175777461Y-71510393D01*
X175689074Y-71554269D01*
X175545060Y-71670060D01*
X175448352Y-71790340D01*
X175435503Y-71806321D01*
X175377230Y-71846876D01*
X175306281Y-71849488D01*
X175251236Y-71816443D01*
X175249890Y-71817886D01*
X175246106Y-71814357D01*
X175242629Y-71810536D01*
X175238578Y-71807337D01*
X175238574Y-71807333D01*
X175059500Y-71665909D01*
X175059496Y-71665907D01*
X175055445Y-71662707D01*
X175016125Y-71641001D01*
X174999682Y-71631924D01*
X174846631Y-71547436D01*
X174841762Y-71545712D01*
X174841758Y-71545710D01*
X174626663Y-71469541D01*
X174626661Y-71469540D01*
X174621794Y-71467817D01*
X174504383Y-71446902D01*
X174392060Y-71426894D01*
X174392056Y-71426894D01*
X174386972Y-71425988D01*
X174303140Y-71424964D01*
X174153640Y-71423137D01*
X174153638Y-71423137D01*
X174148471Y-71423074D01*
X173912698Y-71459153D01*
X173685982Y-71533255D01*
X173681394Y-71535643D01*
X173681390Y-71535645D01*
X173645614Y-71554269D01*
X173474414Y-71643390D01*
X173470281Y-71646493D01*
X173470278Y-71646495D01*
X173287810Y-71783497D01*
X173283675Y-71786602D01*
X173280103Y-71790340D01*
X173132786Y-71944498D01*
X173118887Y-71959042D01*
X173115973Y-71963314D01*
X173115972Y-71963315D01*
X173105115Y-71979231D01*
X173050204Y-72024234D01*
X172979679Y-72032405D01*
X172915932Y-72001151D01*
X172903780Y-71987917D01*
X172903155Y-71986951D01*
X172742629Y-71810536D01*
X172738578Y-71807337D01*
X172738574Y-71807333D01*
X172559500Y-71665909D01*
X172559496Y-71665907D01*
X172555445Y-71662707D01*
X172516125Y-71641001D01*
X172499682Y-71631924D01*
X172346631Y-71547436D01*
X172341762Y-71545712D01*
X172341758Y-71545710D01*
X172126663Y-71469541D01*
X172126661Y-71469540D01*
X172121794Y-71467817D01*
X172004383Y-71446902D01*
X171892060Y-71426894D01*
X171892056Y-71426894D01*
X171886972Y-71425988D01*
X171803140Y-71424964D01*
X171653640Y-71423137D01*
X171653638Y-71423137D01*
X171648471Y-71423074D01*
X171412698Y-71459153D01*
X171185982Y-71533255D01*
X171181394Y-71535643D01*
X171181390Y-71535645D01*
X171145614Y-71554269D01*
X170974414Y-71643390D01*
X170970281Y-71646493D01*
X170970278Y-71646495D01*
X170787810Y-71783497D01*
X170783675Y-71786602D01*
X170780103Y-71790340D01*
X170632786Y-71944498D01*
X170618887Y-71959042D01*
X170615973Y-71963314D01*
X170615972Y-71963315D01*
X170605115Y-71979231D01*
X170550204Y-72024234D01*
X170479679Y-72032405D01*
X170415932Y-72001151D01*
X170403780Y-71987917D01*
X170403155Y-71986951D01*
X170242629Y-71810536D01*
X170238578Y-71807337D01*
X170238574Y-71807333D01*
X170059500Y-71665909D01*
X170059496Y-71665907D01*
X170055445Y-71662707D01*
X170016125Y-71641001D01*
X169999682Y-71631924D01*
X169846631Y-71547436D01*
X169841762Y-71545712D01*
X169841758Y-71545710D01*
X169626663Y-71469541D01*
X169626661Y-71469540D01*
X169621794Y-71467817D01*
X169504383Y-71446902D01*
X169392060Y-71426894D01*
X169392056Y-71426894D01*
X169386972Y-71425988D01*
X169303140Y-71424964D01*
X169153640Y-71423137D01*
X169153638Y-71423137D01*
X169148471Y-71423074D01*
X168912698Y-71459153D01*
X168685982Y-71533255D01*
X168681394Y-71535643D01*
X168681390Y-71535645D01*
X168645614Y-71554269D01*
X168474414Y-71643390D01*
X168470281Y-71646493D01*
X168470278Y-71646495D01*
X168287810Y-71783497D01*
X168283675Y-71786602D01*
X168280103Y-71790340D01*
X168132786Y-71944498D01*
X168118887Y-71959042D01*
X168115973Y-71963314D01*
X168115972Y-71963315D01*
X168105115Y-71979231D01*
X168050204Y-72024234D01*
X167979679Y-72032405D01*
X167915932Y-72001151D01*
X167903780Y-71987917D01*
X167903155Y-71986951D01*
X167742629Y-71810536D01*
X167738578Y-71807337D01*
X167738574Y-71807333D01*
X167559500Y-71665909D01*
X167559496Y-71665907D01*
X167555445Y-71662707D01*
X167516125Y-71641001D01*
X167499682Y-71631924D01*
X167346631Y-71547436D01*
X167341762Y-71545712D01*
X167341758Y-71545710D01*
X167126663Y-71469541D01*
X167126661Y-71469540D01*
X167121794Y-71467817D01*
X167004383Y-71446902D01*
X166892060Y-71426894D01*
X166892056Y-71426894D01*
X166886972Y-71425988D01*
X166803140Y-71424964D01*
X166653640Y-71423137D01*
X166653638Y-71423137D01*
X166648471Y-71423074D01*
X166412698Y-71459153D01*
X166185982Y-71533255D01*
X166181394Y-71535643D01*
X166181390Y-71535645D01*
X166145614Y-71554269D01*
X165974414Y-71643390D01*
X165970281Y-71646493D01*
X165970278Y-71646495D01*
X165787810Y-71783497D01*
X165783675Y-71786602D01*
X165780103Y-71790340D01*
X165632786Y-71944498D01*
X165618887Y-71959042D01*
X165615973Y-71963314D01*
X165615972Y-71963315D01*
X165605115Y-71979231D01*
X165550204Y-72024234D01*
X165479679Y-72032405D01*
X165415932Y-72001151D01*
X165403780Y-71987917D01*
X165403155Y-71986951D01*
X165242629Y-71810536D01*
X165238578Y-71807337D01*
X165238574Y-71807333D01*
X165059500Y-71665909D01*
X165059496Y-71665907D01*
X165055445Y-71662707D01*
X165016125Y-71641001D01*
X164999682Y-71631924D01*
X164846631Y-71547436D01*
X164841762Y-71545712D01*
X164841758Y-71545710D01*
X164626663Y-71469541D01*
X164626661Y-71469540D01*
X164621794Y-71467817D01*
X164504383Y-71446902D01*
X164392060Y-71426894D01*
X164392056Y-71426894D01*
X164386972Y-71425988D01*
X164303140Y-71424964D01*
X164153640Y-71423137D01*
X164153638Y-71423137D01*
X164148471Y-71423074D01*
X163912698Y-71459153D01*
X163685982Y-71533255D01*
X163681394Y-71535643D01*
X163681390Y-71535645D01*
X163645614Y-71554269D01*
X163474414Y-71643390D01*
X163470281Y-71646493D01*
X163470278Y-71646495D01*
X163287810Y-71783497D01*
X163283675Y-71786602D01*
X163280103Y-71790340D01*
X163132786Y-71944498D01*
X163118887Y-71959042D01*
X162984475Y-72156082D01*
X162884051Y-72372428D01*
X162820309Y-72602272D01*
X162819760Y-72607409D01*
X162799922Y-72793039D01*
X162799500Y-72796986D01*
X162799500Y-73185463D01*
X121920000Y-73185463D01*
X121920000Y-67985963D01*
X171494757Y-67985963D01*
X171511175Y-68181483D01*
X171565258Y-68370091D01*
X171568076Y-68375574D01*
X171652123Y-68539113D01*
X171652126Y-68539117D01*
X171654944Y-68544601D01*
X171776818Y-68698369D01*
X171781511Y-68702363D01*
X171781512Y-68702364D01*
X171902004Y-68804910D01*
X171926238Y-68825535D01*
X171931616Y-68828541D01*
X171931618Y-68828542D01*
X171967932Y-68848837D01*
X172097513Y-68921257D01*
X172284118Y-68981889D01*
X172478946Y-69005121D01*
X172485081Y-69004649D01*
X172485083Y-69004649D01*
X172668434Y-68990541D01*
X172668438Y-68990540D01*
X172674576Y-68990068D01*
X172863556Y-68937303D01*
X173038689Y-68848837D01*
X173068515Y-68825535D01*
X173179061Y-68739167D01*
X173193303Y-68728040D01*
X173223084Y-68693539D01*
X173317485Y-68584173D01*
X173317485Y-68584172D01*
X173321509Y-68579511D01*
X173324759Y-68573791D01*
X173385644Y-68466613D01*
X173418425Y-68408909D01*
X173475957Y-68235963D01*
X174244757Y-68235963D01*
X174261175Y-68431483D01*
X174315258Y-68620091D01*
X174327307Y-68643535D01*
X174402123Y-68789113D01*
X174402126Y-68789117D01*
X174404944Y-68794601D01*
X174526818Y-68948369D01*
X174531511Y-68952363D01*
X174531512Y-68952364D01*
X174593502Y-69005121D01*
X174676238Y-69075535D01*
X174681616Y-69078541D01*
X174681618Y-69078542D01*
X174717932Y-69098837D01*
X174847513Y-69171257D01*
X175034118Y-69231889D01*
X175228946Y-69255121D01*
X175235081Y-69254649D01*
X175235083Y-69254649D01*
X175418434Y-69240541D01*
X175418438Y-69240540D01*
X175424576Y-69240068D01*
X175613556Y-69187303D01*
X175788689Y-69098837D01*
X175818515Y-69075535D01*
X175909574Y-69004392D01*
X175943303Y-68978040D01*
X175973084Y-68943539D01*
X176067485Y-68834173D01*
X176067485Y-68834172D01*
X176071509Y-68829511D01*
X176077512Y-68818945D01*
X176113665Y-68755303D01*
X176168425Y-68658909D01*
X176230358Y-68472732D01*
X176254949Y-68278071D01*
X176255341Y-68250000D01*
X176236194Y-68054728D01*
X176234413Y-68048829D01*
X176234412Y-68048824D01*
X176181265Y-67872793D01*
X176179484Y-67866894D01*
X176087370Y-67693653D01*
X175963361Y-67541602D01*
X175812180Y-67416535D01*
X175639585Y-67323213D01*
X175537466Y-67291602D01*
X175458039Y-67267015D01*
X175458036Y-67267014D01*
X175452152Y-67265193D01*
X175446027Y-67264549D01*
X175446026Y-67264549D01*
X175263147Y-67245327D01*
X175263146Y-67245327D01*
X175257019Y-67244683D01*
X175139128Y-67255412D01*
X175067759Y-67261907D01*
X175067758Y-67261907D01*
X175061618Y-67262466D01*
X175055704Y-67264207D01*
X175055702Y-67264207D01*
X174980196Y-67286430D01*
X174873393Y-67317864D01*
X174867928Y-67320721D01*
X174704972Y-67405912D01*
X174704968Y-67405915D01*
X174699512Y-67408767D01*
X174694712Y-67412627D01*
X174694711Y-67412627D01*
X174683111Y-67421954D01*
X174546600Y-67531711D01*
X174420480Y-67682016D01*
X174417516Y-67687408D01*
X174417513Y-67687412D01*
X174363804Y-67785109D01*
X174325956Y-67853954D01*
X174266628Y-68040978D01*
X174244757Y-68235963D01*
X173475957Y-68235963D01*
X173480358Y-68222732D01*
X173504949Y-68028071D01*
X173505341Y-68000000D01*
X173486194Y-67804728D01*
X173484413Y-67798829D01*
X173484412Y-67798824D01*
X173431265Y-67622793D01*
X173429484Y-67616894D01*
X173337370Y-67443653D01*
X173213361Y-67291602D01*
X173129434Y-67222172D01*
X173089696Y-67163338D01*
X173088073Y-67092360D01*
X173125082Y-67031773D01*
X173132176Y-67025797D01*
X173179960Y-66988465D01*
X173193303Y-66978040D01*
X173223084Y-66943539D01*
X173317485Y-66834173D01*
X173317485Y-66834172D01*
X173321509Y-66829511D01*
X173418425Y-66658909D01*
X173480358Y-66472732D01*
X173504949Y-66278071D01*
X173505341Y-66250000D01*
X173486194Y-66054728D01*
X173484413Y-66048829D01*
X173484412Y-66048824D01*
X173431265Y-65872793D01*
X173429484Y-65866894D01*
X173337370Y-65693653D01*
X173213361Y-65541602D01*
X173176433Y-65511053D01*
X183904115Y-65511053D01*
X183911504Y-65521354D01*
X183952108Y-65554411D01*
X183959384Y-65559525D01*
X184182078Y-65693598D01*
X184190002Y-65697635D01*
X184429369Y-65798995D01*
X184437774Y-65801873D01*
X184689046Y-65868495D01*
X184697767Y-65870159D01*
X184955923Y-65900714D01*
X184964789Y-65901132D01*
X185224664Y-65895008D01*
X185233518Y-65894171D01*
X185489938Y-65851491D01*
X185498572Y-65849418D01*
X185746424Y-65771033D01*
X185754686Y-65767762D01*
X185989012Y-65655240D01*
X185996737Y-65650834D01*
X186188418Y-65522757D01*
X186196706Y-65512839D01*
X186189449Y-65498660D01*
X185062810Y-64372020D01*
X185048869Y-64364408D01*
X185047034Y-64364539D01*
X185040420Y-64368790D01*
X183911281Y-65497930D01*
X183904115Y-65511053D01*
X173176433Y-65511053D01*
X173129434Y-65472172D01*
X173089696Y-65413338D01*
X173088073Y-65342360D01*
X173125082Y-65281773D01*
X173132176Y-65275797D01*
X173167707Y-65248038D01*
X173193303Y-65228040D01*
X173211349Y-65207134D01*
X173317485Y-65084173D01*
X173317485Y-65084172D01*
X173321509Y-65079511D01*
X173418425Y-64908909D01*
X173480358Y-64722732D01*
X173504949Y-64528071D01*
X173505341Y-64500000D01*
X173486194Y-64304728D01*
X173484413Y-64298829D01*
X173484412Y-64298824D01*
X173431265Y-64122793D01*
X173429484Y-64116894D01*
X173337909Y-63944666D01*
X183147764Y-63944666D01*
X183157969Y-64204414D01*
X183158944Y-64213243D01*
X183205647Y-64468963D01*
X183207856Y-64477567D01*
X183290123Y-64724152D01*
X183293527Y-64732369D01*
X183409718Y-64964904D01*
X183414236Y-64972543D01*
X183528180Y-65137407D01*
X183538500Y-65145759D01*
X183552154Y-65138635D01*
X184677980Y-64012810D01*
X184684357Y-64001131D01*
X185414408Y-64001131D01*
X185414539Y-64002966D01*
X185418790Y-64009580D01*
X186548774Y-65139563D01*
X186562174Y-65146880D01*
X186572080Y-65139891D01*
X186586978Y-65122168D01*
X186592196Y-65114986D01*
X186729757Y-64894415D01*
X186733918Y-64886555D01*
X186839020Y-64648819D01*
X186842036Y-64640444D01*
X186912595Y-64390260D01*
X186914396Y-64381567D01*
X186949167Y-64122694D01*
X186949695Y-64116301D01*
X186953249Y-64003222D01*
X186953122Y-63996779D01*
X186934677Y-63736265D01*
X186933424Y-63727461D01*
X186878712Y-63473334D01*
X186876233Y-63464801D01*
X186786260Y-63220921D01*
X186782605Y-63212826D01*
X186659165Y-62984050D01*
X186654406Y-62976552D01*
X186570967Y-62863583D01*
X186559840Y-62855141D01*
X186547244Y-62861967D01*
X185422020Y-63987190D01*
X185414408Y-64001131D01*
X184684357Y-64001131D01*
X184685592Y-63998869D01*
X184685461Y-63997034D01*
X184681210Y-63990420D01*
X183552583Y-62861794D01*
X183539742Y-62854782D01*
X183529054Y-62862576D01*
X183478531Y-62926664D01*
X183473542Y-62934006D01*
X183342977Y-63158788D01*
X183339065Y-63166775D01*
X183241478Y-63407707D01*
X183238734Y-63416151D01*
X183176066Y-63668436D01*
X183174538Y-63677190D01*
X183148043Y-63935783D01*
X183147764Y-63944666D01*
X173337909Y-63944666D01*
X173337370Y-63943653D01*
X173213361Y-63791602D01*
X173129434Y-63722172D01*
X173089696Y-63663338D01*
X173088073Y-63592360D01*
X173125082Y-63531773D01*
X173132176Y-63525797D01*
X173151939Y-63510357D01*
X173193303Y-63478040D01*
X173197881Y-63472737D01*
X173317485Y-63334173D01*
X173317485Y-63334172D01*
X173321509Y-63329511D01*
X173335539Y-63304815D01*
X173415378Y-63164272D01*
X173418425Y-63158909D01*
X173480358Y-62972732D01*
X173504949Y-62778071D01*
X173505341Y-62750000D01*
X173486194Y-62554728D01*
X173484413Y-62548829D01*
X173484412Y-62548824D01*
X173466501Y-62489499D01*
X183904856Y-62489499D01*
X183911836Y-62502625D01*
X185037190Y-63627980D01*
X185051131Y-63635592D01*
X185052966Y-63635461D01*
X185059580Y-63631210D01*
X186188025Y-62502764D01*
X186194880Y-62490212D01*
X186186673Y-62479142D01*
X186098523Y-62411868D01*
X186091094Y-62406988D01*
X185864293Y-62279973D01*
X185856259Y-62276192D01*
X185613805Y-62182394D01*
X185605332Y-62179787D01*
X185352089Y-62121089D01*
X185343312Y-62119699D01*
X185084329Y-62097269D01*
X185075458Y-62097129D01*
X184815887Y-62111414D01*
X184807085Y-62112526D01*
X184552125Y-62163241D01*
X184543557Y-62165585D01*
X184298284Y-62251719D01*
X184290137Y-62255245D01*
X184059462Y-62375070D01*
X184051870Y-62379722D01*
X183913260Y-62478775D01*
X183904856Y-62489499D01*
X173466501Y-62489499D01*
X173431265Y-62372793D01*
X173429484Y-62366894D01*
X173337370Y-62193653D01*
X173213361Y-62041602D01*
X173129434Y-61972172D01*
X173089696Y-61913338D01*
X173088073Y-61842360D01*
X173125082Y-61781773D01*
X173132176Y-61775797D01*
X173158221Y-61755449D01*
X173193303Y-61728040D01*
X173223084Y-61693539D01*
X173317485Y-61584173D01*
X173317485Y-61584172D01*
X173321509Y-61579511D01*
X173418425Y-61408909D01*
X173480358Y-61222732D01*
X173504949Y-61028071D01*
X173505341Y-61000000D01*
X173486194Y-60804728D01*
X173484413Y-60798829D01*
X173484412Y-60798824D01*
X173431265Y-60622793D01*
X173429484Y-60616894D01*
X173337370Y-60443653D01*
X173213361Y-60291602D01*
X173062180Y-60166535D01*
X172889585Y-60073213D01*
X172795868Y-60044203D01*
X172708039Y-60017015D01*
X172708036Y-60017014D01*
X172702152Y-60015193D01*
X172696027Y-60014549D01*
X172696026Y-60014549D01*
X172513147Y-59995327D01*
X172513146Y-59995327D01*
X172507019Y-59994683D01*
X172384383Y-60005844D01*
X172317759Y-60011907D01*
X172317758Y-60011907D01*
X172311618Y-60012466D01*
X172305704Y-60014207D01*
X172305702Y-60014207D01*
X172188228Y-60048782D01*
X172123393Y-60067864D01*
X172117928Y-60070721D01*
X171954972Y-60155912D01*
X171954968Y-60155915D01*
X171949512Y-60158767D01*
X171944712Y-60162627D01*
X171944711Y-60162627D01*
X171923305Y-60179838D01*
X171796600Y-60281711D01*
X171670480Y-60432016D01*
X171667516Y-60437408D01*
X171667513Y-60437412D01*
X171615672Y-60531711D01*
X171575956Y-60603954D01*
X171574095Y-60609821D01*
X171574094Y-60609823D01*
X171549481Y-60687412D01*
X171516628Y-60790978D01*
X171494757Y-60985963D01*
X171511175Y-61181483D01*
X171565258Y-61370091D01*
X171568076Y-61375574D01*
X171652123Y-61539113D01*
X171652126Y-61539117D01*
X171654944Y-61544601D01*
X171776818Y-61698369D01*
X171816134Y-61731829D01*
X171871844Y-61779242D01*
X171910757Y-61838625D01*
X171911388Y-61909618D01*
X171869133Y-61973393D01*
X171796600Y-62031711D01*
X171670480Y-62182016D01*
X171667516Y-62187408D01*
X171667513Y-62187412D01*
X171589411Y-62329479D01*
X171575956Y-62353954D01*
X171574095Y-62359821D01*
X171574094Y-62359823D01*
X171546292Y-62447466D01*
X171516628Y-62540978D01*
X171494757Y-62735963D01*
X171511175Y-62931483D01*
X171565258Y-63120091D01*
X171568076Y-63125574D01*
X171652123Y-63289113D01*
X171652126Y-63289117D01*
X171654944Y-63294601D01*
X171776818Y-63448369D01*
X171816134Y-63481829D01*
X171871844Y-63529242D01*
X171910757Y-63588625D01*
X171911388Y-63659618D01*
X171869133Y-63723393D01*
X171853124Y-63736265D01*
X171796600Y-63781711D01*
X171670480Y-63932016D01*
X171667516Y-63937408D01*
X171667513Y-63937412D01*
X171611744Y-64038856D01*
X171575956Y-64103954D01*
X171516628Y-64290978D01*
X171494757Y-64485963D01*
X171511175Y-64681483D01*
X171565258Y-64870091D01*
X171568076Y-64875574D01*
X171652123Y-65039113D01*
X171652126Y-65039117D01*
X171654944Y-65044601D01*
X171776818Y-65198369D01*
X171830489Y-65244046D01*
X171871844Y-65279242D01*
X171910757Y-65338625D01*
X171911388Y-65409618D01*
X171869133Y-65473393D01*
X171796600Y-65531711D01*
X171670480Y-65682016D01*
X171667516Y-65687408D01*
X171667513Y-65687412D01*
X171621542Y-65771033D01*
X171575956Y-65853954D01*
X171516628Y-66040978D01*
X171494757Y-66235963D01*
X171511175Y-66431483D01*
X171565258Y-66620091D01*
X171568076Y-66625574D01*
X171652123Y-66789113D01*
X171652126Y-66789117D01*
X171654944Y-66794601D01*
X171776818Y-66948369D01*
X171816134Y-66981829D01*
X171871844Y-67029242D01*
X171910757Y-67088625D01*
X171911388Y-67159618D01*
X171869133Y-67223393D01*
X171796600Y-67281711D01*
X171670480Y-67432016D01*
X171667516Y-67437408D01*
X171667513Y-67437412D01*
X171615672Y-67531711D01*
X171575956Y-67603954D01*
X171574095Y-67609821D01*
X171574094Y-67609823D01*
X171552690Y-67677298D01*
X171516628Y-67790978D01*
X171494757Y-67985963D01*
X121920000Y-67985963D01*
X121920000Y-58385963D01*
X129194757Y-58385963D01*
X129211175Y-58581483D01*
X129265258Y-58770091D01*
X129279137Y-58797097D01*
X129352123Y-58939113D01*
X129352126Y-58939117D01*
X129354944Y-58944601D01*
X129476818Y-59098369D01*
X129481511Y-59102363D01*
X129481512Y-59102364D01*
X129615755Y-59216613D01*
X129626238Y-59225535D01*
X129631616Y-59228541D01*
X129631618Y-59228542D01*
X129667932Y-59248837D01*
X129797513Y-59321257D01*
X129984118Y-59381889D01*
X130178946Y-59405121D01*
X130185081Y-59404649D01*
X130185083Y-59404649D01*
X130368434Y-59390541D01*
X130368438Y-59390540D01*
X130374576Y-59390068D01*
X130563556Y-59337303D01*
X130738689Y-59248837D01*
X130768515Y-59225535D01*
X130888453Y-59131829D01*
X130893303Y-59128040D01*
X130903167Y-59116613D01*
X131017485Y-58984173D01*
X131017485Y-58984172D01*
X131021509Y-58979511D01*
X131118425Y-58808909D01*
X131180358Y-58622732D01*
X131204949Y-58428071D01*
X131205341Y-58400000D01*
X131203965Y-58385963D01*
X131594757Y-58385963D01*
X131611175Y-58581483D01*
X131665258Y-58770091D01*
X131679137Y-58797097D01*
X131752123Y-58939113D01*
X131752126Y-58939117D01*
X131754944Y-58944601D01*
X131876818Y-59098369D01*
X131881511Y-59102363D01*
X131881512Y-59102364D01*
X132015755Y-59216613D01*
X132026238Y-59225535D01*
X132031616Y-59228541D01*
X132031618Y-59228542D01*
X132067932Y-59248837D01*
X132197513Y-59321257D01*
X132384118Y-59381889D01*
X132578946Y-59405121D01*
X132585081Y-59404649D01*
X132585083Y-59404649D01*
X132768434Y-59390541D01*
X132768438Y-59390540D01*
X132774576Y-59390068D01*
X132963556Y-59337303D01*
X133138689Y-59248837D01*
X133168515Y-59225535D01*
X133288453Y-59131829D01*
X133293303Y-59128040D01*
X133303167Y-59116613D01*
X133417485Y-58984173D01*
X133417485Y-58984172D01*
X133421509Y-58979511D01*
X133518425Y-58808909D01*
X133580358Y-58622732D01*
X133604949Y-58428071D01*
X133605341Y-58400000D01*
X133603965Y-58385963D01*
X133994757Y-58385963D01*
X134011175Y-58581483D01*
X134065258Y-58770091D01*
X134079137Y-58797097D01*
X134152123Y-58939113D01*
X134152126Y-58939117D01*
X134154944Y-58944601D01*
X134276818Y-59098369D01*
X134281511Y-59102363D01*
X134281512Y-59102364D01*
X134415755Y-59216613D01*
X134426238Y-59225535D01*
X134431616Y-59228541D01*
X134431618Y-59228542D01*
X134467932Y-59248837D01*
X134597513Y-59321257D01*
X134784118Y-59381889D01*
X134978946Y-59405121D01*
X134985081Y-59404649D01*
X134985083Y-59404649D01*
X135168434Y-59390541D01*
X135168438Y-59390540D01*
X135174576Y-59390068D01*
X135363556Y-59337303D01*
X135538689Y-59248837D01*
X135568515Y-59225535D01*
X135688453Y-59131829D01*
X135693303Y-59128040D01*
X135703167Y-59116613D01*
X135817485Y-58984173D01*
X135817485Y-58984172D01*
X135821509Y-58979511D01*
X135918425Y-58808909D01*
X135980358Y-58622732D01*
X136004949Y-58428071D01*
X136005341Y-58400000D01*
X135986194Y-58204728D01*
X135984413Y-58198829D01*
X135984412Y-58198824D01*
X135931265Y-58022793D01*
X135929484Y-58016894D01*
X135837370Y-57843653D01*
X135713361Y-57691602D01*
X135562180Y-57566535D01*
X135389585Y-57473213D01*
X135285450Y-57440978D01*
X135208039Y-57417015D01*
X135208036Y-57417014D01*
X135202152Y-57415193D01*
X135196027Y-57414549D01*
X135196026Y-57414549D01*
X135013147Y-57395327D01*
X135013146Y-57395327D01*
X135007019Y-57394683D01*
X134896644Y-57404728D01*
X134817759Y-57411907D01*
X134817758Y-57411907D01*
X134811618Y-57412466D01*
X134805704Y-57414207D01*
X134805702Y-57414207D01*
X134780417Y-57421649D01*
X134623393Y-57467864D01*
X134617928Y-57470721D01*
X134454972Y-57555912D01*
X134454968Y-57555915D01*
X134449512Y-57558767D01*
X134444712Y-57562627D01*
X134444711Y-57562627D01*
X134410326Y-57590273D01*
X134296600Y-57681711D01*
X134170480Y-57832016D01*
X134167516Y-57837408D01*
X134167513Y-57837412D01*
X134094572Y-57970091D01*
X134075956Y-58003954D01*
X134074095Y-58009821D01*
X134074094Y-58009823D01*
X134067665Y-58030091D01*
X134016628Y-58190978D01*
X133994757Y-58385963D01*
X133603965Y-58385963D01*
X133586194Y-58204728D01*
X133584413Y-58198829D01*
X133584412Y-58198824D01*
X133531265Y-58022793D01*
X133529484Y-58016894D01*
X133437370Y-57843653D01*
X133313361Y-57691602D01*
X133162180Y-57566535D01*
X132989585Y-57473213D01*
X132885450Y-57440978D01*
X132808039Y-57417015D01*
X132808036Y-57417014D01*
X132802152Y-57415193D01*
X132796027Y-57414549D01*
X132796026Y-57414549D01*
X132613147Y-57395327D01*
X132613146Y-57395327D01*
X132607019Y-57394683D01*
X132496644Y-57404728D01*
X132417759Y-57411907D01*
X132417758Y-57411907D01*
X132411618Y-57412466D01*
X132405704Y-57414207D01*
X132405702Y-57414207D01*
X132380417Y-57421649D01*
X132223393Y-57467864D01*
X132217928Y-57470721D01*
X132054972Y-57555912D01*
X132054968Y-57555915D01*
X132049512Y-57558767D01*
X132044712Y-57562627D01*
X132044711Y-57562627D01*
X132010326Y-57590273D01*
X131896600Y-57681711D01*
X131770480Y-57832016D01*
X131767516Y-57837408D01*
X131767513Y-57837412D01*
X131694572Y-57970091D01*
X131675956Y-58003954D01*
X131674095Y-58009821D01*
X131674094Y-58009823D01*
X131667665Y-58030091D01*
X131616628Y-58190978D01*
X131594757Y-58385963D01*
X131203965Y-58385963D01*
X131186194Y-58204728D01*
X131184413Y-58198829D01*
X131184412Y-58198824D01*
X131131265Y-58022793D01*
X131129484Y-58016894D01*
X131037370Y-57843653D01*
X130913361Y-57691602D01*
X130762180Y-57566535D01*
X130589585Y-57473213D01*
X130485450Y-57440978D01*
X130408039Y-57417015D01*
X130408036Y-57417014D01*
X130402152Y-57415193D01*
X130396027Y-57414549D01*
X130396026Y-57414549D01*
X130213147Y-57395327D01*
X130213146Y-57395327D01*
X130207019Y-57394683D01*
X130096644Y-57404728D01*
X130017759Y-57411907D01*
X130017758Y-57411907D01*
X130011618Y-57412466D01*
X130005704Y-57414207D01*
X130005702Y-57414207D01*
X129980417Y-57421649D01*
X129823393Y-57467864D01*
X129817928Y-57470721D01*
X129654972Y-57555912D01*
X129654968Y-57555915D01*
X129649512Y-57558767D01*
X129644712Y-57562627D01*
X129644711Y-57562627D01*
X129610326Y-57590273D01*
X129496600Y-57681711D01*
X129370480Y-57832016D01*
X129367516Y-57837408D01*
X129367513Y-57837412D01*
X129294572Y-57970091D01*
X129275956Y-58003954D01*
X129274095Y-58009821D01*
X129274094Y-58009823D01*
X129267665Y-58030091D01*
X129216628Y-58190978D01*
X129194757Y-58385963D01*
X121920000Y-58385963D01*
X121920000Y-56260000D01*
X121940002Y-56191879D01*
X121993658Y-56145386D01*
X122046000Y-56134000D01*
X137023500Y-56134000D01*
X137091621Y-56154002D01*
G37*
G04 #@! TD.AperFunction*
G04 #@! TA.AperFunction,Conductor*
G36*
X209132590Y-61270002D02*
G01*
X209153562Y-61286903D01*
X210313841Y-62447183D01*
X211213095Y-63346437D01*
X211247121Y-63408749D01*
X211250000Y-63435532D01*
X211250000Y-64724000D01*
X211229998Y-64792121D01*
X211176342Y-64838614D01*
X211124000Y-64850000D01*
X208726000Y-64850000D01*
X208657879Y-64829998D01*
X208611386Y-64776342D01*
X208600000Y-64724000D01*
X208600000Y-61376000D01*
X208620002Y-61307879D01*
X208673658Y-61261386D01*
X208726000Y-61250000D01*
X209064469Y-61250000D01*
X209132590Y-61270002D01*
G37*
G04 #@! TD.AperFunction*
G04 #@! TA.AperFunction,Conductor*
G36*
X200492121Y-69020002D02*
G01*
X200538614Y-69073658D01*
X200550000Y-69126000D01*
X200550000Y-70374000D01*
X200529998Y-70442121D01*
X200476342Y-70488614D01*
X200424000Y-70500000D01*
X197576000Y-70500000D01*
X197507879Y-70479998D01*
X197461386Y-70426342D01*
X197450000Y-70374000D01*
X197450000Y-69126000D01*
X197470002Y-69057879D01*
X197523658Y-69011386D01*
X197576000Y-69000000D01*
X200424000Y-69000000D01*
X200492121Y-69020002D01*
G37*
G04 #@! TD.AperFunction*
G04 #@! TA.AperFunction,Conductor*
G36*
X191542121Y-66568002D02*
G01*
X191588614Y-66621658D01*
X191600000Y-66674000D01*
X191600000Y-67922000D01*
X191579998Y-67990121D01*
X191526342Y-68036614D01*
X191474000Y-68048000D01*
X188376000Y-68048000D01*
X188307879Y-68027998D01*
X188261386Y-67974342D01*
X188250000Y-67922000D01*
X188250000Y-66674000D01*
X188270002Y-66605879D01*
X188323658Y-66559386D01*
X188376000Y-66548000D01*
X191474000Y-66548000D01*
X191542121Y-66568002D01*
G37*
G04 #@! TD.AperFunction*
G04 #@! TA.AperFunction,Conductor*
G36*
X200492121Y-73704002D02*
G01*
X200538614Y-73757658D01*
X200550000Y-73810000D01*
X200550000Y-75058000D01*
X200529998Y-75126121D01*
X200476342Y-75172614D01*
X200424000Y-75184000D01*
X197576000Y-75184000D01*
X197507879Y-75163998D01*
X197461386Y-75110342D01*
X197450000Y-75058000D01*
X197450000Y-73810000D01*
X197470002Y-73741879D01*
X197523658Y-73695386D01*
X197576000Y-73684000D01*
X200424000Y-73684000D01*
X200492121Y-73704002D01*
G37*
G04 #@! TD.AperFunction*
G04 #@! TA.AperFunction,Conductor*
G36*
X191542121Y-71270002D02*
G01*
X191588614Y-71323658D01*
X191600000Y-71376000D01*
X191600000Y-72624000D01*
X191579998Y-72692121D01*
X191526342Y-72738614D01*
X191474000Y-72750000D01*
X188376000Y-72750000D01*
X188307879Y-72729998D01*
X188261386Y-72676342D01*
X188250000Y-72624000D01*
X188250000Y-71376000D01*
X188270002Y-71307879D01*
X188323658Y-71261386D01*
X188376000Y-71250000D01*
X191474000Y-71250000D01*
X191542121Y-71270002D01*
G37*
G04 #@! TD.AperFunction*
M02*
