G04 #@! TF.GenerationSoftware,KiCad,Pcbnew,(5.1.10)-1*
G04 #@! TF.CreationDate,2021-12-14T16:32:23+01:00*
G04 #@! TF.ProjectId,jamma_mahjong,6a616d6d-615f-46d6-9168-6a6f6e672e6b,rev?*
G04 #@! TF.SameCoordinates,Original*
G04 #@! TF.FileFunction,Legend,Top*
G04 #@! TF.FilePolarity,Positive*
%FSLAX46Y46*%
G04 Gerber Fmt 4.6, Leading zero omitted, Abs format (unit mm)*
G04 Created by KiCad (PCBNEW (5.1.10)-1) date 2021-12-14 16:32:23*
%MOMM*%
%LPD*%
G01*
G04 APERTURE LIST*
%ADD10C,0.100000*%
%ADD11C,0.120000*%
%ADD12C,0.375000*%
%ADD13C,0.150000*%
%ADD14C,1.200000*%
%ADD15R,2.350000X8.000000*%
G04 APERTURE END LIST*
D10*
X201742857Y-74742857D02*
X201828571Y-74771428D01*
X201971428Y-74771428D01*
X202028571Y-74742857D01*
X202057142Y-74714285D01*
X202085714Y-74657142D01*
X202085714Y-74600000D01*
X202057142Y-74542857D01*
X202028571Y-74514285D01*
X201971428Y-74485714D01*
X201857142Y-74457142D01*
X201800000Y-74428571D01*
X201771428Y-74400000D01*
X201742857Y-74342857D01*
X201742857Y-74285714D01*
X201771428Y-74228571D01*
X201800000Y-74200000D01*
X201857142Y-74171428D01*
X202000000Y-74171428D01*
X202085714Y-74200000D01*
X202428571Y-74771428D02*
X202371428Y-74742857D01*
X202342857Y-74714285D01*
X202314285Y-74657142D01*
X202314285Y-74485714D01*
X202342857Y-74428571D01*
X202371428Y-74400000D01*
X202428571Y-74371428D01*
X202514285Y-74371428D01*
X202571428Y-74400000D01*
X202600000Y-74428571D01*
X202628571Y-74485714D01*
X202628571Y-74657142D01*
X202600000Y-74714285D01*
X202571428Y-74742857D01*
X202514285Y-74771428D01*
X202428571Y-74771428D01*
X202971428Y-74771428D02*
X202914285Y-74742857D01*
X202885714Y-74685714D01*
X202885714Y-74171428D01*
X203457142Y-74771428D02*
X203457142Y-74171428D01*
X203457142Y-74742857D02*
X203400000Y-74771428D01*
X203285714Y-74771428D01*
X203228571Y-74742857D01*
X203200000Y-74714285D01*
X203171428Y-74657142D01*
X203171428Y-74485714D01*
X203200000Y-74428571D01*
X203228571Y-74400000D01*
X203285714Y-74371428D01*
X203400000Y-74371428D01*
X203457142Y-74400000D01*
X203971428Y-74742857D02*
X203914285Y-74771428D01*
X203800000Y-74771428D01*
X203742857Y-74742857D01*
X203714285Y-74685714D01*
X203714285Y-74457142D01*
X203742857Y-74400000D01*
X203800000Y-74371428D01*
X203914285Y-74371428D01*
X203971428Y-74400000D01*
X204000000Y-74457142D01*
X204000000Y-74514285D01*
X203714285Y-74571428D01*
X204257142Y-74771428D02*
X204257142Y-74371428D01*
X204257142Y-74485714D02*
X204285714Y-74428571D01*
X204314285Y-74400000D01*
X204371428Y-74371428D01*
X204428571Y-74371428D01*
X205342857Y-74742857D02*
X205285714Y-74771428D01*
X205171428Y-74771428D01*
X205114285Y-74742857D01*
X205085714Y-74714285D01*
X205057142Y-74657142D01*
X205057142Y-74485714D01*
X205085714Y-74428571D01*
X205114285Y-74400000D01*
X205171428Y-74371428D01*
X205285714Y-74371428D01*
X205342857Y-74400000D01*
X205685714Y-74771428D02*
X205628571Y-74742857D01*
X205600000Y-74714285D01*
X205571428Y-74657142D01*
X205571428Y-74485714D01*
X205600000Y-74428571D01*
X205628571Y-74400000D01*
X205685714Y-74371428D01*
X205771428Y-74371428D01*
X205828571Y-74400000D01*
X205857142Y-74428571D01*
X205885714Y-74485714D01*
X205885714Y-74657142D01*
X205857142Y-74714285D01*
X205828571Y-74742857D01*
X205771428Y-74771428D01*
X205685714Y-74771428D01*
X206142857Y-74371428D02*
X206142857Y-74771428D01*
X206142857Y-74428571D02*
X206171428Y-74400000D01*
X206228571Y-74371428D01*
X206314285Y-74371428D01*
X206371428Y-74400000D01*
X206400000Y-74457142D01*
X206400000Y-74771428D01*
X206685714Y-74371428D02*
X206685714Y-74771428D01*
X206685714Y-74428571D02*
X206714285Y-74400000D01*
X206771428Y-74371428D01*
X206857142Y-74371428D01*
X206914285Y-74400000D01*
X206942857Y-74457142D01*
X206942857Y-74771428D01*
X207457142Y-74742857D02*
X207400000Y-74771428D01*
X207285714Y-74771428D01*
X207228571Y-74742857D01*
X207200000Y-74685714D01*
X207200000Y-74457142D01*
X207228571Y-74400000D01*
X207285714Y-74371428D01*
X207400000Y-74371428D01*
X207457142Y-74400000D01*
X207485714Y-74457142D01*
X207485714Y-74514285D01*
X207200000Y-74571428D01*
X208000000Y-74742857D02*
X207942857Y-74771428D01*
X207828571Y-74771428D01*
X207771428Y-74742857D01*
X207742857Y-74714285D01*
X207714285Y-74657142D01*
X207714285Y-74485714D01*
X207742857Y-74428571D01*
X207771428Y-74400000D01*
X207828571Y-74371428D01*
X207942857Y-74371428D01*
X208000000Y-74400000D01*
X208171428Y-74371428D02*
X208400000Y-74371428D01*
X208257142Y-74171428D02*
X208257142Y-74685714D01*
X208285714Y-74742857D01*
X208342857Y-74771428D01*
X208400000Y-74771428D01*
X208685714Y-74771428D02*
X208628571Y-74742857D01*
X208600000Y-74714285D01*
X208571428Y-74657142D01*
X208571428Y-74485714D01*
X208600000Y-74428571D01*
X208628571Y-74400000D01*
X208685714Y-74371428D01*
X208771428Y-74371428D01*
X208828571Y-74400000D01*
X208857142Y-74428571D01*
X208885714Y-74485714D01*
X208885714Y-74657142D01*
X208857142Y-74714285D01*
X208828571Y-74742857D01*
X208771428Y-74771428D01*
X208685714Y-74771428D01*
X209142857Y-74771428D02*
X209142857Y-74371428D01*
X209142857Y-74485714D02*
X209171428Y-74428571D01*
X209200000Y-74400000D01*
X209257142Y-74371428D01*
X209314285Y-74371428D01*
X202985714Y-75771428D02*
X202928571Y-75742857D01*
X202900000Y-75714285D01*
X202871428Y-75657142D01*
X202871428Y-75485714D01*
X202900000Y-75428571D01*
X202928571Y-75400000D01*
X202985714Y-75371428D01*
X203071428Y-75371428D01*
X203128571Y-75400000D01*
X203157142Y-75428571D01*
X203185714Y-75485714D01*
X203185714Y-75657142D01*
X203157142Y-75714285D01*
X203128571Y-75742857D01*
X203071428Y-75771428D01*
X202985714Y-75771428D01*
X203442857Y-75371428D02*
X203442857Y-75771428D01*
X203442857Y-75428571D02*
X203471428Y-75400000D01*
X203528571Y-75371428D01*
X203614285Y-75371428D01*
X203671428Y-75400000D01*
X203700000Y-75457142D01*
X203700000Y-75771428D01*
X204357142Y-75371428D02*
X204585714Y-75371428D01*
X204442857Y-75171428D02*
X204442857Y-75685714D01*
X204471428Y-75742857D01*
X204528571Y-75771428D01*
X204585714Y-75771428D01*
X204785714Y-75771428D02*
X204785714Y-75171428D01*
X205042857Y-75771428D02*
X205042857Y-75457142D01*
X205014285Y-75400000D01*
X204957142Y-75371428D01*
X204871428Y-75371428D01*
X204814285Y-75400000D01*
X204785714Y-75428571D01*
X205328571Y-75771428D02*
X205328571Y-75371428D01*
X205328571Y-75171428D02*
X205300000Y-75200000D01*
X205328571Y-75228571D01*
X205357142Y-75200000D01*
X205328571Y-75171428D01*
X205328571Y-75228571D01*
X205585714Y-75742857D02*
X205642857Y-75771428D01*
X205757142Y-75771428D01*
X205814285Y-75742857D01*
X205842857Y-75685714D01*
X205842857Y-75657142D01*
X205814285Y-75600000D01*
X205757142Y-75571428D01*
X205671428Y-75571428D01*
X205614285Y-75542857D01*
X205585714Y-75485714D01*
X205585714Y-75457142D01*
X205614285Y-75400000D01*
X205671428Y-75371428D01*
X205757142Y-75371428D01*
X205814285Y-75400000D01*
X206528571Y-75742857D02*
X206585714Y-75771428D01*
X206700000Y-75771428D01*
X206757142Y-75742857D01*
X206785714Y-75685714D01*
X206785714Y-75657142D01*
X206757142Y-75600000D01*
X206700000Y-75571428D01*
X206614285Y-75571428D01*
X206557142Y-75542857D01*
X206528571Y-75485714D01*
X206528571Y-75457142D01*
X206557142Y-75400000D01*
X206614285Y-75371428D01*
X206700000Y-75371428D01*
X206757142Y-75400000D01*
X207042857Y-75771428D02*
X207042857Y-75371428D01*
X207042857Y-75171428D02*
X207014285Y-75200000D01*
X207042857Y-75228571D01*
X207071428Y-75200000D01*
X207042857Y-75171428D01*
X207042857Y-75228571D01*
X207585714Y-75771428D02*
X207585714Y-75171428D01*
X207585714Y-75742857D02*
X207528571Y-75771428D01*
X207414285Y-75771428D01*
X207357142Y-75742857D01*
X207328571Y-75714285D01*
X207300000Y-75657142D01*
X207300000Y-75485714D01*
X207328571Y-75428571D01*
X207357142Y-75400000D01*
X207414285Y-75371428D01*
X207528571Y-75371428D01*
X207585714Y-75400000D01*
X208100000Y-75742857D02*
X208042857Y-75771428D01*
X207928571Y-75771428D01*
X207871428Y-75742857D01*
X207842857Y-75685714D01*
X207842857Y-75457142D01*
X207871428Y-75400000D01*
X207928571Y-75371428D01*
X208042857Y-75371428D01*
X208100000Y-75400000D01*
X208128571Y-75457142D01*
X208128571Y-75514285D01*
X207842857Y-75571428D01*
X138207857Y-62271428D02*
X138207857Y-61671428D01*
X138550714Y-62271428D02*
X138293571Y-61928571D01*
X138550714Y-61671428D02*
X138207857Y-62014285D01*
X138807857Y-61957142D02*
X139007857Y-61957142D01*
X139093571Y-62271428D02*
X138807857Y-62271428D01*
X138807857Y-61671428D01*
X139093571Y-61671428D01*
X139465000Y-61985714D02*
X139465000Y-62271428D01*
X139265000Y-61671428D02*
X139465000Y-61985714D01*
X139665000Y-61671428D01*
X140179285Y-62271428D02*
X139836428Y-62271428D01*
X140007857Y-62271428D02*
X140007857Y-61671428D01*
X139950714Y-61757142D01*
X139893571Y-61814285D01*
X139836428Y-61842857D01*
X140893571Y-61957142D02*
X141350714Y-61957142D01*
X141350714Y-62128571D02*
X140893571Y-62128571D01*
X142093571Y-62271428D02*
X142093571Y-61671428D01*
X142322142Y-61671428D01*
X142379285Y-61700000D01*
X142407857Y-61728571D01*
X142436428Y-61785714D01*
X142436428Y-61871428D01*
X142407857Y-61928571D01*
X142379285Y-61957142D01*
X142322142Y-61985714D01*
X142093571Y-61985714D01*
X142665000Y-61728571D02*
X142693571Y-61700000D01*
X142750714Y-61671428D01*
X142893571Y-61671428D01*
X142950714Y-61700000D01*
X142979285Y-61728571D01*
X143007857Y-61785714D01*
X143007857Y-61842857D01*
X142979285Y-61928571D01*
X142636428Y-62271428D01*
X143007857Y-62271428D01*
X143722142Y-62271428D02*
X143722142Y-61671428D01*
X143865000Y-61671428D01*
X143950714Y-61700000D01*
X144007857Y-61757142D01*
X144036428Y-61814285D01*
X144065000Y-61928571D01*
X144065000Y-62014285D01*
X144036428Y-62128571D01*
X144007857Y-62185714D01*
X143950714Y-62242857D01*
X143865000Y-62271428D01*
X143722142Y-62271428D01*
X138207857Y-63271428D02*
X138207857Y-62671428D01*
X138550714Y-63271428D02*
X138293571Y-62928571D01*
X138550714Y-62671428D02*
X138207857Y-63014285D01*
X138807857Y-62957142D02*
X139007857Y-62957142D01*
X139093571Y-63271428D02*
X138807857Y-63271428D01*
X138807857Y-62671428D01*
X139093571Y-62671428D01*
X139465000Y-62985714D02*
X139465000Y-63271428D01*
X139265000Y-62671428D02*
X139465000Y-62985714D01*
X139665000Y-62671428D01*
X139807857Y-62671428D02*
X140179285Y-62671428D01*
X139979285Y-62900000D01*
X140065000Y-62900000D01*
X140122142Y-62928571D01*
X140150714Y-62957142D01*
X140179285Y-63014285D01*
X140179285Y-63157142D01*
X140150714Y-63214285D01*
X140122142Y-63242857D01*
X140065000Y-63271428D01*
X139893571Y-63271428D01*
X139836428Y-63242857D01*
X139807857Y-63214285D01*
X140893571Y-62957142D02*
X141350714Y-62957142D01*
X141350714Y-63128571D02*
X140893571Y-63128571D01*
X142093571Y-63271428D02*
X142093571Y-62671428D01*
X142322142Y-62671428D01*
X142379285Y-62700000D01*
X142407857Y-62728571D01*
X142436428Y-62785714D01*
X142436428Y-62871428D01*
X142407857Y-62928571D01*
X142379285Y-62957142D01*
X142322142Y-62985714D01*
X142093571Y-62985714D01*
X142665000Y-62728571D02*
X142693571Y-62700000D01*
X142750714Y-62671428D01*
X142893571Y-62671428D01*
X142950714Y-62700000D01*
X142979285Y-62728571D01*
X143007857Y-62785714D01*
X143007857Y-62842857D01*
X142979285Y-62928571D01*
X142636428Y-63271428D01*
X143007857Y-63271428D01*
X144065000Y-63271428D02*
X143865000Y-62985714D01*
X143722142Y-63271428D02*
X143722142Y-62671428D01*
X143950714Y-62671428D01*
X144007857Y-62700000D01*
X144036428Y-62728571D01*
X144065000Y-62785714D01*
X144065000Y-62871428D01*
X144036428Y-62928571D01*
X144007857Y-62957142D01*
X143950714Y-62985714D01*
X143722142Y-62985714D01*
X138207857Y-64271428D02*
X138207857Y-63671428D01*
X138550714Y-64271428D02*
X138293571Y-63928571D01*
X138550714Y-63671428D02*
X138207857Y-64014285D01*
X138807857Y-63957142D02*
X139007857Y-63957142D01*
X139093571Y-64271428D02*
X138807857Y-64271428D01*
X138807857Y-63671428D01*
X139093571Y-63671428D01*
X139465000Y-63985714D02*
X139465000Y-64271428D01*
X139265000Y-63671428D02*
X139465000Y-63985714D01*
X139665000Y-63671428D01*
X140150714Y-63671428D02*
X139865000Y-63671428D01*
X139836428Y-63957142D01*
X139865000Y-63928571D01*
X139922142Y-63900000D01*
X140065000Y-63900000D01*
X140122142Y-63928571D01*
X140150714Y-63957142D01*
X140179285Y-64014285D01*
X140179285Y-64157142D01*
X140150714Y-64214285D01*
X140122142Y-64242857D01*
X140065000Y-64271428D01*
X139922142Y-64271428D01*
X139865000Y-64242857D01*
X139836428Y-64214285D01*
X140893571Y-63957142D02*
X141350714Y-63957142D01*
X141350714Y-64128571D02*
X140893571Y-64128571D01*
X142093571Y-64271428D02*
X142093571Y-63671428D01*
X142322142Y-63671428D01*
X142379285Y-63700000D01*
X142407857Y-63728571D01*
X142436428Y-63785714D01*
X142436428Y-63871428D01*
X142407857Y-63928571D01*
X142379285Y-63957142D01*
X142322142Y-63985714D01*
X142093571Y-63985714D01*
X142665000Y-63728571D02*
X142693571Y-63700000D01*
X142750714Y-63671428D01*
X142893571Y-63671428D01*
X142950714Y-63700000D01*
X142979285Y-63728571D01*
X143007857Y-63785714D01*
X143007857Y-63842857D01*
X142979285Y-63928571D01*
X142636428Y-64271428D01*
X143007857Y-64271428D01*
X143922142Y-63957142D02*
X144007857Y-63985714D01*
X144036428Y-64014285D01*
X144065000Y-64071428D01*
X144065000Y-64157142D01*
X144036428Y-64214285D01*
X144007857Y-64242857D01*
X143950714Y-64271428D01*
X143722142Y-64271428D01*
X143722142Y-63671428D01*
X143922142Y-63671428D01*
X143979285Y-63700000D01*
X144007857Y-63728571D01*
X144036428Y-63785714D01*
X144036428Y-63842857D01*
X144007857Y-63900000D01*
X143979285Y-63928571D01*
X143922142Y-63957142D01*
X143722142Y-63957142D01*
X144293571Y-63728571D02*
X144322142Y-63700000D01*
X144379285Y-63671428D01*
X144522142Y-63671428D01*
X144579285Y-63700000D01*
X144607857Y-63728571D01*
X144636428Y-63785714D01*
X144636428Y-63842857D01*
X144607857Y-63928571D01*
X144265000Y-64271428D01*
X144636428Y-64271428D01*
X130207857Y-62271428D02*
X130207857Y-61671428D01*
X130550714Y-62271428D02*
X130293571Y-61928571D01*
X130550714Y-61671428D02*
X130207857Y-62014285D01*
X130807857Y-61957142D02*
X131007857Y-61957142D01*
X131093571Y-62271428D02*
X130807857Y-62271428D01*
X130807857Y-61671428D01*
X131093571Y-61671428D01*
X131465000Y-61985714D02*
X131465000Y-62271428D01*
X131265000Y-61671428D02*
X131465000Y-61985714D01*
X131665000Y-61671428D01*
X131979285Y-61671428D02*
X132036428Y-61671428D01*
X132093571Y-61700000D01*
X132122142Y-61728571D01*
X132150714Y-61785714D01*
X132179285Y-61900000D01*
X132179285Y-62042857D01*
X132150714Y-62157142D01*
X132122142Y-62214285D01*
X132093571Y-62242857D01*
X132036428Y-62271428D01*
X131979285Y-62271428D01*
X131922142Y-62242857D01*
X131893571Y-62214285D01*
X131865000Y-62157142D01*
X131836428Y-62042857D01*
X131836428Y-61900000D01*
X131865000Y-61785714D01*
X131893571Y-61728571D01*
X131922142Y-61700000D01*
X131979285Y-61671428D01*
X132893571Y-61957142D02*
X133350714Y-61957142D01*
X133350714Y-62128571D02*
X132893571Y-62128571D01*
X134093571Y-62271428D02*
X134093571Y-61671428D01*
X134322142Y-61671428D01*
X134379285Y-61700000D01*
X134407857Y-61728571D01*
X134436428Y-61785714D01*
X134436428Y-61871428D01*
X134407857Y-61928571D01*
X134379285Y-61957142D01*
X134322142Y-61985714D01*
X134093571Y-61985714D01*
X134665000Y-61728571D02*
X134693571Y-61700000D01*
X134750714Y-61671428D01*
X134893571Y-61671428D01*
X134950714Y-61700000D01*
X134979285Y-61728571D01*
X135007857Y-61785714D01*
X135007857Y-61842857D01*
X134979285Y-61928571D01*
X134636428Y-62271428D01*
X135007857Y-62271428D01*
X135722142Y-61671428D02*
X135722142Y-62157142D01*
X135750714Y-62214285D01*
X135779285Y-62242857D01*
X135836428Y-62271428D01*
X135950714Y-62271428D01*
X136007857Y-62242857D01*
X136036428Y-62214285D01*
X136065000Y-62157142D01*
X136065000Y-61671428D01*
X130207857Y-63271428D02*
X130207857Y-62671428D01*
X130550714Y-63271428D02*
X130293571Y-62928571D01*
X130550714Y-62671428D02*
X130207857Y-63014285D01*
X130807857Y-62957142D02*
X131007857Y-62957142D01*
X131093571Y-63271428D02*
X130807857Y-63271428D01*
X130807857Y-62671428D01*
X131093571Y-62671428D01*
X131465000Y-62985714D02*
X131465000Y-63271428D01*
X131265000Y-62671428D02*
X131465000Y-62985714D01*
X131665000Y-62671428D01*
X131836428Y-62728571D02*
X131865000Y-62700000D01*
X131922142Y-62671428D01*
X132065000Y-62671428D01*
X132122142Y-62700000D01*
X132150714Y-62728571D01*
X132179285Y-62785714D01*
X132179285Y-62842857D01*
X132150714Y-62928571D01*
X131807857Y-63271428D01*
X132179285Y-63271428D01*
X132893571Y-62957142D02*
X133350714Y-62957142D01*
X133350714Y-63128571D02*
X132893571Y-63128571D01*
X134093571Y-63271428D02*
X134093571Y-62671428D01*
X134322142Y-62671428D01*
X134379285Y-62700000D01*
X134407857Y-62728571D01*
X134436428Y-62785714D01*
X134436428Y-62871428D01*
X134407857Y-62928571D01*
X134379285Y-62957142D01*
X134322142Y-62985714D01*
X134093571Y-62985714D01*
X134665000Y-62728571D02*
X134693571Y-62700000D01*
X134750714Y-62671428D01*
X134893571Y-62671428D01*
X134950714Y-62700000D01*
X134979285Y-62728571D01*
X135007857Y-62785714D01*
X135007857Y-62842857D01*
X134979285Y-62928571D01*
X134636428Y-63271428D01*
X135007857Y-63271428D01*
X136007857Y-63271428D02*
X135722142Y-63271428D01*
X135722142Y-62671428D01*
X130207857Y-64271428D02*
X130207857Y-63671428D01*
X130550714Y-64271428D02*
X130293571Y-63928571D01*
X130550714Y-63671428D02*
X130207857Y-64014285D01*
X130807857Y-63957142D02*
X131007857Y-63957142D01*
X131093571Y-64271428D02*
X130807857Y-64271428D01*
X130807857Y-63671428D01*
X131093571Y-63671428D01*
X131465000Y-63985714D02*
X131465000Y-64271428D01*
X131265000Y-63671428D02*
X131465000Y-63985714D01*
X131665000Y-63671428D01*
X132122142Y-63871428D02*
X132122142Y-64271428D01*
X131979285Y-63642857D02*
X131836428Y-64071428D01*
X132207857Y-64071428D01*
X132893571Y-63957142D02*
X133350714Y-63957142D01*
X133350714Y-64128571D02*
X132893571Y-64128571D01*
X134093571Y-64271428D02*
X134093571Y-63671428D01*
X134322142Y-63671428D01*
X134379285Y-63700000D01*
X134407857Y-63728571D01*
X134436428Y-63785714D01*
X134436428Y-63871428D01*
X134407857Y-63928571D01*
X134379285Y-63957142D01*
X134322142Y-63985714D01*
X134093571Y-63985714D01*
X134665000Y-63728571D02*
X134693571Y-63700000D01*
X134750714Y-63671428D01*
X134893571Y-63671428D01*
X134950714Y-63700000D01*
X134979285Y-63728571D01*
X135007857Y-63785714D01*
X135007857Y-63842857D01*
X134979285Y-63928571D01*
X134636428Y-64271428D01*
X135007857Y-64271428D01*
X135922142Y-63957142D02*
X136007857Y-63985714D01*
X136036428Y-64014285D01*
X136065000Y-64071428D01*
X136065000Y-64157142D01*
X136036428Y-64214285D01*
X136007857Y-64242857D01*
X135950714Y-64271428D01*
X135722142Y-64271428D01*
X135722142Y-63671428D01*
X135922142Y-63671428D01*
X135979285Y-63700000D01*
X136007857Y-63728571D01*
X136036428Y-63785714D01*
X136036428Y-63842857D01*
X136007857Y-63900000D01*
X135979285Y-63928571D01*
X135922142Y-63957142D01*
X135722142Y-63957142D01*
X136636428Y-64271428D02*
X136293571Y-64271428D01*
X136465000Y-64271428D02*
X136465000Y-63671428D01*
X136407857Y-63757142D01*
X136350714Y-63814285D01*
X136293571Y-63842857D01*
X138550714Y-58714285D02*
X138522142Y-58742857D01*
X138436428Y-58771428D01*
X138379285Y-58771428D01*
X138293571Y-58742857D01*
X138236428Y-58685714D01*
X138207857Y-58628571D01*
X138179285Y-58514285D01*
X138179285Y-58428571D01*
X138207857Y-58314285D01*
X138236428Y-58257142D01*
X138293571Y-58200000D01*
X138379285Y-58171428D01*
X138436428Y-58171428D01*
X138522142Y-58200000D01*
X138550714Y-58228571D01*
X138922142Y-58171428D02*
X139036428Y-58171428D01*
X139093571Y-58200000D01*
X139150714Y-58257142D01*
X139179285Y-58371428D01*
X139179285Y-58571428D01*
X139150714Y-58685714D01*
X139093571Y-58742857D01*
X139036428Y-58771428D01*
X138922142Y-58771428D01*
X138865000Y-58742857D01*
X138807857Y-58685714D01*
X138779285Y-58571428D01*
X138779285Y-58371428D01*
X138807857Y-58257142D01*
X138865000Y-58200000D01*
X138922142Y-58171428D01*
X139436428Y-58771428D02*
X139436428Y-58171428D01*
X139636428Y-58600000D01*
X139836428Y-58171428D01*
X139836428Y-58771428D01*
X140436428Y-58771428D02*
X140093571Y-58771428D01*
X140265000Y-58771428D02*
X140265000Y-58171428D01*
X140207857Y-58257142D01*
X140150714Y-58314285D01*
X140093571Y-58342857D01*
X141150714Y-58457142D02*
X141607857Y-58457142D01*
X141607857Y-58628571D02*
X141150714Y-58628571D01*
X142350714Y-58771428D02*
X142350714Y-58171428D01*
X142579285Y-58171428D01*
X142636428Y-58200000D01*
X142665000Y-58228571D01*
X142693571Y-58285714D01*
X142693571Y-58371428D01*
X142665000Y-58428571D01*
X142636428Y-58457142D01*
X142579285Y-58485714D01*
X142350714Y-58485714D01*
X143265000Y-58771428D02*
X142922142Y-58771428D01*
X143093571Y-58771428D02*
X143093571Y-58171428D01*
X143036428Y-58257142D01*
X142979285Y-58314285D01*
X142922142Y-58342857D01*
X143979285Y-58771428D02*
X143979285Y-58171428D01*
X144122142Y-58171428D01*
X144207857Y-58200000D01*
X144265000Y-58257142D01*
X144293571Y-58314285D01*
X144322142Y-58428571D01*
X144322142Y-58514285D01*
X144293571Y-58628571D01*
X144265000Y-58685714D01*
X144207857Y-58742857D01*
X144122142Y-58771428D01*
X143979285Y-58771428D01*
X138550714Y-59714285D02*
X138522142Y-59742857D01*
X138436428Y-59771428D01*
X138379285Y-59771428D01*
X138293571Y-59742857D01*
X138236428Y-59685714D01*
X138207857Y-59628571D01*
X138179285Y-59514285D01*
X138179285Y-59428571D01*
X138207857Y-59314285D01*
X138236428Y-59257142D01*
X138293571Y-59200000D01*
X138379285Y-59171428D01*
X138436428Y-59171428D01*
X138522142Y-59200000D01*
X138550714Y-59228571D01*
X138922142Y-59171428D02*
X139036428Y-59171428D01*
X139093571Y-59200000D01*
X139150714Y-59257142D01*
X139179285Y-59371428D01*
X139179285Y-59571428D01*
X139150714Y-59685714D01*
X139093571Y-59742857D01*
X139036428Y-59771428D01*
X138922142Y-59771428D01*
X138865000Y-59742857D01*
X138807857Y-59685714D01*
X138779285Y-59571428D01*
X138779285Y-59371428D01*
X138807857Y-59257142D01*
X138865000Y-59200000D01*
X138922142Y-59171428D01*
X139436428Y-59771428D02*
X139436428Y-59171428D01*
X139636428Y-59600000D01*
X139836428Y-59171428D01*
X139836428Y-59771428D01*
X140065000Y-59171428D02*
X140436428Y-59171428D01*
X140236428Y-59400000D01*
X140322142Y-59400000D01*
X140379285Y-59428571D01*
X140407857Y-59457142D01*
X140436428Y-59514285D01*
X140436428Y-59657142D01*
X140407857Y-59714285D01*
X140379285Y-59742857D01*
X140322142Y-59771428D01*
X140150714Y-59771428D01*
X140093571Y-59742857D01*
X140065000Y-59714285D01*
X141150714Y-59457142D02*
X141607857Y-59457142D01*
X141607857Y-59628571D02*
X141150714Y-59628571D01*
X142350714Y-59771428D02*
X142350714Y-59171428D01*
X142579285Y-59171428D01*
X142636428Y-59200000D01*
X142665000Y-59228571D01*
X142693571Y-59285714D01*
X142693571Y-59371428D01*
X142665000Y-59428571D01*
X142636428Y-59457142D01*
X142579285Y-59485714D01*
X142350714Y-59485714D01*
X143265000Y-59771428D02*
X142922142Y-59771428D01*
X143093571Y-59771428D02*
X143093571Y-59171428D01*
X143036428Y-59257142D01*
X142979285Y-59314285D01*
X142922142Y-59342857D01*
X144322142Y-59771428D02*
X144122142Y-59485714D01*
X143979285Y-59771428D02*
X143979285Y-59171428D01*
X144207857Y-59171428D01*
X144265000Y-59200000D01*
X144293571Y-59228571D01*
X144322142Y-59285714D01*
X144322142Y-59371428D01*
X144293571Y-59428571D01*
X144265000Y-59457142D01*
X144207857Y-59485714D01*
X143979285Y-59485714D01*
X130550714Y-58714285D02*
X130522142Y-58742857D01*
X130436428Y-58771428D01*
X130379285Y-58771428D01*
X130293571Y-58742857D01*
X130236428Y-58685714D01*
X130207857Y-58628571D01*
X130179285Y-58514285D01*
X130179285Y-58428571D01*
X130207857Y-58314285D01*
X130236428Y-58257142D01*
X130293571Y-58200000D01*
X130379285Y-58171428D01*
X130436428Y-58171428D01*
X130522142Y-58200000D01*
X130550714Y-58228571D01*
X130922142Y-58171428D02*
X131036428Y-58171428D01*
X131093571Y-58200000D01*
X131150714Y-58257142D01*
X131179285Y-58371428D01*
X131179285Y-58571428D01*
X131150714Y-58685714D01*
X131093571Y-58742857D01*
X131036428Y-58771428D01*
X130922142Y-58771428D01*
X130865000Y-58742857D01*
X130807857Y-58685714D01*
X130779285Y-58571428D01*
X130779285Y-58371428D01*
X130807857Y-58257142D01*
X130865000Y-58200000D01*
X130922142Y-58171428D01*
X131436428Y-58771428D02*
X131436428Y-58171428D01*
X131636428Y-58600000D01*
X131836428Y-58171428D01*
X131836428Y-58771428D01*
X132236428Y-58171428D02*
X132293571Y-58171428D01*
X132350714Y-58200000D01*
X132379285Y-58228571D01*
X132407857Y-58285714D01*
X132436428Y-58400000D01*
X132436428Y-58542857D01*
X132407857Y-58657142D01*
X132379285Y-58714285D01*
X132350714Y-58742857D01*
X132293571Y-58771428D01*
X132236428Y-58771428D01*
X132179285Y-58742857D01*
X132150714Y-58714285D01*
X132122142Y-58657142D01*
X132093571Y-58542857D01*
X132093571Y-58400000D01*
X132122142Y-58285714D01*
X132150714Y-58228571D01*
X132179285Y-58200000D01*
X132236428Y-58171428D01*
X133150714Y-58457142D02*
X133607857Y-58457142D01*
X133607857Y-58628571D02*
X133150714Y-58628571D01*
X134350714Y-58771428D02*
X134350714Y-58171428D01*
X134579285Y-58171428D01*
X134636428Y-58200000D01*
X134665000Y-58228571D01*
X134693571Y-58285714D01*
X134693571Y-58371428D01*
X134665000Y-58428571D01*
X134636428Y-58457142D01*
X134579285Y-58485714D01*
X134350714Y-58485714D01*
X135265000Y-58771428D02*
X134922142Y-58771428D01*
X135093571Y-58771428D02*
X135093571Y-58171428D01*
X135036428Y-58257142D01*
X134979285Y-58314285D01*
X134922142Y-58342857D01*
X135979285Y-58171428D02*
X135979285Y-58657142D01*
X136007857Y-58714285D01*
X136036428Y-58742857D01*
X136093571Y-58771428D01*
X136207857Y-58771428D01*
X136265000Y-58742857D01*
X136293571Y-58714285D01*
X136322142Y-58657142D01*
X136322142Y-58171428D01*
X130550714Y-59714285D02*
X130522142Y-59742857D01*
X130436428Y-59771428D01*
X130379285Y-59771428D01*
X130293571Y-59742857D01*
X130236428Y-59685714D01*
X130207857Y-59628571D01*
X130179285Y-59514285D01*
X130179285Y-59428571D01*
X130207857Y-59314285D01*
X130236428Y-59257142D01*
X130293571Y-59200000D01*
X130379285Y-59171428D01*
X130436428Y-59171428D01*
X130522142Y-59200000D01*
X130550714Y-59228571D01*
X130922142Y-59171428D02*
X131036428Y-59171428D01*
X131093571Y-59200000D01*
X131150714Y-59257142D01*
X131179285Y-59371428D01*
X131179285Y-59571428D01*
X131150714Y-59685714D01*
X131093571Y-59742857D01*
X131036428Y-59771428D01*
X130922142Y-59771428D01*
X130865000Y-59742857D01*
X130807857Y-59685714D01*
X130779285Y-59571428D01*
X130779285Y-59371428D01*
X130807857Y-59257142D01*
X130865000Y-59200000D01*
X130922142Y-59171428D01*
X131436428Y-59771428D02*
X131436428Y-59171428D01*
X131636428Y-59600000D01*
X131836428Y-59171428D01*
X131836428Y-59771428D01*
X132093571Y-59228571D02*
X132122142Y-59200000D01*
X132179285Y-59171428D01*
X132322142Y-59171428D01*
X132379285Y-59200000D01*
X132407857Y-59228571D01*
X132436428Y-59285714D01*
X132436428Y-59342857D01*
X132407857Y-59428571D01*
X132065000Y-59771428D01*
X132436428Y-59771428D01*
X133150714Y-59457142D02*
X133607857Y-59457142D01*
X133607857Y-59628571D02*
X133150714Y-59628571D01*
X134350714Y-59771428D02*
X134350714Y-59171428D01*
X134579285Y-59171428D01*
X134636428Y-59200000D01*
X134665000Y-59228571D01*
X134693571Y-59285714D01*
X134693571Y-59371428D01*
X134665000Y-59428571D01*
X134636428Y-59457142D01*
X134579285Y-59485714D01*
X134350714Y-59485714D01*
X135265000Y-59771428D02*
X134922142Y-59771428D01*
X135093571Y-59771428D02*
X135093571Y-59171428D01*
X135036428Y-59257142D01*
X134979285Y-59314285D01*
X134922142Y-59342857D01*
X136265000Y-59771428D02*
X135979285Y-59771428D01*
X135979285Y-59171428D01*
X130550714Y-60714285D02*
X130522142Y-60742857D01*
X130436428Y-60771428D01*
X130379285Y-60771428D01*
X130293571Y-60742857D01*
X130236428Y-60685714D01*
X130207857Y-60628571D01*
X130179285Y-60514285D01*
X130179285Y-60428571D01*
X130207857Y-60314285D01*
X130236428Y-60257142D01*
X130293571Y-60200000D01*
X130379285Y-60171428D01*
X130436428Y-60171428D01*
X130522142Y-60200000D01*
X130550714Y-60228571D01*
X130922142Y-60171428D02*
X131036428Y-60171428D01*
X131093571Y-60200000D01*
X131150714Y-60257142D01*
X131179285Y-60371428D01*
X131179285Y-60571428D01*
X131150714Y-60685714D01*
X131093571Y-60742857D01*
X131036428Y-60771428D01*
X130922142Y-60771428D01*
X130865000Y-60742857D01*
X130807857Y-60685714D01*
X130779285Y-60571428D01*
X130779285Y-60371428D01*
X130807857Y-60257142D01*
X130865000Y-60200000D01*
X130922142Y-60171428D01*
X131436428Y-60771428D02*
X131436428Y-60171428D01*
X131636428Y-60600000D01*
X131836428Y-60171428D01*
X131836428Y-60771428D01*
X132379285Y-60371428D02*
X132379285Y-60771428D01*
X132236428Y-60142857D02*
X132093571Y-60571428D01*
X132465000Y-60571428D01*
X133150714Y-60457142D02*
X133607857Y-60457142D01*
X133607857Y-60628571D02*
X133150714Y-60628571D01*
X134350714Y-60771428D02*
X134350714Y-60171428D01*
X134579285Y-60171428D01*
X134636428Y-60200000D01*
X134665000Y-60228571D01*
X134693571Y-60285714D01*
X134693571Y-60371428D01*
X134665000Y-60428571D01*
X134636428Y-60457142D01*
X134579285Y-60485714D01*
X134350714Y-60485714D01*
X135265000Y-60771428D02*
X134922142Y-60771428D01*
X135093571Y-60771428D02*
X135093571Y-60171428D01*
X135036428Y-60257142D01*
X134979285Y-60314285D01*
X134922142Y-60342857D01*
X136179285Y-60457142D02*
X136265000Y-60485714D01*
X136293571Y-60514285D01*
X136322142Y-60571428D01*
X136322142Y-60657142D01*
X136293571Y-60714285D01*
X136265000Y-60742857D01*
X136207857Y-60771428D01*
X135979285Y-60771428D01*
X135979285Y-60171428D01*
X136179285Y-60171428D01*
X136236428Y-60200000D01*
X136265000Y-60228571D01*
X136293571Y-60285714D01*
X136293571Y-60342857D01*
X136265000Y-60400000D01*
X136236428Y-60428571D01*
X136179285Y-60457142D01*
X135979285Y-60457142D01*
X136893571Y-60771428D02*
X136550714Y-60771428D01*
X136722142Y-60771428D02*
X136722142Y-60171428D01*
X136665000Y-60257142D01*
X136607857Y-60314285D01*
X136550714Y-60342857D01*
X147690476Y-58753571D02*
X147666666Y-58777380D01*
X147595238Y-58801190D01*
X147547619Y-58801190D01*
X147476190Y-58777380D01*
X147428571Y-58729761D01*
X147404761Y-58682142D01*
X147380952Y-58586904D01*
X147380952Y-58515476D01*
X147404761Y-58420238D01*
X147428571Y-58372619D01*
X147476190Y-58325000D01*
X147547619Y-58301190D01*
X147595238Y-58301190D01*
X147666666Y-58325000D01*
X147690476Y-58348809D01*
X148119047Y-58467857D02*
X148119047Y-58801190D01*
X147904761Y-58467857D02*
X147904761Y-58729761D01*
X147928571Y-58777380D01*
X147976190Y-58801190D01*
X148047619Y-58801190D01*
X148095238Y-58777380D01*
X148119047Y-58753571D01*
X148285714Y-58467857D02*
X148476190Y-58467857D01*
X148357142Y-58301190D02*
X148357142Y-58729761D01*
X148380952Y-58777380D01*
X148428571Y-58801190D01*
X148476190Y-58801190D01*
X148952380Y-58467857D02*
X149142857Y-58467857D01*
X149023809Y-58301190D02*
X149023809Y-58729761D01*
X149047619Y-58777380D01*
X149095238Y-58801190D01*
X149142857Y-58801190D01*
X149380952Y-58801190D02*
X149333333Y-58777380D01*
X149309523Y-58753571D01*
X149285714Y-58705952D01*
X149285714Y-58563095D01*
X149309523Y-58515476D01*
X149333333Y-58491666D01*
X149380952Y-58467857D01*
X149452380Y-58467857D01*
X149500000Y-58491666D01*
X149523809Y-58515476D01*
X149547619Y-58563095D01*
X149547619Y-58705952D01*
X149523809Y-58753571D01*
X149500000Y-58777380D01*
X149452380Y-58801190D01*
X149380952Y-58801190D01*
X150357142Y-58801190D02*
X150357142Y-58301190D01*
X150357142Y-58777380D02*
X150309523Y-58801190D01*
X150214285Y-58801190D01*
X150166666Y-58777380D01*
X150142857Y-58753571D01*
X150119047Y-58705952D01*
X150119047Y-58563095D01*
X150142857Y-58515476D01*
X150166666Y-58491666D01*
X150214285Y-58467857D01*
X150309523Y-58467857D01*
X150357142Y-58491666D01*
X150595238Y-58801190D02*
X150595238Y-58467857D01*
X150595238Y-58301190D02*
X150571428Y-58325000D01*
X150595238Y-58348809D01*
X150619047Y-58325000D01*
X150595238Y-58301190D01*
X150595238Y-58348809D01*
X150809523Y-58777380D02*
X150857142Y-58801190D01*
X150952380Y-58801190D01*
X151000000Y-58777380D01*
X151023809Y-58729761D01*
X151023809Y-58705952D01*
X151000000Y-58658333D01*
X150952380Y-58634523D01*
X150880952Y-58634523D01*
X150833333Y-58610714D01*
X150809523Y-58563095D01*
X150809523Y-58539285D01*
X150833333Y-58491666D01*
X150880952Y-58467857D01*
X150952380Y-58467857D01*
X151000000Y-58491666D01*
X151452380Y-58801190D02*
X151452380Y-58539285D01*
X151428571Y-58491666D01*
X151380952Y-58467857D01*
X151285714Y-58467857D01*
X151238095Y-58491666D01*
X151452380Y-58777380D02*
X151404761Y-58801190D01*
X151285714Y-58801190D01*
X151238095Y-58777380D01*
X151214285Y-58729761D01*
X151214285Y-58682142D01*
X151238095Y-58634523D01*
X151285714Y-58610714D01*
X151404761Y-58610714D01*
X151452380Y-58586904D01*
X151690476Y-58801190D02*
X151690476Y-58301190D01*
X151690476Y-58491666D02*
X151738095Y-58467857D01*
X151833333Y-58467857D01*
X151880952Y-58491666D01*
X151904761Y-58515476D01*
X151928571Y-58563095D01*
X151928571Y-58705952D01*
X151904761Y-58753571D01*
X151880952Y-58777380D01*
X151833333Y-58801190D01*
X151738095Y-58801190D01*
X151690476Y-58777380D01*
X152214285Y-58801190D02*
X152166666Y-58777380D01*
X152142857Y-58729761D01*
X152142857Y-58301190D01*
X152595238Y-58777380D02*
X152547619Y-58801190D01*
X152452380Y-58801190D01*
X152404761Y-58777380D01*
X152380952Y-58729761D01*
X152380952Y-58539285D01*
X152404761Y-58491666D01*
X152452380Y-58467857D01*
X152547619Y-58467857D01*
X152595238Y-58491666D01*
X152619047Y-58539285D01*
X152619047Y-58586904D01*
X152380952Y-58634523D01*
X147952380Y-59317857D02*
X147952380Y-59817857D01*
X147952380Y-59341666D02*
X148000000Y-59317857D01*
X148095238Y-59317857D01*
X148142857Y-59341666D01*
X148166666Y-59365476D01*
X148190476Y-59413095D01*
X148190476Y-59555952D01*
X148166666Y-59603571D01*
X148142857Y-59627380D01*
X148095238Y-59651190D01*
X148000000Y-59651190D01*
X147952380Y-59627380D01*
X148619047Y-59651190D02*
X148619047Y-59389285D01*
X148595238Y-59341666D01*
X148547619Y-59317857D01*
X148452380Y-59317857D01*
X148404761Y-59341666D01*
X148619047Y-59627380D02*
X148571428Y-59651190D01*
X148452380Y-59651190D01*
X148404761Y-59627380D01*
X148380952Y-59579761D01*
X148380952Y-59532142D01*
X148404761Y-59484523D01*
X148452380Y-59460714D01*
X148571428Y-59460714D01*
X148619047Y-59436904D01*
X148857142Y-59317857D02*
X148857142Y-59651190D01*
X148857142Y-59365476D02*
X148880952Y-59341666D01*
X148928571Y-59317857D01*
X149000000Y-59317857D01*
X149047619Y-59341666D01*
X149071428Y-59389285D01*
X149071428Y-59651190D01*
X149500000Y-59627380D02*
X149452380Y-59651190D01*
X149357142Y-59651190D01*
X149309523Y-59627380D01*
X149285714Y-59579761D01*
X149285714Y-59389285D01*
X149309523Y-59341666D01*
X149357142Y-59317857D01*
X149452380Y-59317857D01*
X149500000Y-59341666D01*
X149523809Y-59389285D01*
X149523809Y-59436904D01*
X149285714Y-59484523D01*
X149809523Y-59651190D02*
X149761904Y-59627380D01*
X149738095Y-59579761D01*
X149738095Y-59151190D01*
X150333333Y-59317857D02*
X150428571Y-59651190D01*
X150523809Y-59413095D01*
X150619047Y-59651190D01*
X150714285Y-59317857D01*
X150904761Y-59651190D02*
X150904761Y-59317857D01*
X150904761Y-59151190D02*
X150880952Y-59175000D01*
X150904761Y-59198809D01*
X150928571Y-59175000D01*
X150904761Y-59151190D01*
X150904761Y-59198809D01*
X151142857Y-59651190D02*
X151142857Y-59317857D01*
X151142857Y-59413095D02*
X151166666Y-59365476D01*
X151190476Y-59341666D01*
X151238095Y-59317857D01*
X151285714Y-59317857D01*
X151642857Y-59627380D02*
X151595238Y-59651190D01*
X151500000Y-59651190D01*
X151452380Y-59627380D01*
X151428571Y-59579761D01*
X151428571Y-59389285D01*
X151452380Y-59341666D01*
X151500000Y-59317857D01*
X151595238Y-59317857D01*
X151642857Y-59341666D01*
X151666666Y-59389285D01*
X151666666Y-59436904D01*
X151428571Y-59484523D01*
X151857142Y-59627380D02*
X151904761Y-59651190D01*
X152000000Y-59651190D01*
X152047619Y-59627380D01*
X152071428Y-59579761D01*
X152071428Y-59555952D01*
X152047619Y-59508333D01*
X152000000Y-59484523D01*
X151928571Y-59484523D01*
X151880952Y-59460714D01*
X151857142Y-59413095D01*
X151857142Y-59389285D01*
X151880952Y-59341666D01*
X151928571Y-59317857D01*
X152000000Y-59317857D01*
X152047619Y-59341666D01*
D11*
X153000000Y-59000000D02*
X156000000Y-59000000D01*
D12*
X126834754Y-68140289D02*
X126834754Y-66640289D01*
X127334754Y-67711718D01*
X127834754Y-66640289D01*
X127834754Y-68140289D01*
X129191897Y-68140289D02*
X129191897Y-67354575D01*
X129120469Y-67211718D01*
X128977612Y-67140289D01*
X128691897Y-67140289D01*
X128549040Y-67211718D01*
X129191897Y-68068860D02*
X129049040Y-68140289D01*
X128691897Y-68140289D01*
X128549040Y-68068860D01*
X128477612Y-67926003D01*
X128477612Y-67783146D01*
X128549040Y-67640289D01*
X128691897Y-67568860D01*
X129049040Y-67568860D01*
X129191897Y-67497432D01*
X129906183Y-68140289D02*
X129906183Y-66640289D01*
X130549040Y-68140289D02*
X130549040Y-67354575D01*
X130477612Y-67211718D01*
X130334754Y-67140289D01*
X130120469Y-67140289D01*
X129977612Y-67211718D01*
X129906183Y-67283146D01*
X131263326Y-67140289D02*
X131263326Y-68426003D01*
X131191897Y-68568860D01*
X131049040Y-68640289D01*
X130977612Y-68640289D01*
X131263326Y-66640289D02*
X131191897Y-66711718D01*
X131263326Y-66783146D01*
X131334754Y-66711718D01*
X131263326Y-66640289D01*
X131263326Y-66783146D01*
X132191897Y-68140289D02*
X132049040Y-68068860D01*
X131977612Y-67997432D01*
X131906183Y-67854575D01*
X131906183Y-67426003D01*
X131977612Y-67283146D01*
X132049040Y-67211718D01*
X132191897Y-67140289D01*
X132406183Y-67140289D01*
X132549040Y-67211718D01*
X132620469Y-67283146D01*
X132691897Y-67426003D01*
X132691897Y-67854575D01*
X132620469Y-67997432D01*
X132549040Y-68068860D01*
X132406183Y-68140289D01*
X132191897Y-68140289D01*
X133334754Y-67140289D02*
X133334754Y-68140289D01*
X133334754Y-67283146D02*
X133406183Y-67211718D01*
X133549040Y-67140289D01*
X133763326Y-67140289D01*
X133906183Y-67211718D01*
X133977612Y-67354575D01*
X133977612Y-68140289D01*
X135334755Y-67140289D02*
X135334755Y-68354575D01*
X135263326Y-68497432D01*
X135191897Y-68568860D01*
X135049040Y-68640289D01*
X134834755Y-68640289D01*
X134691897Y-68568860D01*
X135334755Y-68068860D02*
X135191897Y-68140289D01*
X134906183Y-68140289D01*
X134763326Y-68068860D01*
X134691897Y-67997432D01*
X134620469Y-67854575D01*
X134620469Y-67426003D01*
X134691897Y-67283146D01*
X134763326Y-67211718D01*
X134906183Y-67140289D01*
X135191897Y-67140289D01*
X135334755Y-67211718D01*
X136977612Y-67140289D02*
X137549040Y-67140289D01*
X137191897Y-66640289D02*
X137191897Y-67926003D01*
X137263326Y-68068860D01*
X137406183Y-68140289D01*
X137549040Y-68140289D01*
X138263326Y-68140289D02*
X138120469Y-68068860D01*
X138049040Y-67997432D01*
X137977612Y-67854575D01*
X137977612Y-67426003D01*
X138049040Y-67283146D01*
X138120469Y-67211718D01*
X138263326Y-67140289D01*
X138477612Y-67140289D01*
X138620469Y-67211718D01*
X138691897Y-67283146D01*
X138763326Y-67426003D01*
X138763326Y-67854575D01*
X138691897Y-67997432D01*
X138620469Y-68068860D01*
X138477612Y-68140289D01*
X138263326Y-68140289D01*
X140977612Y-66640289D02*
X140977612Y-67711718D01*
X140906183Y-67926003D01*
X140763326Y-68068860D01*
X140549040Y-68140289D01*
X140406183Y-68140289D01*
X142334755Y-68140289D02*
X142334755Y-67354575D01*
X142263326Y-67211718D01*
X142120469Y-67140289D01*
X141834755Y-67140289D01*
X141691897Y-67211718D01*
X142334755Y-68068860D02*
X142191897Y-68140289D01*
X141834755Y-68140289D01*
X141691897Y-68068860D01*
X141620469Y-67926003D01*
X141620469Y-67783146D01*
X141691897Y-67640289D01*
X141834755Y-67568860D01*
X142191897Y-67568860D01*
X142334755Y-67497432D01*
X143049040Y-68140289D02*
X143049040Y-67140289D01*
X143049040Y-67283146D02*
X143120469Y-67211718D01*
X143263326Y-67140289D01*
X143477612Y-67140289D01*
X143620469Y-67211718D01*
X143691897Y-67354575D01*
X143691897Y-68140289D01*
X143691897Y-67354575D02*
X143763326Y-67211718D01*
X143906183Y-67140289D01*
X144120469Y-67140289D01*
X144263326Y-67211718D01*
X144334755Y-67354575D01*
X144334755Y-68140289D01*
X145049040Y-68140289D02*
X145049040Y-67140289D01*
X145049040Y-67283146D02*
X145120469Y-67211718D01*
X145263326Y-67140289D01*
X145477612Y-67140289D01*
X145620469Y-67211718D01*
X145691897Y-67354575D01*
X145691897Y-68140289D01*
X145691897Y-67354575D02*
X145763326Y-67211718D01*
X145906183Y-67140289D01*
X146120469Y-67140289D01*
X146263326Y-67211718D01*
X146334755Y-67354575D01*
X146334755Y-68140289D01*
X147691897Y-68140289D02*
X147691897Y-67354575D01*
X147620469Y-67211718D01*
X147477612Y-67140289D01*
X147191897Y-67140289D01*
X147049040Y-67211718D01*
X147691897Y-68068860D02*
X147549040Y-68140289D01*
X147191897Y-68140289D01*
X147049040Y-68068860D01*
X146977612Y-67926003D01*
X146977612Y-67783146D01*
X147049040Y-67640289D01*
X147191897Y-67568860D01*
X147549040Y-67568860D01*
X147691897Y-67497432D01*
X150191897Y-68140289D02*
X150191897Y-67354575D01*
X150120469Y-67211718D01*
X149977612Y-67140289D01*
X149691897Y-67140289D01*
X149549040Y-67211718D01*
X150191897Y-68068860D02*
X150049040Y-68140289D01*
X149691897Y-68140289D01*
X149549040Y-68068860D01*
X149477612Y-67926003D01*
X149477612Y-67783146D01*
X149549040Y-67640289D01*
X149691897Y-67568860D01*
X150049040Y-67568860D01*
X150191897Y-67497432D01*
X151549040Y-68140289D02*
X151549040Y-66640289D01*
X151549040Y-68068860D02*
X151406183Y-68140289D01*
X151120469Y-68140289D01*
X150977612Y-68068860D01*
X150906183Y-67997432D01*
X150834755Y-67854575D01*
X150834755Y-67426003D01*
X150906183Y-67283146D01*
X150977612Y-67211718D01*
X151120469Y-67140289D01*
X151406183Y-67140289D01*
X151549040Y-67211718D01*
X152906183Y-68140289D02*
X152906183Y-67354575D01*
X152834755Y-67211718D01*
X152691897Y-67140289D01*
X152406183Y-67140289D01*
X152263326Y-67211718D01*
X152906183Y-68068860D02*
X152763326Y-68140289D01*
X152406183Y-68140289D01*
X152263326Y-68068860D01*
X152191897Y-67926003D01*
X152191897Y-67783146D01*
X152263326Y-67640289D01*
X152406183Y-67568860D01*
X152763326Y-67568860D01*
X152906183Y-67497432D01*
X153620469Y-67140289D02*
X153620469Y-68640289D01*
X153620469Y-67211718D02*
X153763326Y-67140289D01*
X154049040Y-67140289D01*
X154191897Y-67211718D01*
X154263326Y-67283146D01*
X154334755Y-67426003D01*
X154334755Y-67854575D01*
X154263326Y-67997432D01*
X154191897Y-68068860D01*
X154049040Y-68140289D01*
X153763326Y-68140289D01*
X153620469Y-68068860D01*
X154763326Y-67140289D02*
X155334755Y-67140289D01*
X154977612Y-66640289D02*
X154977612Y-67926003D01*
X155049040Y-68068860D01*
X155191897Y-68140289D01*
X155334755Y-68140289D01*
X156406183Y-68068860D02*
X156263326Y-68140289D01*
X155977612Y-68140289D01*
X155834755Y-68068860D01*
X155763326Y-67926003D01*
X155763326Y-67354575D01*
X155834755Y-67211718D01*
X155977612Y-67140289D01*
X156263326Y-67140289D01*
X156406183Y-67211718D01*
X156477612Y-67354575D01*
X156477612Y-67497432D01*
X155763326Y-67640289D01*
X157120469Y-68140289D02*
X157120469Y-67140289D01*
X157120469Y-67426003D02*
X157191897Y-67283146D01*
X157263326Y-67211718D01*
X157406183Y-67140289D01*
X157549040Y-67140289D01*
X134941897Y-70765289D02*
X134941897Y-69265289D01*
X134941897Y-69836718D02*
X135084755Y-69765289D01*
X135370469Y-69765289D01*
X135513326Y-69836718D01*
X135584755Y-69908146D01*
X135656183Y-70051003D01*
X135656183Y-70479575D01*
X135584755Y-70622432D01*
X135513326Y-70693860D01*
X135370469Y-70765289D01*
X135084755Y-70765289D01*
X134941897Y-70693860D01*
X136941897Y-69765289D02*
X136941897Y-70765289D01*
X136299040Y-69765289D02*
X136299040Y-70551003D01*
X136370469Y-70693860D01*
X136513326Y-70765289D01*
X136727612Y-70765289D01*
X136870469Y-70693860D01*
X136941897Y-70622432D01*
X137441897Y-69765289D02*
X138013326Y-69765289D01*
X137656183Y-70765289D02*
X137656183Y-69479575D01*
X137727612Y-69336718D01*
X137870469Y-69265289D01*
X138013326Y-69265289D01*
X138299040Y-69765289D02*
X138870469Y-69765289D01*
X138513326Y-70765289D02*
X138513326Y-69479575D01*
X138584755Y-69336718D01*
X138727612Y-69265289D01*
X138870469Y-69265289D01*
X139370469Y-70765289D02*
X139370469Y-69765289D01*
X139370469Y-69265289D02*
X139299040Y-69336718D01*
X139370469Y-69408146D01*
X139441897Y-69336718D01*
X139370469Y-69265289D01*
X139370469Y-69408146D01*
X141227612Y-70193860D02*
X142370469Y-70193860D01*
X144156183Y-69408146D02*
X144227612Y-69336718D01*
X144370469Y-69265289D01*
X144727612Y-69265289D01*
X144870469Y-69336718D01*
X144941897Y-69408146D01*
X145013326Y-69551003D01*
X145013326Y-69693860D01*
X144941897Y-69908146D01*
X144084755Y-70765289D01*
X145013326Y-70765289D01*
X145941897Y-69265289D02*
X146084755Y-69265289D01*
X146227612Y-69336718D01*
X146299040Y-69408146D01*
X146370469Y-69551003D01*
X146441897Y-69836718D01*
X146441897Y-70193860D01*
X146370469Y-70479575D01*
X146299040Y-70622432D01*
X146227612Y-70693860D01*
X146084755Y-70765289D01*
X145941897Y-70765289D01*
X145799040Y-70693860D01*
X145727612Y-70622432D01*
X145656183Y-70479575D01*
X145584755Y-70193860D01*
X145584755Y-69836718D01*
X145656183Y-69551003D01*
X145727612Y-69408146D01*
X145799040Y-69336718D01*
X145941897Y-69265289D01*
X147013326Y-69408146D02*
X147084755Y-69336718D01*
X147227612Y-69265289D01*
X147584755Y-69265289D01*
X147727612Y-69336718D01*
X147799040Y-69408146D01*
X147870469Y-69551003D01*
X147870469Y-69693860D01*
X147799040Y-69908146D01*
X146941897Y-70765289D01*
X147870469Y-70765289D01*
X148441897Y-69408146D02*
X148513326Y-69336718D01*
X148656183Y-69265289D01*
X149013326Y-69265289D01*
X149156183Y-69336718D01*
X149227612Y-69408146D01*
X149299040Y-69551003D01*
X149299040Y-69693860D01*
X149227612Y-69908146D01*
X148370469Y-70765289D01*
X149299040Y-70765289D01*
D11*
X222000000Y-72000000D02*
X220000000Y-72000000D01*
X222000000Y-70000000D02*
X220000000Y-70000000D01*
X222000000Y-68000000D02*
X220000000Y-68000000D01*
X222000000Y-66000000D02*
X220000000Y-66000000D01*
X222000000Y-64000000D02*
X220000000Y-64000000D01*
X222000000Y-62000000D02*
X220000000Y-62000000D01*
X228000000Y-62000000D02*
X230000000Y-62000000D01*
X228000000Y-64000000D02*
X230000000Y-64000000D01*
X228000000Y-66000000D02*
X230000000Y-66000000D01*
X228000000Y-68000000D02*
X230000000Y-68000000D01*
X228000000Y-70000000D02*
X230000000Y-70000000D01*
X228000000Y-72000000D02*
X230000000Y-72000000D01*
D10*
X228550714Y-72714285D02*
X228522142Y-72742857D01*
X228436428Y-72771428D01*
X228379285Y-72771428D01*
X228293571Y-72742857D01*
X228236428Y-72685714D01*
X228207857Y-72628571D01*
X228179285Y-72514285D01*
X228179285Y-72428571D01*
X228207857Y-72314285D01*
X228236428Y-72257142D01*
X228293571Y-72200000D01*
X228379285Y-72171428D01*
X228436428Y-72171428D01*
X228522142Y-72200000D01*
X228550714Y-72228571D01*
X228922142Y-72171428D02*
X229036428Y-72171428D01*
X229093571Y-72200000D01*
X229150714Y-72257142D01*
X229179285Y-72371428D01*
X229179285Y-72571428D01*
X229150714Y-72685714D01*
X229093571Y-72742857D01*
X229036428Y-72771428D01*
X228922142Y-72771428D01*
X228865000Y-72742857D01*
X228807857Y-72685714D01*
X228779285Y-72571428D01*
X228779285Y-72371428D01*
X228807857Y-72257142D01*
X228865000Y-72200000D01*
X228922142Y-72171428D01*
X229436428Y-72771428D02*
X229436428Y-72171428D01*
X229636428Y-72600000D01*
X229836428Y-72171428D01*
X229836428Y-72771428D01*
X228465000Y-73371428D02*
X228465000Y-73771428D01*
X228322142Y-73142857D02*
X228179285Y-73571428D01*
X228550714Y-73571428D01*
X228779285Y-73542857D02*
X229236428Y-73542857D01*
X229465000Y-73171428D02*
X229865000Y-73171428D01*
X229607857Y-73771428D01*
X228550714Y-70714285D02*
X228522142Y-70742857D01*
X228436428Y-70771428D01*
X228379285Y-70771428D01*
X228293571Y-70742857D01*
X228236428Y-70685714D01*
X228207857Y-70628571D01*
X228179285Y-70514285D01*
X228179285Y-70428571D01*
X228207857Y-70314285D01*
X228236428Y-70257142D01*
X228293571Y-70200000D01*
X228379285Y-70171428D01*
X228436428Y-70171428D01*
X228522142Y-70200000D01*
X228550714Y-70228571D01*
X228922142Y-70171428D02*
X229036428Y-70171428D01*
X229093571Y-70200000D01*
X229150714Y-70257142D01*
X229179285Y-70371428D01*
X229179285Y-70571428D01*
X229150714Y-70685714D01*
X229093571Y-70742857D01*
X229036428Y-70771428D01*
X228922142Y-70771428D01*
X228865000Y-70742857D01*
X228807857Y-70685714D01*
X228779285Y-70571428D01*
X228779285Y-70371428D01*
X228807857Y-70257142D01*
X228865000Y-70200000D01*
X228922142Y-70171428D01*
X229436428Y-70771428D02*
X229436428Y-70171428D01*
X229636428Y-70600000D01*
X229836428Y-70171428D01*
X229836428Y-70771428D01*
X228150714Y-71171428D02*
X228522142Y-71171428D01*
X228322142Y-71400000D01*
X228407857Y-71400000D01*
X228465000Y-71428571D01*
X228493571Y-71457142D01*
X228522142Y-71514285D01*
X228522142Y-71657142D01*
X228493571Y-71714285D01*
X228465000Y-71742857D01*
X228407857Y-71771428D01*
X228236428Y-71771428D01*
X228179285Y-71742857D01*
X228150714Y-71714285D01*
X228779285Y-71542857D02*
X229236428Y-71542857D01*
X229836428Y-71771428D02*
X229493571Y-71771428D01*
X229665000Y-71771428D02*
X229665000Y-71171428D01*
X229607857Y-71257142D01*
X229550714Y-71314285D01*
X229493571Y-71342857D01*
X230207857Y-71171428D02*
X230265000Y-71171428D01*
X230322142Y-71200000D01*
X230350714Y-71228571D01*
X230379285Y-71285714D01*
X230407857Y-71400000D01*
X230407857Y-71542857D01*
X230379285Y-71657142D01*
X230350714Y-71714285D01*
X230322142Y-71742857D01*
X230265000Y-71771428D01*
X230207857Y-71771428D01*
X230150714Y-71742857D01*
X230122142Y-71714285D01*
X230093571Y-71657142D01*
X230065000Y-71542857D01*
X230065000Y-71400000D01*
X230093571Y-71285714D01*
X230122142Y-71228571D01*
X230150714Y-71200000D01*
X230207857Y-71171428D01*
X228528571Y-68714285D02*
X228500000Y-68742857D01*
X228414285Y-68771428D01*
X228357142Y-68771428D01*
X228271428Y-68742857D01*
X228214285Y-68685714D01*
X228185714Y-68628571D01*
X228157142Y-68514285D01*
X228157142Y-68428571D01*
X228185714Y-68314285D01*
X228214285Y-68257142D01*
X228271428Y-68200000D01*
X228357142Y-68171428D01*
X228414285Y-68171428D01*
X228500000Y-68200000D01*
X228528571Y-68228571D01*
X228900000Y-68171428D02*
X229014285Y-68171428D01*
X229071428Y-68200000D01*
X229128571Y-68257142D01*
X229157142Y-68371428D01*
X229157142Y-68571428D01*
X229128571Y-68685714D01*
X229071428Y-68742857D01*
X229014285Y-68771428D01*
X228900000Y-68771428D01*
X228842857Y-68742857D01*
X228785714Y-68685714D01*
X228757142Y-68571428D01*
X228757142Y-68371428D01*
X228785714Y-68257142D01*
X228842857Y-68200000D01*
X228900000Y-68171428D01*
X229414285Y-68771428D02*
X229414285Y-68171428D01*
X229614285Y-68600000D01*
X229814285Y-68171428D01*
X229814285Y-68771428D01*
X228171428Y-69228571D02*
X228200000Y-69200000D01*
X228257142Y-69171428D01*
X228400000Y-69171428D01*
X228457142Y-69200000D01*
X228485714Y-69228571D01*
X228514285Y-69285714D01*
X228514285Y-69342857D01*
X228485714Y-69428571D01*
X228142857Y-69771428D01*
X228514285Y-69771428D01*
X228771428Y-69542857D02*
X229228571Y-69542857D01*
X229771428Y-69171428D02*
X229657142Y-69171428D01*
X229600000Y-69200000D01*
X229571428Y-69228571D01*
X229514285Y-69314285D01*
X229485714Y-69428571D01*
X229485714Y-69657142D01*
X229514285Y-69714285D01*
X229542857Y-69742857D01*
X229600000Y-69771428D01*
X229714285Y-69771428D01*
X229771428Y-69742857D01*
X229800000Y-69714285D01*
X229828571Y-69657142D01*
X229828571Y-69514285D01*
X229800000Y-69457142D01*
X229771428Y-69428571D01*
X229714285Y-69400000D01*
X229600000Y-69400000D01*
X229542857Y-69428571D01*
X229514285Y-69457142D01*
X229485714Y-69514285D01*
X228550714Y-66714285D02*
X228522142Y-66742857D01*
X228436428Y-66771428D01*
X228379285Y-66771428D01*
X228293571Y-66742857D01*
X228236428Y-66685714D01*
X228207857Y-66628571D01*
X228179285Y-66514285D01*
X228179285Y-66428571D01*
X228207857Y-66314285D01*
X228236428Y-66257142D01*
X228293571Y-66200000D01*
X228379285Y-66171428D01*
X228436428Y-66171428D01*
X228522142Y-66200000D01*
X228550714Y-66228571D01*
X228922142Y-66171428D02*
X229036428Y-66171428D01*
X229093571Y-66200000D01*
X229150714Y-66257142D01*
X229179285Y-66371428D01*
X229179285Y-66571428D01*
X229150714Y-66685714D01*
X229093571Y-66742857D01*
X229036428Y-66771428D01*
X228922142Y-66771428D01*
X228865000Y-66742857D01*
X228807857Y-66685714D01*
X228779285Y-66571428D01*
X228779285Y-66371428D01*
X228807857Y-66257142D01*
X228865000Y-66200000D01*
X228922142Y-66171428D01*
X229436428Y-66771428D02*
X229436428Y-66171428D01*
X229636428Y-66600000D01*
X229836428Y-66171428D01*
X229836428Y-66771428D01*
X228522142Y-67771428D02*
X228179285Y-67771428D01*
X228350714Y-67771428D02*
X228350714Y-67171428D01*
X228293571Y-67257142D01*
X228236428Y-67314285D01*
X228179285Y-67342857D01*
X228779285Y-67542857D02*
X229236428Y-67542857D01*
X229493571Y-67228571D02*
X229522142Y-67200000D01*
X229579285Y-67171428D01*
X229722142Y-67171428D01*
X229779285Y-67200000D01*
X229807857Y-67228571D01*
X229836428Y-67285714D01*
X229836428Y-67342857D01*
X229807857Y-67428571D01*
X229465000Y-67771428D01*
X229836428Y-67771428D01*
X228550714Y-64714285D02*
X228522142Y-64742857D01*
X228436428Y-64771428D01*
X228379285Y-64771428D01*
X228293571Y-64742857D01*
X228236428Y-64685714D01*
X228207857Y-64628571D01*
X228179285Y-64514285D01*
X228179285Y-64428571D01*
X228207857Y-64314285D01*
X228236428Y-64257142D01*
X228293571Y-64200000D01*
X228379285Y-64171428D01*
X228436428Y-64171428D01*
X228522142Y-64200000D01*
X228550714Y-64228571D01*
X228922142Y-64171428D02*
X229036428Y-64171428D01*
X229093571Y-64200000D01*
X229150714Y-64257142D01*
X229179285Y-64371428D01*
X229179285Y-64571428D01*
X229150714Y-64685714D01*
X229093571Y-64742857D01*
X229036428Y-64771428D01*
X228922142Y-64771428D01*
X228865000Y-64742857D01*
X228807857Y-64685714D01*
X228779285Y-64571428D01*
X228779285Y-64371428D01*
X228807857Y-64257142D01*
X228865000Y-64200000D01*
X228922142Y-64171428D01*
X229436428Y-64771428D02*
X229436428Y-64171428D01*
X229636428Y-64600000D01*
X229836428Y-64171428D01*
X229836428Y-64771428D01*
X228322142Y-65171428D02*
X228379285Y-65171428D01*
X228436428Y-65200000D01*
X228465000Y-65228571D01*
X228493571Y-65285714D01*
X228522142Y-65400000D01*
X228522142Y-65542857D01*
X228493571Y-65657142D01*
X228465000Y-65714285D01*
X228436428Y-65742857D01*
X228379285Y-65771428D01*
X228322142Y-65771428D01*
X228265000Y-65742857D01*
X228236428Y-65714285D01*
X228207857Y-65657142D01*
X228179285Y-65542857D01*
X228179285Y-65400000D01*
X228207857Y-65285714D01*
X228236428Y-65228571D01*
X228265000Y-65200000D01*
X228322142Y-65171428D01*
X228779285Y-65542857D02*
X229236428Y-65542857D01*
X229465000Y-65171428D02*
X229836428Y-65171428D01*
X229636428Y-65400000D01*
X229722142Y-65400000D01*
X229779285Y-65428571D01*
X229807857Y-65457142D01*
X229836428Y-65514285D01*
X229836428Y-65657142D01*
X229807857Y-65714285D01*
X229779285Y-65742857D01*
X229722142Y-65771428D01*
X229550714Y-65771428D01*
X229493571Y-65742857D01*
X229465000Y-65714285D01*
X228550714Y-63214285D02*
X228522142Y-63242857D01*
X228436428Y-63271428D01*
X228379285Y-63271428D01*
X228293571Y-63242857D01*
X228236428Y-63185714D01*
X228207857Y-63128571D01*
X228179285Y-63014285D01*
X228179285Y-62928571D01*
X228207857Y-62814285D01*
X228236428Y-62757142D01*
X228293571Y-62700000D01*
X228379285Y-62671428D01*
X228436428Y-62671428D01*
X228522142Y-62700000D01*
X228550714Y-62728571D01*
X228922142Y-62671428D02*
X229036428Y-62671428D01*
X229093571Y-62700000D01*
X229150714Y-62757142D01*
X229179285Y-62871428D01*
X229179285Y-63071428D01*
X229150714Y-63185714D01*
X229093571Y-63242857D01*
X229036428Y-63271428D01*
X228922142Y-63271428D01*
X228865000Y-63242857D01*
X228807857Y-63185714D01*
X228779285Y-63071428D01*
X228779285Y-62871428D01*
X228807857Y-62757142D01*
X228865000Y-62700000D01*
X228922142Y-62671428D01*
X229436428Y-63271428D02*
X229436428Y-62671428D01*
X229722142Y-63271428D02*
X229722142Y-62671428D01*
X230065000Y-63271428D01*
X230065000Y-62671428D01*
X228493571Y-60671428D02*
X228207857Y-60671428D01*
X228179285Y-60957142D01*
X228207857Y-60928571D01*
X228265000Y-60900000D01*
X228407857Y-60900000D01*
X228465000Y-60928571D01*
X228493571Y-60957142D01*
X228522142Y-61014285D01*
X228522142Y-61157142D01*
X228493571Y-61214285D01*
X228465000Y-61242857D01*
X228407857Y-61271428D01*
X228265000Y-61271428D01*
X228207857Y-61242857D01*
X228179285Y-61214285D01*
X228693571Y-60671428D02*
X228893571Y-61271428D01*
X229093571Y-60671428D01*
X218535000Y-73271428D02*
X218535000Y-72671428D01*
X218877857Y-73271428D02*
X218620714Y-72928571D01*
X218877857Y-72671428D02*
X218535000Y-73014285D01*
X219135000Y-72957142D02*
X219335000Y-72957142D01*
X219420714Y-73271428D02*
X219135000Y-73271428D01*
X219135000Y-72671428D01*
X219420714Y-72671428D01*
X219792142Y-72985714D02*
X219792142Y-73271428D01*
X219592142Y-72671428D02*
X219792142Y-72985714D01*
X219992142Y-72671428D01*
X220477857Y-72671428D02*
X220192142Y-72671428D01*
X220163571Y-72957142D01*
X220192142Y-72928571D01*
X220249285Y-72900000D01*
X220392142Y-72900000D01*
X220449285Y-72928571D01*
X220477857Y-72957142D01*
X220506428Y-73014285D01*
X220506428Y-73157142D01*
X220477857Y-73214285D01*
X220449285Y-73242857D01*
X220392142Y-73271428D01*
X220249285Y-73271428D01*
X220192142Y-73242857D01*
X220163571Y-73214285D01*
X220763571Y-73042857D02*
X221220714Y-73042857D01*
X221820714Y-73271428D02*
X221477857Y-73271428D01*
X221649285Y-73271428D02*
X221649285Y-72671428D01*
X221592142Y-72757142D01*
X221535000Y-72814285D01*
X221477857Y-72842857D01*
X217963571Y-71271428D02*
X217963571Y-70671428D01*
X218306428Y-71271428D02*
X218049285Y-70928571D01*
X218306428Y-70671428D02*
X217963571Y-71014285D01*
X218563571Y-70957142D02*
X218763571Y-70957142D01*
X218849285Y-71271428D02*
X218563571Y-71271428D01*
X218563571Y-70671428D01*
X218849285Y-70671428D01*
X219220714Y-70985714D02*
X219220714Y-71271428D01*
X219020714Y-70671428D02*
X219220714Y-70985714D01*
X219420714Y-70671428D01*
X219877857Y-70871428D02*
X219877857Y-71271428D01*
X219735000Y-70642857D02*
X219592142Y-71071428D01*
X219963571Y-71071428D01*
X220192142Y-71042857D02*
X220649285Y-71042857D01*
X221249285Y-71271428D02*
X220906428Y-71271428D01*
X221077857Y-71271428D02*
X221077857Y-70671428D01*
X221020714Y-70757142D01*
X220963571Y-70814285D01*
X220906428Y-70842857D01*
X221820714Y-71271428D02*
X221477857Y-71271428D01*
X221649285Y-71271428D02*
X221649285Y-70671428D01*
X221592142Y-70757142D01*
X221535000Y-70814285D01*
X221477857Y-70842857D01*
X218535000Y-69271428D02*
X218535000Y-68671428D01*
X218877857Y-69271428D02*
X218620714Y-68928571D01*
X218877857Y-68671428D02*
X218535000Y-69014285D01*
X219135000Y-68957142D02*
X219335000Y-68957142D01*
X219420714Y-69271428D02*
X219135000Y-69271428D01*
X219135000Y-68671428D01*
X219420714Y-68671428D01*
X219792142Y-68985714D02*
X219792142Y-69271428D01*
X219592142Y-68671428D02*
X219792142Y-68985714D01*
X219992142Y-68671428D01*
X220135000Y-68671428D02*
X220506428Y-68671428D01*
X220306428Y-68900000D01*
X220392142Y-68900000D01*
X220449285Y-68928571D01*
X220477857Y-68957142D01*
X220506428Y-69014285D01*
X220506428Y-69157142D01*
X220477857Y-69214285D01*
X220449285Y-69242857D01*
X220392142Y-69271428D01*
X220220714Y-69271428D01*
X220163571Y-69242857D01*
X220135000Y-69214285D01*
X220763571Y-69042857D02*
X221220714Y-69042857D01*
X221535000Y-69271428D02*
X221649285Y-69271428D01*
X221706428Y-69242857D01*
X221735000Y-69214285D01*
X221792142Y-69128571D01*
X221820714Y-69014285D01*
X221820714Y-68785714D01*
X221792142Y-68728571D01*
X221763571Y-68700000D01*
X221706428Y-68671428D01*
X221592142Y-68671428D01*
X221535000Y-68700000D01*
X221506428Y-68728571D01*
X221477857Y-68785714D01*
X221477857Y-68928571D01*
X221506428Y-68985714D01*
X221535000Y-69014285D01*
X221592142Y-69042857D01*
X221706428Y-69042857D01*
X221763571Y-69014285D01*
X221792142Y-68985714D01*
X221820714Y-68928571D01*
X218535000Y-67271428D02*
X218535000Y-66671428D01*
X218877857Y-67271428D02*
X218620714Y-66928571D01*
X218877857Y-66671428D02*
X218535000Y-67014285D01*
X219135000Y-66957142D02*
X219335000Y-66957142D01*
X219420714Y-67271428D02*
X219135000Y-67271428D01*
X219135000Y-66671428D01*
X219420714Y-66671428D01*
X219792142Y-66985714D02*
X219792142Y-67271428D01*
X219592142Y-66671428D02*
X219792142Y-66985714D01*
X219992142Y-66671428D01*
X220163571Y-66728571D02*
X220192142Y-66700000D01*
X220249285Y-66671428D01*
X220392142Y-66671428D01*
X220449285Y-66700000D01*
X220477857Y-66728571D01*
X220506428Y-66785714D01*
X220506428Y-66842857D01*
X220477857Y-66928571D01*
X220135000Y-67271428D01*
X220506428Y-67271428D01*
X220763571Y-67042857D02*
X221220714Y-67042857D01*
X221592142Y-66928571D02*
X221535000Y-66900000D01*
X221506428Y-66871428D01*
X221477857Y-66814285D01*
X221477857Y-66785714D01*
X221506428Y-66728571D01*
X221535000Y-66700000D01*
X221592142Y-66671428D01*
X221706428Y-66671428D01*
X221763571Y-66700000D01*
X221792142Y-66728571D01*
X221820714Y-66785714D01*
X221820714Y-66814285D01*
X221792142Y-66871428D01*
X221763571Y-66900000D01*
X221706428Y-66928571D01*
X221592142Y-66928571D01*
X221535000Y-66957142D01*
X221506428Y-66985714D01*
X221477857Y-67042857D01*
X221477857Y-67157142D01*
X221506428Y-67214285D01*
X221535000Y-67242857D01*
X221592142Y-67271428D01*
X221706428Y-67271428D01*
X221763571Y-67242857D01*
X221792142Y-67214285D01*
X221820714Y-67157142D01*
X221820714Y-67042857D01*
X221792142Y-66985714D01*
X221763571Y-66957142D01*
X221706428Y-66928571D01*
X218535000Y-65271428D02*
X218535000Y-64671428D01*
X218877857Y-65271428D02*
X218620714Y-64928571D01*
X218877857Y-64671428D02*
X218535000Y-65014285D01*
X219135000Y-64957142D02*
X219335000Y-64957142D01*
X219420714Y-65271428D02*
X219135000Y-65271428D01*
X219135000Y-64671428D01*
X219420714Y-64671428D01*
X219792142Y-64985714D02*
X219792142Y-65271428D01*
X219592142Y-64671428D02*
X219792142Y-64985714D01*
X219992142Y-64671428D01*
X220506428Y-65271428D02*
X220163571Y-65271428D01*
X220335000Y-65271428D02*
X220335000Y-64671428D01*
X220277857Y-64757142D01*
X220220714Y-64814285D01*
X220163571Y-64842857D01*
X220763571Y-65042857D02*
X221220714Y-65042857D01*
X221792142Y-64671428D02*
X221506428Y-64671428D01*
X221477857Y-64957142D01*
X221506428Y-64928571D01*
X221563571Y-64900000D01*
X221706428Y-64900000D01*
X221763571Y-64928571D01*
X221792142Y-64957142D01*
X221820714Y-65014285D01*
X221820714Y-65157142D01*
X221792142Y-65214285D01*
X221763571Y-65242857D01*
X221706428Y-65271428D01*
X221563571Y-65271428D01*
X221506428Y-65242857D01*
X221477857Y-65214285D01*
X218535000Y-63271428D02*
X218535000Y-62671428D01*
X218877857Y-63271428D02*
X218620714Y-62928571D01*
X218877857Y-62671428D02*
X218535000Y-63014285D01*
X219135000Y-62957142D02*
X219335000Y-62957142D01*
X219420714Y-63271428D02*
X219135000Y-63271428D01*
X219135000Y-62671428D01*
X219420714Y-62671428D01*
X219792142Y-62985714D02*
X219792142Y-63271428D01*
X219592142Y-62671428D02*
X219792142Y-62985714D01*
X219992142Y-62671428D01*
X220306428Y-62671428D02*
X220363571Y-62671428D01*
X220420714Y-62700000D01*
X220449285Y-62728571D01*
X220477857Y-62785714D01*
X220506428Y-62900000D01*
X220506428Y-63042857D01*
X220477857Y-63157142D01*
X220449285Y-63214285D01*
X220420714Y-63242857D01*
X220363571Y-63271428D01*
X220306428Y-63271428D01*
X220249285Y-63242857D01*
X220220714Y-63214285D01*
X220192142Y-63157142D01*
X220163571Y-63042857D01*
X220163571Y-62900000D01*
X220192142Y-62785714D01*
X220220714Y-62728571D01*
X220249285Y-62700000D01*
X220306428Y-62671428D01*
X220763571Y-63042857D02*
X221220714Y-63042857D01*
X221763571Y-62871428D02*
X221763571Y-63271428D01*
X221620714Y-62642857D02*
X221477857Y-63071428D01*
X221849285Y-63071428D01*
X220559571Y-60700000D02*
X220502428Y-60671428D01*
X220416714Y-60671428D01*
X220331000Y-60700000D01*
X220273857Y-60757142D01*
X220245285Y-60814285D01*
X220216714Y-60928571D01*
X220216714Y-61014285D01*
X220245285Y-61128571D01*
X220273857Y-61185714D01*
X220331000Y-61242857D01*
X220416714Y-61271428D01*
X220473857Y-61271428D01*
X220559571Y-61242857D01*
X220588142Y-61214285D01*
X220588142Y-61014285D01*
X220473857Y-61014285D01*
X220845285Y-61271428D02*
X220845285Y-60671428D01*
X221188142Y-61271428D01*
X221188142Y-60671428D01*
X221473857Y-61271428D02*
X221473857Y-60671428D01*
X221616714Y-60671428D01*
X221702428Y-60700000D01*
X221759571Y-60757142D01*
X221788142Y-60814285D01*
X221816714Y-60928571D01*
X221816714Y-61014285D01*
X221788142Y-61128571D01*
X221759571Y-61185714D01*
X221702428Y-61242857D01*
X221616714Y-61271428D01*
X221473857Y-61271428D01*
D13*
X161166666Y-75452380D02*
X161166666Y-74452380D01*
X161500000Y-75166666D01*
X161833333Y-74452380D01*
X161833333Y-75452380D01*
X162738095Y-75452380D02*
X162738095Y-74928571D01*
X162690476Y-74833333D01*
X162595238Y-74785714D01*
X162404761Y-74785714D01*
X162309523Y-74833333D01*
X162738095Y-75404761D02*
X162642857Y-75452380D01*
X162404761Y-75452380D01*
X162309523Y-75404761D01*
X162261904Y-75309523D01*
X162261904Y-75214285D01*
X162309523Y-75119047D01*
X162404761Y-75071428D01*
X162642857Y-75071428D01*
X162738095Y-75023809D01*
X163214285Y-75452380D02*
X163214285Y-74452380D01*
X163642857Y-75452380D02*
X163642857Y-74928571D01*
X163595238Y-74833333D01*
X163500000Y-74785714D01*
X163357142Y-74785714D01*
X163261904Y-74833333D01*
X163214285Y-74880952D01*
X164119047Y-74785714D02*
X164119047Y-75642857D01*
X164071428Y-75738095D01*
X163976190Y-75785714D01*
X163928571Y-75785714D01*
X164119047Y-74452380D02*
X164071428Y-74500000D01*
X164119047Y-74547619D01*
X164166666Y-74500000D01*
X164119047Y-74452380D01*
X164119047Y-74547619D01*
X164738095Y-75452380D02*
X164642857Y-75404761D01*
X164595238Y-75357142D01*
X164547619Y-75261904D01*
X164547619Y-74976190D01*
X164595238Y-74880952D01*
X164642857Y-74833333D01*
X164738095Y-74785714D01*
X164880952Y-74785714D01*
X164976190Y-74833333D01*
X165023809Y-74880952D01*
X165071428Y-74976190D01*
X165071428Y-75261904D01*
X165023809Y-75357142D01*
X164976190Y-75404761D01*
X164880952Y-75452380D01*
X164738095Y-75452380D01*
X165500000Y-74785714D02*
X165500000Y-75452380D01*
X165500000Y-74880952D02*
X165547619Y-74833333D01*
X165642857Y-74785714D01*
X165785714Y-74785714D01*
X165880952Y-74833333D01*
X165928571Y-74928571D01*
X165928571Y-75452380D01*
X166833333Y-74785714D02*
X166833333Y-75595238D01*
X166785714Y-75690476D01*
X166738095Y-75738095D01*
X166642857Y-75785714D01*
X166500000Y-75785714D01*
X166404761Y-75738095D01*
X166833333Y-75404761D02*
X166738095Y-75452380D01*
X166547619Y-75452380D01*
X166452380Y-75404761D01*
X166404761Y-75357142D01*
X166357142Y-75261904D01*
X166357142Y-74976190D01*
X166404761Y-74880952D01*
X166452380Y-74833333D01*
X166547619Y-74785714D01*
X166738095Y-74785714D01*
X166833333Y-74833333D01*
X161404761Y-57452380D02*
X161404761Y-58166666D01*
X161357142Y-58309523D01*
X161261904Y-58404761D01*
X161119047Y-58452380D01*
X161023809Y-58452380D01*
X162309523Y-58452380D02*
X162309523Y-57928571D01*
X162261904Y-57833333D01*
X162166666Y-57785714D01*
X161976190Y-57785714D01*
X161880952Y-57833333D01*
X162309523Y-58404761D02*
X162214285Y-58452380D01*
X161976190Y-58452380D01*
X161880952Y-58404761D01*
X161833333Y-58309523D01*
X161833333Y-58214285D01*
X161880952Y-58119047D01*
X161976190Y-58071428D01*
X162214285Y-58071428D01*
X162309523Y-58023809D01*
X162785714Y-58452380D02*
X162785714Y-57785714D01*
X162785714Y-57880952D02*
X162833333Y-57833333D01*
X162928571Y-57785714D01*
X163071428Y-57785714D01*
X163166666Y-57833333D01*
X163214285Y-57928571D01*
X163214285Y-58452380D01*
X163214285Y-57928571D02*
X163261904Y-57833333D01*
X163357142Y-57785714D01*
X163500000Y-57785714D01*
X163595238Y-57833333D01*
X163642857Y-57928571D01*
X163642857Y-58452380D01*
X164119047Y-58452380D02*
X164119047Y-57785714D01*
X164119047Y-57880952D02*
X164166666Y-57833333D01*
X164261904Y-57785714D01*
X164404761Y-57785714D01*
X164500000Y-57833333D01*
X164547619Y-57928571D01*
X164547619Y-58452380D01*
X164547619Y-57928571D02*
X164595238Y-57833333D01*
X164690476Y-57785714D01*
X164833333Y-57785714D01*
X164928571Y-57833333D01*
X164976190Y-57928571D01*
X164976190Y-58452380D01*
X165880952Y-58452380D02*
X165880952Y-57928571D01*
X165833333Y-57833333D01*
X165738095Y-57785714D01*
X165547619Y-57785714D01*
X165452380Y-57833333D01*
X165880952Y-58404761D02*
X165785714Y-58452380D01*
X165547619Y-58452380D01*
X165452380Y-58404761D01*
X165404761Y-58309523D01*
X165404761Y-58214285D01*
X165452380Y-58119047D01*
X165547619Y-58071428D01*
X165785714Y-58071428D01*
X165880952Y-58023809D01*
D11*
G04 #@! TO.C,J3*
X227160000Y-59760000D02*
X222960000Y-59760000D01*
X222960000Y-59760000D02*
X222960000Y-74160000D01*
X222960000Y-74160000D02*
X227160000Y-74160000D01*
X227160000Y-74160000D02*
X227160000Y-59760000D01*
X224960000Y-58900000D02*
X224960000Y-59760000D01*
X224960000Y-75020000D02*
X224960000Y-74160000D01*
X224160000Y-58900000D02*
X224160000Y-59760000D01*
X224160000Y-75020000D02*
X224160000Y-74160000D01*
X227670000Y-62430000D02*
X227160000Y-62430000D01*
X227670000Y-61490000D02*
X227160000Y-61490000D01*
X227670000Y-71490000D02*
X227160000Y-71490000D01*
X227670000Y-72430000D02*
X227160000Y-72430000D01*
X222450000Y-62430000D02*
X222960000Y-62430000D01*
X222450000Y-60930000D02*
X222960000Y-60930000D01*
X222450000Y-71490000D02*
X222960000Y-71490000D01*
X222450000Y-72990000D02*
X222960000Y-72990000D01*
X227670000Y-58900000D02*
X222450000Y-58900000D01*
X222450000Y-58900000D02*
X222450000Y-75020000D01*
X222450000Y-75020000D02*
X227670000Y-75020000D01*
X227670000Y-75020000D02*
X227670000Y-58900000D01*
X226060000Y-58700000D02*
X225760000Y-58100000D01*
X225760000Y-58100000D02*
X226360000Y-58100000D01*
X226360000Y-58100000D02*
X226060000Y-58700000D01*
D13*
G04 #@! TO.C,J2*
X121125000Y-85730000D02*
X230395000Y-85730000D01*
X121125000Y-76730000D02*
X121125000Y-85730000D01*
X231395000Y-76730000D02*
X121125000Y-76730000D01*
X231395000Y-84730000D02*
X231395000Y-76730000D01*
X231394000Y-85712300D02*
X231395000Y-76730000D01*
X231395000Y-76730000D02*
X121125000Y-76730000D01*
X121125000Y-76730000D02*
X121125000Y-85730000D01*
X121125000Y-85730000D02*
X231394000Y-85730000D01*
G04 #@! TO.C,J1*
X121125000Y-56520000D02*
X230395000Y-56520000D01*
X121125000Y-47520000D02*
X121125000Y-56520000D01*
X231395000Y-47520000D02*
X121125000Y-47520000D01*
X231395000Y-55520000D02*
X231395000Y-47520000D01*
X231394000Y-56502300D02*
X231395000Y-47520000D01*
X231395000Y-47520000D02*
X121125000Y-47520000D01*
X121125000Y-47520000D02*
X121125000Y-56520000D01*
X121125000Y-56520000D02*
X231394000Y-56520000D01*
G04 #@! TO.C,J3*
D10*
X221233333Y-74061904D02*
X221233333Y-74633333D01*
X221195238Y-74747619D01*
X221119047Y-74823809D01*
X221004761Y-74861904D01*
X220928571Y-74861904D01*
X221538095Y-74061904D02*
X222033333Y-74061904D01*
X221766666Y-74366666D01*
X221880952Y-74366666D01*
X221957142Y-74404761D01*
X221995238Y-74442857D01*
X222033333Y-74519047D01*
X222033333Y-74709523D01*
X221995238Y-74785714D01*
X221957142Y-74823809D01*
X221880952Y-74861904D01*
X221652380Y-74861904D01*
X221576190Y-74823809D01*
X221538095Y-74785714D01*
G04 #@! TO.C,J2*
D13*
X199600000Y-74842857D02*
X199600000Y-75700000D01*
X199542857Y-75871428D01*
X199428571Y-75985714D01*
X199257142Y-76042857D01*
X199142857Y-76042857D01*
X200114285Y-74957142D02*
X200171428Y-74900000D01*
X200285714Y-74842857D01*
X200571428Y-74842857D01*
X200685714Y-74900000D01*
X200742857Y-74957142D01*
X200800000Y-75071428D01*
X200800000Y-75185714D01*
X200742857Y-75357142D01*
X200057142Y-76042857D01*
X200800000Y-76042857D01*
G04 #@! TD*
%LPC*%
D14*
G04 #@! TO.C,J3*
X224060000Y-72960000D03*
X224060000Y-70960000D03*
X224060000Y-68960000D03*
X224060000Y-66960000D03*
X224060000Y-64960000D03*
X224060000Y-62960000D03*
X224060000Y-60960000D03*
X226060000Y-72960000D03*
X226060000Y-70960000D03*
X226060000Y-68960000D03*
X226060000Y-66960000D03*
X226060000Y-64960000D03*
X226060000Y-62960000D03*
G36*
G01*
X225709999Y-60360000D02*
X226410001Y-60360000D01*
G75*
G02*
X226660000Y-60609999I0J-249999D01*
G01*
X226660000Y-61310001D01*
G75*
G02*
X226410001Y-61560000I-249999J0D01*
G01*
X225709999Y-61560000D01*
G75*
G02*
X225460000Y-61310001I0J249999D01*
G01*
X225460000Y-60609999D01*
G75*
G02*
X225709999Y-60360000I249999J0D01*
G01*
G37*
G04 #@! TD*
D15*
G04 #@! TO.C,J2*
X205993160Y-81232540D03*
X205993160Y-81232540D03*
X158440000Y-81230000D03*
X154480000Y-81230000D03*
X209920000Y-81230000D03*
X213880000Y-81230000D03*
X202000000Y-81230000D03*
X217840000Y-81230000D03*
X209920000Y-81230000D03*
X190120000Y-81230000D03*
X146560000Y-81230000D03*
X182200000Y-81230000D03*
X154480000Y-81230000D03*
X142600000Y-81230000D03*
X126760000Y-81230000D03*
X166360000Y-81230000D03*
X221800000Y-81230000D03*
X229720000Y-81230000D03*
X202000000Y-81230000D03*
X225760000Y-81230000D03*
X182200000Y-81230000D03*
X198040000Y-81230000D03*
X134680000Y-81230000D03*
X194080000Y-81230000D03*
X221800000Y-81230000D03*
X217840000Y-81230000D03*
X174280000Y-81230000D03*
X198040000Y-81230000D03*
X190120000Y-81230000D03*
X138640000Y-81230000D03*
X194080000Y-81230000D03*
X158440000Y-81230000D03*
X178240000Y-81230000D03*
X174280000Y-81230000D03*
X170320000Y-81230000D03*
X122800000Y-81230000D03*
X162400000Y-81230000D03*
X186160000Y-81230000D03*
X225760000Y-81230000D03*
X229720000Y-81230000D03*
X213880000Y-81230000D03*
X186160000Y-81230000D03*
X178240000Y-81230000D03*
X170320000Y-81230000D03*
X166360000Y-81230000D03*
X130720000Y-81230000D03*
X162400000Y-81230000D03*
X150520000Y-81230000D03*
X150520000Y-81230000D03*
X130720000Y-81230000D03*
X134680000Y-81230000D03*
X142600000Y-81230000D03*
X126760000Y-81230000D03*
X146560000Y-81230000D03*
X122800000Y-81230000D03*
X138640000Y-81230000D03*
X122800000Y-81230000D03*
X126760000Y-81230000D03*
X130720000Y-81230000D03*
X134680000Y-81230000D03*
X138640000Y-81230000D03*
X142600000Y-81230000D03*
X146560000Y-81230000D03*
X150520000Y-81230000D03*
X154480000Y-81230000D03*
X158440000Y-81230000D03*
X162400000Y-81230000D03*
X166360000Y-81230000D03*
X170320000Y-81230000D03*
X174280000Y-81230000D03*
X178240000Y-81230000D03*
X182200000Y-81230000D03*
X186160000Y-81230000D03*
X190120000Y-81230000D03*
X194080000Y-81230000D03*
X198040000Y-81230000D03*
X202000000Y-81230000D03*
X209920000Y-81230000D03*
X213880000Y-81230000D03*
X217840000Y-81230000D03*
X221800000Y-81230000D03*
X225760000Y-81230000D03*
X229720000Y-81230000D03*
X229720000Y-81230000D03*
X225760000Y-81230000D03*
X221800000Y-81230000D03*
X217840000Y-81230000D03*
X213880000Y-81230000D03*
X209920000Y-81230000D03*
X202000000Y-81230000D03*
X198040000Y-81230000D03*
X194080000Y-81230000D03*
X190120000Y-81230000D03*
X186160000Y-81230000D03*
X182200000Y-81230000D03*
X178240000Y-81230000D03*
X174280000Y-81230000D03*
X170320000Y-81230000D03*
X166360000Y-81230000D03*
X162400000Y-81230000D03*
X158440000Y-81230000D03*
X154480000Y-81230000D03*
X150520000Y-81230000D03*
X146560000Y-81230000D03*
X142600000Y-81230000D03*
X138640000Y-81230000D03*
X134680000Y-81230000D03*
X130720000Y-81230000D03*
X126760000Y-81230000D03*
X122800000Y-81230000D03*
G04 #@! TD*
G04 #@! TO.C,J1*
X158440000Y-52020000D03*
X154480000Y-52020000D03*
X209920000Y-52020000D03*
X213880000Y-52020000D03*
X202000000Y-52020000D03*
X217840000Y-52020000D03*
X209920000Y-52020000D03*
X190120000Y-52020000D03*
X146560000Y-52020000D03*
X182200000Y-52020000D03*
X154480000Y-52020000D03*
X142600000Y-52020000D03*
X126760000Y-52020000D03*
X166360000Y-52020000D03*
X221800000Y-52020000D03*
X229720000Y-52020000D03*
X202000000Y-52020000D03*
X225760000Y-52020000D03*
X182200000Y-52020000D03*
X198040000Y-52020000D03*
X134680000Y-52020000D03*
X194080000Y-52020000D03*
X221800000Y-52020000D03*
X217840000Y-52020000D03*
X174280000Y-52020000D03*
X198040000Y-52020000D03*
X190120000Y-52020000D03*
X138640000Y-52020000D03*
X194080000Y-52020000D03*
X158440000Y-52020000D03*
X178240000Y-52020000D03*
X174280000Y-52020000D03*
X170320000Y-52020000D03*
X122800000Y-52020000D03*
X162400000Y-52020000D03*
X186160000Y-52020000D03*
X225760000Y-52020000D03*
X229720000Y-52020000D03*
X213880000Y-52020000D03*
X186160000Y-52020000D03*
X178240000Y-52020000D03*
X170320000Y-52020000D03*
X166360000Y-52020000D03*
X130720000Y-52020000D03*
X162400000Y-52020000D03*
X150520000Y-52020000D03*
X150520000Y-52020000D03*
X130720000Y-52020000D03*
X134680000Y-52020000D03*
X142600000Y-52020000D03*
X126760000Y-52020000D03*
X146560000Y-52020000D03*
X122800000Y-52020000D03*
X138640000Y-52020000D03*
X122800000Y-52020000D03*
X126760000Y-52020000D03*
X130720000Y-52020000D03*
X134680000Y-52020000D03*
X138640000Y-52020000D03*
X142600000Y-52020000D03*
X146560000Y-52020000D03*
X150520000Y-52020000D03*
X154480000Y-52020000D03*
X158440000Y-52020000D03*
X162400000Y-52020000D03*
X166360000Y-52020000D03*
X170320000Y-52020000D03*
X174280000Y-52020000D03*
X178240000Y-52020000D03*
X182200000Y-52020000D03*
X186160000Y-52020000D03*
X190120000Y-52020000D03*
X194080000Y-52020000D03*
X198040000Y-52020000D03*
X202000000Y-52020000D03*
X209920000Y-52020000D03*
X213880000Y-52020000D03*
X217840000Y-52020000D03*
X221800000Y-52020000D03*
X225760000Y-52020000D03*
X229720000Y-52020000D03*
X229720000Y-52020000D03*
X225760000Y-52020000D03*
X221800000Y-52020000D03*
X217840000Y-52020000D03*
X213880000Y-52020000D03*
X209920000Y-52020000D03*
X202000000Y-52020000D03*
X198040000Y-52020000D03*
X194080000Y-52020000D03*
X190120000Y-52020000D03*
X186160000Y-52020000D03*
X182200000Y-52020000D03*
X178240000Y-52020000D03*
X174280000Y-52020000D03*
X170320000Y-52020000D03*
X166360000Y-52020000D03*
X162400000Y-52020000D03*
X158440000Y-52020000D03*
X154480000Y-52020000D03*
X150520000Y-52020000D03*
X146560000Y-52020000D03*
X142600000Y-52020000D03*
X138640000Y-52020000D03*
X134680000Y-52020000D03*
X130720000Y-52020000D03*
X126760000Y-52020000D03*
X122800000Y-52020000D03*
G04 #@! TD*
M02*
