M48
; DRILL file {KiCad (5.1.10)-1} date 12/14/21 16:32:31
; FORMAT={-:-/ absolute / metric / decimal}
; #@! TF.CreationDate,2021-12-14T16:32:31+01:00
; #@! TF.GenerationSoftware,Kicad,Pcbnew,(5.1.10)-1
; #@! TF.FileFunction,Plated,1,4,PTH
FMAT,2
METRIC
T1C0.400
T2C0.750
%
G90
G05
T1
X122.8Y-58.81
X122.8Y-63.89
X122.8Y-70.24
X122.8Y-74.05
X126.76Y-58.66
X126.76Y-63.74
X126.76Y-70.09
X126.76Y-73.9
X130.81Y-73.66
X130.81Y-74.93
X134.68Y-74.87
X135.89Y-73.66
X146.56Y-75.69
X147.32Y-74.93
X149.86Y-73.66
X150.52Y-74.905
X151.841Y-61.893
X152.703Y-63.133
X154.0Y-64.0
X154.48Y-75.39
X154.623Y-72.707
X154.962Y-65.131
X156.21Y-71.12
X156.241Y-64.099
X157.797Y-72.707
X158.44Y-75.24
X161.313Y-63.477
X163.853Y-63.477
X166.981Y-63.477
X170.406Y-74.877
X171.626Y-57.697
X174.242Y-75.193
X178.239Y-75.29
X182.593Y-75.113
X184.15Y-71.12
X185.42Y-71.12
X186.337Y-66.031
X186.914Y-75.365
X187.796Y-66.017
X189.748Y-59.853
X189.83Y-73.459
X189.922Y-61.292
X190.443Y-75.437
X191.77Y-57.785
X191.77Y-59.055
X195.58Y-73.66
X195.58Y-74.93
X196.326Y-68.469
X197.862Y-69.118
X199.39Y-63.5
X200.66Y-64.77
X208.197Y-59.607
X209.55Y-63.5
X209.923Y-59.607
X213.88Y-73.14
X213.88Y-74.41
X214.63Y-58.42
X217.84Y-57.82
X219.075Y-59.055
X229.72Y-57.935
X229.72Y-59.205
T2
X224.06Y-60.96
X224.06Y-62.96
X224.06Y-64.96
X224.06Y-66.96
X224.06Y-68.96
X224.06Y-70.96
X224.06Y-72.96
X226.06Y-60.96
X226.06Y-62.96
X226.06Y-64.96
X226.06Y-66.96
X226.06Y-68.96
X226.06Y-70.96
X226.06Y-72.96
T0
M30
