G04 #@! TF.GenerationSoftware,KiCad,Pcbnew,(5.1.10)-1*
G04 #@! TF.CreationDate,2021-12-14T16:32:22+01:00*
G04 #@! TF.ProjectId,jamma_mahjong,6a616d6d-615f-46d6-9168-6a6f6e672e6b,rev?*
G04 #@! TF.SameCoordinates,Original*
G04 #@! TF.FileFunction,Copper,L3,Inr*
G04 #@! TF.FilePolarity,Positive*
%FSLAX46Y46*%
G04 Gerber Fmt 4.6, Leading zero omitted, Abs format (unit mm)*
G04 Created by KiCad (PCBNEW (5.1.10)-1) date 2021-12-14 16:32:22*
%MOMM*%
%LPD*%
G01*
G04 APERTURE LIST*
G04 #@! TA.AperFunction,ComponentPad*
%ADD10C,1.200000*%
G04 #@! TD*
G04 #@! TA.AperFunction,ViaPad*
%ADD11C,0.800000*%
G04 #@! TD*
G04 #@! TA.AperFunction,Conductor*
%ADD12C,2.000000*%
G04 #@! TD*
G04 #@! TA.AperFunction,Conductor*
%ADD13C,0.250000*%
G04 #@! TD*
G04 #@! TA.AperFunction,Conductor*
%ADD14C,0.254000*%
G04 #@! TD*
G04 #@! TA.AperFunction,Conductor*
%ADD15C,0.100000*%
G04 #@! TD*
G04 APERTURE END LIST*
D10*
G04 #@! TO.N,KEY5-1*
G04 #@! TO.C,J3*
X224060000Y-72960000D03*
G04 #@! TO.N,KEY4-11*
X224060000Y-70960000D03*
G04 #@! TO.N,KEY3-9*
X224060000Y-68960000D03*
G04 #@! TO.N,KEY2-8*
X224060000Y-66960000D03*
G04 #@! TO.N,KEY1-5*
X224060000Y-64960000D03*
G04 #@! TO.N,KEY0-4*
X224060000Y-62960000D03*
G04 #@! TO.N,GND*
X224060000Y-60960000D03*
G04 #@! TO.N,COM4-7*
X226060000Y-72960000D03*
G04 #@! TO.N,COM3-10*
X226060000Y-70960000D03*
G04 #@! TO.N,COM2-6*
X226060000Y-68960000D03*
G04 #@! TO.N,COM1-2*
X226060000Y-66960000D03*
G04 #@! TO.N,COM0-3*
X226060000Y-64960000D03*
G04 #@! TO.N,COIN*
X226060000Y-62960000D03*
G04 #@! TO.N,5V*
G04 #@! TA.AperFunction,ComponentPad*
G36*
G01*
X225709999Y-60360000D02*
X226410001Y-60360000D01*
G75*
G02*
X226660000Y-60609999I0J-249999D01*
G01*
X226660000Y-61310001D01*
G75*
G02*
X226410001Y-61560000I-249999J0D01*
G01*
X225709999Y-61560000D01*
G75*
G02*
X225460000Y-61310001I0J249999D01*
G01*
X225460000Y-60609999D01*
G75*
G02*
X225709999Y-60360000I249999J0D01*
G01*
G37*
G04 #@! TD.AperFunction*
G04 #@! TD*
D11*
G04 #@! TO.N,12V*
X209923091Y-59607040D03*
X166981081Y-63476980D03*
X161313020Y-63476980D03*
X163853020Y-63476980D03*
X208197040Y-59607040D03*
G04 #@! TO.N,GND*
X156210000Y-71120000D03*
X126760000Y-73900000D03*
X126760000Y-58660000D03*
X122800000Y-58810000D03*
X122800000Y-74050000D03*
X126760000Y-70090000D03*
X126760000Y-63740000D03*
X122800000Y-63890000D03*
X122800000Y-70240000D03*
X213880000Y-73140000D03*
X158440000Y-75240000D03*
X154480000Y-75390000D03*
X213880000Y-74410000D03*
X154622500Y-72707500D03*
X157797500Y-72707500D03*
X229720000Y-59205000D03*
X229720000Y-57935000D03*
G04 #@! TO.N,5V*
X149860000Y-73660000D03*
X147320000Y-74930000D03*
X135890000Y-73660000D03*
X130810000Y-73660000D03*
X134680000Y-74870000D03*
X130810000Y-74930000D03*
X146560000Y-75690000D03*
X150520000Y-74905000D03*
X219075000Y-59055000D03*
X217840000Y-57820000D03*
G04 #@! TO.N,BLUE*
X197861835Y-69117645D03*
X196325703Y-68469297D03*
G04 #@! TO.N,SPK+*
X191770000Y-59055000D03*
X191770000Y-57785000D03*
G04 #@! TO.N,TEST*
X189829649Y-73458922D03*
X189921591Y-61292473D03*
G04 #@! TO.N,RED*
X200660000Y-64770000D03*
X199390000Y-63500000D03*
G04 #@! TO.N,COIN*
X214630000Y-58420000D03*
X171626430Y-57697278D03*
G04 #@! TO.N,GREEN*
X187796231Y-66016595D03*
X186337182Y-66031041D03*
G04 #@! TO.N,COM1-2*
X154961734Y-65130971D03*
G04 #@! TO.N,COM3-10*
X152702700Y-63133097D03*
G04 #@! TO.N,SYNC*
X184150000Y-71120000D03*
X185420000Y-71120000D03*
G04 #@! TO.N,SPK-*
X195580000Y-73660000D03*
X195580000Y-74930000D03*
G04 #@! TO.N,SERVICE*
X189748069Y-59853333D03*
X209550000Y-63500000D03*
G04 #@! TO.N,COM4-7*
X151840872Y-61892587D03*
G04 #@! TO.N,KEY2-8*
X182592678Y-75113073D03*
G04 #@! TO.N,KEY4-11*
X174242060Y-75193495D03*
G04 #@! TO.N,KEY0-4*
X190443096Y-75437173D03*
G04 #@! TO.N,KEY5-1*
X170405561Y-74877300D03*
G04 #@! TO.N,KEY1-5*
X186914009Y-75365151D03*
G04 #@! TO.N,COM2-6*
X154000000Y-64000000D03*
G04 #@! TO.N,COM0-3*
X156241419Y-64099389D03*
G04 #@! TO.N,KEY3-9*
X178239174Y-75290359D03*
G04 #@! TD*
D12*
G04 #@! TO.N,12V*
X196932960Y-59607040D02*
X193063020Y-63476980D01*
X193063020Y-63476980D02*
X166981081Y-63476980D01*
X166981081Y-63476980D02*
X161313020Y-63476980D01*
X208197040Y-59607040D02*
X196932960Y-59607040D01*
D13*
G04 #@! TO.N,COIN*
X214630000Y-58420000D02*
X212839241Y-56629241D01*
X212839241Y-56629241D02*
X172651746Y-56629241D01*
X171626430Y-57654557D02*
X171626430Y-57697278D01*
X172651746Y-56629241D02*
X171626430Y-57654557D01*
G04 #@! TO.N,KEY2-8*
X182592678Y-75329140D02*
X182592678Y-75113073D01*
X216659172Y-77597839D02*
X184861377Y-77597839D01*
X217709089Y-72356772D02*
X217709089Y-76547922D01*
X221485861Y-68580000D02*
X217709089Y-72356772D01*
X184861377Y-77597839D02*
X182592678Y-75329140D01*
X221503427Y-68580000D02*
X221485861Y-68580000D01*
X222198426Y-67885001D02*
X221503427Y-68580000D01*
X223134999Y-67885001D02*
X222198426Y-67885001D01*
X217709089Y-76547922D02*
X216659172Y-77597839D01*
X224060000Y-66960000D02*
X223134999Y-67885001D01*
G04 #@! TO.N,KEY4-11*
X224060000Y-70960000D02*
X222525839Y-70960000D01*
X222525839Y-70960000D02*
X219645316Y-73840523D01*
X219645316Y-76607934D02*
X219640308Y-76612942D01*
X219645316Y-73840523D02*
X219645316Y-76607934D01*
X219640308Y-76612942D02*
X219640308Y-77698276D01*
X219640308Y-77698276D02*
X217760705Y-79577879D01*
X178626444Y-79577879D02*
X174242060Y-75193495D01*
X217760705Y-79577879D02*
X178626444Y-79577879D01*
G04 #@! TO.N,KEY0-4*
X224060000Y-62960000D02*
X215900000Y-71120000D01*
X215900000Y-71120000D02*
X215900000Y-73463002D01*
X215900000Y-73463002D02*
X215900000Y-76200000D01*
X215900000Y-76200000D02*
X191770000Y-76200000D01*
X191205923Y-76200000D02*
X190443096Y-75437173D01*
X191770000Y-76200000D02*
X191205923Y-76200000D01*
G04 #@! TO.N,KEY5-1*
X224060000Y-72960000D02*
X222513541Y-72960000D01*
X222513541Y-72960000D02*
X220596241Y-74877300D01*
X220596241Y-74877300D02*
X220596241Y-78397605D01*
X220596241Y-78397605D02*
X218382877Y-80610969D01*
X176139230Y-80610969D02*
X170405561Y-74877300D01*
X218382877Y-80610969D02*
X176139230Y-80610969D01*
G04 #@! TO.N,KEY1-5*
X224060000Y-64960000D02*
X216911250Y-72108750D01*
X216911250Y-75825160D02*
X215894804Y-76841606D01*
X216911250Y-72108750D02*
X216911250Y-75825160D01*
X215894804Y-76841606D02*
X188426475Y-76841606D01*
X186950020Y-75365151D02*
X186914009Y-75365151D01*
X188426475Y-76841606D02*
X186950020Y-75365151D01*
G04 #@! TO.N,KEY3-9*
X224060000Y-68960000D02*
X222379176Y-68960000D01*
X222379176Y-68960000D02*
X222247676Y-68960000D01*
X222247676Y-68960000D02*
X218499576Y-72708100D01*
X218499576Y-72708100D02*
X218499576Y-77117264D01*
X218499576Y-77117264D02*
X217146965Y-78469875D01*
X217146965Y-78469875D02*
X181471389Y-78469875D01*
X178291873Y-75290359D02*
X178239174Y-75290359D01*
X181471389Y-78469875D02*
X178291873Y-75290359D01*
G04 #@! TD*
D14*
G04 #@! TO.N,5V*
X170631204Y-57395380D02*
X170591430Y-57595339D01*
X170591430Y-57799217D01*
X170631204Y-57999176D01*
X170709225Y-58187534D01*
X170822493Y-58357052D01*
X170966656Y-58501215D01*
X171136174Y-58614483D01*
X171324532Y-58692504D01*
X171524491Y-58732278D01*
X171728369Y-58732278D01*
X171928328Y-58692504D01*
X172116686Y-58614483D01*
X172286204Y-58501215D01*
X172430367Y-58357052D01*
X172543635Y-58187534D01*
X172621656Y-57999176D01*
X172661430Y-57799217D01*
X172661430Y-57694358D01*
X172966548Y-57389241D01*
X190813653Y-57389241D01*
X190774774Y-57483102D01*
X190735000Y-57683061D01*
X190735000Y-57886939D01*
X190774774Y-58086898D01*
X190852795Y-58275256D01*
X190949510Y-58420000D01*
X190852795Y-58564744D01*
X190774774Y-58753102D01*
X190735000Y-58953061D01*
X190735000Y-59156939D01*
X190774774Y-59356898D01*
X190852795Y-59545256D01*
X190966063Y-59714774D01*
X191110226Y-59858937D01*
X191279744Y-59972205D01*
X191468102Y-60050226D01*
X191668061Y-60090000D01*
X191871939Y-60090000D01*
X192071898Y-60050226D01*
X192260256Y-59972205D01*
X192429774Y-59858937D01*
X192573937Y-59714774D01*
X192687205Y-59545256D01*
X192765226Y-59356898D01*
X192805000Y-59156939D01*
X192805000Y-58953061D01*
X192765226Y-58753102D01*
X192687205Y-58564744D01*
X192590490Y-58420000D01*
X192687205Y-58275256D01*
X192765226Y-58086898D01*
X192805000Y-57886939D01*
X192805000Y-57683061D01*
X192765226Y-57483102D01*
X192726347Y-57389241D01*
X212524440Y-57389241D01*
X213595000Y-58459802D01*
X213595000Y-58521939D01*
X213634774Y-58721898D01*
X213712795Y-58910256D01*
X213826063Y-59079774D01*
X213970226Y-59223937D01*
X214139744Y-59337205D01*
X214328102Y-59415226D01*
X214528061Y-59455000D01*
X214731939Y-59455000D01*
X214931898Y-59415226D01*
X215120256Y-59337205D01*
X215289774Y-59223937D01*
X215433937Y-59079774D01*
X215547205Y-58910256D01*
X215625226Y-58721898D01*
X215665000Y-58521939D01*
X215665000Y-58318061D01*
X215625226Y-58118102D01*
X215547205Y-57929744D01*
X215433937Y-57760226D01*
X215289774Y-57616063D01*
X215120256Y-57502795D01*
X214931898Y-57424774D01*
X214731939Y-57385000D01*
X214669802Y-57385000D01*
X214561802Y-57277000D01*
X228914878Y-57277000D01*
X228802795Y-57444744D01*
X228724774Y-57633102D01*
X228685000Y-57833061D01*
X228685000Y-58036939D01*
X228724774Y-58236898D01*
X228802795Y-58425256D01*
X228899510Y-58570000D01*
X228802795Y-58714744D01*
X228724774Y-58903102D01*
X228685000Y-59103061D01*
X228685000Y-59306939D01*
X228724774Y-59506898D01*
X228802795Y-59695256D01*
X228916063Y-59864774D01*
X229060226Y-60008937D01*
X229229744Y-60122205D01*
X229418102Y-60200226D01*
X229618061Y-60240000D01*
X229821939Y-60240000D01*
X230021898Y-60200226D01*
X230210256Y-60122205D01*
X230379774Y-60008937D01*
X230523937Y-59864774D01*
X230637205Y-59695256D01*
X230715226Y-59506898D01*
X230734000Y-59412512D01*
X230734001Y-76073000D01*
X221356241Y-76073000D01*
X221356241Y-75192101D01*
X222828343Y-73720000D01*
X223082494Y-73720000D01*
X223100713Y-73747267D01*
X223272733Y-73919287D01*
X223475008Y-74054443D01*
X223699764Y-74147540D01*
X223938363Y-74195000D01*
X224181637Y-74195000D01*
X224420236Y-74147540D01*
X224644992Y-74054443D01*
X224847267Y-73919287D01*
X225019287Y-73747267D01*
X225060000Y-73686336D01*
X225100713Y-73747267D01*
X225272733Y-73919287D01*
X225475008Y-74054443D01*
X225699764Y-74147540D01*
X225938363Y-74195000D01*
X226181637Y-74195000D01*
X226420236Y-74147540D01*
X226644992Y-74054443D01*
X226847267Y-73919287D01*
X227019287Y-73747267D01*
X227154443Y-73544992D01*
X227247540Y-73320236D01*
X227295000Y-73081637D01*
X227295000Y-72838363D01*
X227247540Y-72599764D01*
X227154443Y-72375008D01*
X227019287Y-72172733D01*
X226847267Y-72000713D01*
X226786336Y-71960000D01*
X226847267Y-71919287D01*
X227019287Y-71747267D01*
X227154443Y-71544992D01*
X227247540Y-71320236D01*
X227295000Y-71081637D01*
X227295000Y-70838363D01*
X227247540Y-70599764D01*
X227154443Y-70375008D01*
X227019287Y-70172733D01*
X226847267Y-70000713D01*
X226786336Y-69960000D01*
X226847267Y-69919287D01*
X227019287Y-69747267D01*
X227154443Y-69544992D01*
X227247540Y-69320236D01*
X227295000Y-69081637D01*
X227295000Y-68838363D01*
X227247540Y-68599764D01*
X227154443Y-68375008D01*
X227019287Y-68172733D01*
X226847267Y-68000713D01*
X226786336Y-67960000D01*
X226847267Y-67919287D01*
X227019287Y-67747267D01*
X227154443Y-67544992D01*
X227247540Y-67320236D01*
X227295000Y-67081637D01*
X227295000Y-66838363D01*
X227247540Y-66599764D01*
X227154443Y-66375008D01*
X227019287Y-66172733D01*
X226847267Y-66000713D01*
X226786336Y-65960000D01*
X226847267Y-65919287D01*
X227019287Y-65747267D01*
X227154443Y-65544992D01*
X227247540Y-65320236D01*
X227295000Y-65081637D01*
X227295000Y-64838363D01*
X227247540Y-64599764D01*
X227154443Y-64375008D01*
X227019287Y-64172733D01*
X226847267Y-64000713D01*
X226786336Y-63960000D01*
X226847267Y-63919287D01*
X227019287Y-63747267D01*
X227154443Y-63544992D01*
X227247540Y-63320236D01*
X227295000Y-63081637D01*
X227295000Y-62838363D01*
X227247540Y-62599764D01*
X227154443Y-62375008D01*
X227019287Y-62172733D01*
X226964053Y-62117499D01*
X227014494Y-62090537D01*
X227111185Y-62011185D01*
X227190537Y-61914494D01*
X227249502Y-61804180D01*
X227285812Y-61684482D01*
X227298072Y-61560000D01*
X227295000Y-61245750D01*
X227136250Y-61087000D01*
X226187000Y-61087000D01*
X226187000Y-61107000D01*
X225933000Y-61107000D01*
X225933000Y-61087000D01*
X225913000Y-61087000D01*
X225913000Y-60833000D01*
X225933000Y-60833000D01*
X225933000Y-59883750D01*
X226187000Y-59883750D01*
X226187000Y-60833000D01*
X227136250Y-60833000D01*
X227295000Y-60674250D01*
X227298072Y-60360000D01*
X227285812Y-60235518D01*
X227249502Y-60115820D01*
X227190537Y-60005506D01*
X227111185Y-59908815D01*
X227014494Y-59829463D01*
X226904180Y-59770498D01*
X226784482Y-59734188D01*
X226660000Y-59721928D01*
X226345750Y-59725000D01*
X226187000Y-59883750D01*
X225933000Y-59883750D01*
X225774250Y-59725000D01*
X225460000Y-59721928D01*
X225335518Y-59734188D01*
X225215820Y-59770498D01*
X225105506Y-59829463D01*
X225008815Y-59908815D01*
X224929463Y-60005506D01*
X224902501Y-60055947D01*
X224847267Y-60000713D01*
X224644992Y-59865557D01*
X224420236Y-59772460D01*
X224181637Y-59725000D01*
X223938363Y-59725000D01*
X223699764Y-59772460D01*
X223475008Y-59865557D01*
X223272733Y-60000713D01*
X223100713Y-60172733D01*
X222965557Y-60375008D01*
X222872460Y-60599764D01*
X222825000Y-60838363D01*
X222825000Y-61081637D01*
X222872460Y-61320236D01*
X222965557Y-61544992D01*
X223100713Y-61747267D01*
X223272733Y-61919287D01*
X223333664Y-61960000D01*
X223272733Y-62000713D01*
X223100713Y-62172733D01*
X222965557Y-62375008D01*
X222872460Y-62599764D01*
X222825000Y-62838363D01*
X222825000Y-63081637D01*
X222831398Y-63113800D01*
X215389003Y-70556196D01*
X215359999Y-70579999D01*
X215319175Y-70629744D01*
X215265026Y-70695724D01*
X215203402Y-70811014D01*
X215194454Y-70827754D01*
X215150997Y-70971015D01*
X215140000Y-71082668D01*
X215140000Y-71082678D01*
X215136324Y-71120000D01*
X215140000Y-71157323D01*
X215140001Y-73425660D01*
X215140000Y-73425670D01*
X215140001Y-75440000D01*
X214007076Y-75440000D01*
X214181898Y-75405226D01*
X214370256Y-75327205D01*
X214539774Y-75213937D01*
X214683937Y-75069774D01*
X214797205Y-74900256D01*
X214875226Y-74711898D01*
X214915000Y-74511939D01*
X214915000Y-74308061D01*
X214875226Y-74108102D01*
X214797205Y-73919744D01*
X214700490Y-73775000D01*
X214797205Y-73630256D01*
X214875226Y-73441898D01*
X214915000Y-73241939D01*
X214915000Y-73038061D01*
X214875226Y-72838102D01*
X214797205Y-72649744D01*
X214683937Y-72480226D01*
X214539774Y-72336063D01*
X214370256Y-72222795D01*
X214181898Y-72144774D01*
X213981939Y-72105000D01*
X213778061Y-72105000D01*
X213578102Y-72144774D01*
X213389744Y-72222795D01*
X213220226Y-72336063D01*
X213076063Y-72480226D01*
X212962795Y-72649744D01*
X212884774Y-72838102D01*
X212845000Y-73038061D01*
X212845000Y-73241939D01*
X212884774Y-73441898D01*
X212962795Y-73630256D01*
X213059510Y-73775000D01*
X212962795Y-73919744D01*
X212884774Y-74108102D01*
X212845000Y-74308061D01*
X212845000Y-74511939D01*
X212884774Y-74711898D01*
X212962795Y-74900256D01*
X213076063Y-75069774D01*
X213220226Y-75213937D01*
X213389744Y-75327205D01*
X213578102Y-75405226D01*
X213752924Y-75440000D01*
X196484013Y-75440000D01*
X196497205Y-75420256D01*
X196575226Y-75231898D01*
X196615000Y-75031939D01*
X196615000Y-74828061D01*
X196575226Y-74628102D01*
X196497205Y-74439744D01*
X196400490Y-74295000D01*
X196497205Y-74150256D01*
X196575226Y-73961898D01*
X196615000Y-73761939D01*
X196615000Y-73558061D01*
X196575226Y-73358102D01*
X196497205Y-73169744D01*
X196383937Y-73000226D01*
X196239774Y-72856063D01*
X196070256Y-72742795D01*
X195881898Y-72664774D01*
X195681939Y-72625000D01*
X195478061Y-72625000D01*
X195278102Y-72664774D01*
X195089744Y-72742795D01*
X194920226Y-72856063D01*
X194776063Y-73000226D01*
X194662795Y-73169744D01*
X194584774Y-73358102D01*
X194545000Y-73558061D01*
X194545000Y-73761939D01*
X194584774Y-73961898D01*
X194662795Y-74150256D01*
X194759510Y-74295000D01*
X194662795Y-74439744D01*
X194584774Y-74628102D01*
X194545000Y-74828061D01*
X194545000Y-75031939D01*
X194584774Y-75231898D01*
X194662795Y-75420256D01*
X194675987Y-75440000D01*
X191520725Y-75440000D01*
X191478096Y-75397371D01*
X191478096Y-75335234D01*
X191438322Y-75135275D01*
X191360301Y-74946917D01*
X191247033Y-74777399D01*
X191102870Y-74633236D01*
X190933352Y-74519968D01*
X190744994Y-74441947D01*
X190545035Y-74402173D01*
X190341157Y-74402173D01*
X190179299Y-74434368D01*
X190319905Y-74376127D01*
X190489423Y-74262859D01*
X190633586Y-74118696D01*
X190746854Y-73949178D01*
X190824875Y-73760820D01*
X190864649Y-73560861D01*
X190864649Y-73356983D01*
X190824875Y-73157024D01*
X190746854Y-72968666D01*
X190633586Y-72799148D01*
X190489423Y-72654985D01*
X190319905Y-72541717D01*
X190131547Y-72463696D01*
X189931588Y-72423922D01*
X189727710Y-72423922D01*
X189527751Y-72463696D01*
X189339393Y-72541717D01*
X189169875Y-72654985D01*
X189025712Y-72799148D01*
X188912444Y-72968666D01*
X188834423Y-73157024D01*
X188794649Y-73356983D01*
X188794649Y-73560861D01*
X188834423Y-73760820D01*
X188912444Y-73949178D01*
X189025712Y-74118696D01*
X189169875Y-74262859D01*
X189339393Y-74376127D01*
X189527751Y-74454148D01*
X189727710Y-74493922D01*
X189931588Y-74493922D01*
X190093446Y-74461727D01*
X189952840Y-74519968D01*
X189783322Y-74633236D01*
X189639159Y-74777399D01*
X189525891Y-74946917D01*
X189447870Y-75135275D01*
X189408096Y-75335234D01*
X189408096Y-75539112D01*
X189447870Y-75739071D01*
X189525891Y-75927429D01*
X189623158Y-76073000D01*
X188732671Y-76073000D01*
X187949009Y-75289339D01*
X187949009Y-75263212D01*
X187909235Y-75063253D01*
X187831214Y-74874895D01*
X187717946Y-74705377D01*
X187573783Y-74561214D01*
X187404265Y-74447946D01*
X187215907Y-74369925D01*
X187015948Y-74330151D01*
X186812070Y-74330151D01*
X186612111Y-74369925D01*
X186423753Y-74447946D01*
X186254235Y-74561214D01*
X186110072Y-74705377D01*
X185996804Y-74874895D01*
X185918783Y-75063253D01*
X185879009Y-75263212D01*
X185879009Y-75467090D01*
X185918783Y-75667049D01*
X185996804Y-75855407D01*
X186110072Y-76024925D01*
X186158147Y-76073000D01*
X184411339Y-76073000D01*
X183615346Y-75277007D01*
X183627678Y-75215012D01*
X183627678Y-75011134D01*
X183587904Y-74811175D01*
X183509883Y-74622817D01*
X183396615Y-74453299D01*
X183252452Y-74309136D01*
X183082934Y-74195868D01*
X182894576Y-74117847D01*
X182694617Y-74078073D01*
X182490739Y-74078073D01*
X182290780Y-74117847D01*
X182102422Y-74195868D01*
X181932904Y-74309136D01*
X181788741Y-74453299D01*
X181675473Y-74622817D01*
X181597452Y-74811175D01*
X181557678Y-75011134D01*
X181557678Y-75215012D01*
X181597452Y-75414971D01*
X181675473Y-75603329D01*
X181788741Y-75772847D01*
X181932904Y-75917010D01*
X182102422Y-76030278D01*
X182205561Y-76073000D01*
X180149315Y-76073000D01*
X179274174Y-75197859D01*
X179274174Y-75188420D01*
X179234400Y-74988461D01*
X179156379Y-74800103D01*
X179043111Y-74630585D01*
X178898948Y-74486422D01*
X178729430Y-74373154D01*
X178541072Y-74295133D01*
X178341113Y-74255359D01*
X178137235Y-74255359D01*
X177937276Y-74295133D01*
X177748918Y-74373154D01*
X177579400Y-74486422D01*
X177435237Y-74630585D01*
X177321969Y-74800103D01*
X177243948Y-74988461D01*
X177204174Y-75188420D01*
X177204174Y-75392298D01*
X177243948Y-75592257D01*
X177321969Y-75780615D01*
X177435237Y-75950133D01*
X177558104Y-76073000D01*
X176196366Y-76073000D01*
X175277060Y-75153694D01*
X175277060Y-75091556D01*
X175237286Y-74891597D01*
X175159265Y-74703239D01*
X175045997Y-74533721D01*
X174901834Y-74389558D01*
X174732316Y-74276290D01*
X174543958Y-74198269D01*
X174343999Y-74158495D01*
X174140121Y-74158495D01*
X173940162Y-74198269D01*
X173751804Y-74276290D01*
X173582286Y-74389558D01*
X173438123Y-74533721D01*
X173324855Y-74703239D01*
X173246834Y-74891597D01*
X173207060Y-75091556D01*
X173207060Y-75295434D01*
X173246834Y-75495393D01*
X173324855Y-75683751D01*
X173438123Y-75853269D01*
X173582286Y-75997432D01*
X173695382Y-76073000D01*
X172676062Y-76073000D01*
X171440561Y-74837499D01*
X171440561Y-74775361D01*
X171400787Y-74575402D01*
X171322766Y-74387044D01*
X171209498Y-74217526D01*
X171065335Y-74073363D01*
X170895817Y-73960095D01*
X170707459Y-73882074D01*
X170507500Y-73842300D01*
X170303622Y-73842300D01*
X170103663Y-73882074D01*
X169915305Y-73960095D01*
X169745787Y-74073363D01*
X169601624Y-74217526D01*
X169488356Y-74387044D01*
X169410335Y-74575402D01*
X169370561Y-74775361D01*
X169370561Y-74979239D01*
X169410335Y-75179198D01*
X169488356Y-75367556D01*
X169601624Y-75537074D01*
X169745787Y-75681237D01*
X169915305Y-75794505D01*
X170103663Y-75872526D01*
X170303622Y-75912300D01*
X170365760Y-75912300D01*
X170526460Y-76073000D01*
X159056278Y-76073000D01*
X159099774Y-76043937D01*
X159243937Y-75899774D01*
X159357205Y-75730256D01*
X159435226Y-75541898D01*
X159475000Y-75341939D01*
X159475000Y-75138061D01*
X159435226Y-74938102D01*
X159357205Y-74749744D01*
X159243937Y-74580226D01*
X159099774Y-74436063D01*
X158930256Y-74322795D01*
X158741898Y-74244774D01*
X158541939Y-74205000D01*
X158338061Y-74205000D01*
X158138102Y-74244774D01*
X157949744Y-74322795D01*
X157780226Y-74436063D01*
X157636063Y-74580226D01*
X157522795Y-74749744D01*
X157444774Y-74938102D01*
X157405000Y-75138061D01*
X157405000Y-75341939D01*
X157444774Y-75541898D01*
X157522795Y-75730256D01*
X157636063Y-75899774D01*
X157780226Y-76043937D01*
X157823722Y-76073000D01*
X155260711Y-76073000D01*
X155283937Y-76049774D01*
X155397205Y-75880256D01*
X155475226Y-75691898D01*
X155515000Y-75491939D01*
X155515000Y-75288061D01*
X155475226Y-75088102D01*
X155397205Y-74899744D01*
X155283937Y-74730226D01*
X155139774Y-74586063D01*
X154970256Y-74472795D01*
X154781898Y-74394774D01*
X154581939Y-74355000D01*
X154378061Y-74355000D01*
X154178102Y-74394774D01*
X153989744Y-74472795D01*
X153820226Y-74586063D01*
X153676063Y-74730226D01*
X153562795Y-74899744D01*
X153484774Y-75088102D01*
X153445000Y-75288061D01*
X153445000Y-75491939D01*
X153484774Y-75691898D01*
X153562795Y-75880256D01*
X153676063Y-76049774D01*
X153699289Y-76073000D01*
X122047000Y-76073000D01*
X122047000Y-74760711D01*
X122140226Y-74853937D01*
X122309744Y-74967205D01*
X122498102Y-75045226D01*
X122698061Y-75085000D01*
X122901939Y-75085000D01*
X123101898Y-75045226D01*
X123290256Y-74967205D01*
X123459774Y-74853937D01*
X123603937Y-74709774D01*
X123717205Y-74540256D01*
X123795226Y-74351898D01*
X123835000Y-74151939D01*
X123835000Y-73948061D01*
X123805164Y-73798061D01*
X125725000Y-73798061D01*
X125725000Y-74001939D01*
X125764774Y-74201898D01*
X125842795Y-74390256D01*
X125956063Y-74559774D01*
X126100226Y-74703937D01*
X126269744Y-74817205D01*
X126458102Y-74895226D01*
X126658061Y-74935000D01*
X126861939Y-74935000D01*
X127061898Y-74895226D01*
X127250256Y-74817205D01*
X127419774Y-74703937D01*
X127563937Y-74559774D01*
X127677205Y-74390256D01*
X127755226Y-74201898D01*
X127795000Y-74001939D01*
X127795000Y-73798061D01*
X127755226Y-73598102D01*
X127677205Y-73409744D01*
X127563937Y-73240226D01*
X127419774Y-73096063D01*
X127250256Y-72982795D01*
X127061898Y-72904774D01*
X126861939Y-72865000D01*
X126658061Y-72865000D01*
X126458102Y-72904774D01*
X126269744Y-72982795D01*
X126100226Y-73096063D01*
X125956063Y-73240226D01*
X125842795Y-73409744D01*
X125764774Y-73598102D01*
X125725000Y-73798061D01*
X123805164Y-73798061D01*
X123795226Y-73748102D01*
X123717205Y-73559744D01*
X123603937Y-73390226D01*
X123459774Y-73246063D01*
X123290256Y-73132795D01*
X123101898Y-73054774D01*
X122901939Y-73015000D01*
X122698061Y-73015000D01*
X122498102Y-73054774D01*
X122309744Y-73132795D01*
X122140226Y-73246063D01*
X122047000Y-73339289D01*
X122047000Y-72605561D01*
X153587500Y-72605561D01*
X153587500Y-72809439D01*
X153627274Y-73009398D01*
X153705295Y-73197756D01*
X153818563Y-73367274D01*
X153962726Y-73511437D01*
X154132244Y-73624705D01*
X154320602Y-73702726D01*
X154520561Y-73742500D01*
X154724439Y-73742500D01*
X154924398Y-73702726D01*
X155112756Y-73624705D01*
X155282274Y-73511437D01*
X155426437Y-73367274D01*
X155539705Y-73197756D01*
X155617726Y-73009398D01*
X155657500Y-72809439D01*
X155657500Y-72605561D01*
X156762500Y-72605561D01*
X156762500Y-72809439D01*
X156802274Y-73009398D01*
X156880295Y-73197756D01*
X156993563Y-73367274D01*
X157137726Y-73511437D01*
X157307244Y-73624705D01*
X157495602Y-73702726D01*
X157695561Y-73742500D01*
X157899439Y-73742500D01*
X158099398Y-73702726D01*
X158287756Y-73624705D01*
X158457274Y-73511437D01*
X158601437Y-73367274D01*
X158714705Y-73197756D01*
X158792726Y-73009398D01*
X158832500Y-72809439D01*
X158832500Y-72605561D01*
X158792726Y-72405602D01*
X158714705Y-72217244D01*
X158601437Y-72047726D01*
X158457274Y-71903563D01*
X158287756Y-71790295D01*
X158099398Y-71712274D01*
X157899439Y-71672500D01*
X157695561Y-71672500D01*
X157495602Y-71712274D01*
X157307244Y-71790295D01*
X157137726Y-71903563D01*
X156993563Y-72047726D01*
X156880295Y-72217244D01*
X156802274Y-72405602D01*
X156762500Y-72605561D01*
X155657500Y-72605561D01*
X155617726Y-72405602D01*
X155539705Y-72217244D01*
X155426437Y-72047726D01*
X155282274Y-71903563D01*
X155112756Y-71790295D01*
X154924398Y-71712274D01*
X154724439Y-71672500D01*
X154520561Y-71672500D01*
X154320602Y-71712274D01*
X154132244Y-71790295D01*
X153962726Y-71903563D01*
X153818563Y-72047726D01*
X153705295Y-72217244D01*
X153627274Y-72405602D01*
X153587500Y-72605561D01*
X122047000Y-72605561D01*
X122047000Y-70950711D01*
X122140226Y-71043937D01*
X122309744Y-71157205D01*
X122498102Y-71235226D01*
X122698061Y-71275000D01*
X122901939Y-71275000D01*
X123101898Y-71235226D01*
X123290256Y-71157205D01*
X123459774Y-71043937D01*
X123603937Y-70899774D01*
X123717205Y-70730256D01*
X123795226Y-70541898D01*
X123835000Y-70341939D01*
X123835000Y-70138061D01*
X123805164Y-69988061D01*
X125725000Y-69988061D01*
X125725000Y-70191939D01*
X125764774Y-70391898D01*
X125842795Y-70580256D01*
X125956063Y-70749774D01*
X126100226Y-70893937D01*
X126269744Y-71007205D01*
X126458102Y-71085226D01*
X126658061Y-71125000D01*
X126861939Y-71125000D01*
X127061898Y-71085226D01*
X127224047Y-71018061D01*
X155175000Y-71018061D01*
X155175000Y-71221939D01*
X155214774Y-71421898D01*
X155292795Y-71610256D01*
X155406063Y-71779774D01*
X155550226Y-71923937D01*
X155719744Y-72037205D01*
X155908102Y-72115226D01*
X156108061Y-72155000D01*
X156311939Y-72155000D01*
X156511898Y-72115226D01*
X156700256Y-72037205D01*
X156869774Y-71923937D01*
X157013937Y-71779774D01*
X157127205Y-71610256D01*
X157205226Y-71421898D01*
X157245000Y-71221939D01*
X157245000Y-71018061D01*
X183115000Y-71018061D01*
X183115000Y-71221939D01*
X183154774Y-71421898D01*
X183232795Y-71610256D01*
X183346063Y-71779774D01*
X183490226Y-71923937D01*
X183659744Y-72037205D01*
X183848102Y-72115226D01*
X184048061Y-72155000D01*
X184251939Y-72155000D01*
X184451898Y-72115226D01*
X184640256Y-72037205D01*
X184785000Y-71940490D01*
X184929744Y-72037205D01*
X185118102Y-72115226D01*
X185318061Y-72155000D01*
X185521939Y-72155000D01*
X185721898Y-72115226D01*
X185910256Y-72037205D01*
X186079774Y-71923937D01*
X186223937Y-71779774D01*
X186337205Y-71610256D01*
X186415226Y-71421898D01*
X186455000Y-71221939D01*
X186455000Y-71018061D01*
X186415226Y-70818102D01*
X186337205Y-70629744D01*
X186223937Y-70460226D01*
X186079774Y-70316063D01*
X185910256Y-70202795D01*
X185721898Y-70124774D01*
X185521939Y-70085000D01*
X185318061Y-70085000D01*
X185118102Y-70124774D01*
X184929744Y-70202795D01*
X184785000Y-70299510D01*
X184640256Y-70202795D01*
X184451898Y-70124774D01*
X184251939Y-70085000D01*
X184048061Y-70085000D01*
X183848102Y-70124774D01*
X183659744Y-70202795D01*
X183490226Y-70316063D01*
X183346063Y-70460226D01*
X183232795Y-70629744D01*
X183154774Y-70818102D01*
X183115000Y-71018061D01*
X157245000Y-71018061D01*
X157205226Y-70818102D01*
X157127205Y-70629744D01*
X157013937Y-70460226D01*
X156869774Y-70316063D01*
X156700256Y-70202795D01*
X156511898Y-70124774D01*
X156311939Y-70085000D01*
X156108061Y-70085000D01*
X155908102Y-70124774D01*
X155719744Y-70202795D01*
X155550226Y-70316063D01*
X155406063Y-70460226D01*
X155292795Y-70629744D01*
X155214774Y-70818102D01*
X155175000Y-71018061D01*
X127224047Y-71018061D01*
X127250256Y-71007205D01*
X127419774Y-70893937D01*
X127563937Y-70749774D01*
X127677205Y-70580256D01*
X127755226Y-70391898D01*
X127795000Y-70191939D01*
X127795000Y-69988061D01*
X127755226Y-69788102D01*
X127677205Y-69599744D01*
X127563937Y-69430226D01*
X127419774Y-69286063D01*
X127250256Y-69172795D01*
X127061898Y-69094774D01*
X126861939Y-69055000D01*
X126658061Y-69055000D01*
X126458102Y-69094774D01*
X126269744Y-69172795D01*
X126100226Y-69286063D01*
X125956063Y-69430226D01*
X125842795Y-69599744D01*
X125764774Y-69788102D01*
X125725000Y-69988061D01*
X123805164Y-69988061D01*
X123795226Y-69938102D01*
X123717205Y-69749744D01*
X123603937Y-69580226D01*
X123459774Y-69436063D01*
X123290256Y-69322795D01*
X123101898Y-69244774D01*
X122901939Y-69205000D01*
X122698061Y-69205000D01*
X122498102Y-69244774D01*
X122309744Y-69322795D01*
X122140226Y-69436063D01*
X122047000Y-69529289D01*
X122047000Y-68367358D01*
X195290703Y-68367358D01*
X195290703Y-68571236D01*
X195330477Y-68771195D01*
X195408498Y-68959553D01*
X195521766Y-69129071D01*
X195665929Y-69273234D01*
X195835447Y-69386502D01*
X196023805Y-69464523D01*
X196223764Y-69504297D01*
X196427642Y-69504297D01*
X196627601Y-69464523D01*
X196815959Y-69386502D01*
X196854866Y-69360505D01*
X196866609Y-69419543D01*
X196944630Y-69607901D01*
X197057898Y-69777419D01*
X197202061Y-69921582D01*
X197371579Y-70034850D01*
X197559937Y-70112871D01*
X197759896Y-70152645D01*
X197963774Y-70152645D01*
X198163733Y-70112871D01*
X198352091Y-70034850D01*
X198521609Y-69921582D01*
X198665772Y-69777419D01*
X198779040Y-69607901D01*
X198857061Y-69419543D01*
X198896835Y-69219584D01*
X198896835Y-69015706D01*
X198857061Y-68815747D01*
X198779040Y-68627389D01*
X198665772Y-68457871D01*
X198521609Y-68313708D01*
X198352091Y-68200440D01*
X198163733Y-68122419D01*
X197963774Y-68082645D01*
X197759896Y-68082645D01*
X197559937Y-68122419D01*
X197371579Y-68200440D01*
X197332672Y-68226437D01*
X197320929Y-68167399D01*
X197242908Y-67979041D01*
X197129640Y-67809523D01*
X196985477Y-67665360D01*
X196815959Y-67552092D01*
X196627601Y-67474071D01*
X196427642Y-67434297D01*
X196223764Y-67434297D01*
X196023805Y-67474071D01*
X195835447Y-67552092D01*
X195665929Y-67665360D01*
X195521766Y-67809523D01*
X195408498Y-67979041D01*
X195330477Y-68167399D01*
X195290703Y-68367358D01*
X122047000Y-68367358D01*
X122047000Y-64600711D01*
X122140226Y-64693937D01*
X122309744Y-64807205D01*
X122498102Y-64885226D01*
X122698061Y-64925000D01*
X122901939Y-64925000D01*
X123101898Y-64885226D01*
X123290256Y-64807205D01*
X123459774Y-64693937D01*
X123603937Y-64549774D01*
X123717205Y-64380256D01*
X123795226Y-64191898D01*
X123835000Y-63991939D01*
X123835000Y-63788061D01*
X123805164Y-63638061D01*
X125725000Y-63638061D01*
X125725000Y-63841939D01*
X125764774Y-64041898D01*
X125842795Y-64230256D01*
X125956063Y-64399774D01*
X126100226Y-64543937D01*
X126269744Y-64657205D01*
X126458102Y-64735226D01*
X126658061Y-64775000D01*
X126861939Y-64775000D01*
X127061898Y-64735226D01*
X127250256Y-64657205D01*
X127419774Y-64543937D01*
X127563937Y-64399774D01*
X127677205Y-64230256D01*
X127755226Y-64041898D01*
X127795000Y-63841939D01*
X127795000Y-63638061D01*
X127755226Y-63438102D01*
X127677205Y-63249744D01*
X127563937Y-63080226D01*
X127419774Y-62936063D01*
X127250256Y-62822795D01*
X127061898Y-62744774D01*
X126861939Y-62705000D01*
X126658061Y-62705000D01*
X126458102Y-62744774D01*
X126269744Y-62822795D01*
X126100226Y-62936063D01*
X125956063Y-63080226D01*
X125842795Y-63249744D01*
X125764774Y-63438102D01*
X125725000Y-63638061D01*
X123805164Y-63638061D01*
X123795226Y-63588102D01*
X123717205Y-63399744D01*
X123603937Y-63230226D01*
X123459774Y-63086063D01*
X123290256Y-62972795D01*
X123101898Y-62894774D01*
X122901939Y-62855000D01*
X122698061Y-62855000D01*
X122498102Y-62894774D01*
X122309744Y-62972795D01*
X122140226Y-63086063D01*
X122047000Y-63179289D01*
X122047000Y-61790648D01*
X150805872Y-61790648D01*
X150805872Y-61994526D01*
X150845646Y-62194485D01*
X150923667Y-62382843D01*
X151036935Y-62552361D01*
X151181098Y-62696524D01*
X151350616Y-62809792D01*
X151538974Y-62887813D01*
X151690228Y-62917899D01*
X151667700Y-63031158D01*
X151667700Y-63235036D01*
X151707474Y-63434995D01*
X151785495Y-63623353D01*
X151898763Y-63792871D01*
X152042926Y-63937034D01*
X152212444Y-64050302D01*
X152400802Y-64128323D01*
X152600761Y-64168097D01*
X152804639Y-64168097D01*
X152971555Y-64134896D01*
X153004774Y-64301898D01*
X153082795Y-64490256D01*
X153196063Y-64659774D01*
X153340226Y-64803937D01*
X153509744Y-64917205D01*
X153698102Y-64995226D01*
X153898061Y-65035000D01*
X153926734Y-65035000D01*
X153926734Y-65232910D01*
X153966508Y-65432869D01*
X154044529Y-65621227D01*
X154157797Y-65790745D01*
X154301960Y-65934908D01*
X154471478Y-66048176D01*
X154659836Y-66126197D01*
X154859795Y-66165971D01*
X155063673Y-66165971D01*
X155263632Y-66126197D01*
X155451990Y-66048176D01*
X155621508Y-65934908D01*
X155765671Y-65790745D01*
X155878939Y-65621227D01*
X155956960Y-65432869D01*
X155996734Y-65232910D01*
X155996734Y-65105995D01*
X156139480Y-65134389D01*
X156343358Y-65134389D01*
X156543317Y-65094615D01*
X156731675Y-65016594D01*
X156901193Y-64903326D01*
X157045356Y-64759163D01*
X157158624Y-64589645D01*
X157236645Y-64401287D01*
X157276419Y-64201328D01*
X157276419Y-63997450D01*
X157236645Y-63797491D01*
X157158624Y-63609133D01*
X157070323Y-63476980D01*
X159670109Y-63476980D01*
X159701677Y-63797496D01*
X159795168Y-64105695D01*
X159946989Y-64389732D01*
X160151306Y-64638694D01*
X160400268Y-64843011D01*
X160684305Y-64994832D01*
X160992504Y-65088323D01*
X161232698Y-65111980D01*
X185851407Y-65111980D01*
X185846926Y-65113836D01*
X185677408Y-65227104D01*
X185533245Y-65371267D01*
X185419977Y-65540785D01*
X185341956Y-65729143D01*
X185302182Y-65929102D01*
X185302182Y-66132980D01*
X185341956Y-66332939D01*
X185419977Y-66521297D01*
X185533245Y-66690815D01*
X185677408Y-66834978D01*
X185846926Y-66948246D01*
X186035284Y-67026267D01*
X186235243Y-67066041D01*
X186439121Y-67066041D01*
X186639080Y-67026267D01*
X186827438Y-66948246D01*
X186996956Y-66834978D01*
X187073930Y-66758005D01*
X187136457Y-66820532D01*
X187305975Y-66933800D01*
X187494333Y-67011821D01*
X187694292Y-67051595D01*
X187898170Y-67051595D01*
X188098129Y-67011821D01*
X188286487Y-66933800D01*
X188456005Y-66820532D01*
X188600168Y-66676369D01*
X188713436Y-66506851D01*
X188791457Y-66318493D01*
X188831231Y-66118534D01*
X188831231Y-65914656D01*
X188791457Y-65714697D01*
X188713436Y-65526339D01*
X188600168Y-65356821D01*
X188456005Y-65212658D01*
X188305329Y-65111980D01*
X192982701Y-65111980D01*
X193063020Y-65119891D01*
X193143339Y-65111980D01*
X193143342Y-65111980D01*
X193383536Y-65088323D01*
X193691735Y-64994832D01*
X193975772Y-64843011D01*
X194224734Y-64638694D01*
X194275945Y-64576293D01*
X195454177Y-63398061D01*
X198355000Y-63398061D01*
X198355000Y-63601939D01*
X198394774Y-63801898D01*
X198472795Y-63990256D01*
X198586063Y-64159774D01*
X198730226Y-64303937D01*
X198899744Y-64417205D01*
X199088102Y-64495226D01*
X199288061Y-64535000D01*
X199491939Y-64535000D01*
X199658039Y-64501961D01*
X199625000Y-64668061D01*
X199625000Y-64871939D01*
X199664774Y-65071898D01*
X199742795Y-65260256D01*
X199856063Y-65429774D01*
X200000226Y-65573937D01*
X200169744Y-65687205D01*
X200358102Y-65765226D01*
X200558061Y-65805000D01*
X200761939Y-65805000D01*
X200961898Y-65765226D01*
X201150256Y-65687205D01*
X201319774Y-65573937D01*
X201463937Y-65429774D01*
X201577205Y-65260256D01*
X201655226Y-65071898D01*
X201695000Y-64871939D01*
X201695000Y-64668061D01*
X201655226Y-64468102D01*
X201577205Y-64279744D01*
X201463937Y-64110226D01*
X201319774Y-63966063D01*
X201150256Y-63852795D01*
X200961898Y-63774774D01*
X200761939Y-63735000D01*
X200558061Y-63735000D01*
X200391961Y-63768039D01*
X200425000Y-63601939D01*
X200425000Y-63398061D01*
X208515000Y-63398061D01*
X208515000Y-63601939D01*
X208554774Y-63801898D01*
X208632795Y-63990256D01*
X208746063Y-64159774D01*
X208890226Y-64303937D01*
X209059744Y-64417205D01*
X209248102Y-64495226D01*
X209448061Y-64535000D01*
X209651939Y-64535000D01*
X209851898Y-64495226D01*
X210040256Y-64417205D01*
X210209774Y-64303937D01*
X210353937Y-64159774D01*
X210467205Y-63990256D01*
X210545226Y-63801898D01*
X210585000Y-63601939D01*
X210585000Y-63398061D01*
X210545226Y-63198102D01*
X210467205Y-63009744D01*
X210353937Y-62840226D01*
X210209774Y-62696063D01*
X210040256Y-62582795D01*
X209851898Y-62504774D01*
X209651939Y-62465000D01*
X209448061Y-62465000D01*
X209248102Y-62504774D01*
X209059744Y-62582795D01*
X208890226Y-62696063D01*
X208746063Y-62840226D01*
X208632795Y-63009744D01*
X208554774Y-63198102D01*
X208515000Y-63398061D01*
X200425000Y-63398061D01*
X200385226Y-63198102D01*
X200307205Y-63009744D01*
X200193937Y-62840226D01*
X200049774Y-62696063D01*
X199880256Y-62582795D01*
X199691898Y-62504774D01*
X199491939Y-62465000D01*
X199288061Y-62465000D01*
X199088102Y-62504774D01*
X198899744Y-62582795D01*
X198730226Y-62696063D01*
X198586063Y-62840226D01*
X198472795Y-63009744D01*
X198394774Y-63198102D01*
X198355000Y-63398061D01*
X195454177Y-63398061D01*
X197610200Y-61242040D01*
X208277362Y-61242040D01*
X208517556Y-61218383D01*
X208825755Y-61124892D01*
X209109792Y-60973071D01*
X209358754Y-60768754D01*
X209527303Y-60563375D01*
X209621193Y-60602266D01*
X209821152Y-60642040D01*
X210025030Y-60642040D01*
X210224989Y-60602266D01*
X210413347Y-60524245D01*
X210582865Y-60410977D01*
X210727028Y-60266814D01*
X210840296Y-60097296D01*
X210918317Y-59908938D01*
X210958091Y-59708979D01*
X210958091Y-59505101D01*
X210918317Y-59305142D01*
X210840296Y-59116784D01*
X210727028Y-58947266D01*
X210582865Y-58803103D01*
X210413347Y-58689835D01*
X210224989Y-58611814D01*
X210025030Y-58572040D01*
X209821152Y-58572040D01*
X209621193Y-58611814D01*
X209527303Y-58650705D01*
X209358754Y-58445326D01*
X209109792Y-58241009D01*
X208825755Y-58089188D01*
X208517556Y-57995697D01*
X208277362Y-57972040D01*
X197013282Y-57972040D01*
X196932960Y-57964129D01*
X196612443Y-57995697D01*
X196476487Y-58036939D01*
X196304245Y-58089188D01*
X196020208Y-58241009D01*
X195771246Y-58445326D01*
X195720044Y-58507716D01*
X192385782Y-61841980D01*
X190799206Y-61841980D01*
X190838796Y-61782729D01*
X190916817Y-61594371D01*
X190956591Y-61394412D01*
X190956591Y-61190534D01*
X190916817Y-60990575D01*
X190838796Y-60802217D01*
X190725528Y-60632699D01*
X190581365Y-60488536D01*
X190572418Y-60482558D01*
X190665274Y-60343589D01*
X190743295Y-60155231D01*
X190783069Y-59955272D01*
X190783069Y-59751394D01*
X190743295Y-59551435D01*
X190665274Y-59363077D01*
X190552006Y-59193559D01*
X190407843Y-59049396D01*
X190238325Y-58936128D01*
X190049967Y-58858107D01*
X189850008Y-58818333D01*
X189646130Y-58818333D01*
X189446171Y-58858107D01*
X189257813Y-58936128D01*
X189088295Y-59049396D01*
X188944132Y-59193559D01*
X188830864Y-59363077D01*
X188752843Y-59551435D01*
X188713069Y-59751394D01*
X188713069Y-59955272D01*
X188752843Y-60155231D01*
X188830864Y-60343589D01*
X188944132Y-60513107D01*
X189088295Y-60657270D01*
X189097242Y-60663248D01*
X189004386Y-60802217D01*
X188926365Y-60990575D01*
X188886591Y-61190534D01*
X188886591Y-61394412D01*
X188926365Y-61594371D01*
X189004386Y-61782729D01*
X189043976Y-61841980D01*
X161232698Y-61841980D01*
X160992504Y-61865637D01*
X160684305Y-61959128D01*
X160400268Y-62110949D01*
X160151306Y-62315266D01*
X159946989Y-62564228D01*
X159795168Y-62848265D01*
X159701677Y-63156464D01*
X159670109Y-63476980D01*
X157070323Y-63476980D01*
X157045356Y-63439615D01*
X156901193Y-63295452D01*
X156731675Y-63182184D01*
X156543317Y-63104163D01*
X156343358Y-63064389D01*
X156139480Y-63064389D01*
X155939521Y-63104163D01*
X155751163Y-63182184D01*
X155581645Y-63295452D01*
X155437482Y-63439615D01*
X155324214Y-63609133D01*
X155246193Y-63797491D01*
X155206419Y-63997450D01*
X155206419Y-64124365D01*
X155063673Y-64095971D01*
X155035000Y-64095971D01*
X155035000Y-63898061D01*
X154995226Y-63698102D01*
X154917205Y-63509744D01*
X154803937Y-63340226D01*
X154659774Y-63196063D01*
X154490256Y-63082795D01*
X154301898Y-63004774D01*
X154101939Y-62965000D01*
X153898061Y-62965000D01*
X153731145Y-62998201D01*
X153697926Y-62831199D01*
X153619905Y-62642841D01*
X153506637Y-62473323D01*
X153362474Y-62329160D01*
X153192956Y-62215892D01*
X153004598Y-62137871D01*
X152853344Y-62107785D01*
X152875872Y-61994526D01*
X152875872Y-61790648D01*
X152836098Y-61590689D01*
X152758077Y-61402331D01*
X152644809Y-61232813D01*
X152500646Y-61088650D01*
X152331128Y-60975382D01*
X152142770Y-60897361D01*
X151942811Y-60857587D01*
X151738933Y-60857587D01*
X151538974Y-60897361D01*
X151350616Y-60975382D01*
X151181098Y-61088650D01*
X151036935Y-61232813D01*
X150923667Y-61402331D01*
X150845646Y-61590689D01*
X150805872Y-61790648D01*
X122047000Y-61790648D01*
X122047000Y-59520711D01*
X122140226Y-59613937D01*
X122309744Y-59727205D01*
X122498102Y-59805226D01*
X122698061Y-59845000D01*
X122901939Y-59845000D01*
X123101898Y-59805226D01*
X123290256Y-59727205D01*
X123459774Y-59613937D01*
X123603937Y-59469774D01*
X123717205Y-59300256D01*
X123795226Y-59111898D01*
X123835000Y-58911939D01*
X123835000Y-58708061D01*
X123805164Y-58558061D01*
X125725000Y-58558061D01*
X125725000Y-58761939D01*
X125764774Y-58961898D01*
X125842795Y-59150256D01*
X125956063Y-59319774D01*
X126100226Y-59463937D01*
X126269744Y-59577205D01*
X126458102Y-59655226D01*
X126658061Y-59695000D01*
X126861939Y-59695000D01*
X127061898Y-59655226D01*
X127250256Y-59577205D01*
X127419774Y-59463937D01*
X127563937Y-59319774D01*
X127677205Y-59150256D01*
X127755226Y-58961898D01*
X127795000Y-58761939D01*
X127795000Y-58558061D01*
X127755226Y-58358102D01*
X127677205Y-58169744D01*
X127563937Y-58000226D01*
X127419774Y-57856063D01*
X127250256Y-57742795D01*
X127061898Y-57664774D01*
X126861939Y-57625000D01*
X126658061Y-57625000D01*
X126458102Y-57664774D01*
X126269744Y-57742795D01*
X126100226Y-57856063D01*
X125956063Y-58000226D01*
X125842795Y-58169744D01*
X125764774Y-58358102D01*
X125725000Y-58558061D01*
X123805164Y-58558061D01*
X123795226Y-58508102D01*
X123717205Y-58319744D01*
X123603937Y-58150226D01*
X123459774Y-58006063D01*
X123290256Y-57892795D01*
X123101898Y-57814774D01*
X122901939Y-57775000D01*
X122698061Y-57775000D01*
X122498102Y-57814774D01*
X122309744Y-57892795D01*
X122140226Y-58006063D01*
X122047000Y-58099289D01*
X122047000Y-57277000D01*
X170680239Y-57277000D01*
X170631204Y-57395380D01*
G04 #@! TA.AperFunction,Conductor*
D15*
G36*
X170631204Y-57395380D02*
G01*
X170591430Y-57595339D01*
X170591430Y-57799217D01*
X170631204Y-57999176D01*
X170709225Y-58187534D01*
X170822493Y-58357052D01*
X170966656Y-58501215D01*
X171136174Y-58614483D01*
X171324532Y-58692504D01*
X171524491Y-58732278D01*
X171728369Y-58732278D01*
X171928328Y-58692504D01*
X172116686Y-58614483D01*
X172286204Y-58501215D01*
X172430367Y-58357052D01*
X172543635Y-58187534D01*
X172621656Y-57999176D01*
X172661430Y-57799217D01*
X172661430Y-57694358D01*
X172966548Y-57389241D01*
X190813653Y-57389241D01*
X190774774Y-57483102D01*
X190735000Y-57683061D01*
X190735000Y-57886939D01*
X190774774Y-58086898D01*
X190852795Y-58275256D01*
X190949510Y-58420000D01*
X190852795Y-58564744D01*
X190774774Y-58753102D01*
X190735000Y-58953061D01*
X190735000Y-59156939D01*
X190774774Y-59356898D01*
X190852795Y-59545256D01*
X190966063Y-59714774D01*
X191110226Y-59858937D01*
X191279744Y-59972205D01*
X191468102Y-60050226D01*
X191668061Y-60090000D01*
X191871939Y-60090000D01*
X192071898Y-60050226D01*
X192260256Y-59972205D01*
X192429774Y-59858937D01*
X192573937Y-59714774D01*
X192687205Y-59545256D01*
X192765226Y-59356898D01*
X192805000Y-59156939D01*
X192805000Y-58953061D01*
X192765226Y-58753102D01*
X192687205Y-58564744D01*
X192590490Y-58420000D01*
X192687205Y-58275256D01*
X192765226Y-58086898D01*
X192805000Y-57886939D01*
X192805000Y-57683061D01*
X192765226Y-57483102D01*
X192726347Y-57389241D01*
X212524440Y-57389241D01*
X213595000Y-58459802D01*
X213595000Y-58521939D01*
X213634774Y-58721898D01*
X213712795Y-58910256D01*
X213826063Y-59079774D01*
X213970226Y-59223937D01*
X214139744Y-59337205D01*
X214328102Y-59415226D01*
X214528061Y-59455000D01*
X214731939Y-59455000D01*
X214931898Y-59415226D01*
X215120256Y-59337205D01*
X215289774Y-59223937D01*
X215433937Y-59079774D01*
X215547205Y-58910256D01*
X215625226Y-58721898D01*
X215665000Y-58521939D01*
X215665000Y-58318061D01*
X215625226Y-58118102D01*
X215547205Y-57929744D01*
X215433937Y-57760226D01*
X215289774Y-57616063D01*
X215120256Y-57502795D01*
X214931898Y-57424774D01*
X214731939Y-57385000D01*
X214669802Y-57385000D01*
X214561802Y-57277000D01*
X228914878Y-57277000D01*
X228802795Y-57444744D01*
X228724774Y-57633102D01*
X228685000Y-57833061D01*
X228685000Y-58036939D01*
X228724774Y-58236898D01*
X228802795Y-58425256D01*
X228899510Y-58570000D01*
X228802795Y-58714744D01*
X228724774Y-58903102D01*
X228685000Y-59103061D01*
X228685000Y-59306939D01*
X228724774Y-59506898D01*
X228802795Y-59695256D01*
X228916063Y-59864774D01*
X229060226Y-60008937D01*
X229229744Y-60122205D01*
X229418102Y-60200226D01*
X229618061Y-60240000D01*
X229821939Y-60240000D01*
X230021898Y-60200226D01*
X230210256Y-60122205D01*
X230379774Y-60008937D01*
X230523937Y-59864774D01*
X230637205Y-59695256D01*
X230715226Y-59506898D01*
X230734000Y-59412512D01*
X230734001Y-76073000D01*
X221356241Y-76073000D01*
X221356241Y-75192101D01*
X222828343Y-73720000D01*
X223082494Y-73720000D01*
X223100713Y-73747267D01*
X223272733Y-73919287D01*
X223475008Y-74054443D01*
X223699764Y-74147540D01*
X223938363Y-74195000D01*
X224181637Y-74195000D01*
X224420236Y-74147540D01*
X224644992Y-74054443D01*
X224847267Y-73919287D01*
X225019287Y-73747267D01*
X225060000Y-73686336D01*
X225100713Y-73747267D01*
X225272733Y-73919287D01*
X225475008Y-74054443D01*
X225699764Y-74147540D01*
X225938363Y-74195000D01*
X226181637Y-74195000D01*
X226420236Y-74147540D01*
X226644992Y-74054443D01*
X226847267Y-73919287D01*
X227019287Y-73747267D01*
X227154443Y-73544992D01*
X227247540Y-73320236D01*
X227295000Y-73081637D01*
X227295000Y-72838363D01*
X227247540Y-72599764D01*
X227154443Y-72375008D01*
X227019287Y-72172733D01*
X226847267Y-72000713D01*
X226786336Y-71960000D01*
X226847267Y-71919287D01*
X227019287Y-71747267D01*
X227154443Y-71544992D01*
X227247540Y-71320236D01*
X227295000Y-71081637D01*
X227295000Y-70838363D01*
X227247540Y-70599764D01*
X227154443Y-70375008D01*
X227019287Y-70172733D01*
X226847267Y-70000713D01*
X226786336Y-69960000D01*
X226847267Y-69919287D01*
X227019287Y-69747267D01*
X227154443Y-69544992D01*
X227247540Y-69320236D01*
X227295000Y-69081637D01*
X227295000Y-68838363D01*
X227247540Y-68599764D01*
X227154443Y-68375008D01*
X227019287Y-68172733D01*
X226847267Y-68000713D01*
X226786336Y-67960000D01*
X226847267Y-67919287D01*
X227019287Y-67747267D01*
X227154443Y-67544992D01*
X227247540Y-67320236D01*
X227295000Y-67081637D01*
X227295000Y-66838363D01*
X227247540Y-66599764D01*
X227154443Y-66375008D01*
X227019287Y-66172733D01*
X226847267Y-66000713D01*
X226786336Y-65960000D01*
X226847267Y-65919287D01*
X227019287Y-65747267D01*
X227154443Y-65544992D01*
X227247540Y-65320236D01*
X227295000Y-65081637D01*
X227295000Y-64838363D01*
X227247540Y-64599764D01*
X227154443Y-64375008D01*
X227019287Y-64172733D01*
X226847267Y-64000713D01*
X226786336Y-63960000D01*
X226847267Y-63919287D01*
X227019287Y-63747267D01*
X227154443Y-63544992D01*
X227247540Y-63320236D01*
X227295000Y-63081637D01*
X227295000Y-62838363D01*
X227247540Y-62599764D01*
X227154443Y-62375008D01*
X227019287Y-62172733D01*
X226964053Y-62117499D01*
X227014494Y-62090537D01*
X227111185Y-62011185D01*
X227190537Y-61914494D01*
X227249502Y-61804180D01*
X227285812Y-61684482D01*
X227298072Y-61560000D01*
X227295000Y-61245750D01*
X227136250Y-61087000D01*
X226187000Y-61087000D01*
X226187000Y-61107000D01*
X225933000Y-61107000D01*
X225933000Y-61087000D01*
X225913000Y-61087000D01*
X225913000Y-60833000D01*
X225933000Y-60833000D01*
X225933000Y-59883750D01*
X226187000Y-59883750D01*
X226187000Y-60833000D01*
X227136250Y-60833000D01*
X227295000Y-60674250D01*
X227298072Y-60360000D01*
X227285812Y-60235518D01*
X227249502Y-60115820D01*
X227190537Y-60005506D01*
X227111185Y-59908815D01*
X227014494Y-59829463D01*
X226904180Y-59770498D01*
X226784482Y-59734188D01*
X226660000Y-59721928D01*
X226345750Y-59725000D01*
X226187000Y-59883750D01*
X225933000Y-59883750D01*
X225774250Y-59725000D01*
X225460000Y-59721928D01*
X225335518Y-59734188D01*
X225215820Y-59770498D01*
X225105506Y-59829463D01*
X225008815Y-59908815D01*
X224929463Y-60005506D01*
X224902501Y-60055947D01*
X224847267Y-60000713D01*
X224644992Y-59865557D01*
X224420236Y-59772460D01*
X224181637Y-59725000D01*
X223938363Y-59725000D01*
X223699764Y-59772460D01*
X223475008Y-59865557D01*
X223272733Y-60000713D01*
X223100713Y-60172733D01*
X222965557Y-60375008D01*
X222872460Y-60599764D01*
X222825000Y-60838363D01*
X222825000Y-61081637D01*
X222872460Y-61320236D01*
X222965557Y-61544992D01*
X223100713Y-61747267D01*
X223272733Y-61919287D01*
X223333664Y-61960000D01*
X223272733Y-62000713D01*
X223100713Y-62172733D01*
X222965557Y-62375008D01*
X222872460Y-62599764D01*
X222825000Y-62838363D01*
X222825000Y-63081637D01*
X222831398Y-63113800D01*
X215389003Y-70556196D01*
X215359999Y-70579999D01*
X215319175Y-70629744D01*
X215265026Y-70695724D01*
X215203402Y-70811014D01*
X215194454Y-70827754D01*
X215150997Y-70971015D01*
X215140000Y-71082668D01*
X215140000Y-71082678D01*
X215136324Y-71120000D01*
X215140000Y-71157323D01*
X215140001Y-73425660D01*
X215140000Y-73425670D01*
X215140001Y-75440000D01*
X214007076Y-75440000D01*
X214181898Y-75405226D01*
X214370256Y-75327205D01*
X214539774Y-75213937D01*
X214683937Y-75069774D01*
X214797205Y-74900256D01*
X214875226Y-74711898D01*
X214915000Y-74511939D01*
X214915000Y-74308061D01*
X214875226Y-74108102D01*
X214797205Y-73919744D01*
X214700490Y-73775000D01*
X214797205Y-73630256D01*
X214875226Y-73441898D01*
X214915000Y-73241939D01*
X214915000Y-73038061D01*
X214875226Y-72838102D01*
X214797205Y-72649744D01*
X214683937Y-72480226D01*
X214539774Y-72336063D01*
X214370256Y-72222795D01*
X214181898Y-72144774D01*
X213981939Y-72105000D01*
X213778061Y-72105000D01*
X213578102Y-72144774D01*
X213389744Y-72222795D01*
X213220226Y-72336063D01*
X213076063Y-72480226D01*
X212962795Y-72649744D01*
X212884774Y-72838102D01*
X212845000Y-73038061D01*
X212845000Y-73241939D01*
X212884774Y-73441898D01*
X212962795Y-73630256D01*
X213059510Y-73775000D01*
X212962795Y-73919744D01*
X212884774Y-74108102D01*
X212845000Y-74308061D01*
X212845000Y-74511939D01*
X212884774Y-74711898D01*
X212962795Y-74900256D01*
X213076063Y-75069774D01*
X213220226Y-75213937D01*
X213389744Y-75327205D01*
X213578102Y-75405226D01*
X213752924Y-75440000D01*
X196484013Y-75440000D01*
X196497205Y-75420256D01*
X196575226Y-75231898D01*
X196615000Y-75031939D01*
X196615000Y-74828061D01*
X196575226Y-74628102D01*
X196497205Y-74439744D01*
X196400490Y-74295000D01*
X196497205Y-74150256D01*
X196575226Y-73961898D01*
X196615000Y-73761939D01*
X196615000Y-73558061D01*
X196575226Y-73358102D01*
X196497205Y-73169744D01*
X196383937Y-73000226D01*
X196239774Y-72856063D01*
X196070256Y-72742795D01*
X195881898Y-72664774D01*
X195681939Y-72625000D01*
X195478061Y-72625000D01*
X195278102Y-72664774D01*
X195089744Y-72742795D01*
X194920226Y-72856063D01*
X194776063Y-73000226D01*
X194662795Y-73169744D01*
X194584774Y-73358102D01*
X194545000Y-73558061D01*
X194545000Y-73761939D01*
X194584774Y-73961898D01*
X194662795Y-74150256D01*
X194759510Y-74295000D01*
X194662795Y-74439744D01*
X194584774Y-74628102D01*
X194545000Y-74828061D01*
X194545000Y-75031939D01*
X194584774Y-75231898D01*
X194662795Y-75420256D01*
X194675987Y-75440000D01*
X191520725Y-75440000D01*
X191478096Y-75397371D01*
X191478096Y-75335234D01*
X191438322Y-75135275D01*
X191360301Y-74946917D01*
X191247033Y-74777399D01*
X191102870Y-74633236D01*
X190933352Y-74519968D01*
X190744994Y-74441947D01*
X190545035Y-74402173D01*
X190341157Y-74402173D01*
X190179299Y-74434368D01*
X190319905Y-74376127D01*
X190489423Y-74262859D01*
X190633586Y-74118696D01*
X190746854Y-73949178D01*
X190824875Y-73760820D01*
X190864649Y-73560861D01*
X190864649Y-73356983D01*
X190824875Y-73157024D01*
X190746854Y-72968666D01*
X190633586Y-72799148D01*
X190489423Y-72654985D01*
X190319905Y-72541717D01*
X190131547Y-72463696D01*
X189931588Y-72423922D01*
X189727710Y-72423922D01*
X189527751Y-72463696D01*
X189339393Y-72541717D01*
X189169875Y-72654985D01*
X189025712Y-72799148D01*
X188912444Y-72968666D01*
X188834423Y-73157024D01*
X188794649Y-73356983D01*
X188794649Y-73560861D01*
X188834423Y-73760820D01*
X188912444Y-73949178D01*
X189025712Y-74118696D01*
X189169875Y-74262859D01*
X189339393Y-74376127D01*
X189527751Y-74454148D01*
X189727710Y-74493922D01*
X189931588Y-74493922D01*
X190093446Y-74461727D01*
X189952840Y-74519968D01*
X189783322Y-74633236D01*
X189639159Y-74777399D01*
X189525891Y-74946917D01*
X189447870Y-75135275D01*
X189408096Y-75335234D01*
X189408096Y-75539112D01*
X189447870Y-75739071D01*
X189525891Y-75927429D01*
X189623158Y-76073000D01*
X188732671Y-76073000D01*
X187949009Y-75289339D01*
X187949009Y-75263212D01*
X187909235Y-75063253D01*
X187831214Y-74874895D01*
X187717946Y-74705377D01*
X187573783Y-74561214D01*
X187404265Y-74447946D01*
X187215907Y-74369925D01*
X187015948Y-74330151D01*
X186812070Y-74330151D01*
X186612111Y-74369925D01*
X186423753Y-74447946D01*
X186254235Y-74561214D01*
X186110072Y-74705377D01*
X185996804Y-74874895D01*
X185918783Y-75063253D01*
X185879009Y-75263212D01*
X185879009Y-75467090D01*
X185918783Y-75667049D01*
X185996804Y-75855407D01*
X186110072Y-76024925D01*
X186158147Y-76073000D01*
X184411339Y-76073000D01*
X183615346Y-75277007D01*
X183627678Y-75215012D01*
X183627678Y-75011134D01*
X183587904Y-74811175D01*
X183509883Y-74622817D01*
X183396615Y-74453299D01*
X183252452Y-74309136D01*
X183082934Y-74195868D01*
X182894576Y-74117847D01*
X182694617Y-74078073D01*
X182490739Y-74078073D01*
X182290780Y-74117847D01*
X182102422Y-74195868D01*
X181932904Y-74309136D01*
X181788741Y-74453299D01*
X181675473Y-74622817D01*
X181597452Y-74811175D01*
X181557678Y-75011134D01*
X181557678Y-75215012D01*
X181597452Y-75414971D01*
X181675473Y-75603329D01*
X181788741Y-75772847D01*
X181932904Y-75917010D01*
X182102422Y-76030278D01*
X182205561Y-76073000D01*
X180149315Y-76073000D01*
X179274174Y-75197859D01*
X179274174Y-75188420D01*
X179234400Y-74988461D01*
X179156379Y-74800103D01*
X179043111Y-74630585D01*
X178898948Y-74486422D01*
X178729430Y-74373154D01*
X178541072Y-74295133D01*
X178341113Y-74255359D01*
X178137235Y-74255359D01*
X177937276Y-74295133D01*
X177748918Y-74373154D01*
X177579400Y-74486422D01*
X177435237Y-74630585D01*
X177321969Y-74800103D01*
X177243948Y-74988461D01*
X177204174Y-75188420D01*
X177204174Y-75392298D01*
X177243948Y-75592257D01*
X177321969Y-75780615D01*
X177435237Y-75950133D01*
X177558104Y-76073000D01*
X176196366Y-76073000D01*
X175277060Y-75153694D01*
X175277060Y-75091556D01*
X175237286Y-74891597D01*
X175159265Y-74703239D01*
X175045997Y-74533721D01*
X174901834Y-74389558D01*
X174732316Y-74276290D01*
X174543958Y-74198269D01*
X174343999Y-74158495D01*
X174140121Y-74158495D01*
X173940162Y-74198269D01*
X173751804Y-74276290D01*
X173582286Y-74389558D01*
X173438123Y-74533721D01*
X173324855Y-74703239D01*
X173246834Y-74891597D01*
X173207060Y-75091556D01*
X173207060Y-75295434D01*
X173246834Y-75495393D01*
X173324855Y-75683751D01*
X173438123Y-75853269D01*
X173582286Y-75997432D01*
X173695382Y-76073000D01*
X172676062Y-76073000D01*
X171440561Y-74837499D01*
X171440561Y-74775361D01*
X171400787Y-74575402D01*
X171322766Y-74387044D01*
X171209498Y-74217526D01*
X171065335Y-74073363D01*
X170895817Y-73960095D01*
X170707459Y-73882074D01*
X170507500Y-73842300D01*
X170303622Y-73842300D01*
X170103663Y-73882074D01*
X169915305Y-73960095D01*
X169745787Y-74073363D01*
X169601624Y-74217526D01*
X169488356Y-74387044D01*
X169410335Y-74575402D01*
X169370561Y-74775361D01*
X169370561Y-74979239D01*
X169410335Y-75179198D01*
X169488356Y-75367556D01*
X169601624Y-75537074D01*
X169745787Y-75681237D01*
X169915305Y-75794505D01*
X170103663Y-75872526D01*
X170303622Y-75912300D01*
X170365760Y-75912300D01*
X170526460Y-76073000D01*
X159056278Y-76073000D01*
X159099774Y-76043937D01*
X159243937Y-75899774D01*
X159357205Y-75730256D01*
X159435226Y-75541898D01*
X159475000Y-75341939D01*
X159475000Y-75138061D01*
X159435226Y-74938102D01*
X159357205Y-74749744D01*
X159243937Y-74580226D01*
X159099774Y-74436063D01*
X158930256Y-74322795D01*
X158741898Y-74244774D01*
X158541939Y-74205000D01*
X158338061Y-74205000D01*
X158138102Y-74244774D01*
X157949744Y-74322795D01*
X157780226Y-74436063D01*
X157636063Y-74580226D01*
X157522795Y-74749744D01*
X157444774Y-74938102D01*
X157405000Y-75138061D01*
X157405000Y-75341939D01*
X157444774Y-75541898D01*
X157522795Y-75730256D01*
X157636063Y-75899774D01*
X157780226Y-76043937D01*
X157823722Y-76073000D01*
X155260711Y-76073000D01*
X155283937Y-76049774D01*
X155397205Y-75880256D01*
X155475226Y-75691898D01*
X155515000Y-75491939D01*
X155515000Y-75288061D01*
X155475226Y-75088102D01*
X155397205Y-74899744D01*
X155283937Y-74730226D01*
X155139774Y-74586063D01*
X154970256Y-74472795D01*
X154781898Y-74394774D01*
X154581939Y-74355000D01*
X154378061Y-74355000D01*
X154178102Y-74394774D01*
X153989744Y-74472795D01*
X153820226Y-74586063D01*
X153676063Y-74730226D01*
X153562795Y-74899744D01*
X153484774Y-75088102D01*
X153445000Y-75288061D01*
X153445000Y-75491939D01*
X153484774Y-75691898D01*
X153562795Y-75880256D01*
X153676063Y-76049774D01*
X153699289Y-76073000D01*
X122047000Y-76073000D01*
X122047000Y-74760711D01*
X122140226Y-74853937D01*
X122309744Y-74967205D01*
X122498102Y-75045226D01*
X122698061Y-75085000D01*
X122901939Y-75085000D01*
X123101898Y-75045226D01*
X123290256Y-74967205D01*
X123459774Y-74853937D01*
X123603937Y-74709774D01*
X123717205Y-74540256D01*
X123795226Y-74351898D01*
X123835000Y-74151939D01*
X123835000Y-73948061D01*
X123805164Y-73798061D01*
X125725000Y-73798061D01*
X125725000Y-74001939D01*
X125764774Y-74201898D01*
X125842795Y-74390256D01*
X125956063Y-74559774D01*
X126100226Y-74703937D01*
X126269744Y-74817205D01*
X126458102Y-74895226D01*
X126658061Y-74935000D01*
X126861939Y-74935000D01*
X127061898Y-74895226D01*
X127250256Y-74817205D01*
X127419774Y-74703937D01*
X127563937Y-74559774D01*
X127677205Y-74390256D01*
X127755226Y-74201898D01*
X127795000Y-74001939D01*
X127795000Y-73798061D01*
X127755226Y-73598102D01*
X127677205Y-73409744D01*
X127563937Y-73240226D01*
X127419774Y-73096063D01*
X127250256Y-72982795D01*
X127061898Y-72904774D01*
X126861939Y-72865000D01*
X126658061Y-72865000D01*
X126458102Y-72904774D01*
X126269744Y-72982795D01*
X126100226Y-73096063D01*
X125956063Y-73240226D01*
X125842795Y-73409744D01*
X125764774Y-73598102D01*
X125725000Y-73798061D01*
X123805164Y-73798061D01*
X123795226Y-73748102D01*
X123717205Y-73559744D01*
X123603937Y-73390226D01*
X123459774Y-73246063D01*
X123290256Y-73132795D01*
X123101898Y-73054774D01*
X122901939Y-73015000D01*
X122698061Y-73015000D01*
X122498102Y-73054774D01*
X122309744Y-73132795D01*
X122140226Y-73246063D01*
X122047000Y-73339289D01*
X122047000Y-72605561D01*
X153587500Y-72605561D01*
X153587500Y-72809439D01*
X153627274Y-73009398D01*
X153705295Y-73197756D01*
X153818563Y-73367274D01*
X153962726Y-73511437D01*
X154132244Y-73624705D01*
X154320602Y-73702726D01*
X154520561Y-73742500D01*
X154724439Y-73742500D01*
X154924398Y-73702726D01*
X155112756Y-73624705D01*
X155282274Y-73511437D01*
X155426437Y-73367274D01*
X155539705Y-73197756D01*
X155617726Y-73009398D01*
X155657500Y-72809439D01*
X155657500Y-72605561D01*
X156762500Y-72605561D01*
X156762500Y-72809439D01*
X156802274Y-73009398D01*
X156880295Y-73197756D01*
X156993563Y-73367274D01*
X157137726Y-73511437D01*
X157307244Y-73624705D01*
X157495602Y-73702726D01*
X157695561Y-73742500D01*
X157899439Y-73742500D01*
X158099398Y-73702726D01*
X158287756Y-73624705D01*
X158457274Y-73511437D01*
X158601437Y-73367274D01*
X158714705Y-73197756D01*
X158792726Y-73009398D01*
X158832500Y-72809439D01*
X158832500Y-72605561D01*
X158792726Y-72405602D01*
X158714705Y-72217244D01*
X158601437Y-72047726D01*
X158457274Y-71903563D01*
X158287756Y-71790295D01*
X158099398Y-71712274D01*
X157899439Y-71672500D01*
X157695561Y-71672500D01*
X157495602Y-71712274D01*
X157307244Y-71790295D01*
X157137726Y-71903563D01*
X156993563Y-72047726D01*
X156880295Y-72217244D01*
X156802274Y-72405602D01*
X156762500Y-72605561D01*
X155657500Y-72605561D01*
X155617726Y-72405602D01*
X155539705Y-72217244D01*
X155426437Y-72047726D01*
X155282274Y-71903563D01*
X155112756Y-71790295D01*
X154924398Y-71712274D01*
X154724439Y-71672500D01*
X154520561Y-71672500D01*
X154320602Y-71712274D01*
X154132244Y-71790295D01*
X153962726Y-71903563D01*
X153818563Y-72047726D01*
X153705295Y-72217244D01*
X153627274Y-72405602D01*
X153587500Y-72605561D01*
X122047000Y-72605561D01*
X122047000Y-70950711D01*
X122140226Y-71043937D01*
X122309744Y-71157205D01*
X122498102Y-71235226D01*
X122698061Y-71275000D01*
X122901939Y-71275000D01*
X123101898Y-71235226D01*
X123290256Y-71157205D01*
X123459774Y-71043937D01*
X123603937Y-70899774D01*
X123717205Y-70730256D01*
X123795226Y-70541898D01*
X123835000Y-70341939D01*
X123835000Y-70138061D01*
X123805164Y-69988061D01*
X125725000Y-69988061D01*
X125725000Y-70191939D01*
X125764774Y-70391898D01*
X125842795Y-70580256D01*
X125956063Y-70749774D01*
X126100226Y-70893937D01*
X126269744Y-71007205D01*
X126458102Y-71085226D01*
X126658061Y-71125000D01*
X126861939Y-71125000D01*
X127061898Y-71085226D01*
X127224047Y-71018061D01*
X155175000Y-71018061D01*
X155175000Y-71221939D01*
X155214774Y-71421898D01*
X155292795Y-71610256D01*
X155406063Y-71779774D01*
X155550226Y-71923937D01*
X155719744Y-72037205D01*
X155908102Y-72115226D01*
X156108061Y-72155000D01*
X156311939Y-72155000D01*
X156511898Y-72115226D01*
X156700256Y-72037205D01*
X156869774Y-71923937D01*
X157013937Y-71779774D01*
X157127205Y-71610256D01*
X157205226Y-71421898D01*
X157245000Y-71221939D01*
X157245000Y-71018061D01*
X183115000Y-71018061D01*
X183115000Y-71221939D01*
X183154774Y-71421898D01*
X183232795Y-71610256D01*
X183346063Y-71779774D01*
X183490226Y-71923937D01*
X183659744Y-72037205D01*
X183848102Y-72115226D01*
X184048061Y-72155000D01*
X184251939Y-72155000D01*
X184451898Y-72115226D01*
X184640256Y-72037205D01*
X184785000Y-71940490D01*
X184929744Y-72037205D01*
X185118102Y-72115226D01*
X185318061Y-72155000D01*
X185521939Y-72155000D01*
X185721898Y-72115226D01*
X185910256Y-72037205D01*
X186079774Y-71923937D01*
X186223937Y-71779774D01*
X186337205Y-71610256D01*
X186415226Y-71421898D01*
X186455000Y-71221939D01*
X186455000Y-71018061D01*
X186415226Y-70818102D01*
X186337205Y-70629744D01*
X186223937Y-70460226D01*
X186079774Y-70316063D01*
X185910256Y-70202795D01*
X185721898Y-70124774D01*
X185521939Y-70085000D01*
X185318061Y-70085000D01*
X185118102Y-70124774D01*
X184929744Y-70202795D01*
X184785000Y-70299510D01*
X184640256Y-70202795D01*
X184451898Y-70124774D01*
X184251939Y-70085000D01*
X184048061Y-70085000D01*
X183848102Y-70124774D01*
X183659744Y-70202795D01*
X183490226Y-70316063D01*
X183346063Y-70460226D01*
X183232795Y-70629744D01*
X183154774Y-70818102D01*
X183115000Y-71018061D01*
X157245000Y-71018061D01*
X157205226Y-70818102D01*
X157127205Y-70629744D01*
X157013937Y-70460226D01*
X156869774Y-70316063D01*
X156700256Y-70202795D01*
X156511898Y-70124774D01*
X156311939Y-70085000D01*
X156108061Y-70085000D01*
X155908102Y-70124774D01*
X155719744Y-70202795D01*
X155550226Y-70316063D01*
X155406063Y-70460226D01*
X155292795Y-70629744D01*
X155214774Y-70818102D01*
X155175000Y-71018061D01*
X127224047Y-71018061D01*
X127250256Y-71007205D01*
X127419774Y-70893937D01*
X127563937Y-70749774D01*
X127677205Y-70580256D01*
X127755226Y-70391898D01*
X127795000Y-70191939D01*
X127795000Y-69988061D01*
X127755226Y-69788102D01*
X127677205Y-69599744D01*
X127563937Y-69430226D01*
X127419774Y-69286063D01*
X127250256Y-69172795D01*
X127061898Y-69094774D01*
X126861939Y-69055000D01*
X126658061Y-69055000D01*
X126458102Y-69094774D01*
X126269744Y-69172795D01*
X126100226Y-69286063D01*
X125956063Y-69430226D01*
X125842795Y-69599744D01*
X125764774Y-69788102D01*
X125725000Y-69988061D01*
X123805164Y-69988061D01*
X123795226Y-69938102D01*
X123717205Y-69749744D01*
X123603937Y-69580226D01*
X123459774Y-69436063D01*
X123290256Y-69322795D01*
X123101898Y-69244774D01*
X122901939Y-69205000D01*
X122698061Y-69205000D01*
X122498102Y-69244774D01*
X122309744Y-69322795D01*
X122140226Y-69436063D01*
X122047000Y-69529289D01*
X122047000Y-68367358D01*
X195290703Y-68367358D01*
X195290703Y-68571236D01*
X195330477Y-68771195D01*
X195408498Y-68959553D01*
X195521766Y-69129071D01*
X195665929Y-69273234D01*
X195835447Y-69386502D01*
X196023805Y-69464523D01*
X196223764Y-69504297D01*
X196427642Y-69504297D01*
X196627601Y-69464523D01*
X196815959Y-69386502D01*
X196854866Y-69360505D01*
X196866609Y-69419543D01*
X196944630Y-69607901D01*
X197057898Y-69777419D01*
X197202061Y-69921582D01*
X197371579Y-70034850D01*
X197559937Y-70112871D01*
X197759896Y-70152645D01*
X197963774Y-70152645D01*
X198163733Y-70112871D01*
X198352091Y-70034850D01*
X198521609Y-69921582D01*
X198665772Y-69777419D01*
X198779040Y-69607901D01*
X198857061Y-69419543D01*
X198896835Y-69219584D01*
X198896835Y-69015706D01*
X198857061Y-68815747D01*
X198779040Y-68627389D01*
X198665772Y-68457871D01*
X198521609Y-68313708D01*
X198352091Y-68200440D01*
X198163733Y-68122419D01*
X197963774Y-68082645D01*
X197759896Y-68082645D01*
X197559937Y-68122419D01*
X197371579Y-68200440D01*
X197332672Y-68226437D01*
X197320929Y-68167399D01*
X197242908Y-67979041D01*
X197129640Y-67809523D01*
X196985477Y-67665360D01*
X196815959Y-67552092D01*
X196627601Y-67474071D01*
X196427642Y-67434297D01*
X196223764Y-67434297D01*
X196023805Y-67474071D01*
X195835447Y-67552092D01*
X195665929Y-67665360D01*
X195521766Y-67809523D01*
X195408498Y-67979041D01*
X195330477Y-68167399D01*
X195290703Y-68367358D01*
X122047000Y-68367358D01*
X122047000Y-64600711D01*
X122140226Y-64693937D01*
X122309744Y-64807205D01*
X122498102Y-64885226D01*
X122698061Y-64925000D01*
X122901939Y-64925000D01*
X123101898Y-64885226D01*
X123290256Y-64807205D01*
X123459774Y-64693937D01*
X123603937Y-64549774D01*
X123717205Y-64380256D01*
X123795226Y-64191898D01*
X123835000Y-63991939D01*
X123835000Y-63788061D01*
X123805164Y-63638061D01*
X125725000Y-63638061D01*
X125725000Y-63841939D01*
X125764774Y-64041898D01*
X125842795Y-64230256D01*
X125956063Y-64399774D01*
X126100226Y-64543937D01*
X126269744Y-64657205D01*
X126458102Y-64735226D01*
X126658061Y-64775000D01*
X126861939Y-64775000D01*
X127061898Y-64735226D01*
X127250256Y-64657205D01*
X127419774Y-64543937D01*
X127563937Y-64399774D01*
X127677205Y-64230256D01*
X127755226Y-64041898D01*
X127795000Y-63841939D01*
X127795000Y-63638061D01*
X127755226Y-63438102D01*
X127677205Y-63249744D01*
X127563937Y-63080226D01*
X127419774Y-62936063D01*
X127250256Y-62822795D01*
X127061898Y-62744774D01*
X126861939Y-62705000D01*
X126658061Y-62705000D01*
X126458102Y-62744774D01*
X126269744Y-62822795D01*
X126100226Y-62936063D01*
X125956063Y-63080226D01*
X125842795Y-63249744D01*
X125764774Y-63438102D01*
X125725000Y-63638061D01*
X123805164Y-63638061D01*
X123795226Y-63588102D01*
X123717205Y-63399744D01*
X123603937Y-63230226D01*
X123459774Y-63086063D01*
X123290256Y-62972795D01*
X123101898Y-62894774D01*
X122901939Y-62855000D01*
X122698061Y-62855000D01*
X122498102Y-62894774D01*
X122309744Y-62972795D01*
X122140226Y-63086063D01*
X122047000Y-63179289D01*
X122047000Y-61790648D01*
X150805872Y-61790648D01*
X150805872Y-61994526D01*
X150845646Y-62194485D01*
X150923667Y-62382843D01*
X151036935Y-62552361D01*
X151181098Y-62696524D01*
X151350616Y-62809792D01*
X151538974Y-62887813D01*
X151690228Y-62917899D01*
X151667700Y-63031158D01*
X151667700Y-63235036D01*
X151707474Y-63434995D01*
X151785495Y-63623353D01*
X151898763Y-63792871D01*
X152042926Y-63937034D01*
X152212444Y-64050302D01*
X152400802Y-64128323D01*
X152600761Y-64168097D01*
X152804639Y-64168097D01*
X152971555Y-64134896D01*
X153004774Y-64301898D01*
X153082795Y-64490256D01*
X153196063Y-64659774D01*
X153340226Y-64803937D01*
X153509744Y-64917205D01*
X153698102Y-64995226D01*
X153898061Y-65035000D01*
X153926734Y-65035000D01*
X153926734Y-65232910D01*
X153966508Y-65432869D01*
X154044529Y-65621227D01*
X154157797Y-65790745D01*
X154301960Y-65934908D01*
X154471478Y-66048176D01*
X154659836Y-66126197D01*
X154859795Y-66165971D01*
X155063673Y-66165971D01*
X155263632Y-66126197D01*
X155451990Y-66048176D01*
X155621508Y-65934908D01*
X155765671Y-65790745D01*
X155878939Y-65621227D01*
X155956960Y-65432869D01*
X155996734Y-65232910D01*
X155996734Y-65105995D01*
X156139480Y-65134389D01*
X156343358Y-65134389D01*
X156543317Y-65094615D01*
X156731675Y-65016594D01*
X156901193Y-64903326D01*
X157045356Y-64759163D01*
X157158624Y-64589645D01*
X157236645Y-64401287D01*
X157276419Y-64201328D01*
X157276419Y-63997450D01*
X157236645Y-63797491D01*
X157158624Y-63609133D01*
X157070323Y-63476980D01*
X159670109Y-63476980D01*
X159701677Y-63797496D01*
X159795168Y-64105695D01*
X159946989Y-64389732D01*
X160151306Y-64638694D01*
X160400268Y-64843011D01*
X160684305Y-64994832D01*
X160992504Y-65088323D01*
X161232698Y-65111980D01*
X185851407Y-65111980D01*
X185846926Y-65113836D01*
X185677408Y-65227104D01*
X185533245Y-65371267D01*
X185419977Y-65540785D01*
X185341956Y-65729143D01*
X185302182Y-65929102D01*
X185302182Y-66132980D01*
X185341956Y-66332939D01*
X185419977Y-66521297D01*
X185533245Y-66690815D01*
X185677408Y-66834978D01*
X185846926Y-66948246D01*
X186035284Y-67026267D01*
X186235243Y-67066041D01*
X186439121Y-67066041D01*
X186639080Y-67026267D01*
X186827438Y-66948246D01*
X186996956Y-66834978D01*
X187073930Y-66758005D01*
X187136457Y-66820532D01*
X187305975Y-66933800D01*
X187494333Y-67011821D01*
X187694292Y-67051595D01*
X187898170Y-67051595D01*
X188098129Y-67011821D01*
X188286487Y-66933800D01*
X188456005Y-66820532D01*
X188600168Y-66676369D01*
X188713436Y-66506851D01*
X188791457Y-66318493D01*
X188831231Y-66118534D01*
X188831231Y-65914656D01*
X188791457Y-65714697D01*
X188713436Y-65526339D01*
X188600168Y-65356821D01*
X188456005Y-65212658D01*
X188305329Y-65111980D01*
X192982701Y-65111980D01*
X193063020Y-65119891D01*
X193143339Y-65111980D01*
X193143342Y-65111980D01*
X193383536Y-65088323D01*
X193691735Y-64994832D01*
X193975772Y-64843011D01*
X194224734Y-64638694D01*
X194275945Y-64576293D01*
X195454177Y-63398061D01*
X198355000Y-63398061D01*
X198355000Y-63601939D01*
X198394774Y-63801898D01*
X198472795Y-63990256D01*
X198586063Y-64159774D01*
X198730226Y-64303937D01*
X198899744Y-64417205D01*
X199088102Y-64495226D01*
X199288061Y-64535000D01*
X199491939Y-64535000D01*
X199658039Y-64501961D01*
X199625000Y-64668061D01*
X199625000Y-64871939D01*
X199664774Y-65071898D01*
X199742795Y-65260256D01*
X199856063Y-65429774D01*
X200000226Y-65573937D01*
X200169744Y-65687205D01*
X200358102Y-65765226D01*
X200558061Y-65805000D01*
X200761939Y-65805000D01*
X200961898Y-65765226D01*
X201150256Y-65687205D01*
X201319774Y-65573937D01*
X201463937Y-65429774D01*
X201577205Y-65260256D01*
X201655226Y-65071898D01*
X201695000Y-64871939D01*
X201695000Y-64668061D01*
X201655226Y-64468102D01*
X201577205Y-64279744D01*
X201463937Y-64110226D01*
X201319774Y-63966063D01*
X201150256Y-63852795D01*
X200961898Y-63774774D01*
X200761939Y-63735000D01*
X200558061Y-63735000D01*
X200391961Y-63768039D01*
X200425000Y-63601939D01*
X200425000Y-63398061D01*
X208515000Y-63398061D01*
X208515000Y-63601939D01*
X208554774Y-63801898D01*
X208632795Y-63990256D01*
X208746063Y-64159774D01*
X208890226Y-64303937D01*
X209059744Y-64417205D01*
X209248102Y-64495226D01*
X209448061Y-64535000D01*
X209651939Y-64535000D01*
X209851898Y-64495226D01*
X210040256Y-64417205D01*
X210209774Y-64303937D01*
X210353937Y-64159774D01*
X210467205Y-63990256D01*
X210545226Y-63801898D01*
X210585000Y-63601939D01*
X210585000Y-63398061D01*
X210545226Y-63198102D01*
X210467205Y-63009744D01*
X210353937Y-62840226D01*
X210209774Y-62696063D01*
X210040256Y-62582795D01*
X209851898Y-62504774D01*
X209651939Y-62465000D01*
X209448061Y-62465000D01*
X209248102Y-62504774D01*
X209059744Y-62582795D01*
X208890226Y-62696063D01*
X208746063Y-62840226D01*
X208632795Y-63009744D01*
X208554774Y-63198102D01*
X208515000Y-63398061D01*
X200425000Y-63398061D01*
X200385226Y-63198102D01*
X200307205Y-63009744D01*
X200193937Y-62840226D01*
X200049774Y-62696063D01*
X199880256Y-62582795D01*
X199691898Y-62504774D01*
X199491939Y-62465000D01*
X199288061Y-62465000D01*
X199088102Y-62504774D01*
X198899744Y-62582795D01*
X198730226Y-62696063D01*
X198586063Y-62840226D01*
X198472795Y-63009744D01*
X198394774Y-63198102D01*
X198355000Y-63398061D01*
X195454177Y-63398061D01*
X197610200Y-61242040D01*
X208277362Y-61242040D01*
X208517556Y-61218383D01*
X208825755Y-61124892D01*
X209109792Y-60973071D01*
X209358754Y-60768754D01*
X209527303Y-60563375D01*
X209621193Y-60602266D01*
X209821152Y-60642040D01*
X210025030Y-60642040D01*
X210224989Y-60602266D01*
X210413347Y-60524245D01*
X210582865Y-60410977D01*
X210727028Y-60266814D01*
X210840296Y-60097296D01*
X210918317Y-59908938D01*
X210958091Y-59708979D01*
X210958091Y-59505101D01*
X210918317Y-59305142D01*
X210840296Y-59116784D01*
X210727028Y-58947266D01*
X210582865Y-58803103D01*
X210413347Y-58689835D01*
X210224989Y-58611814D01*
X210025030Y-58572040D01*
X209821152Y-58572040D01*
X209621193Y-58611814D01*
X209527303Y-58650705D01*
X209358754Y-58445326D01*
X209109792Y-58241009D01*
X208825755Y-58089188D01*
X208517556Y-57995697D01*
X208277362Y-57972040D01*
X197013282Y-57972040D01*
X196932960Y-57964129D01*
X196612443Y-57995697D01*
X196476487Y-58036939D01*
X196304245Y-58089188D01*
X196020208Y-58241009D01*
X195771246Y-58445326D01*
X195720044Y-58507716D01*
X192385782Y-61841980D01*
X190799206Y-61841980D01*
X190838796Y-61782729D01*
X190916817Y-61594371D01*
X190956591Y-61394412D01*
X190956591Y-61190534D01*
X190916817Y-60990575D01*
X190838796Y-60802217D01*
X190725528Y-60632699D01*
X190581365Y-60488536D01*
X190572418Y-60482558D01*
X190665274Y-60343589D01*
X190743295Y-60155231D01*
X190783069Y-59955272D01*
X190783069Y-59751394D01*
X190743295Y-59551435D01*
X190665274Y-59363077D01*
X190552006Y-59193559D01*
X190407843Y-59049396D01*
X190238325Y-58936128D01*
X190049967Y-58858107D01*
X189850008Y-58818333D01*
X189646130Y-58818333D01*
X189446171Y-58858107D01*
X189257813Y-58936128D01*
X189088295Y-59049396D01*
X188944132Y-59193559D01*
X188830864Y-59363077D01*
X188752843Y-59551435D01*
X188713069Y-59751394D01*
X188713069Y-59955272D01*
X188752843Y-60155231D01*
X188830864Y-60343589D01*
X188944132Y-60513107D01*
X189088295Y-60657270D01*
X189097242Y-60663248D01*
X189004386Y-60802217D01*
X188926365Y-60990575D01*
X188886591Y-61190534D01*
X188886591Y-61394412D01*
X188926365Y-61594371D01*
X189004386Y-61782729D01*
X189043976Y-61841980D01*
X161232698Y-61841980D01*
X160992504Y-61865637D01*
X160684305Y-61959128D01*
X160400268Y-62110949D01*
X160151306Y-62315266D01*
X159946989Y-62564228D01*
X159795168Y-62848265D01*
X159701677Y-63156464D01*
X159670109Y-63476980D01*
X157070323Y-63476980D01*
X157045356Y-63439615D01*
X156901193Y-63295452D01*
X156731675Y-63182184D01*
X156543317Y-63104163D01*
X156343358Y-63064389D01*
X156139480Y-63064389D01*
X155939521Y-63104163D01*
X155751163Y-63182184D01*
X155581645Y-63295452D01*
X155437482Y-63439615D01*
X155324214Y-63609133D01*
X155246193Y-63797491D01*
X155206419Y-63997450D01*
X155206419Y-64124365D01*
X155063673Y-64095971D01*
X155035000Y-64095971D01*
X155035000Y-63898061D01*
X154995226Y-63698102D01*
X154917205Y-63509744D01*
X154803937Y-63340226D01*
X154659774Y-63196063D01*
X154490256Y-63082795D01*
X154301898Y-63004774D01*
X154101939Y-62965000D01*
X153898061Y-62965000D01*
X153731145Y-62998201D01*
X153697926Y-62831199D01*
X153619905Y-62642841D01*
X153506637Y-62473323D01*
X153362474Y-62329160D01*
X153192956Y-62215892D01*
X153004598Y-62137871D01*
X152853344Y-62107785D01*
X152875872Y-61994526D01*
X152875872Y-61790648D01*
X152836098Y-61590689D01*
X152758077Y-61402331D01*
X152644809Y-61232813D01*
X152500646Y-61088650D01*
X152331128Y-60975382D01*
X152142770Y-60897361D01*
X151942811Y-60857587D01*
X151738933Y-60857587D01*
X151538974Y-60897361D01*
X151350616Y-60975382D01*
X151181098Y-61088650D01*
X151036935Y-61232813D01*
X150923667Y-61402331D01*
X150845646Y-61590689D01*
X150805872Y-61790648D01*
X122047000Y-61790648D01*
X122047000Y-59520711D01*
X122140226Y-59613937D01*
X122309744Y-59727205D01*
X122498102Y-59805226D01*
X122698061Y-59845000D01*
X122901939Y-59845000D01*
X123101898Y-59805226D01*
X123290256Y-59727205D01*
X123459774Y-59613937D01*
X123603937Y-59469774D01*
X123717205Y-59300256D01*
X123795226Y-59111898D01*
X123835000Y-58911939D01*
X123835000Y-58708061D01*
X123805164Y-58558061D01*
X125725000Y-58558061D01*
X125725000Y-58761939D01*
X125764774Y-58961898D01*
X125842795Y-59150256D01*
X125956063Y-59319774D01*
X126100226Y-59463937D01*
X126269744Y-59577205D01*
X126458102Y-59655226D01*
X126658061Y-59695000D01*
X126861939Y-59695000D01*
X127061898Y-59655226D01*
X127250256Y-59577205D01*
X127419774Y-59463937D01*
X127563937Y-59319774D01*
X127677205Y-59150256D01*
X127755226Y-58961898D01*
X127795000Y-58761939D01*
X127795000Y-58558061D01*
X127755226Y-58358102D01*
X127677205Y-58169744D01*
X127563937Y-58000226D01*
X127419774Y-57856063D01*
X127250256Y-57742795D01*
X127061898Y-57664774D01*
X126861939Y-57625000D01*
X126658061Y-57625000D01*
X126458102Y-57664774D01*
X126269744Y-57742795D01*
X126100226Y-57856063D01*
X125956063Y-58000226D01*
X125842795Y-58169744D01*
X125764774Y-58358102D01*
X125725000Y-58558061D01*
X123805164Y-58558061D01*
X123795226Y-58508102D01*
X123717205Y-58319744D01*
X123603937Y-58150226D01*
X123459774Y-58006063D01*
X123290256Y-57892795D01*
X123101898Y-57814774D01*
X122901939Y-57775000D01*
X122698061Y-57775000D01*
X122498102Y-57814774D01*
X122309744Y-57892795D01*
X122140226Y-58006063D01*
X122047000Y-58099289D01*
X122047000Y-57277000D01*
X170680239Y-57277000D01*
X170631204Y-57395380D01*
G37*
G04 #@! TD.AperFunction*
G04 #@! TD*
M02*
