G04 #@! TF.GenerationSoftware,KiCad,Pcbnew,(5.1.10)-1*
G04 #@! TF.CreationDate,2021-12-14T16:32:22+01:00*
G04 #@! TF.ProjectId,jamma_mahjong,6a616d6d-615f-46d6-9168-6a6f6e672e6b,rev?*
G04 #@! TF.SameCoordinates,Original*
G04 #@! TF.FileFunction,Copper,L4,Bot*
G04 #@! TF.FilePolarity,Positive*
%FSLAX46Y46*%
G04 Gerber Fmt 4.6, Leading zero omitted, Abs format (unit mm)*
G04 Created by KiCad (PCBNEW (5.1.10)-1) date 2021-12-14 16:32:22*
%MOMM*%
%LPD*%
G01*
G04 APERTURE LIST*
G04 #@! TA.AperFunction,ComponentPad*
%ADD10C,1.200000*%
G04 #@! TD*
G04 #@! TA.AperFunction,SMDPad,CuDef*
%ADD11R,2.350000X8.000000*%
G04 #@! TD*
G04 #@! TA.AperFunction,ViaPad*
%ADD12C,0.800000*%
G04 #@! TD*
G04 #@! TA.AperFunction,Conductor*
%ADD13C,2.000000*%
G04 #@! TD*
G04 #@! TA.AperFunction,Conductor*
%ADD14C,1.500000*%
G04 #@! TD*
G04 #@! TA.AperFunction,Conductor*
%ADD15C,0.250000*%
G04 #@! TD*
G04 APERTURE END LIST*
D10*
G04 #@! TO.P,J3,14*
G04 #@! TO.N,KEY5-1*
X224060000Y-72960000D03*
G04 #@! TO.P,J3,12*
G04 #@! TO.N,KEY4-11*
X224060000Y-70960000D03*
G04 #@! TO.P,J3,10*
G04 #@! TO.N,KEY3-9*
X224060000Y-68960000D03*
G04 #@! TO.P,J3,8*
G04 #@! TO.N,KEY2-8*
X224060000Y-66960000D03*
G04 #@! TO.P,J3,6*
G04 #@! TO.N,KEY1-5*
X224060000Y-64960000D03*
G04 #@! TO.P,J3,4*
G04 #@! TO.N,KEY0-4*
X224060000Y-62960000D03*
G04 #@! TO.P,J3,2*
G04 #@! TO.N,GND*
X224060000Y-60960000D03*
G04 #@! TO.P,J3,13*
G04 #@! TO.N,COM4-7*
X226060000Y-72960000D03*
G04 #@! TO.P,J3,11*
G04 #@! TO.N,COM3-10*
X226060000Y-70960000D03*
G04 #@! TO.P,J3,9*
G04 #@! TO.N,COM2-6*
X226060000Y-68960000D03*
G04 #@! TO.P,J3,7*
G04 #@! TO.N,COM1-2*
X226060000Y-66960000D03*
G04 #@! TO.P,J3,5*
G04 #@! TO.N,COM0-3*
X226060000Y-64960000D03*
G04 #@! TO.P,J3,3*
G04 #@! TO.N,COIN*
X226060000Y-62960000D03*
G04 #@! TO.P,J3,1*
G04 #@! TO.N,5V*
G04 #@! TA.AperFunction,ComponentPad*
G36*
G01*
X225709999Y-60360000D02*
X226410001Y-60360000D01*
G75*
G02*
X226660000Y-60609999I0J-249999D01*
G01*
X226660000Y-61310001D01*
G75*
G02*
X226410001Y-61560000I-249999J0D01*
G01*
X225709999Y-61560000D01*
G75*
G02*
X225460000Y-61310001I0J249999D01*
G01*
X225460000Y-60609999D01*
G75*
G02*
X225709999Y-60360000I249999J0D01*
G01*
G37*
G04 #@! TD.AperFunction*
G04 #@! TD*
D11*
G04 #@! TO.P,J2,H*
G04 #@! TO.N,Net-(J2-PadH)*
X205993160Y-81232540D03*
G04 #@! TO.P,J2,E*
G04 #@! TO.N,GND*
X213880000Y-81230000D03*
G04 #@! TO.P,J2,D*
G04 #@! TO.N,Net-(J2-PadD)*
X217840000Y-81230000D03*
G04 #@! TO.P,J2,F*
G04 #@! TO.N,SERVICE*
X209920000Y-81230000D03*
G04 #@! TO.P,J2,Z*
G04 #@! TO.N,5V*
X146560000Y-81230000D03*
G04 #@! TO.P,J2,X*
G04 #@! TO.N,GND*
X154480000Y-81230000D03*
G04 #@! TO.P,J2,a*
G04 #@! TO.N,12V*
X142600000Y-81230000D03*
G04 #@! TO.P,J2,e*
G04 #@! TO.N,GND*
X126760000Y-81230000D03*
G04 #@! TO.P,J2,U*
G04 #@! TO.N,Net-(J2-PadU)*
X166360000Y-81230000D03*
G04 #@! TO.P,J2,C*
G04 #@! TO.N,COM4-7*
X221800000Y-81230000D03*
G04 #@! TO.P,J2,J*
G04 #@! TO.N,RED*
X202000000Y-81230000D03*
G04 #@! TO.P,J2,P*
G04 #@! TO.N,KEY2-8*
X182200000Y-81230000D03*
G04 #@! TO.P,J2,K*
G04 #@! TO.N,BLUE*
X198040000Y-81230000D03*
G04 #@! TO.P,J2,c*
G04 #@! TO.N,5V*
X134680000Y-81230000D03*
G04 #@! TO.P,J2,L*
G04 #@! TO.N,SPK+*
X194080000Y-81230000D03*
G04 #@! TO.P,J2,S*
G04 #@! TO.N,KEY4-11*
X174280000Y-81230000D03*
G04 #@! TO.P,J2,M*
G04 #@! TO.N,KEY0-4*
X190120000Y-81230000D03*
G04 #@! TO.P,J2,b*
G04 #@! TO.N,Net-(J2-Padb)*
X138640000Y-81230000D03*
G04 #@! TO.P,J2,W*
G04 #@! TO.N,GND*
X158440000Y-81230000D03*
G04 #@! TO.P,J2,T*
G04 #@! TO.N,KEY5-1*
X170320000Y-81230000D03*
G04 #@! TO.P,J2,f*
G04 #@! TO.N,GND*
X122800000Y-81230000D03*
G04 #@! TO.P,J2,V*
G04 #@! TO.N,Net-(J2-PadV)*
X162400000Y-81230000D03*
G04 #@! TO.P,J2,N*
G04 #@! TO.N,KEY1-5*
X186160000Y-81230000D03*
G04 #@! TO.P,J2,B*
G04 #@! TO.N,COM2-6*
X225760000Y-81230000D03*
G04 #@! TO.P,J2,A*
G04 #@! TO.N,COM0-3*
X229720000Y-81230000D03*
G04 #@! TO.P,J2,R*
G04 #@! TO.N,KEY3-9*
X178240000Y-81230000D03*
G04 #@! TO.P,J2,d*
G04 #@! TO.N,5V*
X130720000Y-81230000D03*
G04 #@! TO.P,J2,Y*
X150520000Y-81230000D03*
G04 #@! TO.P,J2,A*
G04 #@! TO.N,COM0-3*
X229720000Y-81230000D03*
G04 #@! TO.P,J2,B*
G04 #@! TO.N,COM2-6*
X225760000Y-81230000D03*
G04 #@! TO.P,J2,C*
G04 #@! TO.N,COM4-7*
X221800000Y-81230000D03*
G04 #@! TO.P,J2,D*
G04 #@! TO.N,Net-(J2-PadD)*
X217840000Y-81230000D03*
G04 #@! TO.P,J2,E*
G04 #@! TO.N,GND*
X213880000Y-81230000D03*
G04 #@! TO.P,J2,F*
G04 #@! TO.N,SERVICE*
X209920000Y-81230000D03*
G04 #@! TO.P,J2,J*
G04 #@! TO.N,RED*
X202000000Y-81230000D03*
G04 #@! TO.P,J2,K*
G04 #@! TO.N,BLUE*
X198040000Y-81230000D03*
G04 #@! TO.P,J2,L*
G04 #@! TO.N,SPK+*
X194080000Y-81230000D03*
G04 #@! TO.P,J2,M*
G04 #@! TO.N,KEY0-4*
X190120000Y-81230000D03*
G04 #@! TO.P,J2,N*
G04 #@! TO.N,KEY1-5*
X186160000Y-81230000D03*
G04 #@! TO.P,J2,P*
G04 #@! TO.N,KEY2-8*
X182200000Y-81230000D03*
G04 #@! TO.P,J2,R*
G04 #@! TO.N,KEY3-9*
X178240000Y-81230000D03*
G04 #@! TO.P,J2,S*
G04 #@! TO.N,KEY4-11*
X174280000Y-81230000D03*
G04 #@! TO.P,J2,T*
G04 #@! TO.N,KEY5-1*
X170320000Y-81230000D03*
G04 #@! TO.P,J2,U*
G04 #@! TO.N,Net-(J2-PadU)*
X166360000Y-81230000D03*
G04 #@! TO.P,J2,V*
G04 #@! TO.N,Net-(J2-PadV)*
X162400000Y-81230000D03*
G04 #@! TO.P,J2,W*
G04 #@! TO.N,GND*
X158440000Y-81230000D03*
G04 #@! TO.P,J2,X*
X154480000Y-81230000D03*
G04 #@! TO.P,J2,Y*
G04 #@! TO.N,5V*
X150520000Y-81230000D03*
G04 #@! TO.P,J2,Z*
X146560000Y-81230000D03*
G04 #@! TO.P,J2,a*
G04 #@! TO.N,12V*
X142600000Y-81230000D03*
G04 #@! TO.P,J2,b*
G04 #@! TO.N,Net-(J2-Padb)*
X138640000Y-81230000D03*
G04 #@! TO.P,J2,c*
G04 #@! TO.N,5V*
X134680000Y-81230000D03*
G04 #@! TO.P,J2,d*
X130720000Y-81230000D03*
G04 #@! TO.P,J2,e*
G04 #@! TO.N,GND*
X126760000Y-81230000D03*
G04 #@! TO.P,J2,f*
X122800000Y-81230000D03*
G04 #@! TD*
G04 #@! TO.P,J1,E*
G04 #@! TO.N,-5V*
X213880000Y-52020000D03*
G04 #@! TO.P,J1,D*
G04 #@! TO.N,5V*
X217840000Y-52020000D03*
G04 #@! TO.P,J1,F*
G04 #@! TO.N,12V*
X209920000Y-52020000D03*
G04 #@! TO.P,J1,Z*
G04 #@! TO.N,KEY4-11*
X146560000Y-52020000D03*
G04 #@! TO.P,J1,X*
G04 #@! TO.N,KEY2-8*
X154480000Y-52020000D03*
G04 #@! TO.P,J1,a*
G04 #@! TO.N,KEY5-1*
X142600000Y-52020000D03*
G04 #@! TO.P,J1,e*
G04 #@! TO.N,GND*
X126760000Y-52020000D03*
G04 #@! TO.P,J1,U*
G04 #@! TO.N,Net-(J1-PadU)*
X166360000Y-52020000D03*
G04 #@! TO.P,J1,C*
G04 #@! TO.N,5V*
X221800000Y-52020000D03*
G04 #@! TO.P,J1,J*
G04 #@! TO.N,Net-(J1-PadJ)*
X202000000Y-52020000D03*
G04 #@! TO.P,J1,P*
G04 #@! TO.N,SYNC*
X182200000Y-52020000D03*
G04 #@! TO.P,J1,K*
G04 #@! TO.N,Net-(J1-PadK)*
X198040000Y-52020000D03*
G04 #@! TO.P,J1,c*
G04 #@! TO.N,Net-(J1-Padc)*
X134680000Y-52020000D03*
G04 #@! TO.P,J1,L*
G04 #@! TO.N,SPK-*
X194080000Y-52020000D03*
G04 #@! TO.P,J1,S*
G04 #@! TO.N,Net-(J1-PadS)*
X174280000Y-52020000D03*
G04 #@! TO.P,J1,M*
G04 #@! TO.N,Net-(J1-PadM)*
X190120000Y-52020000D03*
G04 #@! TO.P,J1,b*
G04 #@! TO.N,Net-(J1-Padb)*
X138640000Y-52020000D03*
G04 #@! TO.P,J1,W*
G04 #@! TO.N,KEY1-5*
X158440000Y-52020000D03*
G04 #@! TO.P,J1,T*
G04 #@! TO.N,Net-(J1-PadT)*
X170320000Y-52020000D03*
G04 #@! TO.P,J1,f*
G04 #@! TO.N,GND*
X122800000Y-52020000D03*
G04 #@! TO.P,J1,V*
G04 #@! TO.N,KEY0-4*
X162400000Y-52020000D03*
G04 #@! TO.P,J1,N*
G04 #@! TO.N,GREEN*
X186160000Y-52020000D03*
G04 #@! TO.P,J1,B*
G04 #@! TO.N,GND*
X225760000Y-52020000D03*
G04 #@! TO.P,J1,A*
X229720000Y-52020000D03*
G04 #@! TO.P,J1,R*
G04 #@! TO.N,SERVICE*
X178240000Y-52020000D03*
G04 #@! TO.P,J1,d*
G04 #@! TO.N,Net-(J1-Padd)*
X130720000Y-52020000D03*
G04 #@! TO.P,J1,Y*
G04 #@! TO.N,KEY3-9*
X150520000Y-52020000D03*
G04 #@! TO.P,J1,A*
G04 #@! TO.N,GND*
X229720000Y-52020000D03*
G04 #@! TO.P,J1,B*
X225760000Y-52020000D03*
G04 #@! TO.P,J1,C*
G04 #@! TO.N,5V*
X221800000Y-52020000D03*
G04 #@! TO.P,J1,D*
X217840000Y-52020000D03*
G04 #@! TO.P,J1,E*
G04 #@! TO.N,-5V*
X213880000Y-52020000D03*
G04 #@! TO.P,J1,F*
G04 #@! TO.N,12V*
X209920000Y-52020000D03*
G04 #@! TO.P,J1,J*
G04 #@! TO.N,Net-(J1-PadJ)*
X202000000Y-52020000D03*
G04 #@! TO.P,J1,K*
G04 #@! TO.N,Net-(J1-PadK)*
X198040000Y-52020000D03*
G04 #@! TO.P,J1,L*
G04 #@! TO.N,SPK-*
X194080000Y-52020000D03*
G04 #@! TO.P,J1,M*
G04 #@! TO.N,Net-(J1-PadM)*
X190120000Y-52020000D03*
G04 #@! TO.P,J1,N*
G04 #@! TO.N,GREEN*
X186160000Y-52020000D03*
G04 #@! TO.P,J1,P*
G04 #@! TO.N,SYNC*
X182200000Y-52020000D03*
G04 #@! TO.P,J1,R*
G04 #@! TO.N,SERVICE*
X178240000Y-52020000D03*
G04 #@! TO.P,J1,S*
G04 #@! TO.N,Net-(J1-PadS)*
X174280000Y-52020000D03*
G04 #@! TO.P,J1,T*
G04 #@! TO.N,Net-(J1-PadT)*
X170320000Y-52020000D03*
G04 #@! TO.P,J1,U*
G04 #@! TO.N,Net-(J1-PadU)*
X166360000Y-52020000D03*
G04 #@! TO.P,J1,V*
G04 #@! TO.N,KEY0-4*
X162400000Y-52020000D03*
G04 #@! TO.P,J1,W*
G04 #@! TO.N,KEY1-5*
X158440000Y-52020000D03*
G04 #@! TO.P,J1,X*
G04 #@! TO.N,KEY2-8*
X154480000Y-52020000D03*
G04 #@! TO.P,J1,Y*
G04 #@! TO.N,KEY3-9*
X150520000Y-52020000D03*
G04 #@! TO.P,J1,Z*
G04 #@! TO.N,KEY4-11*
X146560000Y-52020000D03*
G04 #@! TO.P,J1,a*
G04 #@! TO.N,KEY5-1*
X142600000Y-52020000D03*
G04 #@! TO.P,J1,b*
G04 #@! TO.N,Net-(J1-Padb)*
X138640000Y-52020000D03*
G04 #@! TO.P,J1,c*
G04 #@! TO.N,Net-(J1-Padc)*
X134680000Y-52020000D03*
G04 #@! TO.P,J1,d*
G04 #@! TO.N,Net-(J1-Padd)*
X130720000Y-52020000D03*
G04 #@! TO.P,J1,e*
G04 #@! TO.N,GND*
X126760000Y-52020000D03*
G04 #@! TO.P,J1,f*
X122800000Y-52020000D03*
G04 #@! TD*
D12*
G04 #@! TO.N,12V*
X209923091Y-59607040D03*
X166981081Y-63476980D03*
X161313020Y-63476980D03*
X163853020Y-63476980D03*
X208197040Y-59607040D03*
G04 #@! TO.N,GND*
X156210000Y-71120000D03*
X126760000Y-73900000D03*
X126760000Y-58660000D03*
X122800000Y-58810000D03*
X122800000Y-74050000D03*
X126760000Y-70090000D03*
X126760000Y-63740000D03*
X122800000Y-63890000D03*
X122800000Y-70240000D03*
X213880000Y-73140000D03*
X158440000Y-75240000D03*
X154480000Y-75390000D03*
X213880000Y-74410000D03*
X154622500Y-72707500D03*
X157797500Y-72707500D03*
X229720000Y-59205000D03*
X229720000Y-57935000D03*
G04 #@! TO.N,5V*
X149860000Y-73660000D03*
X147320000Y-74930000D03*
X135890000Y-73660000D03*
X130810000Y-73660000D03*
X134680000Y-74870000D03*
X130810000Y-74930000D03*
X146560000Y-75690000D03*
X150520000Y-74905000D03*
X219075000Y-59055000D03*
X217840000Y-57820000D03*
G04 #@! TO.N,BLUE*
X197861835Y-69117645D03*
X196325703Y-68469297D03*
G04 #@! TO.N,SPK+*
X191770000Y-59055000D03*
X191770000Y-57785000D03*
G04 #@! TO.N,TEST*
X189829649Y-73458922D03*
X189921591Y-61292473D03*
G04 #@! TO.N,RED*
X200660000Y-64770000D03*
X199390000Y-63500000D03*
G04 #@! TO.N,COIN*
X214630000Y-58420000D03*
X171626430Y-57697278D03*
G04 #@! TO.N,GREEN*
X187796231Y-66016595D03*
X186337182Y-66031041D03*
G04 #@! TO.N,COM1-2*
X154961734Y-65130971D03*
G04 #@! TO.N,COM3-10*
X152702700Y-63133097D03*
G04 #@! TO.N,SYNC*
X184150000Y-71120000D03*
X185420000Y-71120000D03*
G04 #@! TO.N,SPK-*
X195580000Y-73660000D03*
X195580000Y-74930000D03*
G04 #@! TO.N,SERVICE*
X189748069Y-59853333D03*
X209550000Y-63500000D03*
G04 #@! TO.N,COM4-7*
X151840872Y-61892587D03*
G04 #@! TO.N,KEY2-8*
X182592678Y-75113073D03*
G04 #@! TO.N,KEY4-11*
X174242060Y-75193495D03*
G04 #@! TO.N,KEY0-4*
X190443096Y-75437173D03*
G04 #@! TO.N,KEY5-1*
X170405561Y-74877300D03*
G04 #@! TO.N,KEY1-5*
X186914009Y-75365151D03*
G04 #@! TO.N,COM2-6*
X154000000Y-64000000D03*
G04 #@! TO.N,COM0-3*
X156241419Y-64099389D03*
G04 #@! TO.N,KEY3-9*
X178239174Y-75290359D03*
G04 #@! TD*
D13*
G04 #@! TO.N,12V*
X209920000Y-59603949D02*
X209923091Y-59607040D01*
X209920000Y-52020000D02*
X209920000Y-59603949D01*
X142600000Y-81230000D02*
X142600000Y-75230000D01*
X209916909Y-59607040D02*
X209920000Y-59603949D01*
X208197040Y-59607040D02*
X209916909Y-59607040D01*
X142600000Y-75230000D02*
X149645565Y-68184435D01*
X156605565Y-68184435D02*
X161313020Y-63476980D01*
X149645565Y-68184435D02*
X156605565Y-68184435D01*
X161313020Y-63476980D02*
X166981081Y-63476980D01*
G04 #@! TO.N,GND*
X213880000Y-81230000D02*
X213880000Y-73140000D01*
X122800000Y-52020000D02*
X122800000Y-81230000D01*
X126760000Y-81230000D02*
X126760000Y-52020000D01*
X126760000Y-52020000D02*
X122800000Y-52020000D01*
X122800000Y-81230000D02*
X126760000Y-81230000D01*
X158440000Y-73350000D02*
X157797500Y-72707500D01*
X158440000Y-81230000D02*
X158440000Y-73350000D01*
X154480000Y-72850000D02*
X154622500Y-72707500D01*
X154480000Y-81230000D02*
X154480000Y-72850000D01*
X158440000Y-81230000D02*
X154480000Y-81230000D01*
X213880000Y-73140000D02*
X213880000Y-73140000D01*
D14*
X224060000Y-60960000D02*
X224060000Y-59150000D01*
X225760000Y-57450000D02*
X225760000Y-52020000D01*
X224060000Y-59150000D02*
X225760000Y-57450000D01*
X225760000Y-52020000D02*
X229720000Y-52020000D01*
D13*
X154622500Y-72707500D02*
X156210000Y-71120000D01*
X157797500Y-72707500D02*
X156210000Y-71120000D01*
D14*
X229720000Y-52020000D02*
X229720000Y-57935000D01*
X229720000Y-59205000D02*
X229720000Y-59840000D01*
X229720000Y-57935000D02*
X229720000Y-59205000D01*
D13*
G04 #@! TO.N,5V*
X150520000Y-81230000D02*
X150520000Y-74905000D01*
X150520000Y-74320000D02*
X149860000Y-73660000D01*
X150520000Y-81230000D02*
X146560000Y-81230000D01*
X146560000Y-75690000D02*
X146560000Y-75690000D01*
X146560000Y-81230000D02*
X146560000Y-75690000D01*
X217840000Y-52020000D02*
X221800000Y-52020000D01*
X134680000Y-81230000D02*
X134680000Y-74870000D01*
X134680000Y-74870000D02*
X135890000Y-73660000D01*
X134680000Y-81230000D02*
X130720000Y-81230000D01*
X130720000Y-73750000D02*
X130810000Y-73660000D01*
X130720000Y-81230000D02*
X130720000Y-73750000D01*
X146560000Y-75690000D02*
X147320000Y-74930000D01*
X150520000Y-74905000D02*
X150520000Y-74320000D01*
X217840000Y-57820000D02*
X219075000Y-59055000D01*
X217840000Y-52020000D02*
X217840000Y-57820000D01*
D14*
G04 #@! TO.N,BLUE*
X198040000Y-69295810D02*
X197861835Y-69117645D01*
X198040000Y-81230000D02*
X198040000Y-69295810D01*
X197213487Y-68469297D02*
X197861835Y-69117645D01*
X196325703Y-68469297D02*
X197213487Y-68469297D01*
G04 #@! TO.N,SPK+*
X191770000Y-73660000D02*
X191770000Y-58420000D01*
X191770000Y-57785000D02*
X191770000Y-59055000D01*
X194080000Y-79145000D02*
X193040000Y-78105000D01*
X194080000Y-81230000D02*
X194080000Y-79145000D01*
X193040000Y-74930000D02*
X191770000Y-73660000D01*
X193040000Y-78105000D02*
X193040000Y-74930000D01*
D15*
G04 #@! TO.N,TEST*
X189829649Y-73458922D02*
X189829649Y-61384415D01*
X189829649Y-61384415D02*
X189921591Y-61292473D01*
D14*
G04 #@! TO.N,RED*
X202000000Y-81230000D02*
X202000000Y-65668969D01*
X201101031Y-64770000D02*
X200660000Y-64770000D01*
X202000000Y-65668969D02*
X201101031Y-64770000D01*
X199390000Y-63500000D02*
X200660000Y-64770000D01*
G04 #@! TO.N,GREEN*
X186041751Y-52138249D02*
X186160000Y-52020000D01*
X186041751Y-64187166D02*
X186041751Y-52138249D01*
X186337182Y-64482597D02*
X186041751Y-64187166D01*
X186337182Y-66031041D02*
X186337182Y-64482597D01*
X186351628Y-66016595D02*
X186337182Y-66031041D01*
X187796231Y-66016595D02*
X186351628Y-66016595D01*
G04 #@! TO.N,SYNC*
X182200000Y-69170000D02*
X182200000Y-52020000D01*
X184150000Y-71120000D02*
X182200000Y-69170000D01*
X185420000Y-71120000D02*
X184150000Y-71120000D01*
G04 #@! TO.N,SPK-*
X194080000Y-70890000D02*
X195580000Y-72390000D01*
X194080000Y-52020000D02*
X194080000Y-70890000D01*
X195580000Y-72390000D02*
X195580000Y-73660000D01*
X195580000Y-73660000D02*
X195580000Y-74930000D01*
D15*
G04 #@! TO.N,SERVICE*
X184102993Y-72687299D02*
X184103579Y-72687885D01*
X184103579Y-72687885D02*
X186272610Y-72687885D01*
X186272610Y-72687885D02*
X189043736Y-69916759D01*
X189043736Y-69916759D02*
X189043736Y-60518823D01*
X189709226Y-59853333D02*
X189748069Y-59853333D01*
X189043736Y-60518823D02*
X189709226Y-59853333D01*
X209550000Y-80860000D02*
X209920000Y-81230000D01*
X209550000Y-63500000D02*
X209550000Y-80860000D01*
X184103579Y-72687885D02*
X183572399Y-72687885D01*
X178240000Y-67355486D02*
X178240000Y-66760000D01*
X183572399Y-72687885D02*
X178240000Y-67355486D01*
X178240000Y-66760000D02*
X178240000Y-52020000D01*
X178240000Y-66820474D02*
X178240000Y-66760000D01*
G04 #@! TO.N,COM4-7*
X225820000Y-72960000D02*
X226060000Y-72960000D01*
X221800000Y-76980000D02*
X225820000Y-72960000D01*
X221800000Y-81230000D02*
X221800000Y-76980000D01*
G04 #@! TO.N,KEY2-8*
X182200000Y-75505751D02*
X182592678Y-75113073D01*
X182200000Y-81230000D02*
X182200000Y-75505751D01*
X154938948Y-60801940D02*
X154480000Y-60342992D01*
X154480000Y-60342992D02*
X154480000Y-56270000D01*
X170775567Y-60801940D02*
X154938948Y-60801940D01*
X173004881Y-63031254D02*
X170775567Y-60801940D01*
X173004881Y-68403624D02*
X173004881Y-63031254D01*
X154480000Y-56270000D02*
X154480000Y-52020000D01*
X179714330Y-75113073D02*
X173004881Y-68403624D01*
X182592678Y-75113073D02*
X179714330Y-75113073D01*
G04 #@! TO.N,KEY4-11*
X174280000Y-75231435D02*
X174242060Y-75193495D01*
X174280000Y-81230000D02*
X174280000Y-75231435D01*
X147439755Y-57149755D02*
X146560000Y-56270000D01*
X153122305Y-57149755D02*
X147439755Y-57149755D01*
X153411327Y-57438777D02*
X153122305Y-57149755D01*
X146560000Y-56270000D02*
X146560000Y-52020000D01*
X153411327Y-60351503D02*
X153411327Y-57438777D01*
X153408073Y-60354757D02*
X153411327Y-60351503D01*
X154462240Y-61701959D02*
X153408073Y-60647792D01*
X153408073Y-60647792D02*
X153408073Y-60354757D01*
X169909583Y-61701960D02*
X154462240Y-61701959D01*
X171238877Y-63031254D02*
X169909583Y-61701960D01*
X171238877Y-70522828D02*
X171238877Y-63031254D01*
X174242060Y-73526011D02*
X171238877Y-70522828D01*
X174242060Y-75193495D02*
X174242060Y-73526011D01*
G04 #@! TO.N,KEY0-4*
X190120000Y-75760269D02*
X190443096Y-75437173D01*
X190120000Y-81230000D02*
X190120000Y-75760269D01*
X189403827Y-75437173D02*
X190443096Y-75437173D01*
X174324737Y-67403508D02*
X180180434Y-73259205D01*
X174324737Y-62607414D02*
X174324737Y-67403508D01*
X187225859Y-73259205D02*
X189403827Y-75437173D01*
X171238877Y-59521554D02*
X174324737Y-62607414D01*
X155689807Y-59521554D02*
X171238877Y-59521554D01*
X155604013Y-59435760D02*
X155689807Y-59521554D01*
X155604013Y-57431720D02*
X155604013Y-59435760D01*
X155803511Y-57232222D02*
X155604013Y-57431720D01*
X160600511Y-57232222D02*
X155803511Y-57232222D01*
X180180434Y-73259205D02*
X187225859Y-73259205D01*
X162400000Y-55432733D02*
X160600511Y-57232222D01*
X162400000Y-52020000D02*
X162400000Y-55432733D01*
G04 #@! TO.N,KEY5-1*
X170320000Y-81230000D02*
X170320000Y-75070000D01*
X170405561Y-74984439D02*
X170405561Y-74877300D01*
X170320000Y-75070000D02*
X170405561Y-74984439D01*
X142600000Y-56270000D02*
X142600000Y-52020000D01*
X143926264Y-57596264D02*
X142600000Y-56270000D01*
X144270726Y-57596264D02*
X143926264Y-57596264D01*
X144274227Y-57599765D02*
X144270726Y-57596264D01*
X152954296Y-60830425D02*
X152954296Y-57618156D01*
X152935905Y-57599765D02*
X144274227Y-57599765D01*
X154275839Y-62151968D02*
X152954296Y-60830425D01*
X152954296Y-57618156D02*
X152935905Y-57599765D01*
X168476934Y-62151970D02*
X154275839Y-62151968D01*
X170405561Y-64080597D02*
X168476934Y-62151970D01*
X170405561Y-74877300D02*
X170405561Y-64080597D01*
G04 #@! TO.N,KEY1-5*
X186160000Y-76119160D02*
X186914009Y-75365151D01*
X186160000Y-81230000D02*
X186160000Y-76119160D01*
X158012793Y-56697207D02*
X158440000Y-56270000D01*
X155078065Y-59970775D02*
X155078065Y-57168746D01*
X155549604Y-56697207D02*
X158012793Y-56697207D01*
X155078065Y-57168746D02*
X155549604Y-56697207D01*
X155255310Y-60148020D02*
X155078065Y-59970775D01*
X158440000Y-56270000D02*
X158440000Y-52020000D01*
X171015803Y-60148020D02*
X155255310Y-60148020D01*
X173636925Y-62769142D02*
X171015803Y-60148020D01*
X183229114Y-73904261D02*
X179771465Y-73904261D01*
X179771465Y-73904261D02*
X173636925Y-67769721D01*
X184690004Y-75365151D02*
X183229114Y-73904261D01*
X173636925Y-67769721D02*
X173636925Y-62769142D01*
X186914009Y-75365151D02*
X184690004Y-75365151D01*
G04 #@! TO.N,COM2-6*
X227330000Y-70230000D02*
X226060000Y-68960000D01*
X227330000Y-73660000D02*
X227330000Y-70230000D01*
X225760000Y-75230000D02*
X227330000Y-73660000D01*
X225760000Y-81230000D02*
X225760000Y-75230000D01*
G04 #@! TO.N,COM0-3*
X229720000Y-69250998D02*
X229718043Y-69249041D01*
X229720000Y-81230000D02*
X229720000Y-69250998D01*
X229718043Y-68618043D02*
X226060000Y-64960000D01*
X229718043Y-69249041D02*
X229718043Y-68618043D01*
G04 #@! TO.N,KEY3-9*
X178240000Y-75291185D02*
X178239174Y-75290359D01*
X178240000Y-81230000D02*
X178240000Y-75291185D01*
X150520000Y-56270000D02*
X150520000Y-52020000D01*
X153308705Y-56699745D02*
X150949745Y-56699745D01*
X153974663Y-57365703D02*
X153308705Y-56699745D01*
X154648641Y-61251950D02*
X153974663Y-60577972D01*
X150949745Y-56699745D02*
X150520000Y-56270000D01*
X170351870Y-61251950D02*
X154648641Y-61251950D01*
X172112585Y-63012665D02*
X170351870Y-61251950D01*
X153974663Y-60577972D02*
X153974663Y-57365703D01*
X172112585Y-69779248D02*
X172112585Y-63012665D01*
X177623696Y-75290359D02*
X172112585Y-69779248D01*
X178239174Y-75290359D02*
X177623696Y-75290359D01*
G04 #@! TD*
M02*
