M48
; DRILL file {KiCad (6.0.0)} date Sat Jan 22 13:38:35 2022
; FORMAT={-:-/ absolute / metric / decimal}
; #@! TF.CreationDate,2022-01-22T13:38:35+01:00
; #@! TF.GenerationSoftware,Kicad,Pcbnew,(6.0.0)
; #@! TF.FileFunction,Plated,1,4,PTH
FMAT,2
METRIC
; #@! TA.AperFunction,Plated,PTH,ViaDrill
T1C0.400
; #@! TA.AperFunction,Plated,PTH,ComponentDrill
T2C0.950
; #@! TA.AperFunction,Plated,PTH,ComponentDrill
T3C1.000
; #@! TA.AperFunction,Plated,PTH,ComponentDrill
T4C1.854
%
G90
G05
T1
X122.8Y-57.2
X122.8Y-58.8
X122.8Y-74.2
X122.8Y-75.8
X126.75Y-75.75
X126.76Y-57.24
X126.8Y-58.8
X126.8Y-74.2
X130.2Y-58.4
X130.75Y-74.5
X130.75Y-75.75
X132.6Y-58.4
X132.6Y-74.4
X132.6Y-75.8
X134.5Y-74.5
X134.68Y-75.82
X135.0Y-58.4
X138.75Y-57.65
X138.75Y-58.8
X138.8Y-60.2
X142.494Y-74.93
X142.494Y-75.946
X142.5Y-57.7
X142.5Y-58.9
X142.5Y-60.1
X146.5Y-75.0
X146.5Y-76.0
X148.4Y-75.0
X148.4Y-76.0
X150.5Y-75.0
X150.5Y-76.0
X154.5Y-75.0
X154.5Y-76.0
X156.6Y-75.0
X156.6Y-76.0
X158.5Y-75.0
X158.5Y-76.0
X172.5Y-61.0
X172.5Y-62.75
X172.5Y-64.5
X172.5Y-66.25
X172.5Y-68.0
X175.25Y-68.25
X177.5Y-66.0
X177.5Y-67.25
X181.356Y-73.152
X189.7Y-69.75
X189.7Y-72.0
X189.738Y-67.31
X189.738Y-74.422
X190.95Y-67.31
X190.95Y-69.75
X190.95Y-72.0
X190.95Y-74.422
X197.0Y-61.25
X198.2Y-69.8
X198.2Y-72.0
X198.2Y-74.422
X198.201Y-67.311
X199.898Y-67.31
X199.9Y-69.8
X199.9Y-72.0
X199.9Y-74.422
X203.708Y-67.818
X206.248Y-72.898
X207.264Y-72.898
X209.25Y-61.9
X209.25Y-63.1
X209.25Y-64.3
X209.804Y-75.692
X209.92Y-57.13
X210.65Y-64.3
X212.8Y-61.9
X212.8Y-64.3
X214.9Y-61.9
X214.9Y-64.3
X214.95Y-57.65
X214.95Y-58.9
X214.95Y-60.2
X217.8Y-59.0
X217.84Y-57.66
X219.8Y-57.6
X219.8Y-59.0
X221.8Y-57.6
X221.8Y-59.0
X225.76Y-57.6
X225.8Y-59.0
X227.6Y-57.6
X227.6Y-59.0
X229.72Y-57.6
X229.75Y-59.0
T2
X164.25Y-73.0
X166.75Y-73.0
X169.25Y-73.0
X171.75Y-73.0
X174.25Y-73.0
X176.75Y-73.0
X214.5Y-73.0
X217.0Y-73.0
X219.5Y-73.0
X222.0Y-73.0
X224.5Y-73.0
X227.0Y-73.0
T3
X224.95Y-62.1
X227.45Y-62.1
T4
X185.05Y-64.0
X189.75Y-64.0
X194.45Y-64.0
T0
M30
