G04 #@! TF.GenerationSoftware,KiCad,Pcbnew,(6.0.0)*
G04 #@! TF.CreationDate,2022-01-04T21:47:13+01:00*
G04 #@! TF.ProjectId,jamma_mahjong,6a616d6d-615f-46d6-9168-6a6f6e672e6b,rev?*
G04 #@! TF.SameCoordinates,Original*
G04 #@! TF.FileFunction,Soldermask,Bot*
G04 #@! TF.FilePolarity,Negative*
%FSLAX46Y46*%
G04 Gerber Fmt 4.6, Leading zero omitted, Abs format (unit mm)*
G04 Created by KiCad (PCBNEW (6.0.0)) date 2022-01-04 21:47:13*
%MOMM*%
%LPD*%
G01*
G04 APERTURE LIST*
G04 Aperture macros list*
%AMRoundRect*
0 Rectangle with rounded corners*
0 $1 Rounding radius*
0 $2 $3 $4 $5 $6 $7 $8 $9 X,Y pos of 4 corners*
0 Add a 4 corners polygon primitive as box body*
4,1,4,$2,$3,$4,$5,$6,$7,$8,$9,$2,$3,0*
0 Add four circle primitives for the rounded corners*
1,1,$1+$1,$2,$3*
1,1,$1+$1,$4,$5*
1,1,$1+$1,$6,$7*
1,1,$1+$1,$8,$9*
0 Add four rect primitives between the rounded corners*
20,1,$1+$1,$2,$3,$4,$5,0*
20,1,$1+$1,$4,$5,$6,$7,0*
20,1,$1+$1,$6,$7,$8,$9,0*
20,1,$1+$1,$8,$9,$2,$3,0*%
G04 Aperture macros list end*
%ADD10C,0.100000*%
%ADD11C,2.781000*%
%ADD12RoundRect,0.250000X0.600000X0.725000X-0.600000X0.725000X-0.600000X-0.725000X0.600000X-0.725000X0*%
%ADD13O,1.700000X1.950000*%
%ADD14RoundRect,0.250000X0.600000X0.750000X-0.600000X0.750000X-0.600000X-0.750000X0.600000X-0.750000X0*%
%ADD15O,1.700000X2.000000*%
%ADD16RoundRect,0.250000X0.450000X-0.350000X0.450000X0.350000X-0.450000X0.350000X-0.450000X-0.350000X0*%
G04 APERTURE END LIST*
D10*
X157289500Y-48031400D02*
X159626300Y-48031400D01*
X159626300Y-48031400D02*
X159626300Y-56019700D01*
X159626300Y-56019700D02*
X157289500Y-56019700D01*
X157289500Y-56019700D02*
X157289500Y-48031400D01*
G36*
X159626300Y-56019700D02*
G01*
X157289500Y-56019700D01*
X157289500Y-48031400D01*
X159626300Y-48031400D01*
X159626300Y-56019700D01*
G37*
X159626300Y-56019700D02*
X157289500Y-56019700D01*
X157289500Y-48031400D01*
X159626300Y-48031400D01*
X159626300Y-56019700D01*
X177076100Y-48031400D02*
X179412900Y-48031400D01*
X179412900Y-48031400D02*
X179412900Y-56019700D01*
X179412900Y-56019700D02*
X177076100Y-56019700D01*
X177076100Y-56019700D02*
X177076100Y-48031400D01*
G36*
X179412900Y-56019700D02*
G01*
X177076100Y-56019700D01*
X177076100Y-48031400D01*
X179412900Y-48031400D01*
X179412900Y-56019700D01*
G37*
X179412900Y-56019700D02*
X177076100Y-56019700D01*
X177076100Y-48031400D01*
X179412900Y-48031400D01*
X179412900Y-56019700D01*
X173126400Y-48031400D02*
X175463200Y-48031400D01*
X175463200Y-48031400D02*
X175463200Y-56019700D01*
X175463200Y-56019700D02*
X173126400Y-56019700D01*
X173126400Y-56019700D02*
X173126400Y-48031400D01*
G36*
X175463200Y-56019700D02*
G01*
X173126400Y-56019700D01*
X173126400Y-48031400D01*
X175463200Y-48031400D01*
X175463200Y-56019700D01*
G37*
X175463200Y-56019700D02*
X173126400Y-56019700D01*
X173126400Y-48031400D01*
X175463200Y-48031400D01*
X175463200Y-56019700D01*
X220624400Y-48031400D02*
X222961200Y-48031400D01*
X222961200Y-48031400D02*
X222961200Y-56019700D01*
X222961200Y-56019700D02*
X220624400Y-56019700D01*
X220624400Y-56019700D02*
X220624400Y-48031400D01*
G36*
X222961200Y-56019700D02*
G01*
X220624400Y-56019700D01*
X220624400Y-48031400D01*
X222961200Y-48031400D01*
X222961200Y-56019700D01*
G37*
X222961200Y-56019700D02*
X220624400Y-56019700D01*
X220624400Y-48031400D01*
X222961200Y-48031400D01*
X222961200Y-56019700D01*
X192900300Y-48018700D02*
X195237100Y-48018700D01*
X195237100Y-48018700D02*
X195237100Y-56007000D01*
X195237100Y-56007000D02*
X192900300Y-56007000D01*
X192900300Y-56007000D02*
X192900300Y-48018700D01*
G36*
X195237100Y-56007000D02*
G01*
X192900300Y-56007000D01*
X192900300Y-48018700D01*
X195237100Y-48018700D01*
X195237100Y-56007000D01*
G37*
X195237100Y-56007000D02*
X192900300Y-56007000D01*
X192900300Y-48018700D01*
X195237100Y-48018700D01*
X195237100Y-56007000D01*
X216674700Y-48031400D02*
X219011500Y-48031400D01*
X219011500Y-48031400D02*
X219011500Y-56019700D01*
X219011500Y-56019700D02*
X216674700Y-56019700D01*
X216674700Y-56019700D02*
X216674700Y-48031400D01*
G36*
X219011500Y-56019700D02*
G01*
X216674700Y-56019700D01*
X216674700Y-48031400D01*
X219011500Y-48031400D01*
X219011500Y-56019700D01*
G37*
X219011500Y-56019700D02*
X216674700Y-56019700D01*
X216674700Y-48031400D01*
X219011500Y-48031400D01*
X219011500Y-56019700D01*
X200825100Y-48018700D02*
X203161900Y-48018700D01*
X203161900Y-48018700D02*
X203161900Y-56007000D01*
X203161900Y-56007000D02*
X200825100Y-56007000D01*
X200825100Y-56007000D02*
X200825100Y-48018700D01*
G36*
X203161900Y-56007000D02*
G01*
X200825100Y-56007000D01*
X200825100Y-48018700D01*
X203161900Y-48018700D01*
X203161900Y-56007000D01*
G37*
X203161900Y-56007000D02*
X200825100Y-56007000D01*
X200825100Y-48018700D01*
X203161900Y-48018700D01*
X203161900Y-56007000D01*
X141414500Y-48044100D02*
X143751300Y-48044100D01*
X143751300Y-48044100D02*
X143751300Y-56032400D01*
X143751300Y-56032400D02*
X141414500Y-56032400D01*
X141414500Y-56032400D02*
X141414500Y-48044100D01*
G36*
X143751300Y-56032400D02*
G01*
X141414500Y-56032400D01*
X141414500Y-48044100D01*
X143751300Y-48044100D01*
X143751300Y-56032400D01*
G37*
X143751300Y-56032400D02*
X141414500Y-56032400D01*
X141414500Y-48044100D01*
X143751300Y-48044100D01*
X143751300Y-56032400D01*
X169151300Y-48031400D02*
X171488100Y-48031400D01*
X171488100Y-48031400D02*
X171488100Y-56019700D01*
X171488100Y-56019700D02*
X169151300Y-56019700D01*
X169151300Y-56019700D02*
X169151300Y-48031400D01*
G36*
X171488100Y-56019700D02*
G01*
X169151300Y-56019700D01*
X169151300Y-48031400D01*
X171488100Y-48031400D01*
X171488100Y-56019700D01*
G37*
X171488100Y-56019700D02*
X169151300Y-56019700D01*
X169151300Y-48031400D01*
X171488100Y-48031400D01*
X171488100Y-56019700D01*
X224599500Y-48031400D02*
X226936300Y-48031400D01*
X226936300Y-48031400D02*
X226936300Y-56019700D01*
X226936300Y-56019700D02*
X224599500Y-56019700D01*
X224599500Y-56019700D02*
X224599500Y-48031400D01*
G36*
X226936300Y-56019700D02*
G01*
X224599500Y-56019700D01*
X224599500Y-48031400D01*
X226936300Y-48031400D01*
X226936300Y-56019700D01*
G37*
X226936300Y-56019700D02*
X224599500Y-56019700D01*
X224599500Y-48031400D01*
X226936300Y-48031400D01*
X226936300Y-56019700D01*
X125577600Y-48044100D02*
X127914400Y-48044100D01*
X127914400Y-48044100D02*
X127914400Y-56032400D01*
X127914400Y-56032400D02*
X125577600Y-56032400D01*
X125577600Y-56032400D02*
X125577600Y-48044100D01*
G36*
X127914400Y-56032400D02*
G01*
X125577600Y-56032400D01*
X125577600Y-48044100D01*
X127914400Y-48044100D01*
X127914400Y-56032400D01*
G37*
X127914400Y-56032400D02*
X125577600Y-56032400D01*
X125577600Y-48044100D01*
X127914400Y-48044100D01*
X127914400Y-56032400D01*
X212712300Y-48031400D02*
X215049100Y-48031400D01*
X215049100Y-48031400D02*
X215049100Y-56019700D01*
X215049100Y-56019700D02*
X212712300Y-56019700D01*
X212712300Y-56019700D02*
X212712300Y-48031400D01*
G36*
X215049100Y-56019700D02*
G01*
X212712300Y-56019700D01*
X212712300Y-48031400D01*
X215049100Y-48031400D01*
X215049100Y-56019700D01*
G37*
X215049100Y-56019700D02*
X212712300Y-56019700D01*
X212712300Y-48031400D01*
X215049100Y-48031400D01*
X215049100Y-56019700D01*
X121627900Y-48044100D02*
X123964700Y-48044100D01*
X123964700Y-48044100D02*
X123964700Y-56032400D01*
X123964700Y-56032400D02*
X121627900Y-56032400D01*
X121627900Y-56032400D02*
X121627900Y-48044100D01*
G36*
X123964700Y-56032400D02*
G01*
X121627900Y-56032400D01*
X121627900Y-48044100D01*
X123964700Y-48044100D01*
X123964700Y-56032400D01*
G37*
X123964700Y-56032400D02*
X121627900Y-56032400D01*
X121627900Y-48044100D01*
X123964700Y-48044100D01*
X123964700Y-56032400D01*
X129540000Y-48044100D02*
X131876800Y-48044100D01*
X131876800Y-48044100D02*
X131876800Y-56032400D01*
X131876800Y-56032400D02*
X129540000Y-56032400D01*
X129540000Y-56032400D02*
X129540000Y-48044100D01*
G36*
X131876800Y-56032400D02*
G01*
X129540000Y-56032400D01*
X129540000Y-48044100D01*
X131876800Y-48044100D01*
X131876800Y-56032400D01*
G37*
X131876800Y-56032400D02*
X129540000Y-56032400D01*
X129540000Y-48044100D01*
X131876800Y-48044100D01*
X131876800Y-56032400D01*
X165201600Y-48031400D02*
X167538400Y-48031400D01*
X167538400Y-48031400D02*
X167538400Y-56019700D01*
X167538400Y-56019700D02*
X165201600Y-56019700D01*
X165201600Y-56019700D02*
X165201600Y-48031400D01*
G36*
X167538400Y-56019700D02*
G01*
X165201600Y-56019700D01*
X165201600Y-48031400D01*
X167538400Y-48031400D01*
X167538400Y-56019700D01*
G37*
X167538400Y-56019700D02*
X165201600Y-56019700D01*
X165201600Y-48031400D01*
X167538400Y-48031400D01*
X167538400Y-56019700D01*
X228549200Y-48031400D02*
X230886000Y-48031400D01*
X230886000Y-48031400D02*
X230886000Y-56019700D01*
X230886000Y-56019700D02*
X228549200Y-56019700D01*
X228549200Y-56019700D02*
X228549200Y-48031400D01*
G36*
X230886000Y-56019700D02*
G01*
X228549200Y-56019700D01*
X228549200Y-48031400D01*
X230886000Y-48031400D01*
X230886000Y-56019700D01*
G37*
X230886000Y-56019700D02*
X228549200Y-56019700D01*
X228549200Y-48031400D01*
X230886000Y-48031400D01*
X230886000Y-56019700D01*
X188950600Y-48018700D02*
X191287400Y-48018700D01*
X191287400Y-48018700D02*
X191287400Y-56007000D01*
X191287400Y-56007000D02*
X188950600Y-56007000D01*
X188950600Y-56007000D02*
X188950600Y-48018700D01*
G36*
X191287400Y-56007000D02*
G01*
X188950600Y-56007000D01*
X188950600Y-48018700D01*
X191287400Y-48018700D01*
X191287400Y-56007000D01*
G37*
X191287400Y-56007000D02*
X188950600Y-56007000D01*
X188950600Y-48018700D01*
X191287400Y-48018700D01*
X191287400Y-56007000D01*
X149326600Y-48031400D02*
X151663400Y-48031400D01*
X151663400Y-48031400D02*
X151663400Y-56019700D01*
X151663400Y-56019700D02*
X149326600Y-56019700D01*
X149326600Y-56019700D02*
X149326600Y-48031400D01*
G36*
X151663400Y-56019700D02*
G01*
X149326600Y-56019700D01*
X149326600Y-48031400D01*
X151663400Y-48031400D01*
X151663400Y-56019700D01*
G37*
X151663400Y-56019700D02*
X149326600Y-56019700D01*
X149326600Y-48031400D01*
X151663400Y-48031400D01*
X151663400Y-56019700D01*
X137464800Y-48044100D02*
X139801600Y-48044100D01*
X139801600Y-48044100D02*
X139801600Y-56032400D01*
X139801600Y-56032400D02*
X137464800Y-56032400D01*
X137464800Y-56032400D02*
X137464800Y-48044100D01*
G36*
X139801600Y-56032400D02*
G01*
X137464800Y-56032400D01*
X137464800Y-48044100D01*
X139801600Y-48044100D01*
X139801600Y-56032400D01*
G37*
X139801600Y-56032400D02*
X137464800Y-56032400D01*
X137464800Y-48044100D01*
X139801600Y-48044100D01*
X139801600Y-56032400D01*
X181038500Y-48018700D02*
X183375300Y-48018700D01*
X183375300Y-48018700D02*
X183375300Y-56007000D01*
X183375300Y-56007000D02*
X181038500Y-56007000D01*
X181038500Y-56007000D02*
X181038500Y-48018700D01*
G36*
X183375300Y-56007000D02*
G01*
X181038500Y-56007000D01*
X181038500Y-48018700D01*
X183375300Y-48018700D01*
X183375300Y-56007000D01*
G37*
X183375300Y-56007000D02*
X181038500Y-56007000D01*
X181038500Y-48018700D01*
X183375300Y-48018700D01*
X183375300Y-56007000D01*
X153289000Y-48031400D02*
X155625800Y-48031400D01*
X155625800Y-48031400D02*
X155625800Y-56019700D01*
X155625800Y-56019700D02*
X153289000Y-56019700D01*
X153289000Y-56019700D02*
X153289000Y-48031400D01*
G36*
X155625800Y-56019700D02*
G01*
X153289000Y-56019700D01*
X153289000Y-48031400D01*
X155625800Y-48031400D01*
X155625800Y-56019700D01*
G37*
X155625800Y-56019700D02*
X153289000Y-56019700D01*
X153289000Y-48031400D01*
X155625800Y-48031400D01*
X155625800Y-56019700D01*
X133489700Y-48044100D02*
X135826500Y-48044100D01*
X135826500Y-48044100D02*
X135826500Y-56032400D01*
X135826500Y-56032400D02*
X133489700Y-56032400D01*
X133489700Y-56032400D02*
X133489700Y-48044100D01*
G36*
X135826500Y-56032400D02*
G01*
X133489700Y-56032400D01*
X133489700Y-48044100D01*
X135826500Y-48044100D01*
X135826500Y-56032400D01*
G37*
X135826500Y-56032400D02*
X133489700Y-56032400D01*
X133489700Y-48044100D01*
X135826500Y-48044100D01*
X135826500Y-56032400D01*
X208762600Y-48031400D02*
X211099400Y-48031400D01*
X211099400Y-48031400D02*
X211099400Y-56019700D01*
X211099400Y-56019700D02*
X208762600Y-56019700D01*
X208762600Y-56019700D02*
X208762600Y-48031400D01*
G36*
X211099400Y-56019700D02*
G01*
X208762600Y-56019700D01*
X208762600Y-48031400D01*
X211099400Y-48031400D01*
X211099400Y-56019700D01*
G37*
X211099400Y-56019700D02*
X208762600Y-56019700D01*
X208762600Y-48031400D01*
X211099400Y-48031400D01*
X211099400Y-56019700D01*
X145376900Y-48031400D02*
X147713700Y-48031400D01*
X147713700Y-48031400D02*
X147713700Y-56019700D01*
X147713700Y-56019700D02*
X145376900Y-56019700D01*
X145376900Y-56019700D02*
X145376900Y-48031400D01*
G36*
X147713700Y-56019700D02*
G01*
X145376900Y-56019700D01*
X145376900Y-48031400D01*
X147713700Y-48031400D01*
X147713700Y-56019700D01*
G37*
X147713700Y-56019700D02*
X145376900Y-56019700D01*
X145376900Y-48031400D01*
X147713700Y-48031400D01*
X147713700Y-56019700D01*
X184988200Y-48018700D02*
X187325000Y-48018700D01*
X187325000Y-48018700D02*
X187325000Y-56007000D01*
X187325000Y-56007000D02*
X184988200Y-56007000D01*
X184988200Y-56007000D02*
X184988200Y-48018700D01*
G36*
X187325000Y-56007000D02*
G01*
X184988200Y-56007000D01*
X184988200Y-48018700D01*
X187325000Y-48018700D01*
X187325000Y-56007000D01*
G37*
X187325000Y-56007000D02*
X184988200Y-56007000D01*
X184988200Y-48018700D01*
X187325000Y-48018700D01*
X187325000Y-56007000D01*
X196875400Y-48018700D02*
X199212200Y-48018700D01*
X199212200Y-48018700D02*
X199212200Y-56007000D01*
X199212200Y-56007000D02*
X196875400Y-56007000D01*
X196875400Y-56007000D02*
X196875400Y-48018700D01*
G36*
X199212200Y-56007000D02*
G01*
X196875400Y-56007000D01*
X196875400Y-48018700D01*
X199212200Y-48018700D01*
X199212200Y-56007000D01*
G37*
X199212200Y-56007000D02*
X196875400Y-56007000D01*
X196875400Y-48018700D01*
X199212200Y-48018700D01*
X199212200Y-56007000D01*
X161239200Y-48031400D02*
X163576000Y-48031400D01*
X163576000Y-48031400D02*
X163576000Y-56019700D01*
X163576000Y-56019700D02*
X161239200Y-56019700D01*
X161239200Y-56019700D02*
X161239200Y-48031400D01*
G36*
X163576000Y-56019700D02*
G01*
X161239200Y-56019700D01*
X161239200Y-48031400D01*
X163576000Y-48031400D01*
X163576000Y-56019700D01*
G37*
X163576000Y-56019700D02*
X161239200Y-56019700D01*
X161239200Y-48031400D01*
X163576000Y-48031400D01*
X163576000Y-56019700D01*
X173126400Y-77241400D02*
X175463200Y-77241400D01*
X175463200Y-77241400D02*
X175463200Y-85229700D01*
X175463200Y-85229700D02*
X173126400Y-85229700D01*
X173126400Y-85229700D02*
X173126400Y-77241400D01*
G36*
X175463200Y-85229700D02*
G01*
X173126400Y-85229700D01*
X173126400Y-77241400D01*
X175463200Y-77241400D01*
X175463200Y-85229700D01*
G37*
X175463200Y-85229700D02*
X173126400Y-85229700D01*
X173126400Y-77241400D01*
X175463200Y-77241400D01*
X175463200Y-85229700D01*
X161239200Y-77241400D02*
X163576000Y-77241400D01*
X163576000Y-77241400D02*
X163576000Y-85229700D01*
X163576000Y-85229700D02*
X161239200Y-85229700D01*
X161239200Y-85229700D02*
X161239200Y-77241400D01*
G36*
X163576000Y-85229700D02*
G01*
X161239200Y-85229700D01*
X161239200Y-77241400D01*
X163576000Y-77241400D01*
X163576000Y-85229700D01*
G37*
X163576000Y-85229700D02*
X161239200Y-85229700D01*
X161239200Y-77241400D01*
X163576000Y-77241400D01*
X163576000Y-85229700D01*
X220624400Y-77241400D02*
X222961200Y-77241400D01*
X222961200Y-77241400D02*
X222961200Y-85229700D01*
X222961200Y-85229700D02*
X220624400Y-85229700D01*
X220624400Y-85229700D02*
X220624400Y-77241400D01*
G36*
X222961200Y-85229700D02*
G01*
X220624400Y-85229700D01*
X220624400Y-77241400D01*
X222961200Y-77241400D01*
X222961200Y-85229700D01*
G37*
X222961200Y-85229700D02*
X220624400Y-85229700D01*
X220624400Y-77241400D01*
X222961200Y-77241400D01*
X222961200Y-85229700D01*
X216674700Y-77241400D02*
X219011500Y-77241400D01*
X219011500Y-77241400D02*
X219011500Y-85229700D01*
X219011500Y-85229700D02*
X216674700Y-85229700D01*
X216674700Y-85229700D02*
X216674700Y-77241400D01*
G36*
X219011500Y-85229700D02*
G01*
X216674700Y-85229700D01*
X216674700Y-77241400D01*
X219011500Y-77241400D01*
X219011500Y-85229700D01*
G37*
X219011500Y-85229700D02*
X216674700Y-85229700D01*
X216674700Y-77241400D01*
X219011500Y-77241400D01*
X219011500Y-85229700D01*
X196875400Y-77228700D02*
X199212200Y-77228700D01*
X199212200Y-77228700D02*
X199212200Y-85217000D01*
X199212200Y-85217000D02*
X196875400Y-85217000D01*
X196875400Y-85217000D02*
X196875400Y-77228700D01*
G36*
X199212200Y-85217000D02*
G01*
X196875400Y-85217000D01*
X196875400Y-77228700D01*
X199212200Y-77228700D01*
X199212200Y-85217000D01*
G37*
X199212200Y-85217000D02*
X196875400Y-85217000D01*
X196875400Y-77228700D01*
X199212200Y-77228700D01*
X199212200Y-85217000D01*
X129540000Y-77254100D02*
X131876800Y-77254100D01*
X131876800Y-77254100D02*
X131876800Y-85242400D01*
X131876800Y-85242400D02*
X129540000Y-85242400D01*
X129540000Y-85242400D02*
X129540000Y-77254100D01*
G36*
X131876800Y-85242400D02*
G01*
X129540000Y-85242400D01*
X129540000Y-77254100D01*
X131876800Y-77254100D01*
X131876800Y-85242400D01*
G37*
X131876800Y-85242400D02*
X129540000Y-85242400D01*
X129540000Y-77254100D01*
X131876800Y-77254100D01*
X131876800Y-85242400D01*
X121627900Y-77254100D02*
X123964700Y-77254100D01*
X123964700Y-77254100D02*
X123964700Y-85242400D01*
X123964700Y-85242400D02*
X121627900Y-85242400D01*
X121627900Y-85242400D02*
X121627900Y-77254100D01*
G36*
X123964700Y-85242400D02*
G01*
X121627900Y-85242400D01*
X121627900Y-77254100D01*
X123964700Y-77254100D01*
X123964700Y-85242400D01*
G37*
X123964700Y-85242400D02*
X121627900Y-85242400D01*
X121627900Y-77254100D01*
X123964700Y-77254100D01*
X123964700Y-85242400D01*
X208762600Y-77241400D02*
X211099400Y-77241400D01*
X211099400Y-77241400D02*
X211099400Y-85229700D01*
X211099400Y-85229700D02*
X208762600Y-85229700D01*
X208762600Y-85229700D02*
X208762600Y-77241400D01*
G36*
X211099400Y-85229700D02*
G01*
X208762600Y-85229700D01*
X208762600Y-77241400D01*
X211099400Y-77241400D01*
X211099400Y-85229700D01*
G37*
X211099400Y-85229700D02*
X208762600Y-85229700D01*
X208762600Y-77241400D01*
X211099400Y-77241400D01*
X211099400Y-85229700D01*
X181038500Y-77228700D02*
X183375300Y-77228700D01*
X183375300Y-77228700D02*
X183375300Y-85217000D01*
X183375300Y-85217000D02*
X181038500Y-85217000D01*
X181038500Y-85217000D02*
X181038500Y-77228700D01*
G36*
X183375300Y-85217000D02*
G01*
X181038500Y-85217000D01*
X181038500Y-77228700D01*
X183375300Y-77228700D01*
X183375300Y-85217000D01*
G37*
X183375300Y-85217000D02*
X181038500Y-85217000D01*
X181038500Y-77228700D01*
X183375300Y-77228700D01*
X183375300Y-85217000D01*
X125577600Y-77254100D02*
X127914400Y-77254100D01*
X127914400Y-77254100D02*
X127914400Y-85242400D01*
X127914400Y-85242400D02*
X125577600Y-85242400D01*
X125577600Y-85242400D02*
X125577600Y-77254100D01*
G36*
X127914400Y-85242400D02*
G01*
X125577600Y-85242400D01*
X125577600Y-77254100D01*
X127914400Y-77254100D01*
X127914400Y-85242400D01*
G37*
X127914400Y-85242400D02*
X125577600Y-85242400D01*
X125577600Y-77254100D01*
X127914400Y-77254100D01*
X127914400Y-85242400D01*
X192900300Y-77228700D02*
X195237100Y-77228700D01*
X195237100Y-77228700D02*
X195237100Y-85217000D01*
X195237100Y-85217000D02*
X192900300Y-85217000D01*
X192900300Y-85217000D02*
X192900300Y-77228700D01*
G36*
X195237100Y-85217000D02*
G01*
X192900300Y-85217000D01*
X192900300Y-77228700D01*
X195237100Y-77228700D01*
X195237100Y-85217000D01*
G37*
X195237100Y-85217000D02*
X192900300Y-85217000D01*
X192900300Y-77228700D01*
X195237100Y-77228700D01*
X195237100Y-85217000D01*
X145376900Y-77241400D02*
X147713700Y-77241400D01*
X147713700Y-77241400D02*
X147713700Y-85229700D01*
X147713700Y-85229700D02*
X145376900Y-85229700D01*
X145376900Y-85229700D02*
X145376900Y-77241400D01*
G36*
X147713700Y-85229700D02*
G01*
X145376900Y-85229700D01*
X145376900Y-77241400D01*
X147713700Y-77241400D01*
X147713700Y-85229700D01*
G37*
X147713700Y-85229700D02*
X145376900Y-85229700D01*
X145376900Y-77241400D01*
X147713700Y-77241400D01*
X147713700Y-85229700D01*
X141414500Y-77254100D02*
X143751300Y-77254100D01*
X143751300Y-77254100D02*
X143751300Y-85242400D01*
X143751300Y-85242400D02*
X141414500Y-85242400D01*
X141414500Y-85242400D02*
X141414500Y-77254100D01*
G36*
X143751300Y-85242400D02*
G01*
X141414500Y-85242400D01*
X141414500Y-77254100D01*
X143751300Y-77254100D01*
X143751300Y-85242400D01*
G37*
X143751300Y-85242400D02*
X141414500Y-85242400D01*
X141414500Y-77254100D01*
X143751300Y-77254100D01*
X143751300Y-85242400D01*
X177076100Y-77241400D02*
X179412900Y-77241400D01*
X179412900Y-77241400D02*
X179412900Y-85229700D01*
X179412900Y-85229700D02*
X177076100Y-85229700D01*
X177076100Y-85229700D02*
X177076100Y-77241400D01*
G36*
X179412900Y-85229700D02*
G01*
X177076100Y-85229700D01*
X177076100Y-77241400D01*
X179412900Y-77241400D01*
X179412900Y-85229700D01*
G37*
X179412900Y-85229700D02*
X177076100Y-85229700D01*
X177076100Y-77241400D01*
X179412900Y-77241400D01*
X179412900Y-85229700D01*
X157289500Y-77241400D02*
X159626300Y-77241400D01*
X159626300Y-77241400D02*
X159626300Y-85229700D01*
X159626300Y-85229700D02*
X157289500Y-85229700D01*
X157289500Y-85229700D02*
X157289500Y-77241400D01*
G36*
X159626300Y-85229700D02*
G01*
X157289500Y-85229700D01*
X157289500Y-77241400D01*
X159626300Y-77241400D01*
X159626300Y-85229700D01*
G37*
X159626300Y-85229700D02*
X157289500Y-85229700D01*
X157289500Y-77241400D01*
X159626300Y-77241400D01*
X159626300Y-85229700D01*
X169151300Y-77241400D02*
X171488100Y-77241400D01*
X171488100Y-77241400D02*
X171488100Y-85229700D01*
X171488100Y-85229700D02*
X169151300Y-85229700D01*
X169151300Y-85229700D02*
X169151300Y-77241400D01*
G36*
X171488100Y-85229700D02*
G01*
X169151300Y-85229700D01*
X169151300Y-77241400D01*
X171488100Y-77241400D01*
X171488100Y-85229700D01*
G37*
X171488100Y-85229700D02*
X169151300Y-85229700D01*
X169151300Y-77241400D01*
X171488100Y-77241400D01*
X171488100Y-85229700D01*
X149326600Y-77241400D02*
X151663400Y-77241400D01*
X151663400Y-77241400D02*
X151663400Y-85229700D01*
X151663400Y-85229700D02*
X149326600Y-85229700D01*
X149326600Y-85229700D02*
X149326600Y-77241400D01*
G36*
X151663400Y-85229700D02*
G01*
X149326600Y-85229700D01*
X149326600Y-77241400D01*
X151663400Y-77241400D01*
X151663400Y-85229700D01*
G37*
X151663400Y-85229700D02*
X149326600Y-85229700D01*
X149326600Y-77241400D01*
X151663400Y-77241400D01*
X151663400Y-85229700D01*
X165201600Y-77241400D02*
X167538400Y-77241400D01*
X167538400Y-77241400D02*
X167538400Y-85229700D01*
X167538400Y-85229700D02*
X165201600Y-85229700D01*
X165201600Y-85229700D02*
X165201600Y-77241400D01*
G36*
X167538400Y-85229700D02*
G01*
X165201600Y-85229700D01*
X165201600Y-77241400D01*
X167538400Y-77241400D01*
X167538400Y-85229700D01*
G37*
X167538400Y-85229700D02*
X165201600Y-85229700D01*
X165201600Y-77241400D01*
X167538400Y-77241400D01*
X167538400Y-85229700D01*
X228549200Y-77241400D02*
X230886000Y-77241400D01*
X230886000Y-77241400D02*
X230886000Y-85229700D01*
X230886000Y-85229700D02*
X228549200Y-85229700D01*
X228549200Y-85229700D02*
X228549200Y-77241400D01*
G36*
X230886000Y-85229700D02*
G01*
X228549200Y-85229700D01*
X228549200Y-77241400D01*
X230886000Y-77241400D01*
X230886000Y-85229700D01*
G37*
X230886000Y-85229700D02*
X228549200Y-85229700D01*
X228549200Y-77241400D01*
X230886000Y-77241400D01*
X230886000Y-85229700D01*
X204835760Y-77243940D02*
X207172560Y-77243940D01*
X207172560Y-77243940D02*
X207172560Y-85232240D01*
X207172560Y-85232240D02*
X204835760Y-85232240D01*
X204835760Y-85232240D02*
X204835760Y-77243940D01*
G36*
X207172560Y-85232240D02*
G01*
X204835760Y-85232240D01*
X204835760Y-77243940D01*
X207172560Y-77243940D01*
X207172560Y-85232240D01*
G37*
X207172560Y-85232240D02*
X204835760Y-85232240D01*
X204835760Y-77243940D01*
X207172560Y-77243940D01*
X207172560Y-85232240D01*
X188950600Y-77228700D02*
X191287400Y-77228700D01*
X191287400Y-77228700D02*
X191287400Y-85217000D01*
X191287400Y-85217000D02*
X188950600Y-85217000D01*
X188950600Y-85217000D02*
X188950600Y-77228700D01*
G36*
X191287400Y-85217000D02*
G01*
X188950600Y-85217000D01*
X188950600Y-77228700D01*
X191287400Y-77228700D01*
X191287400Y-85217000D01*
G37*
X191287400Y-85217000D02*
X188950600Y-85217000D01*
X188950600Y-77228700D01*
X191287400Y-77228700D01*
X191287400Y-85217000D01*
X153289000Y-77241400D02*
X155625800Y-77241400D01*
X155625800Y-77241400D02*
X155625800Y-85229700D01*
X155625800Y-85229700D02*
X153289000Y-85229700D01*
X153289000Y-85229700D02*
X153289000Y-77241400D01*
G36*
X155625800Y-85229700D02*
G01*
X153289000Y-85229700D01*
X153289000Y-77241400D01*
X155625800Y-77241400D01*
X155625800Y-85229700D01*
G37*
X155625800Y-85229700D02*
X153289000Y-85229700D01*
X153289000Y-77241400D01*
X155625800Y-77241400D01*
X155625800Y-85229700D01*
X184988200Y-77228700D02*
X187325000Y-77228700D01*
X187325000Y-77228700D02*
X187325000Y-85217000D01*
X187325000Y-85217000D02*
X184988200Y-85217000D01*
X184988200Y-85217000D02*
X184988200Y-77228700D01*
G36*
X187325000Y-85217000D02*
G01*
X184988200Y-85217000D01*
X184988200Y-77228700D01*
X187325000Y-77228700D01*
X187325000Y-85217000D01*
G37*
X187325000Y-85217000D02*
X184988200Y-85217000D01*
X184988200Y-77228700D01*
X187325000Y-77228700D01*
X187325000Y-85217000D01*
X224599500Y-77241400D02*
X226936300Y-77241400D01*
X226936300Y-77241400D02*
X226936300Y-85229700D01*
X226936300Y-85229700D02*
X224599500Y-85229700D01*
X224599500Y-85229700D02*
X224599500Y-77241400D01*
G36*
X226936300Y-85229700D02*
G01*
X224599500Y-85229700D01*
X224599500Y-77241400D01*
X226936300Y-77241400D01*
X226936300Y-85229700D01*
G37*
X226936300Y-85229700D02*
X224599500Y-85229700D01*
X224599500Y-77241400D01*
X226936300Y-77241400D01*
X226936300Y-85229700D01*
X200825100Y-77228700D02*
X203161900Y-77228700D01*
X203161900Y-77228700D02*
X203161900Y-85217000D01*
X203161900Y-85217000D02*
X200825100Y-85217000D01*
X200825100Y-85217000D02*
X200825100Y-77228700D01*
G36*
X203161900Y-85217000D02*
G01*
X200825100Y-85217000D01*
X200825100Y-77228700D01*
X203161900Y-77228700D01*
X203161900Y-85217000D01*
G37*
X203161900Y-85217000D02*
X200825100Y-85217000D01*
X200825100Y-77228700D01*
X203161900Y-77228700D01*
X203161900Y-85217000D01*
X212712300Y-77241400D02*
X215049100Y-77241400D01*
X215049100Y-77241400D02*
X215049100Y-85229700D01*
X215049100Y-85229700D02*
X212712300Y-85229700D01*
X212712300Y-85229700D02*
X212712300Y-77241400D01*
G36*
X215049100Y-85229700D02*
G01*
X212712300Y-85229700D01*
X212712300Y-77241400D01*
X215049100Y-77241400D01*
X215049100Y-85229700D01*
G37*
X215049100Y-85229700D02*
X212712300Y-85229700D01*
X212712300Y-77241400D01*
X215049100Y-77241400D01*
X215049100Y-85229700D01*
X137464800Y-77254100D02*
X139801600Y-77254100D01*
X139801600Y-77254100D02*
X139801600Y-85242400D01*
X139801600Y-85242400D02*
X137464800Y-85242400D01*
X137464800Y-85242400D02*
X137464800Y-77254100D01*
G36*
X139801600Y-85242400D02*
G01*
X137464800Y-85242400D01*
X137464800Y-77254100D01*
X139801600Y-77254100D01*
X139801600Y-85242400D01*
G37*
X139801600Y-85242400D02*
X137464800Y-85242400D01*
X137464800Y-77254100D01*
X139801600Y-77254100D01*
X139801600Y-85242400D01*
X133489700Y-77254100D02*
X135826500Y-77254100D01*
X135826500Y-77254100D02*
X135826500Y-85242400D01*
X135826500Y-85242400D02*
X133489700Y-85242400D01*
X133489700Y-85242400D02*
X133489700Y-77254100D01*
G36*
X135826500Y-85242400D02*
G01*
X133489700Y-85242400D01*
X133489700Y-77254100D01*
X135826500Y-77254100D01*
X135826500Y-85242400D01*
G37*
X135826500Y-85242400D02*
X133489700Y-85242400D01*
X133489700Y-77254100D01*
X135826500Y-77254100D01*
X135826500Y-85242400D01*
D11*
X194450000Y-64000000D03*
X189750000Y-64000000D03*
X185050000Y-64000000D03*
D12*
X227000000Y-73000000D03*
D13*
X224500000Y-73000000D03*
X222000000Y-73000000D03*
X219500000Y-73000000D03*
X217000000Y-73000000D03*
X214500000Y-73000000D03*
D12*
X176750000Y-73000000D03*
D13*
X174250000Y-73000000D03*
X171750000Y-73000000D03*
X169250000Y-73000000D03*
X166750000Y-73000000D03*
X164250000Y-73000000D03*
D14*
X227450000Y-62100000D03*
D15*
X224950000Y-62100000D03*
D16*
X213100000Y-60000000D03*
X213100000Y-58000000D03*
M02*
