G04 #@! TF.GenerationSoftware,KiCad,Pcbnew,(6.0.0)*
G04 #@! TF.CreationDate,2022-01-04T21:47:13+01:00*
G04 #@! TF.ProjectId,jamma_mahjong,6a616d6d-615f-46d6-9168-6a6f6e672e6b,rev?*
G04 #@! TF.SameCoordinates,Original*
G04 #@! TF.FileFunction,Copper,L1,Top*
G04 #@! TF.FilePolarity,Positive*
%FSLAX46Y46*%
G04 Gerber Fmt 4.6, Leading zero omitted, Abs format (unit mm)*
G04 Created by KiCad (PCBNEW (6.0.0)) date 2022-01-04 21:47:13*
%MOMM*%
%LPD*%
G01*
G04 APERTURE LIST*
G04 Aperture macros list*
%AMRoundRect*
0 Rectangle with rounded corners*
0 $1 Rounding radius*
0 $2 $3 $4 $5 $6 $7 $8 $9 X,Y pos of 4 corners*
0 Add a 4 corners polygon primitive as box body*
4,1,4,$2,$3,$4,$5,$6,$7,$8,$9,$2,$3,0*
0 Add four circle primitives for the rounded corners*
1,1,$1+$1,$2,$3*
1,1,$1+$1,$4,$5*
1,1,$1+$1,$6,$7*
1,1,$1+$1,$8,$9*
0 Add four rect primitives between the rounded corners*
20,1,$1+$1,$2,$3,$4,$5,0*
20,1,$1+$1,$4,$5,$6,$7,0*
20,1,$1+$1,$6,$7,$8,$9,0*
20,1,$1+$1,$8,$9,$2,$3,0*%
G04 Aperture macros list end*
G04 #@! TA.AperFunction,SMDPad,CuDef*
%ADD10R,2.350000X8.000000*%
G04 #@! TD*
G04 #@! TA.AperFunction,ComponentPad*
%ADD11C,2.781000*%
G04 #@! TD*
G04 #@! TA.AperFunction,ComponentPad*
%ADD12RoundRect,0.250000X0.600000X0.725000X-0.600000X0.725000X-0.600000X-0.725000X0.600000X-0.725000X0*%
G04 #@! TD*
G04 #@! TA.AperFunction,ComponentPad*
%ADD13O,1.700000X1.950000*%
G04 #@! TD*
G04 #@! TA.AperFunction,ComponentPad*
%ADD14RoundRect,0.250000X0.600000X0.750000X-0.600000X0.750000X-0.600000X-0.750000X0.600000X-0.750000X0*%
G04 #@! TD*
G04 #@! TA.AperFunction,ComponentPad*
%ADD15O,1.700000X2.000000*%
G04 #@! TD*
G04 #@! TA.AperFunction,ViaPad*
%ADD16C,0.800000*%
G04 #@! TD*
G04 #@! TA.AperFunction,Conductor*
%ADD17C,2.000000*%
G04 #@! TD*
G04 #@! TA.AperFunction,Conductor*
%ADD18C,1.500000*%
G04 #@! TD*
G04 #@! TA.AperFunction,Conductor*
%ADD19C,0.500000*%
G04 #@! TD*
G04 APERTURE END LIST*
D10*
X229720000Y-52020000D03*
X229720000Y-52020000D03*
X225760000Y-52020000D03*
X225760000Y-52020000D03*
X221800000Y-52020000D03*
X221800000Y-52020000D03*
X217840000Y-52020000D03*
X217840000Y-52020000D03*
X213880000Y-52020000D03*
X213880000Y-52020000D03*
X209920000Y-52020000D03*
X209920000Y-52020000D03*
X202000000Y-52020000D03*
X202000000Y-52020000D03*
X198040000Y-52020000D03*
X198040000Y-52020000D03*
X194080000Y-52020000D03*
X194080000Y-52020000D03*
X190120000Y-52020000D03*
X190120000Y-52020000D03*
X186160000Y-52020000D03*
X186160000Y-52020000D03*
X182200000Y-52020000D03*
X182200000Y-52020000D03*
X178240000Y-52020000D03*
X178240000Y-52020000D03*
X174280000Y-52020000D03*
X174280000Y-52020000D03*
X170320000Y-52020000D03*
X170320000Y-52020000D03*
X166360000Y-52020000D03*
X166360000Y-52020000D03*
X162400000Y-52020000D03*
X162400000Y-52020000D03*
X158440000Y-52020000D03*
X158440000Y-52020000D03*
X154480000Y-52020000D03*
X154480000Y-52020000D03*
X150520000Y-52020000D03*
X150520000Y-52020000D03*
X146560000Y-52020000D03*
X146560000Y-52020000D03*
X142600000Y-52020000D03*
X142600000Y-52020000D03*
X138640000Y-52020000D03*
X138640000Y-52020000D03*
X134680000Y-52020000D03*
X134680000Y-52020000D03*
X130720000Y-52020000D03*
X130720000Y-52020000D03*
X126760000Y-52020000D03*
X126760000Y-52020000D03*
X122800000Y-52020000D03*
X122800000Y-52020000D03*
X229720000Y-81230000D03*
X229720000Y-81230000D03*
X225760000Y-81230000D03*
X225760000Y-81230000D03*
X221800000Y-81230000D03*
X221800000Y-81230000D03*
X217840000Y-81230000D03*
X217840000Y-81230000D03*
X213880000Y-81230000D03*
X213880000Y-81230000D03*
X209920000Y-81230000D03*
X209920000Y-81230000D03*
X205993160Y-81232540D03*
X202000000Y-81230000D03*
X202000000Y-81230000D03*
X198040000Y-81230000D03*
X198040000Y-81230000D03*
X194080000Y-81230000D03*
X194080000Y-81230000D03*
X190120000Y-81230000D03*
X190120000Y-81230000D03*
X186160000Y-81230000D03*
X186160000Y-81230000D03*
X182200000Y-81230000D03*
X182200000Y-81230000D03*
X178240000Y-81230000D03*
X178240000Y-81230000D03*
X174280000Y-81230000D03*
X174280000Y-81230000D03*
X170320000Y-81230000D03*
X170320000Y-81230000D03*
X166360000Y-81230000D03*
X166360000Y-81230000D03*
X162400000Y-81230000D03*
X162400000Y-81230000D03*
X158440000Y-81230000D03*
X158440000Y-81230000D03*
X154480000Y-81230000D03*
X154480000Y-81230000D03*
X150520000Y-81230000D03*
X150520000Y-81230000D03*
X146560000Y-81230000D03*
X146560000Y-81230000D03*
X142600000Y-81230000D03*
X142600000Y-81230000D03*
X138640000Y-81230000D03*
X138640000Y-81230000D03*
X134680000Y-81230000D03*
X134680000Y-81230000D03*
X130720000Y-81230000D03*
X130720000Y-81230000D03*
X126760000Y-81230000D03*
X126760000Y-81230000D03*
X122800000Y-81230000D03*
X122800000Y-81230000D03*
D11*
X194450000Y-64000000D03*
X189750000Y-64000000D03*
X185050000Y-64000000D03*
D12*
X227000000Y-73000000D03*
D13*
X224500000Y-73000000D03*
X222000000Y-73000000D03*
X219500000Y-73000000D03*
X217000000Y-73000000D03*
X214500000Y-73000000D03*
D12*
X176750000Y-73000000D03*
D13*
X174250000Y-73000000D03*
X171750000Y-73000000D03*
X169250000Y-73000000D03*
X166750000Y-73000000D03*
X164250000Y-73000000D03*
D14*
X227450000Y-62100000D03*
D15*
X224950000Y-62100000D03*
D16*
X209250000Y-61900000D03*
X142494000Y-75946000D03*
X142500000Y-58900000D03*
X142500000Y-60100000D03*
X142500000Y-57700000D03*
X209250000Y-64300000D03*
X209920000Y-57130000D03*
X209250000Y-63100000D03*
X210650000Y-64300000D03*
X142494000Y-74930000D03*
X122800000Y-57200000D03*
X158500000Y-76000000D03*
X126760000Y-57240000D03*
X126800000Y-58800000D03*
X154500000Y-76000000D03*
X225800000Y-59000000D03*
X122800000Y-58800000D03*
X225760000Y-57600000D03*
X156600000Y-76000000D03*
X122800000Y-75800000D03*
X177500000Y-66000000D03*
X229750000Y-59000000D03*
X156600000Y-75000000D03*
X122800000Y-74200000D03*
X206248000Y-72898000D03*
X207264000Y-72898000D03*
X177500000Y-67250000D03*
X154500000Y-75000000D03*
X227600000Y-59000000D03*
X158500000Y-75000000D03*
X126800000Y-74200000D03*
X229720000Y-57600000D03*
X227600000Y-57600000D03*
X126750000Y-75750000D03*
X219800000Y-57600000D03*
X134500000Y-74500000D03*
X130750000Y-75750000D03*
X130750000Y-74500000D03*
X150500000Y-76000000D03*
X150500000Y-75000000D03*
X132600000Y-75800000D03*
X132600000Y-74400000D03*
X217840000Y-57660000D03*
X148400000Y-76000000D03*
X130200000Y-58400000D03*
X221800000Y-57600000D03*
X132600000Y-58400000D03*
X134680000Y-75820000D03*
X146500000Y-75000000D03*
X148400000Y-75000000D03*
X146500000Y-76000000D03*
X221800000Y-59000000D03*
X219800000Y-59000000D03*
X217800000Y-59000000D03*
X135000000Y-58400000D03*
X214950000Y-58900000D03*
X214950000Y-57650000D03*
X214950000Y-60200000D03*
X199900000Y-74422000D03*
X190950000Y-74422000D03*
X198200000Y-74422000D03*
X189738000Y-74422000D03*
X197000000Y-61250000D03*
X175250000Y-68250000D03*
X203708000Y-67818000D03*
X190950000Y-69750000D03*
X189700000Y-69750000D03*
X198200000Y-69800000D03*
X199900000Y-69800000D03*
X199898000Y-67310000D03*
X190950000Y-67310000D03*
X189738000Y-67310000D03*
X198201018Y-67311018D03*
X172500000Y-62750000D03*
X172500000Y-66250000D03*
X198200000Y-72000000D03*
X199900000Y-72000000D03*
X190950000Y-72000000D03*
X189700000Y-72000000D03*
X209804000Y-75692000D03*
X181356000Y-73152000D03*
X172500000Y-68000000D03*
X172500000Y-64500000D03*
X172500000Y-61000000D03*
X138750000Y-58800000D03*
X214900000Y-64300000D03*
X212800000Y-61900000D03*
X214900000Y-61900000D03*
X138750000Y-57650000D03*
X138800000Y-60200000D03*
X212800000Y-64300000D03*
D17*
X209920000Y-52020000D02*
X209920000Y-57130000D01*
X209920000Y-57130000D02*
X209920000Y-57370000D01*
X142494000Y-74930000D02*
X142494000Y-81124000D01*
X142494000Y-81124000D02*
X142600000Y-81230000D01*
X158500000Y-76000000D02*
X158500000Y-81170000D01*
X229720000Y-52020000D02*
X229720000Y-57600000D01*
X126760000Y-81230000D02*
X126760000Y-75760000D01*
X158500000Y-75000000D02*
X158500000Y-76000000D01*
D18*
X210058000Y-72898000D02*
X207264000Y-72898000D01*
X213880000Y-76720000D02*
X210058000Y-72898000D01*
X207264000Y-72898000D02*
X205994000Y-72898000D01*
D17*
X225760000Y-52020000D02*
X225760000Y-57600000D01*
X177500000Y-66000000D02*
X177500000Y-56942000D01*
X178240000Y-56202000D02*
X178240000Y-52020000D01*
X229720000Y-52020000D02*
X225760000Y-52020000D01*
X126760000Y-52020000D02*
X126760000Y-57240000D01*
X122800000Y-52020000D02*
X122800000Y-57200000D01*
D18*
X213880000Y-81230000D02*
X213880000Y-76720000D01*
D17*
X126760000Y-75760000D02*
X126750000Y-75750000D01*
X158500000Y-81170000D02*
X158440000Y-81230000D01*
X154480000Y-75020000D02*
X154500000Y-75000000D01*
X122800000Y-81230000D02*
X122800000Y-75800000D01*
X154480000Y-81230000D02*
X158440000Y-81230000D01*
X177500000Y-67250000D02*
X177500000Y-66000000D01*
X177500000Y-56942000D02*
X178240000Y-56202000D01*
X126760000Y-57240000D02*
X126750000Y-57250000D01*
X154480000Y-81230000D02*
X154480000Y-75020000D01*
X150500000Y-75000000D02*
X150500000Y-76000000D01*
X150500000Y-76000000D02*
X150500000Y-81210000D01*
X146560000Y-81230000D02*
X146560000Y-75060000D01*
X134680000Y-75820000D02*
X134680000Y-74680000D01*
X150500000Y-81210000D02*
X150520000Y-81230000D01*
X134680000Y-74680000D02*
X134500000Y-74500000D01*
X221800000Y-59000000D02*
X221800000Y-52020000D01*
X130720000Y-81230000D02*
X130720000Y-74530000D01*
X134680000Y-81230000D02*
X134680000Y-75820000D01*
X146560000Y-75060000D02*
X146500000Y-75000000D01*
X221800000Y-52020000D02*
X217840000Y-52020000D01*
X130720000Y-81230000D02*
X134680000Y-81230000D01*
X150520000Y-81230000D02*
X146560000Y-81230000D01*
X130720000Y-74530000D02*
X130750000Y-74500000D01*
X217840000Y-58960000D02*
X217840000Y-52020000D01*
X213880000Y-52020000D02*
X213880000Y-57130000D01*
D18*
X189738000Y-74422000D02*
X185672000Y-74422000D01*
X182200000Y-56050000D02*
X182200000Y-52020000D01*
X185672000Y-74422000D02*
X180250000Y-69000000D01*
X180250000Y-58000000D02*
X182200000Y-56050000D01*
X180250000Y-69000000D02*
X180250000Y-58000000D01*
D17*
X197000000Y-61250000D02*
X194000000Y-58250000D01*
X194000000Y-58250000D02*
X194000000Y-52100000D01*
X194000000Y-52100000D02*
X194080000Y-52020000D01*
D19*
X175250000Y-68250000D02*
X175250000Y-57750000D01*
X206248000Y-76454000D02*
X206248000Y-80977700D01*
X206248000Y-80977700D02*
X205993160Y-81232540D01*
X204216000Y-68326000D02*
X204216000Y-74422000D01*
X203708000Y-67818000D02*
X204216000Y-68326000D01*
X174280000Y-56780000D02*
X174280000Y-52020000D01*
X175250000Y-57750000D02*
X174280000Y-56780000D01*
X204216000Y-74422000D02*
X206248000Y-76454000D01*
D18*
X186160000Y-56840000D02*
X186160000Y-52020000D01*
X184250000Y-58000000D02*
X185000000Y-58000000D01*
X185000000Y-58000000D02*
X186160000Y-56840000D01*
X189700000Y-69750000D02*
X185000000Y-69750000D01*
X182250000Y-67000000D02*
X182250000Y-60000000D01*
X185000000Y-69750000D02*
X182250000Y-67000000D01*
X182250000Y-60000000D02*
X184250000Y-58000000D01*
D19*
X176575480Y-71575480D02*
X177639750Y-71575480D01*
X170320000Y-55820000D02*
X174000000Y-59500000D01*
X170320000Y-52020000D02*
X170320000Y-55820000D01*
X171211722Y-74424520D02*
X166360000Y-79276242D01*
X166360000Y-79276242D02*
X166360000Y-81230000D01*
X178049520Y-71985250D02*
X178049520Y-74014750D01*
X177639750Y-74424520D02*
X175860250Y-74424520D01*
X177639750Y-71575480D02*
X178049520Y-71985250D01*
X175450480Y-74014750D02*
X175450480Y-73762318D01*
X175450480Y-73762318D02*
X174788278Y-74424520D01*
X174788278Y-74424520D02*
X171211722Y-74424520D01*
X175860250Y-74424520D02*
X175450480Y-74014750D01*
X174000000Y-69000000D02*
X176575480Y-71575480D01*
X174000000Y-59500000D02*
X174000000Y-69000000D01*
X178049520Y-74014750D02*
X177639750Y-74424520D01*
D18*
X202000000Y-69412000D02*
X202000000Y-81230000D01*
X199898000Y-67310000D02*
X202000000Y-69412000D01*
D19*
X226000000Y-75250000D02*
X224500000Y-73750000D01*
X224500000Y-73750000D02*
X224500000Y-73000000D01*
X229720000Y-77720000D02*
X227250000Y-75250000D01*
X229720000Y-81230000D02*
X229720000Y-77720000D01*
X227250000Y-75250000D02*
X226000000Y-75250000D01*
X221250000Y-75250000D02*
X219500000Y-73500000D01*
X223750000Y-75250000D02*
X221250000Y-75250000D01*
X225760000Y-77260000D02*
X223750000Y-75250000D01*
X225760000Y-81230000D02*
X225760000Y-77260000D01*
X219500000Y-73500000D02*
X219500000Y-73000000D01*
D18*
X196029520Y-73070480D02*
X196029520Y-74829520D01*
X198040000Y-76840000D02*
X198040000Y-81230000D01*
X198200000Y-72000000D02*
X197100000Y-72000000D01*
X196029520Y-74829520D02*
X198040000Y-76840000D01*
X197100000Y-72000000D02*
X196029520Y-73070480D01*
D19*
X158250000Y-62250000D02*
X166875960Y-70875960D01*
X166875960Y-70875960D02*
X169625960Y-70875960D01*
X158250000Y-57250000D02*
X158440000Y-57060000D01*
X158250000Y-57250000D02*
X158250000Y-62250000D01*
X158440000Y-57060000D02*
X158440000Y-52020000D01*
X169625960Y-70875960D02*
X171750000Y-73000000D01*
X156510730Y-58750000D02*
X152750000Y-58750000D01*
X166296459Y-72274999D02*
X156850960Y-62829500D01*
X166750000Y-73000000D02*
X166750000Y-72275000D01*
X166750000Y-72275000D02*
X166296459Y-72274999D01*
X152750000Y-58750000D02*
X151750000Y-57750000D01*
X151750000Y-57750000D02*
X150750000Y-57750000D01*
X150520000Y-57520000D02*
X150750000Y-57750000D01*
X156850960Y-62829500D02*
X156850960Y-59090230D01*
X150520000Y-52020000D02*
X150520000Y-57520000D01*
X156850960Y-59090230D02*
X156510730Y-58750000D01*
X166360000Y-57890000D02*
X166360000Y-52020000D01*
X172689718Y-69476920D02*
X167455460Y-69476920D01*
X159649040Y-59590230D02*
X160489270Y-58750000D01*
X165500000Y-58750000D02*
X166360000Y-57890000D01*
X159649040Y-61670500D02*
X159649040Y-59590230D01*
X175549520Y-73000000D02*
X175549520Y-72336722D01*
X160489270Y-58750000D02*
X165500000Y-58750000D01*
X167455460Y-69476920D02*
X159649040Y-61670500D01*
X175549520Y-72336722D02*
X172689718Y-69476920D01*
X176750000Y-73000000D02*
X175549520Y-73000000D01*
X156151440Y-59500000D02*
X148250000Y-59500000D01*
X164250000Y-73000000D02*
X164250000Y-71250000D01*
X164250000Y-71250000D02*
X156151440Y-63151440D01*
X148250000Y-59500000D02*
X146560000Y-57810000D01*
X146560000Y-57810000D02*
X146560000Y-52020000D01*
X156151440Y-63151440D02*
X156151440Y-59500000D01*
X162250000Y-57500000D02*
X162400000Y-57350000D01*
X167165710Y-70176440D02*
X171426440Y-70176440D01*
X160750000Y-57500000D02*
X158949520Y-59300480D01*
X158949520Y-61960250D02*
X167165710Y-70176440D01*
X158949520Y-59300480D02*
X158949520Y-61960250D01*
X171426440Y-70176440D02*
X174250000Y-73000000D01*
X162400000Y-57350000D02*
X162400000Y-52020000D01*
X162250000Y-57500000D02*
X160750000Y-57500000D01*
X154480000Y-57630000D02*
X154900480Y-58050480D01*
X157550479Y-58800479D02*
X157550480Y-62539750D01*
X157550480Y-62539750D02*
X166586210Y-71575480D01*
X154480000Y-52020000D02*
X154480000Y-57630000D01*
X166586210Y-71575480D02*
X167825480Y-71575480D01*
X167825480Y-71575480D02*
X169250000Y-73000000D01*
X154900480Y-58050480D02*
X156800481Y-58050481D01*
X156800481Y-58050481D02*
X157550479Y-58800479D01*
D17*
X194080000Y-76430000D02*
X193500000Y-75850000D01*
X193500000Y-64950000D02*
X194450000Y-64000000D01*
X193500000Y-75850000D02*
X193500000Y-64950000D01*
X194080000Y-81230000D02*
X194080000Y-76430000D01*
G04 #@! TA.AperFunction,Conductor*
G36*
X211192121Y-56620002D02*
G01*
X211238614Y-56673658D01*
X211250000Y-56726000D01*
X211250000Y-64724000D01*
X211229998Y-64792121D01*
X211176342Y-64838614D01*
X211124000Y-64850000D01*
X208726000Y-64850000D01*
X208657879Y-64829998D01*
X208611386Y-64776342D01*
X208600000Y-64724000D01*
X208600000Y-56726000D01*
X208620002Y-56657879D01*
X208673658Y-56611386D01*
X208726000Y-56600000D01*
X211124000Y-56600000D01*
X211192121Y-56620002D01*
G37*
G04 #@! TD.AperFunction*
G04 #@! TA.AperFunction,Conductor*
G36*
X231142121Y-56620002D02*
G01*
X231188614Y-56673658D01*
X231200000Y-56726000D01*
X231200000Y-68074000D01*
X231179998Y-68142121D01*
X231126342Y-68188614D01*
X231074000Y-68200000D01*
X224126000Y-68200000D01*
X224057879Y-68179998D01*
X224011386Y-68126342D01*
X224000000Y-68074000D01*
X224000000Y-63486653D01*
X224020002Y-63418532D01*
X224073658Y-63372039D01*
X224143932Y-63361935D01*
X224201214Y-63385564D01*
X224227531Y-63405145D01*
X224236562Y-63410745D01*
X224432484Y-63510357D01*
X224442335Y-63514357D01*
X224652240Y-63579534D01*
X224662624Y-63581817D01*
X224678043Y-63583861D01*
X224692207Y-63581665D01*
X224696000Y-63568478D01*
X224696000Y-63566192D01*
X225204000Y-63566192D01*
X225207973Y-63579723D01*
X225218580Y-63581248D01*
X225336421Y-63556523D01*
X225346617Y-63553463D01*
X225551029Y-63472737D01*
X225560561Y-63468006D01*
X225748462Y-63353984D01*
X225757052Y-63347720D01*
X225923052Y-63203673D01*
X225930470Y-63196044D01*
X225956391Y-63164431D01*
X226015051Y-63124436D01*
X226086021Y-63122504D01*
X226146770Y-63159248D01*
X226160969Y-63178017D01*
X226251522Y-63324348D01*
X226376697Y-63449305D01*
X226382927Y-63453145D01*
X226382928Y-63453146D01*
X226520090Y-63537694D01*
X226527262Y-63542115D01*
X226570701Y-63556523D01*
X226688611Y-63595632D01*
X226688613Y-63595632D01*
X226695139Y-63597797D01*
X226701975Y-63598497D01*
X226701978Y-63598498D01*
X226745031Y-63602909D01*
X226799600Y-63608500D01*
X228100400Y-63608500D01*
X228103646Y-63608163D01*
X228103650Y-63608163D01*
X228199308Y-63598238D01*
X228199312Y-63598237D01*
X228206166Y-63597526D01*
X228212702Y-63595345D01*
X228212704Y-63595345D01*
X228344806Y-63551272D01*
X228373946Y-63541550D01*
X228524348Y-63448478D01*
X228649305Y-63323303D01*
X228653146Y-63317072D01*
X228738275Y-63178968D01*
X228738276Y-63178966D01*
X228742115Y-63172738D01*
X228797797Y-63004861D01*
X228808500Y-62900400D01*
X228808500Y-61299600D01*
X228797526Y-61193834D01*
X228741550Y-61026054D01*
X228648478Y-60875652D01*
X228523303Y-60750695D01*
X228492965Y-60731994D01*
X228378968Y-60661725D01*
X228378966Y-60661724D01*
X228372738Y-60657885D01*
X228253498Y-60618335D01*
X228211389Y-60604368D01*
X228211387Y-60604368D01*
X228204861Y-60602203D01*
X228198025Y-60601503D01*
X228198022Y-60601502D01*
X228154969Y-60597091D01*
X228100400Y-60591500D01*
X226799600Y-60591500D01*
X226796354Y-60591837D01*
X226796350Y-60591837D01*
X226700692Y-60601762D01*
X226700688Y-60601763D01*
X226693834Y-60602474D01*
X226687298Y-60604655D01*
X226687296Y-60604655D01*
X226555194Y-60648728D01*
X226526054Y-60658450D01*
X226375652Y-60751522D01*
X226250695Y-60876697D01*
X226246855Y-60882927D01*
X226246854Y-60882928D01*
X226160648Y-61022780D01*
X226107876Y-61070273D01*
X226037804Y-61081697D01*
X225972680Y-61053423D01*
X225962218Y-61043636D01*
X225856766Y-60933094D01*
X225848814Y-60926059D01*
X225672475Y-60794859D01*
X225663438Y-60789255D01*
X225467516Y-60689643D01*
X225457665Y-60685643D01*
X225247760Y-60620466D01*
X225237376Y-60618183D01*
X225221957Y-60616139D01*
X225207793Y-60618335D01*
X225204000Y-60631522D01*
X225204000Y-63566192D01*
X224696000Y-63566192D01*
X224696000Y-60633808D01*
X224692027Y-60620277D01*
X224681420Y-60618752D01*
X224563579Y-60643477D01*
X224553383Y-60646537D01*
X224348971Y-60727263D01*
X224339439Y-60731994D01*
X224191366Y-60821847D01*
X224122752Y-60840086D01*
X224055169Y-60818335D01*
X224010075Y-60763498D01*
X224000000Y-60714128D01*
X224000000Y-56726000D01*
X224020002Y-56657879D01*
X224073658Y-56611386D01*
X224126000Y-56600000D01*
X231074000Y-56600000D01*
X231142121Y-56620002D01*
G37*
G04 #@! TD.AperFunction*
G04 #@! TA.AperFunction,Conductor*
G36*
X152142121Y-66620002D02*
G01*
X152188614Y-66673658D01*
X152200000Y-66726000D01*
X152200000Y-76474000D01*
X152179998Y-76542121D01*
X152126342Y-76588614D01*
X152074000Y-76600000D01*
X145126000Y-76600000D01*
X145057879Y-76579998D01*
X145011386Y-76526342D01*
X145000000Y-76474000D01*
X145000000Y-66726000D01*
X145020002Y-66657879D01*
X145073658Y-66611386D01*
X145126000Y-66600000D01*
X152074000Y-66600000D01*
X152142121Y-66620002D01*
G37*
G04 #@! TD.AperFunction*
G04 #@! TA.AperFunction,Conductor*
G36*
X191542121Y-69020002D02*
G01*
X191588614Y-69073658D01*
X191600000Y-69126000D01*
X191600000Y-70374000D01*
X191579998Y-70442121D01*
X191526342Y-70488614D01*
X191474000Y-70500000D01*
X188376000Y-70500000D01*
X188307879Y-70479998D01*
X188261386Y-70426342D01*
X188250000Y-70374000D01*
X188250000Y-69126000D01*
X188270002Y-69057879D01*
X188323658Y-69011386D01*
X188376000Y-69000000D01*
X191474000Y-69000000D01*
X191542121Y-69020002D01*
G37*
G04 #@! TD.AperFunction*
G04 #@! TA.AperFunction,Conductor*
G36*
X191542121Y-73704002D02*
G01*
X191588614Y-73757658D01*
X191600000Y-73810000D01*
X191600000Y-75058000D01*
X191579998Y-75126121D01*
X191526342Y-75172614D01*
X191474000Y-75184000D01*
X188376000Y-75184000D01*
X188307879Y-75163998D01*
X188261386Y-75110342D01*
X188250000Y-75058000D01*
X188250000Y-73810000D01*
X188270002Y-73741879D01*
X188323658Y-73695386D01*
X188376000Y-73684000D01*
X191474000Y-73684000D01*
X191542121Y-73704002D01*
G37*
G04 #@! TD.AperFunction*
G04 #@! TA.AperFunction,Conductor*
G36*
X121479492Y-56508018D02*
G01*
X121507395Y-56518478D01*
X121522649Y-56522105D01*
X121573514Y-56527631D01*
X121580328Y-56528000D01*
X122527885Y-56528000D01*
X122543124Y-56523525D01*
X122544329Y-56522135D01*
X122546000Y-56514452D01*
X122546000Y-56500000D01*
X123054000Y-56500000D01*
X123054000Y-56509884D01*
X123058475Y-56525123D01*
X123059865Y-56526328D01*
X123067548Y-56527999D01*
X124019669Y-56527999D01*
X124026490Y-56527629D01*
X124077352Y-56522105D01*
X124092603Y-56518479D01*
X124120508Y-56508018D01*
X124164738Y-56500000D01*
X125395262Y-56500000D01*
X125439492Y-56508018D01*
X125467395Y-56518478D01*
X125482649Y-56522105D01*
X125533514Y-56527631D01*
X125540328Y-56528000D01*
X126487885Y-56528000D01*
X126503124Y-56523525D01*
X126504329Y-56522135D01*
X126506000Y-56514452D01*
X126506000Y-56500000D01*
X127014000Y-56500000D01*
X127014000Y-56509884D01*
X127018475Y-56525123D01*
X127019865Y-56526328D01*
X127027548Y-56527999D01*
X127979669Y-56527999D01*
X127986490Y-56527629D01*
X128037352Y-56522105D01*
X128052607Y-56518478D01*
X128079771Y-56508295D01*
X128150578Y-56503112D01*
X128212947Y-56537033D01*
X128247076Y-56599289D01*
X128250000Y-56626277D01*
X128250000Y-76623723D01*
X128229998Y-76691844D01*
X128176342Y-76738337D01*
X128106068Y-76748441D01*
X128079771Y-76741705D01*
X128052609Y-76731522D01*
X128037351Y-76727895D01*
X127986486Y-76722369D01*
X127979672Y-76722000D01*
X127032115Y-76722000D01*
X127016876Y-76726475D01*
X127015671Y-76727865D01*
X127014000Y-76735548D01*
X127014000Y-76750000D01*
X126506000Y-76750000D01*
X126506000Y-76740116D01*
X126501525Y-76724877D01*
X126500135Y-76723672D01*
X126492452Y-76722001D01*
X125540331Y-76722001D01*
X125533510Y-76722371D01*
X125482648Y-76727895D01*
X125467397Y-76731521D01*
X125439492Y-76741982D01*
X125395262Y-76750000D01*
X124164738Y-76750000D01*
X124120508Y-76741982D01*
X124092605Y-76731522D01*
X124077351Y-76727895D01*
X124026486Y-76722369D01*
X124019672Y-76722000D01*
X123072115Y-76722000D01*
X123056876Y-76726475D01*
X123055671Y-76727865D01*
X123054000Y-76735548D01*
X123054000Y-76750000D01*
X122546000Y-76750000D01*
X122546000Y-76740116D01*
X122541525Y-76724877D01*
X122540135Y-76723672D01*
X122532452Y-76722001D01*
X121580331Y-76722001D01*
X121573510Y-76722371D01*
X121522648Y-76727895D01*
X121507397Y-76731521D01*
X121479492Y-76741982D01*
X121435262Y-76750000D01*
X121434000Y-76750000D01*
X121365879Y-76729998D01*
X121319386Y-76676342D01*
X121308000Y-76624000D01*
X121308000Y-56626000D01*
X121328002Y-56557879D01*
X121381658Y-56511386D01*
X121434000Y-56500000D01*
X121435262Y-56500000D01*
X121479492Y-56508018D01*
G37*
G04 #@! TD.AperFunction*
G04 #@! TA.AperFunction,Conductor*
G36*
X215442121Y-56620002D02*
G01*
X215488614Y-56673658D01*
X215500000Y-56726000D01*
X215500000Y-60616000D01*
X215479998Y-60684121D01*
X215426342Y-60730614D01*
X215374000Y-60742000D01*
X212326000Y-60742000D01*
X212257879Y-60721998D01*
X212211386Y-60668342D01*
X212200000Y-60616000D01*
X212200000Y-56726000D01*
X212220002Y-56657879D01*
X212273658Y-56611386D01*
X212326000Y-56600000D01*
X215374000Y-56600000D01*
X215442121Y-56620002D01*
G37*
G04 #@! TD.AperFunction*
G04 #@! TA.AperFunction,Conductor*
G36*
X200492121Y-71270002D02*
G01*
X200538614Y-71323658D01*
X200550000Y-71376000D01*
X200550000Y-72624000D01*
X200529998Y-72692121D01*
X200476342Y-72738614D01*
X200424000Y-72750000D01*
X197576000Y-72750000D01*
X197507879Y-72729998D01*
X197461386Y-72676342D01*
X197450000Y-72624000D01*
X197450000Y-71376000D01*
X197470002Y-71307879D01*
X197523658Y-71261386D01*
X197576000Y-71250000D01*
X200424000Y-71250000D01*
X200492121Y-71270002D01*
G37*
G04 #@! TD.AperFunction*
G04 #@! TA.AperFunction,Conductor*
G36*
X136142121Y-57220002D02*
G01*
X136188614Y-57273658D01*
X136200000Y-57326000D01*
X136200000Y-76634970D01*
X136179998Y-76703091D01*
X136126342Y-76749584D01*
X136056068Y-76759688D01*
X136029770Y-76752952D01*
X135972605Y-76731522D01*
X135957351Y-76727895D01*
X135906486Y-76722369D01*
X135899672Y-76722000D01*
X134952115Y-76722000D01*
X134936876Y-76726475D01*
X134935671Y-76727865D01*
X134934000Y-76735548D01*
X134934000Y-76800000D01*
X134426000Y-76800000D01*
X134426000Y-76740116D01*
X134421525Y-76724877D01*
X134420135Y-76723672D01*
X134412452Y-76722001D01*
X133460331Y-76722001D01*
X133453510Y-76722371D01*
X133402648Y-76727895D01*
X133387396Y-76731521D01*
X133266944Y-76776677D01*
X133252616Y-76784521D01*
X133192108Y-76800000D01*
X132207892Y-76800000D01*
X132147384Y-76784521D01*
X132133056Y-76776677D01*
X132012606Y-76731522D01*
X131997351Y-76727895D01*
X131946486Y-76722369D01*
X131939672Y-76722000D01*
X130992115Y-76722000D01*
X130976876Y-76726475D01*
X130975671Y-76727865D01*
X130974000Y-76735548D01*
X130974000Y-76800000D01*
X130466000Y-76800000D01*
X130466000Y-76740116D01*
X130461525Y-76724877D01*
X130460135Y-76723672D01*
X130452452Y-76722001D01*
X129500331Y-76722001D01*
X129493510Y-76722371D01*
X129442648Y-76727895D01*
X129427396Y-76731521D01*
X129306944Y-76776677D01*
X129292616Y-76784521D01*
X129232108Y-76800000D01*
X129126000Y-76800000D01*
X129057879Y-76779998D01*
X129011386Y-76726342D01*
X129000000Y-76674000D01*
X129000000Y-57326000D01*
X129020002Y-57257879D01*
X129073658Y-57211386D01*
X129126000Y-57200000D01*
X136074000Y-57200000D01*
X136142121Y-57220002D01*
G37*
G04 #@! TD.AperFunction*
G04 #@! TA.AperFunction,Conductor*
G36*
X144142121Y-57220002D02*
G01*
X144188614Y-57273658D01*
X144200000Y-57326000D01*
X144200000Y-76666395D01*
X144179998Y-76734516D01*
X144126342Y-76781009D01*
X144056068Y-76791113D01*
X144021547Y-76779601D01*
X144021462Y-76779828D01*
X144015291Y-76777515D01*
X144013487Y-76776913D01*
X144013054Y-76776676D01*
X143892606Y-76731522D01*
X143877351Y-76727895D01*
X143826486Y-76722369D01*
X143819672Y-76722000D01*
X142872115Y-76722000D01*
X142856876Y-76726475D01*
X142855671Y-76727865D01*
X142854000Y-76735548D01*
X142854000Y-76800000D01*
X142346000Y-76800000D01*
X142346000Y-76740116D01*
X142341525Y-76724877D01*
X142340135Y-76723672D01*
X142332452Y-76722001D01*
X141380331Y-76722001D01*
X141373510Y-76722371D01*
X141322648Y-76727895D01*
X141307396Y-76731521D01*
X141186944Y-76776677D01*
X141172616Y-76784521D01*
X141112108Y-76800000D01*
X141026000Y-76800000D01*
X140957879Y-76779998D01*
X140911386Y-76726342D01*
X140900000Y-76674000D01*
X140900000Y-57326000D01*
X140920002Y-57257879D01*
X140973658Y-57211386D01*
X141026000Y-57200000D01*
X144074000Y-57200000D01*
X144142121Y-57220002D01*
G37*
G04 #@! TD.AperFunction*
G04 #@! TA.AperFunction,Conductor*
G36*
X200602121Y-66568002D02*
G01*
X200648614Y-66621658D01*
X200660000Y-66674000D01*
X200660000Y-67922000D01*
X200639998Y-67990121D01*
X200586342Y-68036614D01*
X200534000Y-68048000D01*
X197686000Y-68048000D01*
X197617879Y-68027998D01*
X197571386Y-67974342D01*
X197560000Y-67922000D01*
X197560000Y-66674000D01*
X197580002Y-66605879D01*
X197633658Y-66559386D01*
X197686000Y-66548000D01*
X200534000Y-66548000D01*
X200602121Y-66568002D01*
G37*
G04 #@! TD.AperFunction*
G04 #@! TA.AperFunction,Conductor*
G36*
X140142121Y-57220002D02*
G01*
X140188614Y-57273658D01*
X140200000Y-57326000D01*
X140200000Y-76649431D01*
X140179998Y-76717552D01*
X140126342Y-76764045D01*
X140056068Y-76774149D01*
X140029771Y-76767413D01*
X139932718Y-76731029D01*
X139932712Y-76731027D01*
X139925316Y-76728255D01*
X139863134Y-76721500D01*
X137416866Y-76721500D01*
X137354684Y-76728255D01*
X137218295Y-76779385D01*
X137211379Y-76784568D01*
X137151056Y-76800000D01*
X136926000Y-76800000D01*
X136857879Y-76779998D01*
X136811386Y-76726342D01*
X136800000Y-76674000D01*
X136800000Y-57326000D01*
X136820002Y-57257879D01*
X136873658Y-57211386D01*
X136926000Y-57200000D01*
X140074000Y-57200000D01*
X140142121Y-57220002D01*
G37*
G04 #@! TD.AperFunction*
G04 #@! TA.AperFunction,Conductor*
G36*
X158543250Y-66620002D02*
G01*
X158564224Y-66636905D01*
X160163095Y-68235776D01*
X160197121Y-68298088D01*
X160200000Y-68324871D01*
X160200000Y-76474000D01*
X160179998Y-76542121D01*
X160126342Y-76588614D01*
X160074000Y-76600000D01*
X152926000Y-76600000D01*
X152857879Y-76579998D01*
X152811386Y-76526342D01*
X152800000Y-76474000D01*
X152800000Y-66726000D01*
X152820002Y-66657879D01*
X152873658Y-66611386D01*
X152926000Y-66600000D01*
X158475129Y-66600000D01*
X158543250Y-66620002D01*
G37*
G04 #@! TD.AperFunction*
G04 #@! TA.AperFunction,Conductor*
G36*
X215442121Y-61270002D02*
G01*
X215488614Y-61323658D01*
X215500000Y-61376000D01*
X215500000Y-64724000D01*
X215479998Y-64792121D01*
X215426342Y-64838614D01*
X215374000Y-64850000D01*
X212326000Y-64850000D01*
X212257879Y-64829998D01*
X212211386Y-64776342D01*
X212200000Y-64724000D01*
X212200000Y-61376000D01*
X212220002Y-61307879D01*
X212273658Y-61261386D01*
X212326000Y-61250000D01*
X215374000Y-61250000D01*
X215442121Y-61270002D01*
G37*
G04 #@! TD.AperFunction*
G04 #@! TA.AperFunction,Conductor*
G36*
X223342121Y-56620002D02*
G01*
X223388614Y-56673658D01*
X223400000Y-56726000D01*
X223400000Y-68074000D01*
X223379998Y-68142121D01*
X223326342Y-68188614D01*
X223274000Y-68200000D01*
X216326000Y-68200000D01*
X216257879Y-68179998D01*
X216211386Y-68126342D01*
X216200000Y-68074000D01*
X216200000Y-56726000D01*
X216220002Y-56657879D01*
X216273658Y-56611386D01*
X216326000Y-56600000D01*
X223274000Y-56600000D01*
X223342121Y-56620002D01*
G37*
G04 #@! TD.AperFunction*
M02*
