G04 #@! TF.GenerationSoftware,KiCad,Pcbnew,(6.0.0)*
G04 #@! TF.CreationDate,2022-02-01T22:01:56+01:00*
G04 #@! TF.ProjectId,jamma_mahjong,6a616d6d-615f-46d6-9168-6a6f6e672e6b,rev?*
G04 #@! TF.SameCoordinates,Original*
G04 #@! TF.FileFunction,Copper,L3,Inr*
G04 #@! TF.FilePolarity,Positive*
%FSLAX46Y46*%
G04 Gerber Fmt 4.6, Leading zero omitted, Abs format (unit mm)*
G04 Created by KiCad (PCBNEW (6.0.0)) date 2022-02-01 22:01:56*
%MOMM*%
%LPD*%
G01*
G04 APERTURE LIST*
G04 Aperture macros list*
%AMRoundRect*
0 Rectangle with rounded corners*
0 $1 Rounding radius*
0 $2 $3 $4 $5 $6 $7 $8 $9 X,Y pos of 4 corners*
0 Add a 4 corners polygon primitive as box body*
4,1,4,$2,$3,$4,$5,$6,$7,$8,$9,$2,$3,0*
0 Add four circle primitives for the rounded corners*
1,1,$1+$1,$2,$3*
1,1,$1+$1,$4,$5*
1,1,$1+$1,$6,$7*
1,1,$1+$1,$8,$9*
0 Add four rect primitives between the rounded corners*
20,1,$1+$1,$2,$3,$4,$5,0*
20,1,$1+$1,$4,$5,$6,$7,0*
20,1,$1+$1,$6,$7,$8,$9,0*
20,1,$1+$1,$8,$9,$2,$3,0*%
G04 Aperture macros list end*
G04 #@! TA.AperFunction,ComponentPad*
%ADD10C,2.781000*%
G04 #@! TD*
G04 #@! TA.AperFunction,ComponentPad*
%ADD11RoundRect,0.250000X0.600000X0.725000X-0.600000X0.725000X-0.600000X-0.725000X0.600000X-0.725000X0*%
G04 #@! TD*
G04 #@! TA.AperFunction,ComponentPad*
%ADD12O,1.700000X1.950000*%
G04 #@! TD*
G04 #@! TA.AperFunction,ComponentPad*
%ADD13RoundRect,0.250000X0.600000X0.750000X-0.600000X0.750000X-0.600000X-0.750000X0.600000X-0.750000X0*%
G04 #@! TD*
G04 #@! TA.AperFunction,ComponentPad*
%ADD14O,1.700000X2.000000*%
G04 #@! TD*
G04 #@! TA.AperFunction,ViaPad*
%ADD15C,0.800000*%
G04 #@! TD*
G04 #@! TA.AperFunction,Conductor*
%ADD16C,0.500000*%
G04 #@! TD*
G04 APERTURE END LIST*
D10*
X194450000Y-64000000D03*
X189750000Y-64000000D03*
X185050000Y-64000000D03*
D11*
X227000000Y-73000000D03*
D12*
X224500000Y-73000000D03*
X222000000Y-73000000D03*
X219500000Y-73000000D03*
X217000000Y-73000000D03*
X214500000Y-73000000D03*
D11*
X176750000Y-73000000D03*
D12*
X174250000Y-73000000D03*
X171750000Y-73000000D03*
X169250000Y-73000000D03*
X166750000Y-73000000D03*
X164250000Y-73000000D03*
D13*
X227450000Y-62100000D03*
D14*
X224950000Y-62100000D03*
D15*
X209250000Y-61900000D03*
X142494000Y-75946000D03*
X142500000Y-58900000D03*
X142500000Y-60100000D03*
X142500000Y-57700000D03*
X209250000Y-64300000D03*
X209920000Y-57130000D03*
X209250000Y-63100000D03*
X210650000Y-64300000D03*
X142494000Y-74930000D03*
X122800000Y-57200000D03*
X158500000Y-76000000D03*
X126760000Y-57240000D03*
X126800000Y-58800000D03*
X154500000Y-76000000D03*
X225800000Y-59000000D03*
X122800000Y-58800000D03*
X225760000Y-57600000D03*
X156600000Y-76000000D03*
X122800000Y-75800000D03*
X177500000Y-66000000D03*
X229750000Y-59000000D03*
X156600000Y-75000000D03*
X122800000Y-74200000D03*
X206248000Y-72898000D03*
X207264000Y-72898000D03*
X177500000Y-67250000D03*
X154500000Y-75000000D03*
X227600000Y-59000000D03*
X158500000Y-75000000D03*
X126800000Y-74200000D03*
X229720000Y-57600000D03*
X227600000Y-57600000D03*
X126750000Y-75750000D03*
X219800000Y-57600000D03*
X134500000Y-74500000D03*
X130750000Y-75750000D03*
X130750000Y-74500000D03*
X150500000Y-76000000D03*
X150500000Y-75000000D03*
X132600000Y-75800000D03*
X132600000Y-74400000D03*
X217840000Y-57660000D03*
X148400000Y-76000000D03*
X130200000Y-58400000D03*
X221800000Y-57600000D03*
X132600000Y-58400000D03*
X134680000Y-75820000D03*
X146500000Y-75000000D03*
X148400000Y-75000000D03*
X146500000Y-76000000D03*
X221800000Y-59000000D03*
X219800000Y-59000000D03*
X217800000Y-59000000D03*
X135000000Y-58400000D03*
X214950000Y-58900000D03*
X214950000Y-57650000D03*
X214950000Y-60200000D03*
X199900000Y-74422000D03*
X190950000Y-74422000D03*
X198200000Y-74422000D03*
X189738000Y-74422000D03*
X197000000Y-61250000D03*
X175250000Y-68250000D03*
X203708000Y-67818000D03*
X190950000Y-69750000D03*
X189700000Y-69750000D03*
X198200000Y-69800000D03*
X199900000Y-69800000D03*
X199898000Y-67310000D03*
X190950000Y-67310000D03*
X189738000Y-67310000D03*
X198201018Y-67311018D03*
X172500000Y-62750000D03*
X172500000Y-66250000D03*
X198200000Y-72000000D03*
X199900000Y-72000000D03*
X190950000Y-72000000D03*
X189700000Y-72000000D03*
X209804000Y-75692000D03*
X181356000Y-73152000D03*
X172500000Y-68000000D03*
X172500000Y-64500000D03*
X172500000Y-61000000D03*
X138750000Y-58800000D03*
X214900000Y-64300000D03*
X212800000Y-61900000D03*
X214900000Y-61900000D03*
X138750000Y-57650000D03*
X138800000Y-60200000D03*
X212800000Y-64300000D03*
D16*
X175000000Y-66500000D02*
X175000000Y-68000000D01*
X198628000Y-62484000D02*
X196342000Y-62484000D01*
X195358000Y-61500000D02*
X180000000Y-61500000D01*
X196342000Y-62484000D02*
X195358000Y-61500000D01*
X175000000Y-68000000D02*
X175250000Y-68250000D01*
X180000000Y-61500000D02*
X175000000Y-66500000D01*
X203708000Y-67818000D02*
X203708000Y-67564000D01*
X203708000Y-67564000D02*
X198628000Y-62484000D01*
X178500000Y-56750000D02*
X198750000Y-56750000D01*
X172500000Y-62750000D02*
X178500000Y-56750000D01*
X209500000Y-67500000D02*
X219000000Y-67500000D01*
X198750000Y-56750000D02*
X209500000Y-67500000D01*
X219000000Y-67500000D02*
X224500000Y-73000000D01*
X172500000Y-66250000D02*
X180000000Y-58750000D01*
X197500000Y-58750000D02*
X208250000Y-69500000D01*
X216000000Y-69500000D02*
X219500000Y-73000000D01*
X208250000Y-69500000D02*
X216000000Y-69500000D01*
X180000000Y-58750000D02*
X197500000Y-58750000D01*
X208000000Y-70500000D02*
X214500000Y-70500000D01*
X180750000Y-59750000D02*
X197250000Y-59750000D01*
X172500000Y-68000000D02*
X180750000Y-59750000D01*
X214500000Y-70500000D02*
X217000000Y-73000000D01*
X197250000Y-59750000D02*
X208000000Y-70500000D01*
X208750000Y-68500000D02*
X217500000Y-68500000D01*
X172500000Y-64500000D02*
X179250000Y-57750000D01*
X198000000Y-57750000D02*
X208750000Y-68500000D01*
X179250000Y-57750000D02*
X198000000Y-57750000D01*
X217500000Y-68500000D02*
X222000000Y-73000000D01*
X172500000Y-61000000D02*
X178000000Y-55500000D01*
X210000000Y-66500000D02*
X220500000Y-66500000D01*
X220500000Y-66500000D02*
X227000000Y-73000000D01*
X178000000Y-55500000D02*
X199000000Y-55500000D01*
X199000000Y-55500000D02*
X210000000Y-66500000D01*
G04 #@! TA.AperFunction,Conductor*
G36*
X126271105Y-56154002D02*
G01*
X126317598Y-56207658D01*
X126327702Y-56277932D01*
X126298208Y-56342512D01*
X126261359Y-56371662D01*
X126209512Y-56398767D01*
X126204712Y-56402627D01*
X126204711Y-56402627D01*
X126193413Y-56411711D01*
X126056600Y-56521711D01*
X125930480Y-56672016D01*
X125927516Y-56677408D01*
X125927513Y-56677412D01*
X125857946Y-56803954D01*
X125835956Y-56843954D01*
X125834095Y-56849821D01*
X125834094Y-56849823D01*
X125819327Y-56896376D01*
X125776628Y-57030978D01*
X125754757Y-57225963D01*
X125771175Y-57421483D01*
X125825258Y-57610091D01*
X125835407Y-57629838D01*
X125912123Y-57779113D01*
X125912126Y-57779117D01*
X125914944Y-57784601D01*
X126036818Y-57938369D01*
X126041512Y-57942364D01*
X126041514Y-57942366D01*
X126046578Y-57946676D01*
X126085490Y-58006059D01*
X126086119Y-58077053D01*
X126061435Y-58123619D01*
X126028009Y-58163455D01*
X125970480Y-58232016D01*
X125967516Y-58237408D01*
X125967513Y-58237412D01*
X125924229Y-58316146D01*
X125875956Y-58403954D01*
X125874095Y-58409821D01*
X125874094Y-58409823D01*
X125861633Y-58449104D01*
X125816628Y-58590978D01*
X125794757Y-58785963D01*
X125811175Y-58981483D01*
X125865258Y-59170091D01*
X125868076Y-59175574D01*
X125952123Y-59339113D01*
X125952126Y-59339117D01*
X125954944Y-59344601D01*
X126076818Y-59498369D01*
X126081511Y-59502363D01*
X126081512Y-59502364D01*
X126177638Y-59584173D01*
X126226238Y-59625535D01*
X126231616Y-59628541D01*
X126231618Y-59628542D01*
X126267932Y-59648837D01*
X126397513Y-59721257D01*
X126584118Y-59781889D01*
X126778946Y-59805121D01*
X126785081Y-59804649D01*
X126785083Y-59804649D01*
X126968434Y-59790541D01*
X126968438Y-59790540D01*
X126974576Y-59790068D01*
X127163556Y-59737303D01*
X127338689Y-59648837D01*
X127345325Y-59643653D01*
X127488453Y-59531829D01*
X127493303Y-59528040D01*
X127506392Y-59512877D01*
X127617485Y-59384173D01*
X127617485Y-59384172D01*
X127621509Y-59379511D01*
X127626861Y-59370091D01*
X127681786Y-59273405D01*
X127718425Y-59208909D01*
X127780358Y-59022732D01*
X127804949Y-58828071D01*
X127805341Y-58800000D01*
X127803965Y-58785963D01*
X137744757Y-58785963D01*
X137761175Y-58981483D01*
X137815258Y-59170091D01*
X137818076Y-59175574D01*
X137902123Y-59339113D01*
X137902126Y-59339117D01*
X137904944Y-59344601D01*
X137988034Y-59449435D01*
X137990094Y-59452034D01*
X138016732Y-59517844D01*
X138003561Y-59587609D01*
X137987871Y-59611290D01*
X137970480Y-59632016D01*
X137967516Y-59637408D01*
X137967513Y-59637412D01*
X137927705Y-59709823D01*
X137875956Y-59803954D01*
X137816628Y-59990978D01*
X137794757Y-60185963D01*
X137811175Y-60381483D01*
X137865258Y-60570091D01*
X137868076Y-60575574D01*
X137952123Y-60739113D01*
X137952126Y-60739117D01*
X137954944Y-60744601D01*
X138076818Y-60898369D01*
X138081511Y-60902363D01*
X138081512Y-60902364D01*
X138169889Y-60977578D01*
X138226238Y-61025535D01*
X138231616Y-61028541D01*
X138231618Y-61028542D01*
X138293696Y-61063236D01*
X138397513Y-61121257D01*
X138584118Y-61181889D01*
X138778946Y-61205121D01*
X138785081Y-61204649D01*
X138785083Y-61204649D01*
X138968434Y-61190541D01*
X138968438Y-61190540D01*
X138974576Y-61190068D01*
X139163556Y-61137303D01*
X139338689Y-61048837D01*
X139352348Y-61038166D01*
X139444560Y-60966122D01*
X139493303Y-60928040D01*
X139502820Y-60917015D01*
X139617485Y-60784173D01*
X139617485Y-60784172D01*
X139621509Y-60779511D01*
X139639837Y-60747249D01*
X139668322Y-60697105D01*
X139718425Y-60608909D01*
X139780358Y-60422732D01*
X139804949Y-60228071D01*
X139805341Y-60200000D01*
X139794159Y-60085963D01*
X141494757Y-60085963D01*
X141511175Y-60281483D01*
X141565258Y-60470091D01*
X141568076Y-60475574D01*
X141652123Y-60639113D01*
X141652126Y-60639117D01*
X141654944Y-60644601D01*
X141776818Y-60798369D01*
X141781511Y-60802363D01*
X141781512Y-60802364D01*
X141912928Y-60914207D01*
X141926238Y-60925535D01*
X141931616Y-60928541D01*
X141931618Y-60928542D01*
X142010022Y-60972360D01*
X142097513Y-61021257D01*
X142284118Y-61081889D01*
X142478946Y-61105121D01*
X142485081Y-61104649D01*
X142485083Y-61104649D01*
X142668434Y-61090541D01*
X142668438Y-61090540D01*
X142674576Y-61090068D01*
X142863556Y-61037303D01*
X143038689Y-60948837D01*
X143060459Y-60931829D01*
X143150345Y-60861602D01*
X143193303Y-60828040D01*
X143223084Y-60793539D01*
X143317485Y-60684173D01*
X143317485Y-60684172D01*
X143321509Y-60679511D01*
X143331025Y-60662761D01*
X143380554Y-60575574D01*
X143418425Y-60508909D01*
X143480358Y-60322732D01*
X143504949Y-60128071D01*
X143505341Y-60100000D01*
X143486194Y-59904728D01*
X143484413Y-59898829D01*
X143484412Y-59898824D01*
X143431265Y-59722793D01*
X143429484Y-59716894D01*
X143344604Y-59557259D01*
X143330285Y-59487724D01*
X143346300Y-59435871D01*
X143364942Y-59403056D01*
X143418425Y-59308909D01*
X143480358Y-59122732D01*
X143504949Y-58928071D01*
X143505341Y-58900000D01*
X143486194Y-58704728D01*
X143484413Y-58698829D01*
X143484412Y-58698824D01*
X143431265Y-58522793D01*
X143429484Y-58516894D01*
X143344604Y-58357259D01*
X143330285Y-58287724D01*
X143346300Y-58235871D01*
X143351296Y-58227077D01*
X143418425Y-58108909D01*
X143480358Y-57922732D01*
X143504949Y-57728071D01*
X143505341Y-57700000D01*
X143486194Y-57504728D01*
X143484413Y-57498829D01*
X143484412Y-57498824D01*
X143431265Y-57322793D01*
X143429484Y-57316894D01*
X143337370Y-57143653D01*
X143213361Y-56991602D01*
X143062180Y-56866535D01*
X142889585Y-56773213D01*
X142795869Y-56744203D01*
X142708039Y-56717015D01*
X142708036Y-56717014D01*
X142702152Y-56715193D01*
X142696027Y-56714549D01*
X142696026Y-56714549D01*
X142513147Y-56695327D01*
X142513146Y-56695327D01*
X142507019Y-56694683D01*
X142384383Y-56705844D01*
X142317759Y-56711907D01*
X142317758Y-56711907D01*
X142311618Y-56712466D01*
X142305704Y-56714207D01*
X142305702Y-56714207D01*
X142213133Y-56741452D01*
X142123393Y-56767864D01*
X142117928Y-56770721D01*
X141954972Y-56855912D01*
X141954968Y-56855915D01*
X141949512Y-56858767D01*
X141944712Y-56862627D01*
X141944711Y-56862627D01*
X141925775Y-56877852D01*
X141796600Y-56981711D01*
X141670480Y-57132016D01*
X141667516Y-57137408D01*
X141667513Y-57137412D01*
X141623818Y-57216894D01*
X141575956Y-57303954D01*
X141574095Y-57309821D01*
X141574094Y-57309823D01*
X141558626Y-57358584D01*
X141516628Y-57490978D01*
X141494757Y-57685963D01*
X141511175Y-57881483D01*
X141565258Y-58070091D01*
X141632270Y-58200482D01*
X141654944Y-58244601D01*
X141652337Y-58245941D01*
X141668991Y-58301920D01*
X141653406Y-58363072D01*
X141578925Y-58498551D01*
X141578922Y-58498559D01*
X141575956Y-58503954D01*
X141516628Y-58690978D01*
X141494757Y-58885963D01*
X141511175Y-59081483D01*
X141565258Y-59270091D01*
X141568076Y-59275574D01*
X141654944Y-59444601D01*
X141652337Y-59445941D01*
X141668991Y-59501920D01*
X141653406Y-59563072D01*
X141578925Y-59698551D01*
X141578920Y-59698562D01*
X141575956Y-59703954D01*
X141516628Y-59890978D01*
X141494757Y-60085963D01*
X139794159Y-60085963D01*
X139786194Y-60004728D01*
X139784413Y-59998829D01*
X139784412Y-59998824D01*
X139731265Y-59822793D01*
X139729484Y-59816894D01*
X139637370Y-59643653D01*
X139561427Y-59550537D01*
X139533873Y-59485106D01*
X139546069Y-59415164D01*
X139563692Y-59388567D01*
X139567484Y-59384175D01*
X139567488Y-59384170D01*
X139571509Y-59379511D01*
X139576861Y-59370091D01*
X139631786Y-59273405D01*
X139668425Y-59208909D01*
X139730358Y-59022732D01*
X139754949Y-58828071D01*
X139755341Y-58800000D01*
X139736194Y-58604728D01*
X139734413Y-58598829D01*
X139734412Y-58598824D01*
X139681265Y-58422793D01*
X139679484Y-58416894D01*
X139608338Y-58283088D01*
X139594018Y-58213551D01*
X139610033Y-58161699D01*
X139665376Y-58064277D01*
X139665378Y-58064272D01*
X139668425Y-58058909D01*
X139730358Y-57872732D01*
X139754949Y-57678071D01*
X139755155Y-57663340D01*
X139755292Y-57653523D01*
X139755292Y-57653519D01*
X139755341Y-57650000D01*
X139736194Y-57454728D01*
X139734413Y-57448829D01*
X139734412Y-57448824D01*
X139681265Y-57272793D01*
X139679484Y-57266894D01*
X139587370Y-57093653D01*
X139463361Y-56941602D01*
X139312180Y-56816535D01*
X139139585Y-56723213D01*
X139011787Y-56683653D01*
X138958039Y-56667015D01*
X138958036Y-56667014D01*
X138952152Y-56665193D01*
X138946027Y-56664549D01*
X138946026Y-56664549D01*
X138763147Y-56645327D01*
X138763146Y-56645327D01*
X138757019Y-56644683D01*
X138634383Y-56655844D01*
X138567759Y-56661907D01*
X138567758Y-56661907D01*
X138561618Y-56662466D01*
X138555704Y-56664207D01*
X138555702Y-56664207D01*
X138489631Y-56683653D01*
X138373393Y-56717864D01*
X138367928Y-56720721D01*
X138204972Y-56805912D01*
X138204968Y-56805915D01*
X138199512Y-56808767D01*
X138194712Y-56812627D01*
X138194711Y-56812627D01*
X138182067Y-56822793D01*
X138046600Y-56931711D01*
X137920480Y-57082016D01*
X137917516Y-57087408D01*
X137917513Y-57087412D01*
X137853681Y-57203523D01*
X137825956Y-57253954D01*
X137824095Y-57259821D01*
X137824094Y-57259823D01*
X137798772Y-57339647D01*
X137766628Y-57440978D01*
X137744757Y-57635963D01*
X137761175Y-57831483D01*
X137815258Y-58020091D01*
X137881732Y-58149434D01*
X137891765Y-58168957D01*
X137905113Y-58238687D01*
X137890113Y-58287252D01*
X137828925Y-58398551D01*
X137828922Y-58398559D01*
X137825956Y-58403954D01*
X137824095Y-58409821D01*
X137824094Y-58409823D01*
X137811633Y-58449104D01*
X137766628Y-58590978D01*
X137744757Y-58785963D01*
X127803965Y-58785963D01*
X127786194Y-58604728D01*
X127784413Y-58598829D01*
X127784412Y-58598824D01*
X127731265Y-58422793D01*
X127729484Y-58416894D01*
X127637370Y-58243653D01*
X127552110Y-58139113D01*
X127517259Y-58096381D01*
X127517257Y-58096379D01*
X127513361Y-58091602D01*
X127508612Y-58087673D01*
X127505991Y-58085034D01*
X127472185Y-58022603D01*
X127477499Y-57951805D01*
X127500017Y-57913921D01*
X127577485Y-57824173D01*
X127577485Y-57824172D01*
X127581509Y-57819511D01*
X127606600Y-57775344D01*
X127659868Y-57681575D01*
X127678425Y-57648909D01*
X127740358Y-57462732D01*
X127764949Y-57268071D01*
X127765188Y-57250989D01*
X127765292Y-57243523D01*
X127765292Y-57243519D01*
X127765341Y-57240000D01*
X127746194Y-57044728D01*
X127744413Y-57038829D01*
X127744412Y-57038824D01*
X127691265Y-56862793D01*
X127689484Y-56856894D01*
X127597370Y-56683653D01*
X127473361Y-56531602D01*
X127322180Y-56406535D01*
X127256156Y-56370836D01*
X127205748Y-56320841D01*
X127190370Y-56251530D01*
X127214906Y-56184908D01*
X127271566Y-56142127D01*
X127316085Y-56134000D01*
X175859021Y-56134000D01*
X175927142Y-56154002D01*
X175973635Y-56207658D01*
X175983739Y-56277932D01*
X175954245Y-56342512D01*
X175948116Y-56349095D01*
X172296250Y-60000962D01*
X172242730Y-60032741D01*
X172162039Y-60056490D01*
X172123393Y-60067864D01*
X172117933Y-60070718D01*
X172117934Y-60070718D01*
X171954972Y-60155912D01*
X171954968Y-60155915D01*
X171949512Y-60158767D01*
X171796600Y-60281711D01*
X171670480Y-60432016D01*
X171667516Y-60437408D01*
X171667513Y-60437412D01*
X171609566Y-60542817D01*
X171575956Y-60603954D01*
X171574095Y-60609821D01*
X171574094Y-60609823D01*
X171570093Y-60622436D01*
X171516628Y-60790978D01*
X171499720Y-60941716D01*
X171496392Y-60971391D01*
X171494757Y-60985963D01*
X171511175Y-61181483D01*
X171565258Y-61370091D01*
X171568076Y-61375574D01*
X171652123Y-61539113D01*
X171652126Y-61539117D01*
X171654944Y-61544601D01*
X171776818Y-61698369D01*
X171837485Y-61750000D01*
X171871844Y-61779242D01*
X171910757Y-61838625D01*
X171911388Y-61909618D01*
X171869133Y-61973393D01*
X171796600Y-62031711D01*
X171670480Y-62182016D01*
X171667516Y-62187408D01*
X171667513Y-62187412D01*
X171625316Y-62264169D01*
X171575956Y-62353954D01*
X171574095Y-62359821D01*
X171574094Y-62359823D01*
X171553686Y-62424158D01*
X171516628Y-62540978D01*
X171494757Y-62735963D01*
X171511175Y-62931483D01*
X171565258Y-63120091D01*
X171583076Y-63154760D01*
X171652123Y-63289113D01*
X171652126Y-63289117D01*
X171654944Y-63294601D01*
X171776818Y-63448369D01*
X171781511Y-63452363D01*
X171781512Y-63452364D01*
X171871844Y-63529242D01*
X171910757Y-63588625D01*
X171911388Y-63659618D01*
X171869133Y-63723393D01*
X171796600Y-63781711D01*
X171670480Y-63932016D01*
X171667516Y-63937408D01*
X171667513Y-63937412D01*
X171635455Y-63995726D01*
X171575956Y-64103954D01*
X171574095Y-64109821D01*
X171574094Y-64109823D01*
X171570192Y-64122124D01*
X171516628Y-64290978D01*
X171494757Y-64485963D01*
X171511175Y-64681483D01*
X171565258Y-64870091D01*
X171568076Y-64875574D01*
X171652123Y-65039113D01*
X171652126Y-65039117D01*
X171654944Y-65044601D01*
X171776818Y-65198369D01*
X171781511Y-65202363D01*
X171781512Y-65202364D01*
X171871844Y-65279242D01*
X171910757Y-65338625D01*
X171911388Y-65409618D01*
X171869133Y-65473393D01*
X171796600Y-65531711D01*
X171670480Y-65682016D01*
X171667516Y-65687408D01*
X171667513Y-65687412D01*
X171616469Y-65780261D01*
X171575956Y-65853954D01*
X171574095Y-65859821D01*
X171574094Y-65859823D01*
X171567548Y-65880460D01*
X171516628Y-66040978D01*
X171494757Y-66235963D01*
X171511175Y-66431483D01*
X171565258Y-66620091D01*
X171580508Y-66649764D01*
X171652123Y-66789113D01*
X171652126Y-66789117D01*
X171654944Y-66794601D01*
X171776818Y-66948369D01*
X171781511Y-66952363D01*
X171781512Y-66952364D01*
X171871844Y-67029242D01*
X171910757Y-67088625D01*
X171911388Y-67159618D01*
X171869133Y-67223393D01*
X171796600Y-67281711D01*
X171670480Y-67432016D01*
X171667516Y-67437408D01*
X171667513Y-67437412D01*
X171610234Y-67541602D01*
X171575956Y-67603954D01*
X171574095Y-67609821D01*
X171574094Y-67609823D01*
X171560380Y-67653056D01*
X171516628Y-67790978D01*
X171494757Y-67985963D01*
X171511175Y-68181483D01*
X171565258Y-68370091D01*
X171579350Y-68397511D01*
X171652123Y-68539113D01*
X171652126Y-68539117D01*
X171654944Y-68544601D01*
X171776818Y-68698369D01*
X171781511Y-68702363D01*
X171781512Y-68702364D01*
X171920582Y-68820721D01*
X171926238Y-68825535D01*
X171931616Y-68828541D01*
X171931618Y-68828542D01*
X171967932Y-68848837D01*
X172097513Y-68921257D01*
X172284118Y-68981889D01*
X172478946Y-69005121D01*
X172485081Y-69004649D01*
X172485083Y-69004649D01*
X172668434Y-68990541D01*
X172668438Y-68990540D01*
X172674576Y-68990068D01*
X172863556Y-68937303D01*
X173038689Y-68848837D01*
X173068515Y-68825535D01*
X173161962Y-68752526D01*
X173193303Y-68728040D01*
X173223084Y-68693539D01*
X173317485Y-68584173D01*
X173317485Y-68584172D01*
X173321509Y-68579511D01*
X173418425Y-68408909D01*
X173457265Y-68292151D01*
X173471107Y-68250542D01*
X173501570Y-68201219D01*
X173934405Y-67768384D01*
X173996717Y-67734358D01*
X174067532Y-67739423D01*
X174124368Y-67781970D01*
X174149179Y-67848490D01*
X174149500Y-67857479D01*
X174149500Y-67958938D01*
X174149058Y-67969479D01*
X174144740Y-68020902D01*
X174145642Y-68027662D01*
X174145642Y-68027666D01*
X174155381Y-68100659D01*
X174155751Y-68103713D01*
X174163089Y-68171257D01*
X174164442Y-68183709D01*
X174166616Y-68190169D01*
X174167286Y-68193217D01*
X174167367Y-68193678D01*
X174167403Y-68193829D01*
X174167536Y-68194288D01*
X174168278Y-68197307D01*
X174169180Y-68204069D01*
X174171513Y-68210479D01*
X174171514Y-68210483D01*
X174196697Y-68279671D01*
X174197715Y-68282577D01*
X174220574Y-68350500D01*
X174223383Y-68358848D01*
X174226900Y-68364702D01*
X174228200Y-68367514D01*
X174228382Y-68367957D01*
X174228458Y-68368116D01*
X174228686Y-68368534D01*
X174230049Y-68371303D01*
X174232382Y-68377715D01*
X174236036Y-68383473D01*
X174236038Y-68383477D01*
X174247054Y-68400836D01*
X174261787Y-68433618D01*
X174315258Y-68620091D01*
X174327307Y-68643535D01*
X174402123Y-68789113D01*
X174402126Y-68789117D01*
X174404944Y-68794601D01*
X174526818Y-68948369D01*
X174531511Y-68952363D01*
X174531512Y-68952364D01*
X174630290Y-69036430D01*
X174676238Y-69075535D01*
X174681616Y-69078541D01*
X174681618Y-69078542D01*
X174717932Y-69098837D01*
X174847513Y-69171257D01*
X175034118Y-69231889D01*
X175228946Y-69255121D01*
X175235081Y-69254649D01*
X175235083Y-69254649D01*
X175418434Y-69240541D01*
X175418438Y-69240540D01*
X175424576Y-69240068D01*
X175613556Y-69187303D01*
X175788689Y-69098837D01*
X175797950Y-69091602D01*
X175938453Y-68981829D01*
X175943303Y-68978040D01*
X175962404Y-68955912D01*
X176067485Y-68834173D01*
X176067485Y-68834172D01*
X176071509Y-68829511D01*
X176076503Y-68820721D01*
X176148752Y-68693539D01*
X176168425Y-68658909D01*
X176230358Y-68472732D01*
X176254949Y-68278071D01*
X176255155Y-68263340D01*
X176255292Y-68253523D01*
X176255292Y-68253519D01*
X176255341Y-68250000D01*
X176236194Y-68054728D01*
X176234413Y-68048829D01*
X176234412Y-68048824D01*
X176181265Y-67872793D01*
X176179484Y-67866894D01*
X176087370Y-67693653D01*
X175963361Y-67541602D01*
X175896184Y-67486029D01*
X175856447Y-67427197D01*
X175850500Y-67388945D01*
X175850500Y-66904479D01*
X175870502Y-66836358D01*
X175887405Y-66815384D01*
X176364132Y-66338657D01*
X176426444Y-66304631D01*
X176497259Y-66309696D01*
X176554095Y-66352243D01*
X176565285Y-66370144D01*
X176654944Y-66544601D01*
X176658774Y-66549434D01*
X176662112Y-66554613D01*
X176660332Y-66555760D01*
X176683361Y-66612662D01*
X176668393Y-66685812D01*
X176575956Y-66853954D01*
X176516628Y-67040978D01*
X176494757Y-67235963D01*
X176511175Y-67431483D01*
X176565258Y-67620091D01*
X176568076Y-67625574D01*
X176652123Y-67789113D01*
X176652126Y-67789117D01*
X176654944Y-67794601D01*
X176776818Y-67948369D01*
X176781511Y-67952363D01*
X176781512Y-67952364D01*
X176894853Y-68048824D01*
X176926238Y-68075535D01*
X176931616Y-68078541D01*
X176931618Y-68078542D01*
X176967932Y-68098837D01*
X177097513Y-68171257D01*
X177284118Y-68231889D01*
X177478946Y-68255121D01*
X177485081Y-68254649D01*
X177485083Y-68254649D01*
X177668434Y-68240541D01*
X177668438Y-68240540D01*
X177674576Y-68240068D01*
X177863556Y-68187303D01*
X178038689Y-68098837D01*
X178068515Y-68075535D01*
X178158280Y-68005403D01*
X178193303Y-67978040D01*
X178200021Y-67970258D01*
X178317485Y-67834173D01*
X178317485Y-67834172D01*
X178321509Y-67829511D01*
X178335986Y-67804028D01*
X178395591Y-67699104D01*
X178418425Y-67658909D01*
X178480358Y-67472732D01*
X178502689Y-67295963D01*
X188732757Y-67295963D01*
X188749175Y-67491483D01*
X188803258Y-67680091D01*
X188806076Y-67685574D01*
X188890123Y-67849113D01*
X188890126Y-67849117D01*
X188892944Y-67854601D01*
X189014818Y-68008369D01*
X189019511Y-68012363D01*
X189019512Y-68012364D01*
X189062353Y-68048824D01*
X189164238Y-68135535D01*
X189169616Y-68138541D01*
X189169618Y-68138542D01*
X189210897Y-68161612D01*
X189335513Y-68231257D01*
X189522118Y-68291889D01*
X189716946Y-68315121D01*
X189723081Y-68314649D01*
X189723083Y-68314649D01*
X189906434Y-68300541D01*
X189906438Y-68300540D01*
X189912576Y-68300068D01*
X190101556Y-68247303D01*
X190276689Y-68158837D01*
X190279622Y-68156546D01*
X190347040Y-68137163D01*
X190407797Y-68153173D01*
X190547513Y-68231257D01*
X190734118Y-68291889D01*
X190928946Y-68315121D01*
X190935081Y-68314649D01*
X190935083Y-68314649D01*
X191118434Y-68300541D01*
X191118438Y-68300540D01*
X191124576Y-68300068D01*
X191313556Y-68247303D01*
X191488689Y-68158837D01*
X191517212Y-68136553D01*
X191570336Y-68095048D01*
X191643303Y-68038040D01*
X191668036Y-68009387D01*
X191767485Y-67894173D01*
X191767485Y-67894172D01*
X191771509Y-67889511D01*
X191790763Y-67855619D01*
X191856771Y-67739423D01*
X191868425Y-67718909D01*
X191930358Y-67532732D01*
X191954949Y-67338071D01*
X191955341Y-67310000D01*
X191954064Y-67296981D01*
X197195775Y-67296981D01*
X197212193Y-67492501D01*
X197266276Y-67681109D01*
X197269094Y-67686592D01*
X197353141Y-67850131D01*
X197353144Y-67850135D01*
X197355962Y-67855619D01*
X197477836Y-68009387D01*
X197482529Y-68013381D01*
X197482530Y-68013382D01*
X197592689Y-68107134D01*
X197627256Y-68136553D01*
X197632634Y-68139559D01*
X197632636Y-68139560D01*
X197696665Y-68175344D01*
X197798531Y-68232275D01*
X197985136Y-68292907D01*
X198179964Y-68316139D01*
X198186099Y-68315667D01*
X198186101Y-68315667D01*
X198369452Y-68301559D01*
X198369456Y-68301558D01*
X198375594Y-68301086D01*
X198564574Y-68248321D01*
X198739707Y-68159855D01*
X198769533Y-68136553D01*
X198889471Y-68042847D01*
X198894321Y-68039058D01*
X198899221Y-68033382D01*
X198946990Y-67978040D01*
X198953707Y-67970258D01*
X199013360Y-67931761D01*
X199084356Y-67931625D01*
X199147834Y-67974324D01*
X199157059Y-67985963D01*
X199174818Y-68008369D01*
X199179511Y-68012363D01*
X199179512Y-68012364D01*
X199222353Y-68048824D01*
X199324238Y-68135535D01*
X199329616Y-68138541D01*
X199329618Y-68138542D01*
X199370897Y-68161612D01*
X199495513Y-68231257D01*
X199682118Y-68291889D01*
X199876946Y-68315121D01*
X199883081Y-68314649D01*
X199883083Y-68314649D01*
X200066434Y-68300541D01*
X200066438Y-68300540D01*
X200072576Y-68300068D01*
X200261556Y-68247303D01*
X200436689Y-68158837D01*
X200465212Y-68136553D01*
X200518336Y-68095048D01*
X200591303Y-68038040D01*
X200616036Y-68009387D01*
X200715485Y-67894173D01*
X200715485Y-67894172D01*
X200719509Y-67889511D01*
X200738763Y-67855619D01*
X200804771Y-67739423D01*
X200816425Y-67718909D01*
X200878358Y-67532732D01*
X200902949Y-67338071D01*
X200903341Y-67310000D01*
X200884194Y-67114728D01*
X200882413Y-67108829D01*
X200882412Y-67108824D01*
X200829265Y-66932793D01*
X200827484Y-66926894D01*
X200735370Y-66753653D01*
X200611361Y-66601602D01*
X200460180Y-66476535D01*
X200287585Y-66383213D01*
X200187537Y-66352243D01*
X200106039Y-66327015D01*
X200106036Y-66327014D01*
X200100152Y-66325193D01*
X200094027Y-66324549D01*
X200094026Y-66324549D01*
X199911147Y-66305327D01*
X199911146Y-66305327D01*
X199905019Y-66304683D01*
X199782383Y-66315844D01*
X199715759Y-66321907D01*
X199715758Y-66321907D01*
X199709618Y-66322466D01*
X199703704Y-66324207D01*
X199703702Y-66324207D01*
X199690703Y-66328033D01*
X199521393Y-66377864D01*
X199515928Y-66380721D01*
X199352972Y-66465912D01*
X199352968Y-66465915D01*
X199347512Y-66468767D01*
X199342712Y-66472627D01*
X199342711Y-66472627D01*
X199331696Y-66481483D01*
X199194600Y-66591711D01*
X199166186Y-66625574D01*
X199145888Y-66649764D01*
X199086778Y-66689091D01*
X199015791Y-66690217D01*
X198951723Y-66648409D01*
X198914379Y-66602620D01*
X198763198Y-66477553D01*
X198590603Y-66384231D01*
X198443377Y-66338657D01*
X198409057Y-66328033D01*
X198409054Y-66328032D01*
X198403170Y-66326211D01*
X198397045Y-66325567D01*
X198397044Y-66325567D01*
X198214165Y-66306345D01*
X198214164Y-66306345D01*
X198208037Y-66305701D01*
X198085401Y-66316862D01*
X198018777Y-66322925D01*
X198018776Y-66322925D01*
X198012636Y-66323484D01*
X198006722Y-66325225D01*
X198006720Y-66325225D01*
X197961083Y-66338657D01*
X197824411Y-66378882D01*
X197818946Y-66381739D01*
X197655990Y-66466930D01*
X197655986Y-66466933D01*
X197650530Y-66469785D01*
X197645730Y-66473645D01*
X197645729Y-66473645D01*
X197635607Y-66481783D01*
X197497618Y-66592729D01*
X197371498Y-66743034D01*
X197368534Y-66748426D01*
X197368531Y-66748430D01*
X197306397Y-66861452D01*
X197276974Y-66914972D01*
X197217646Y-67101996D01*
X197195775Y-67296981D01*
X191954064Y-67296981D01*
X191936194Y-67114728D01*
X191934413Y-67108829D01*
X191934412Y-67108824D01*
X191881265Y-66932793D01*
X191879484Y-66926894D01*
X191787370Y-66753653D01*
X191663361Y-66601602D01*
X191512180Y-66476535D01*
X191339585Y-66383213D01*
X191239537Y-66352243D01*
X191158039Y-66327015D01*
X191158036Y-66327014D01*
X191152152Y-66325193D01*
X191146027Y-66324549D01*
X191146026Y-66324549D01*
X190963147Y-66305327D01*
X190963146Y-66305327D01*
X190957019Y-66304683D01*
X190834383Y-66315844D01*
X190767759Y-66321907D01*
X190767758Y-66321907D01*
X190761618Y-66322466D01*
X190755704Y-66324207D01*
X190755702Y-66324207D01*
X190742703Y-66328033D01*
X190573393Y-66377864D01*
X190567928Y-66380721D01*
X190401077Y-66467949D01*
X190331442Y-66481783D01*
X190282773Y-66467123D01*
X190185027Y-66414272D01*
X190127585Y-66383213D01*
X190027537Y-66352243D01*
X189946039Y-66327015D01*
X189946036Y-66327014D01*
X189940152Y-66325193D01*
X189934027Y-66324549D01*
X189934026Y-66324549D01*
X189751147Y-66305327D01*
X189751146Y-66305327D01*
X189745019Y-66304683D01*
X189622383Y-66315844D01*
X189555759Y-66321907D01*
X189555758Y-66321907D01*
X189549618Y-66322466D01*
X189543704Y-66324207D01*
X189543702Y-66324207D01*
X189530703Y-66328033D01*
X189361393Y-66377864D01*
X189355928Y-66380721D01*
X189192972Y-66465912D01*
X189192968Y-66465915D01*
X189187512Y-66468767D01*
X189182712Y-66472627D01*
X189182711Y-66472627D01*
X189171696Y-66481483D01*
X189034600Y-66591711D01*
X188908480Y-66742016D01*
X188905516Y-66747408D01*
X188905513Y-66747412D01*
X188826813Y-66890567D01*
X188813956Y-66913954D01*
X188812095Y-66919821D01*
X188812094Y-66919823D01*
X188784292Y-67007466D01*
X188754628Y-67100978D01*
X188732757Y-67295963D01*
X178502689Y-67295963D01*
X178504949Y-67278071D01*
X178505341Y-67250000D01*
X178486194Y-67054728D01*
X178484413Y-67048829D01*
X178484412Y-67048824D01*
X178431265Y-66872793D01*
X178429484Y-66866894D01*
X178366729Y-66748869D01*
X178340265Y-66699097D01*
X178340263Y-66699094D01*
X178337370Y-66693653D01*
X178336014Y-66691990D01*
X178315392Y-66625510D01*
X178331821Y-66561359D01*
X178359238Y-66513097D01*
X178418425Y-66408909D01*
X178480358Y-66222732D01*
X178504949Y-66028071D01*
X178505341Y-66000000D01*
X178486194Y-65804728D01*
X178484413Y-65798829D01*
X178484412Y-65798824D01*
X178431265Y-65622793D01*
X178429484Y-65616894D01*
X178337370Y-65443653D01*
X178213361Y-65291602D01*
X178062180Y-65166535D01*
X177889585Y-65073213D01*
X177883697Y-65071390D01*
X177878926Y-65069385D01*
X177823878Y-65024550D01*
X177801809Y-64957071D01*
X177819724Y-64888372D01*
X177838655Y-64864134D01*
X180315383Y-62387405D01*
X180377695Y-62353380D01*
X180404478Y-62350500D01*
X183579893Y-62350500D01*
X183648014Y-62370502D01*
X183694507Y-62424158D01*
X183704611Y-62494432D01*
X183675117Y-62559012D01*
X183666866Y-62567669D01*
X183573633Y-62656609D01*
X183570877Y-62660105D01*
X183570876Y-62660106D01*
X183497982Y-62752572D01*
X183399076Y-62878033D01*
X183257460Y-63121844D01*
X183255792Y-63125961D01*
X183255789Y-63125968D01*
X183170410Y-63336759D01*
X183151609Y-63383176D01*
X183127929Y-63478505D01*
X183095763Y-63608000D01*
X183083637Y-63656815D01*
X183075932Y-63732016D01*
X183055802Y-63928492D01*
X183054899Y-63937301D01*
X183057362Y-64000000D01*
X183062412Y-64128517D01*
X183065968Y-64219039D01*
X183066766Y-64223411D01*
X183066767Y-64223416D01*
X183080114Y-64296495D01*
X183116625Y-64496406D01*
X183118029Y-64500615D01*
X183118031Y-64500622D01*
X183187521Y-64708909D01*
X183205857Y-64763869D01*
X183331885Y-65016090D01*
X183492194Y-65248038D01*
X183683585Y-65455084D01*
X183772967Y-65527852D01*
X183898778Y-65630279D01*
X183898783Y-65630282D01*
X183902240Y-65633097D01*
X184143796Y-65778526D01*
X184147891Y-65780260D01*
X184147893Y-65780261D01*
X184396835Y-65885674D01*
X184403433Y-65888468D01*
X184407726Y-65889606D01*
X184407731Y-65889608D01*
X184521915Y-65919883D01*
X184675971Y-65960730D01*
X184955971Y-65993870D01*
X185237848Y-65987227D01*
X185242242Y-65986496D01*
X185242249Y-65986495D01*
X185511575Y-65941667D01*
X185511579Y-65941666D01*
X185515977Y-65940934D01*
X185772448Y-65859823D01*
X185780562Y-65857257D01*
X185780564Y-65857256D01*
X185784808Y-65855914D01*
X185942355Y-65780261D01*
X186034959Y-65735793D01*
X186034960Y-65735792D01*
X186038978Y-65733863D01*
X186205206Y-65622793D01*
X186269707Y-65579695D01*
X186269711Y-65579692D01*
X186273415Y-65577217D01*
X186276732Y-65574246D01*
X186276736Y-65574243D01*
X186480124Y-65392074D01*
X186480125Y-65392073D01*
X186483442Y-65389102D01*
X186664867Y-65173270D01*
X186814072Y-64934028D01*
X186928079Y-64676150D01*
X186934867Y-64652084D01*
X186978772Y-64496406D01*
X187004613Y-64404781D01*
X187029561Y-64219039D01*
X187041720Y-64128517D01*
X187041721Y-64128509D01*
X187042147Y-64125335D01*
X187046086Y-64000000D01*
X187026172Y-63718749D01*
X187021937Y-63699075D01*
X186967765Y-63447457D01*
X186967765Y-63447455D01*
X186966829Y-63443110D01*
X186869239Y-63178582D01*
X186822580Y-63092107D01*
X186737464Y-62934360D01*
X186735351Y-62930444D01*
X186567836Y-62703646D01*
X186562821Y-62698551D01*
X186431245Y-62564893D01*
X186397710Y-62502316D01*
X186403331Y-62431542D01*
X186446322Y-62375042D01*
X186513035Y-62350754D01*
X186521037Y-62350500D01*
X188279893Y-62350500D01*
X188348014Y-62370502D01*
X188394507Y-62424158D01*
X188404611Y-62494432D01*
X188375117Y-62559012D01*
X188366866Y-62567669D01*
X188273633Y-62656609D01*
X188270877Y-62660105D01*
X188270876Y-62660106D01*
X188197982Y-62752572D01*
X188099076Y-62878033D01*
X187957460Y-63121844D01*
X187955792Y-63125961D01*
X187955789Y-63125968D01*
X187870410Y-63336759D01*
X187851609Y-63383176D01*
X187827929Y-63478505D01*
X187795763Y-63608000D01*
X187783637Y-63656815D01*
X187775932Y-63732016D01*
X187755802Y-63928492D01*
X187754899Y-63937301D01*
X187757362Y-64000000D01*
X187762412Y-64128517D01*
X187765968Y-64219039D01*
X187766766Y-64223411D01*
X187766767Y-64223416D01*
X187780114Y-64296495D01*
X187816625Y-64496406D01*
X187818029Y-64500615D01*
X187818031Y-64500622D01*
X187887521Y-64708909D01*
X187905857Y-64763869D01*
X188031885Y-65016090D01*
X188192194Y-65248038D01*
X188383585Y-65455084D01*
X188472967Y-65527852D01*
X188598778Y-65630279D01*
X188598783Y-65630282D01*
X188602240Y-65633097D01*
X188843796Y-65778526D01*
X188847891Y-65780260D01*
X188847893Y-65780261D01*
X189096835Y-65885674D01*
X189103433Y-65888468D01*
X189107726Y-65889606D01*
X189107731Y-65889608D01*
X189221915Y-65919883D01*
X189375971Y-65960730D01*
X189655971Y-65993870D01*
X189937848Y-65987227D01*
X189942242Y-65986496D01*
X189942249Y-65986495D01*
X190211575Y-65941667D01*
X190211579Y-65941666D01*
X190215977Y-65940934D01*
X190472448Y-65859823D01*
X190480562Y-65857257D01*
X190480564Y-65857256D01*
X190484808Y-65855914D01*
X190642355Y-65780261D01*
X190734959Y-65735793D01*
X190734960Y-65735792D01*
X190738978Y-65733863D01*
X190905206Y-65622793D01*
X190969707Y-65579695D01*
X190969711Y-65579692D01*
X190973415Y-65577217D01*
X190976732Y-65574246D01*
X190976736Y-65574243D01*
X191180124Y-65392074D01*
X191180125Y-65392073D01*
X191183442Y-65389102D01*
X191364867Y-65173270D01*
X191514072Y-64934028D01*
X191628079Y-64676150D01*
X191634867Y-64652084D01*
X191678772Y-64496406D01*
X191704613Y-64404781D01*
X191729561Y-64219039D01*
X191741720Y-64128517D01*
X191741721Y-64128509D01*
X191742147Y-64125335D01*
X191746086Y-64000000D01*
X191726172Y-63718749D01*
X191721937Y-63699075D01*
X191667765Y-63447457D01*
X191667765Y-63447455D01*
X191666829Y-63443110D01*
X191569239Y-63178582D01*
X191522580Y-63092107D01*
X191437464Y-62934360D01*
X191435351Y-62930444D01*
X191267836Y-62703646D01*
X191262821Y-62698551D01*
X191131245Y-62564893D01*
X191097710Y-62502316D01*
X191103331Y-62431542D01*
X191146322Y-62375042D01*
X191213035Y-62350754D01*
X191221037Y-62350500D01*
X192979893Y-62350500D01*
X193048014Y-62370502D01*
X193094507Y-62424158D01*
X193104611Y-62494432D01*
X193075117Y-62559012D01*
X193066866Y-62567669D01*
X192973633Y-62656609D01*
X192970877Y-62660105D01*
X192970876Y-62660106D01*
X192897982Y-62752572D01*
X192799076Y-62878033D01*
X192657460Y-63121844D01*
X192655792Y-63125961D01*
X192655789Y-63125968D01*
X192570410Y-63336759D01*
X192551609Y-63383176D01*
X192527929Y-63478505D01*
X192495763Y-63608000D01*
X192483637Y-63656815D01*
X192475932Y-63732016D01*
X192455802Y-63928492D01*
X192454899Y-63937301D01*
X192457362Y-64000000D01*
X192462412Y-64128517D01*
X192465968Y-64219039D01*
X192466766Y-64223411D01*
X192466767Y-64223416D01*
X192480114Y-64296495D01*
X192516625Y-64496406D01*
X192518029Y-64500615D01*
X192518031Y-64500622D01*
X192587521Y-64708909D01*
X192605857Y-64763869D01*
X192731885Y-65016090D01*
X192892194Y-65248038D01*
X193083585Y-65455084D01*
X193172967Y-65527852D01*
X193298778Y-65630279D01*
X193298783Y-65630282D01*
X193302240Y-65633097D01*
X193543796Y-65778526D01*
X193547891Y-65780260D01*
X193547893Y-65780261D01*
X193796835Y-65885674D01*
X193803433Y-65888468D01*
X193807726Y-65889606D01*
X193807731Y-65889608D01*
X193921915Y-65919883D01*
X194075971Y-65960730D01*
X194355971Y-65993870D01*
X194637848Y-65987227D01*
X194642242Y-65986496D01*
X194642249Y-65986495D01*
X194911575Y-65941667D01*
X194911579Y-65941666D01*
X194915977Y-65940934D01*
X195172448Y-65859823D01*
X195180562Y-65857257D01*
X195180564Y-65857256D01*
X195184808Y-65855914D01*
X195342355Y-65780261D01*
X195434959Y-65735793D01*
X195434960Y-65735792D01*
X195438978Y-65733863D01*
X195605206Y-65622793D01*
X195669707Y-65579695D01*
X195669711Y-65579692D01*
X195673415Y-65577217D01*
X195676732Y-65574246D01*
X195676736Y-65574243D01*
X195880124Y-65392074D01*
X195880125Y-65392073D01*
X195883442Y-65389102D01*
X196064867Y-65173270D01*
X196214072Y-64934028D01*
X196328079Y-64676150D01*
X196334867Y-64652084D01*
X196378772Y-64496406D01*
X196404613Y-64404781D01*
X196429561Y-64219039D01*
X196441720Y-64128517D01*
X196441721Y-64128509D01*
X196442147Y-64125335D01*
X196446086Y-64000000D01*
X196426172Y-63718749D01*
X196421937Y-63699075D01*
X196396669Y-63581711D01*
X196376282Y-63487018D01*
X196381499Y-63416215D01*
X196424167Y-63359470D01*
X196490741Y-63334802D01*
X196499460Y-63334500D01*
X198223521Y-63334500D01*
X198291642Y-63354502D01*
X198312616Y-63371405D01*
X202666299Y-67725087D01*
X202700325Y-67787399D01*
X202701983Y-67804028D01*
X202702757Y-67803963D01*
X202719175Y-67999483D01*
X202773258Y-68188091D01*
X202776076Y-68193574D01*
X202860123Y-68357113D01*
X202860126Y-68357117D01*
X202862944Y-68362601D01*
X202984818Y-68516369D01*
X202989511Y-68520363D01*
X202989512Y-68520364D01*
X203064488Y-68584173D01*
X203134238Y-68643535D01*
X203139616Y-68646541D01*
X203139618Y-68646542D01*
X203175932Y-68666837D01*
X203305513Y-68739257D01*
X203492118Y-68799889D01*
X203686946Y-68823121D01*
X203693081Y-68822649D01*
X203693083Y-68822649D01*
X203876434Y-68808541D01*
X203876438Y-68808540D01*
X203882576Y-68808068D01*
X204071556Y-68755303D01*
X204246689Y-68666837D01*
X204256837Y-68658909D01*
X204396453Y-68549829D01*
X204401303Y-68546040D01*
X204423466Y-68520364D01*
X204517452Y-68411481D01*
X204577104Y-68372984D01*
X204648101Y-68372848D01*
X204701928Y-68404717D01*
X207369562Y-71072350D01*
X207376705Y-71080117D01*
X207410020Y-71119540D01*
X207466376Y-71162627D01*
X207473929Y-71168402D01*
X207476353Y-71170302D01*
X207533753Y-71216454D01*
X207533756Y-71216456D01*
X207539073Y-71220731D01*
X207545190Y-71223768D01*
X207547802Y-71225438D01*
X207548196Y-71225714D01*
X207548320Y-71225791D01*
X207548742Y-71226023D01*
X207551395Y-71227630D01*
X207556820Y-71231777D01*
X207629730Y-71265775D01*
X207632505Y-71267110D01*
X207698480Y-71299861D01*
X207698484Y-71299863D01*
X207704593Y-71302895D01*
X207711218Y-71304547D01*
X207714121Y-71305615D01*
X207714573Y-71305803D01*
X207714708Y-71305851D01*
X207715167Y-71305986D01*
X207718108Y-71306987D01*
X207724297Y-71309873D01*
X207730960Y-71311362D01*
X207730959Y-71311362D01*
X207802831Y-71327427D01*
X207805828Y-71328136D01*
X207857772Y-71341087D01*
X207883894Y-71347600D01*
X207890714Y-71347790D01*
X207893792Y-71348212D01*
X207894709Y-71348377D01*
X207899585Y-71349054D01*
X207904637Y-71350183D01*
X207910307Y-71350500D01*
X207985964Y-71350500D01*
X207989483Y-71350549D01*
X208068611Y-71352759D01*
X208075317Y-71351480D01*
X208082114Y-71350933D01*
X208082157Y-71351462D01*
X208092363Y-71350500D01*
X213772132Y-71350500D01*
X213840253Y-71370502D01*
X213886746Y-71424158D01*
X213896850Y-71494432D01*
X213867356Y-71559012D01*
X213830312Y-71588263D01*
X213729003Y-71641001D01*
X213724414Y-71643390D01*
X213720281Y-71646493D01*
X213720278Y-71646495D01*
X213537810Y-71783497D01*
X213533675Y-71786602D01*
X213530103Y-71790340D01*
X213382786Y-71944498D01*
X213368887Y-71959042D01*
X213365973Y-71963314D01*
X213365972Y-71963315D01*
X213343338Y-71996495D01*
X213234475Y-72156082D01*
X213212426Y-72203583D01*
X213137885Y-72364169D01*
X213134051Y-72372428D01*
X213070309Y-72602272D01*
X213069760Y-72607409D01*
X213051872Y-72774793D01*
X213049500Y-72796986D01*
X213049500Y-73185463D01*
X213049712Y-73188036D01*
X213049712Y-73188047D01*
X213063649Y-73357565D01*
X213063650Y-73357571D01*
X213064073Y-73362716D01*
X213088236Y-73458915D01*
X213119813Y-73584627D01*
X213122179Y-73594048D01*
X213124237Y-73598781D01*
X213124238Y-73598784D01*
X213213449Y-73803954D01*
X213217288Y-73812784D01*
X213346845Y-74013049D01*
X213350324Y-74016872D01*
X213350326Y-74016875D01*
X213482951Y-74162627D01*
X213507371Y-74189464D01*
X213511422Y-74192663D01*
X213511426Y-74192667D01*
X213690500Y-74334091D01*
X213690504Y-74334093D01*
X213694555Y-74337293D01*
X213699076Y-74339789D01*
X213699078Y-74339790D01*
X213739341Y-74362016D01*
X213903369Y-74452564D01*
X213908238Y-74454288D01*
X213908242Y-74454290D01*
X214123337Y-74530459D01*
X214123339Y-74530460D01*
X214128206Y-74532183D01*
X214243908Y-74552793D01*
X214357940Y-74573106D01*
X214357944Y-74573106D01*
X214363028Y-74574012D01*
X214446860Y-74575036D01*
X214596360Y-74576863D01*
X214596362Y-74576863D01*
X214601529Y-74576926D01*
X214837302Y-74540847D01*
X215064018Y-74466745D01*
X215068606Y-74464357D01*
X215068610Y-74464355D01*
X215270997Y-74358999D01*
X215270998Y-74358998D01*
X215275586Y-74356610D01*
X215279719Y-74353507D01*
X215279722Y-74353505D01*
X215462190Y-74216503D01*
X215462192Y-74216501D01*
X215466325Y-74213398D01*
X215600289Y-74073213D01*
X215627542Y-74044695D01*
X215627543Y-74044694D01*
X215631113Y-74040958D01*
X215637345Y-74031823D01*
X215644885Y-74020769D01*
X215699796Y-73975766D01*
X215770321Y-73967595D01*
X215834068Y-73998849D01*
X215846220Y-74012083D01*
X215846845Y-74013049D01*
X215850330Y-74016879D01*
X215977512Y-74156649D01*
X216007371Y-74189464D01*
X216011422Y-74192663D01*
X216011426Y-74192667D01*
X216190500Y-74334091D01*
X216190504Y-74334093D01*
X216194555Y-74337293D01*
X216199076Y-74339789D01*
X216199078Y-74339790D01*
X216239341Y-74362016D01*
X216403369Y-74452564D01*
X216408238Y-74454288D01*
X216408242Y-74454290D01*
X216623337Y-74530459D01*
X216623339Y-74530460D01*
X216628206Y-74532183D01*
X216743908Y-74552793D01*
X216857940Y-74573106D01*
X216857944Y-74573106D01*
X216863028Y-74574012D01*
X216946860Y-74575036D01*
X217096360Y-74576863D01*
X217096362Y-74576863D01*
X217101529Y-74576926D01*
X217337302Y-74540847D01*
X217564018Y-74466745D01*
X217568606Y-74464357D01*
X217568610Y-74464355D01*
X217770997Y-74358999D01*
X217770998Y-74358998D01*
X217775586Y-74356610D01*
X217779719Y-74353507D01*
X217779722Y-74353505D01*
X217962190Y-74216503D01*
X217962192Y-74216501D01*
X217966325Y-74213398D01*
X218100289Y-74073213D01*
X218127542Y-74044695D01*
X218127543Y-74044694D01*
X218131113Y-74040958D01*
X218137345Y-74031823D01*
X218144885Y-74020769D01*
X218199796Y-73975766D01*
X218270321Y-73967595D01*
X218334068Y-73998849D01*
X218346220Y-74012083D01*
X218346845Y-74013049D01*
X218350330Y-74016879D01*
X218477512Y-74156649D01*
X218507371Y-74189464D01*
X218511422Y-74192663D01*
X218511426Y-74192667D01*
X218690500Y-74334091D01*
X218690504Y-74334093D01*
X218694555Y-74337293D01*
X218699076Y-74339789D01*
X218699078Y-74339790D01*
X218739341Y-74362016D01*
X218903369Y-74452564D01*
X218908238Y-74454288D01*
X218908242Y-74454290D01*
X219123337Y-74530459D01*
X219123339Y-74530460D01*
X219128206Y-74532183D01*
X219243908Y-74552793D01*
X219357940Y-74573106D01*
X219357944Y-74573106D01*
X219363028Y-74574012D01*
X219446860Y-74575036D01*
X219596360Y-74576863D01*
X219596362Y-74576863D01*
X219601529Y-74576926D01*
X219837302Y-74540847D01*
X220064018Y-74466745D01*
X220068606Y-74464357D01*
X220068610Y-74464355D01*
X220270997Y-74358999D01*
X220270998Y-74358998D01*
X220275586Y-74356610D01*
X220279719Y-74353507D01*
X220279722Y-74353505D01*
X220462190Y-74216503D01*
X220462192Y-74216501D01*
X220466325Y-74213398D01*
X220600289Y-74073213D01*
X220627542Y-74044695D01*
X220627543Y-74044694D01*
X220631113Y-74040958D01*
X220637345Y-74031823D01*
X220644885Y-74020769D01*
X220699796Y-73975766D01*
X220770321Y-73967595D01*
X220834068Y-73998849D01*
X220846220Y-74012083D01*
X220846845Y-74013049D01*
X220850330Y-74016879D01*
X220977512Y-74156649D01*
X221007371Y-74189464D01*
X221011422Y-74192663D01*
X221011426Y-74192667D01*
X221190500Y-74334091D01*
X221190504Y-74334093D01*
X221194555Y-74337293D01*
X221199076Y-74339789D01*
X221199078Y-74339790D01*
X221239341Y-74362016D01*
X221403369Y-74452564D01*
X221408238Y-74454288D01*
X221408242Y-74454290D01*
X221623337Y-74530459D01*
X221623339Y-74530460D01*
X221628206Y-74532183D01*
X221743908Y-74552793D01*
X221857940Y-74573106D01*
X221857944Y-74573106D01*
X221863028Y-74574012D01*
X221946860Y-74575036D01*
X222096360Y-74576863D01*
X222096362Y-74576863D01*
X222101529Y-74576926D01*
X222337302Y-74540847D01*
X222564018Y-74466745D01*
X222568606Y-74464357D01*
X222568610Y-74464355D01*
X222770997Y-74358999D01*
X222770998Y-74358998D01*
X222775586Y-74356610D01*
X222779719Y-74353507D01*
X222779722Y-74353505D01*
X222962190Y-74216503D01*
X222962192Y-74216501D01*
X222966325Y-74213398D01*
X223100289Y-74073213D01*
X223127542Y-74044695D01*
X223127543Y-74044694D01*
X223131113Y-74040958D01*
X223137345Y-74031823D01*
X223144885Y-74020769D01*
X223199796Y-73975766D01*
X223270321Y-73967595D01*
X223334068Y-73998849D01*
X223346220Y-74012083D01*
X223346845Y-74013049D01*
X223350330Y-74016879D01*
X223477512Y-74156649D01*
X223507371Y-74189464D01*
X223511422Y-74192663D01*
X223511426Y-74192667D01*
X223690500Y-74334091D01*
X223690504Y-74334093D01*
X223694555Y-74337293D01*
X223699076Y-74339789D01*
X223699078Y-74339790D01*
X223739341Y-74362016D01*
X223903369Y-74452564D01*
X223908238Y-74454288D01*
X223908242Y-74454290D01*
X224123337Y-74530459D01*
X224123339Y-74530460D01*
X224128206Y-74532183D01*
X224243908Y-74552793D01*
X224357940Y-74573106D01*
X224357944Y-74573106D01*
X224363028Y-74574012D01*
X224446860Y-74575036D01*
X224596360Y-74576863D01*
X224596362Y-74576863D01*
X224601529Y-74576926D01*
X224837302Y-74540847D01*
X225064018Y-74466745D01*
X225068606Y-74464357D01*
X225068610Y-74464355D01*
X225270997Y-74358999D01*
X225270998Y-74358998D01*
X225275586Y-74356610D01*
X225279719Y-74353507D01*
X225279722Y-74353505D01*
X225380481Y-74277852D01*
X225466325Y-74213398D01*
X225469894Y-74209663D01*
X225469901Y-74209657D01*
X225494703Y-74183703D01*
X225556227Y-74148273D01*
X225627140Y-74151730D01*
X225683992Y-74191800D01*
X225795060Y-74329940D01*
X225939074Y-74445731D01*
X225984644Y-74468352D01*
X226098481Y-74524862D01*
X226098485Y-74524864D01*
X226104592Y-74527895D01*
X226111214Y-74529546D01*
X226278497Y-74571255D01*
X226278501Y-74571256D01*
X226283893Y-74572600D01*
X226300706Y-74573746D01*
X226324286Y-74575354D01*
X226324299Y-74575354D01*
X226326434Y-74575500D01*
X227673566Y-74575500D01*
X227675701Y-74575354D01*
X227675714Y-74575354D01*
X227699294Y-74573746D01*
X227716107Y-74572600D01*
X227721499Y-74571256D01*
X227721503Y-74571255D01*
X227888786Y-74529546D01*
X227895408Y-74527895D01*
X227901515Y-74524864D01*
X227901519Y-74524862D01*
X228015356Y-74468352D01*
X228060926Y-74445731D01*
X228204940Y-74329940D01*
X228320731Y-74185926D01*
X228370074Y-74086526D01*
X228399862Y-74026519D01*
X228399864Y-74026515D01*
X228402895Y-74020408D01*
X228412835Y-73980542D01*
X228446255Y-73846503D01*
X228446256Y-73846499D01*
X228447600Y-73841107D01*
X228449294Y-73816252D01*
X228450354Y-73800714D01*
X228450354Y-73800701D01*
X228450500Y-73798566D01*
X228450500Y-72201434D01*
X228449694Y-72189602D01*
X228448122Y-72166549D01*
X228447600Y-72158893D01*
X228445833Y-72151803D01*
X228404546Y-71986214D01*
X228402895Y-71979592D01*
X228399864Y-71973485D01*
X228399862Y-71973481D01*
X228359753Y-71892683D01*
X228320731Y-71814074D01*
X228204940Y-71670060D01*
X228060926Y-71554269D01*
X227978167Y-71513187D01*
X227901519Y-71475138D01*
X227901515Y-71475136D01*
X227895408Y-71472105D01*
X227843461Y-71459153D01*
X227721503Y-71428745D01*
X227721499Y-71428744D01*
X227716107Y-71427400D01*
X227699294Y-71426254D01*
X227675714Y-71424646D01*
X227675701Y-71424646D01*
X227673566Y-71424500D01*
X226679479Y-71424500D01*
X226611358Y-71404498D01*
X226590384Y-71387595D01*
X221130438Y-65927650D01*
X221123295Y-65919883D01*
X221094386Y-65885674D01*
X221089980Y-65880460D01*
X221055354Y-65853986D01*
X221026071Y-65831598D01*
X221023647Y-65829698D01*
X220966247Y-65783546D01*
X220966244Y-65783544D01*
X220960927Y-65779269D01*
X220954810Y-65776232D01*
X220952198Y-65774562D01*
X220951804Y-65774286D01*
X220951679Y-65774208D01*
X220951258Y-65773977D01*
X220948605Y-65772370D01*
X220943180Y-65768223D01*
X220870262Y-65734221D01*
X220867495Y-65732890D01*
X220801520Y-65700139D01*
X220801516Y-65700137D01*
X220795407Y-65697105D01*
X220788782Y-65695453D01*
X220785879Y-65694385D01*
X220785427Y-65694197D01*
X220785292Y-65694149D01*
X220784833Y-65694014D01*
X220781892Y-65693013D01*
X220775703Y-65690127D01*
X220739415Y-65682016D01*
X220697169Y-65672573D01*
X220694172Y-65671864D01*
X220622728Y-65654051D01*
X220622727Y-65654051D01*
X220616106Y-65652400D01*
X220609286Y-65652210D01*
X220606208Y-65651788D01*
X220605291Y-65651623D01*
X220600415Y-65650946D01*
X220595363Y-65649817D01*
X220589693Y-65649500D01*
X220514036Y-65649500D01*
X220510518Y-65649451D01*
X220508788Y-65649403D01*
X220431389Y-65647241D01*
X220424683Y-65648520D01*
X220417886Y-65649067D01*
X220417843Y-65648538D01*
X220407637Y-65649500D01*
X210404479Y-65649500D01*
X210336358Y-65629498D01*
X210315384Y-65612595D01*
X210139468Y-65436679D01*
X210105442Y-65374367D01*
X210110507Y-65303552D01*
X210153054Y-65246716D01*
X210219574Y-65221905D01*
X210267499Y-65227751D01*
X210296897Y-65237303D01*
X210434118Y-65281889D01*
X210628946Y-65305121D01*
X210635081Y-65304649D01*
X210635083Y-65304649D01*
X210818434Y-65290541D01*
X210818438Y-65290540D01*
X210824576Y-65290068D01*
X211013556Y-65237303D01*
X211188689Y-65148837D01*
X211218515Y-65125535D01*
X211285484Y-65073213D01*
X211343303Y-65028040D01*
X211351087Y-65019023D01*
X211467485Y-64884173D01*
X211467485Y-64884172D01*
X211471509Y-64879511D01*
X211476861Y-64870091D01*
X211507644Y-64815902D01*
X211568425Y-64708909D01*
X211605338Y-64597943D01*
X211645819Y-64539620D01*
X211711407Y-64512440D01*
X211781278Y-64525035D01*
X211833248Y-64573405D01*
X211846015Y-64602985D01*
X211859970Y-64651648D01*
X211865258Y-64670091D01*
X211868076Y-64675574D01*
X211952123Y-64839113D01*
X211952126Y-64839117D01*
X211954944Y-64844601D01*
X212076818Y-64998369D01*
X212081511Y-65002363D01*
X212081512Y-65002364D01*
X212164760Y-65073213D01*
X212226238Y-65125535D01*
X212231616Y-65128541D01*
X212231618Y-65128542D01*
X212267932Y-65148837D01*
X212397513Y-65221257D01*
X212584118Y-65281889D01*
X212778946Y-65305121D01*
X212785081Y-65304649D01*
X212785083Y-65304649D01*
X212968434Y-65290541D01*
X212968438Y-65290540D01*
X212974576Y-65290068D01*
X213163556Y-65237303D01*
X213338689Y-65148837D01*
X213368515Y-65125535D01*
X213435484Y-65073213D01*
X213493303Y-65028040D01*
X213501087Y-65019023D01*
X213617485Y-64884173D01*
X213617485Y-64884172D01*
X213621509Y-64879511D01*
X213626861Y-64870091D01*
X213657644Y-64815902D01*
X213718425Y-64708909D01*
X213729165Y-64676625D01*
X213769644Y-64618302D01*
X213835232Y-64591121D01*
X213905102Y-64603715D01*
X213957073Y-64652084D01*
X213964338Y-64666884D01*
X213965258Y-64670091D01*
X213968076Y-64675574D01*
X214052123Y-64839113D01*
X214052126Y-64839117D01*
X214054944Y-64844601D01*
X214176818Y-64998369D01*
X214181511Y-65002363D01*
X214181512Y-65002364D01*
X214264760Y-65073213D01*
X214326238Y-65125535D01*
X214331616Y-65128541D01*
X214331618Y-65128542D01*
X214367932Y-65148837D01*
X214497513Y-65221257D01*
X214684118Y-65281889D01*
X214878946Y-65305121D01*
X214885081Y-65304649D01*
X214885083Y-65304649D01*
X215068434Y-65290541D01*
X215068438Y-65290540D01*
X215074576Y-65290068D01*
X215263556Y-65237303D01*
X215438689Y-65148837D01*
X215468515Y-65125535D01*
X215535484Y-65073213D01*
X215593303Y-65028040D01*
X215601087Y-65019023D01*
X215717485Y-64884173D01*
X215717485Y-64884172D01*
X215721509Y-64879511D01*
X215726861Y-64870091D01*
X215757644Y-64815902D01*
X215818425Y-64708909D01*
X215880358Y-64522732D01*
X215904949Y-64328071D01*
X215905341Y-64300000D01*
X215886194Y-64104728D01*
X215884413Y-64098829D01*
X215884412Y-64098824D01*
X215831265Y-63922793D01*
X215829484Y-63916894D01*
X215737370Y-63743653D01*
X215613361Y-63591602D01*
X215462180Y-63466535D01*
X215289585Y-63373213D01*
X215164523Y-63334500D01*
X215108039Y-63317015D01*
X215108036Y-63317014D01*
X215102152Y-63315193D01*
X215096027Y-63314549D01*
X215096026Y-63314549D01*
X214913147Y-63295327D01*
X214913146Y-63295327D01*
X214907019Y-63294683D01*
X214784383Y-63305844D01*
X214717759Y-63311907D01*
X214717758Y-63311907D01*
X214711618Y-63312466D01*
X214705704Y-63314207D01*
X214705702Y-63314207D01*
X214635727Y-63334802D01*
X214523393Y-63367864D01*
X214517928Y-63370721D01*
X214354972Y-63455912D01*
X214354968Y-63455915D01*
X214349512Y-63458767D01*
X214344712Y-63462627D01*
X214344711Y-63462627D01*
X214324963Y-63478505D01*
X214196600Y-63581711D01*
X214070480Y-63732016D01*
X214067516Y-63737408D01*
X214067513Y-63737412D01*
X213988813Y-63880567D01*
X213975956Y-63903954D01*
X213973578Y-63911452D01*
X213970749Y-63920369D01*
X213931085Y-63979252D01*
X213865882Y-64007345D01*
X213795843Y-63995726D01*
X213743203Y-63948086D01*
X213734296Y-63928211D01*
X213733614Y-63928492D01*
X213731265Y-63922793D01*
X213729484Y-63916894D01*
X213637370Y-63743653D01*
X213513361Y-63591602D01*
X213362180Y-63466535D01*
X213189585Y-63373213D01*
X213064523Y-63334500D01*
X213008039Y-63317015D01*
X213008036Y-63317014D01*
X213002152Y-63315193D01*
X212996027Y-63314549D01*
X212996026Y-63314549D01*
X212813147Y-63295327D01*
X212813146Y-63295327D01*
X212807019Y-63294683D01*
X212684383Y-63305844D01*
X212617759Y-63311907D01*
X212617758Y-63311907D01*
X212611618Y-63312466D01*
X212605704Y-63314207D01*
X212605702Y-63314207D01*
X212535727Y-63334802D01*
X212423393Y-63367864D01*
X212417928Y-63370721D01*
X212254972Y-63455912D01*
X212254968Y-63455915D01*
X212249512Y-63458767D01*
X212244712Y-63462627D01*
X212244711Y-63462627D01*
X212224963Y-63478505D01*
X212096600Y-63581711D01*
X211970480Y-63732016D01*
X211967516Y-63737408D01*
X211967513Y-63737412D01*
X211888813Y-63880567D01*
X211875956Y-63903954D01*
X211874095Y-63909821D01*
X211874094Y-63909823D01*
X211845131Y-64001125D01*
X211805467Y-64060009D01*
X211740265Y-64088101D01*
X211670225Y-64076483D01*
X211617586Y-64028843D01*
X211604407Y-63999444D01*
X211603603Y-63996779D01*
X211579484Y-63916894D01*
X211487370Y-63743653D01*
X211363361Y-63591602D01*
X211212180Y-63466535D01*
X211039585Y-63373213D01*
X210914523Y-63334500D01*
X210858039Y-63317015D01*
X210858036Y-63317014D01*
X210852152Y-63315193D01*
X210846027Y-63314549D01*
X210846026Y-63314549D01*
X210663147Y-63295327D01*
X210663146Y-63295327D01*
X210657019Y-63294683D01*
X210534383Y-63305844D01*
X210467759Y-63311907D01*
X210467758Y-63311907D01*
X210461618Y-63312466D01*
X210407486Y-63328398D01*
X210336491Y-63328442D01*
X210276740Y-63290096D01*
X210247207Y-63225534D01*
X210246906Y-63191739D01*
X210254949Y-63128071D01*
X210255341Y-63100000D01*
X210236194Y-62904728D01*
X210234413Y-62898829D01*
X210234412Y-62898824D01*
X210181265Y-62722793D01*
X210179484Y-62716894D01*
X210094604Y-62557259D01*
X210080285Y-62487724D01*
X210096300Y-62435871D01*
X210139478Y-62359865D01*
X210168425Y-62308909D01*
X210230358Y-62122732D01*
X210254949Y-61928071D01*
X210255341Y-61900000D01*
X210253965Y-61885963D01*
X211794757Y-61885963D01*
X211811175Y-62081483D01*
X211865258Y-62270091D01*
X211868076Y-62275574D01*
X211952123Y-62439113D01*
X211952126Y-62439117D01*
X211954944Y-62444601D01*
X212076818Y-62598369D01*
X212081511Y-62602363D01*
X212081512Y-62602364D01*
X212196780Y-62700464D01*
X212226238Y-62725535D01*
X212231616Y-62728541D01*
X212231618Y-62728542D01*
X212267932Y-62748837D01*
X212397513Y-62821257D01*
X212584118Y-62881889D01*
X212778946Y-62905121D01*
X212785081Y-62904649D01*
X212785083Y-62904649D01*
X212968434Y-62890541D01*
X212968438Y-62890540D01*
X212974576Y-62890068D01*
X213163556Y-62837303D01*
X213338689Y-62748837D01*
X213368515Y-62725535D01*
X213488453Y-62631829D01*
X213493303Y-62628040D01*
X213523084Y-62593539D01*
X213617485Y-62484173D01*
X213617485Y-62484172D01*
X213621509Y-62479511D01*
X213718425Y-62308909D01*
X213729165Y-62276625D01*
X213769644Y-62218302D01*
X213835232Y-62191121D01*
X213905102Y-62203715D01*
X213957073Y-62252084D01*
X213964338Y-62266884D01*
X213965258Y-62270091D01*
X213968076Y-62275574D01*
X214052123Y-62439113D01*
X214052126Y-62439117D01*
X214054944Y-62444601D01*
X214176818Y-62598369D01*
X214181511Y-62602363D01*
X214181512Y-62602364D01*
X214296780Y-62700464D01*
X214326238Y-62725535D01*
X214331616Y-62728541D01*
X214331618Y-62728542D01*
X214367932Y-62748837D01*
X214497513Y-62821257D01*
X214684118Y-62881889D01*
X214878946Y-62905121D01*
X214885081Y-62904649D01*
X214885083Y-62904649D01*
X215068434Y-62890541D01*
X215068438Y-62890540D01*
X215074576Y-62890068D01*
X215263556Y-62837303D01*
X215438689Y-62748837D01*
X215468515Y-62725535D01*
X215588453Y-62631829D01*
X215593303Y-62628040D01*
X215623084Y-62593539D01*
X215717485Y-62484173D01*
X215717485Y-62484172D01*
X215721509Y-62479511D01*
X215817542Y-62310463D01*
X223499500Y-62310463D01*
X223499712Y-62313036D01*
X223499712Y-62313047D01*
X223513649Y-62482565D01*
X223513650Y-62482571D01*
X223514073Y-62487716D01*
X223528123Y-62543653D01*
X223569213Y-62707238D01*
X223572179Y-62719048D01*
X223574237Y-62723781D01*
X223574238Y-62723784D01*
X223653086Y-62905121D01*
X223667288Y-62937784D01*
X223796845Y-63138049D01*
X223800324Y-63141872D01*
X223800326Y-63141875D01*
X223953512Y-63310223D01*
X223957371Y-63314464D01*
X223961422Y-63317663D01*
X223961426Y-63317667D01*
X224140500Y-63459091D01*
X224140504Y-63459093D01*
X224144555Y-63462293D01*
X224149076Y-63464789D01*
X224149078Y-63464790D01*
X224189346Y-63487019D01*
X224353369Y-63577564D01*
X224358238Y-63579288D01*
X224358242Y-63579290D01*
X224573337Y-63655459D01*
X224573339Y-63655460D01*
X224578206Y-63657183D01*
X224695617Y-63678098D01*
X224807940Y-63698106D01*
X224807944Y-63698106D01*
X224813028Y-63699012D01*
X224896860Y-63700036D01*
X225046360Y-63701863D01*
X225046362Y-63701863D01*
X225051529Y-63701926D01*
X225287302Y-63665847D01*
X225514018Y-63591745D01*
X225518606Y-63589357D01*
X225518610Y-63589355D01*
X225720997Y-63483999D01*
X225720998Y-63483998D01*
X225725586Y-63481610D01*
X225729719Y-63478507D01*
X225729722Y-63478505D01*
X225912190Y-63341503D01*
X225912192Y-63341501D01*
X225916325Y-63338398D01*
X226012882Y-63237358D01*
X226074405Y-63201928D01*
X226145318Y-63205385D01*
X226203104Y-63246631D01*
X226211119Y-63258106D01*
X226248063Y-63317807D01*
X226257099Y-63329208D01*
X226371829Y-63443739D01*
X226383240Y-63452751D01*
X226521243Y-63537816D01*
X226534424Y-63543963D01*
X226688710Y-63595138D01*
X226702086Y-63598005D01*
X226796438Y-63607672D01*
X226802854Y-63608000D01*
X227177885Y-63608000D01*
X227193124Y-63603525D01*
X227194329Y-63602135D01*
X227196000Y-63594452D01*
X227196000Y-63589884D01*
X227704000Y-63589884D01*
X227708475Y-63605123D01*
X227709865Y-63606328D01*
X227717548Y-63607999D01*
X228097095Y-63607999D01*
X228103614Y-63607662D01*
X228199206Y-63597743D01*
X228212600Y-63594851D01*
X228366784Y-63543412D01*
X228379962Y-63537239D01*
X228517807Y-63451937D01*
X228529208Y-63442901D01*
X228643739Y-63328171D01*
X228652751Y-63316760D01*
X228737816Y-63178757D01*
X228743963Y-63165576D01*
X228795138Y-63011290D01*
X228798005Y-62997914D01*
X228807672Y-62903562D01*
X228808000Y-62897146D01*
X228808000Y-62372115D01*
X228803525Y-62356876D01*
X228802135Y-62355671D01*
X228794452Y-62354000D01*
X227722115Y-62354000D01*
X227706876Y-62358475D01*
X227705671Y-62359865D01*
X227704000Y-62367548D01*
X227704000Y-63589884D01*
X227196000Y-63589884D01*
X227196000Y-61827885D01*
X227704000Y-61827885D01*
X227708475Y-61843124D01*
X227709865Y-61844329D01*
X227717548Y-61846000D01*
X228789884Y-61846000D01*
X228805123Y-61841525D01*
X228806328Y-61840135D01*
X228807999Y-61832452D01*
X228807999Y-61302905D01*
X228807662Y-61296386D01*
X228797743Y-61200794D01*
X228794851Y-61187400D01*
X228743412Y-61033216D01*
X228737239Y-61020038D01*
X228651937Y-60882193D01*
X228642901Y-60870792D01*
X228528171Y-60756261D01*
X228516760Y-60747249D01*
X228378757Y-60662184D01*
X228365576Y-60656037D01*
X228211290Y-60604862D01*
X228197914Y-60601995D01*
X228103562Y-60592328D01*
X228097145Y-60592000D01*
X227722115Y-60592000D01*
X227706876Y-60596475D01*
X227705671Y-60597865D01*
X227704000Y-60605548D01*
X227704000Y-61827885D01*
X227196000Y-61827885D01*
X227196000Y-60610116D01*
X227191525Y-60594877D01*
X227190135Y-60593672D01*
X227182452Y-60592001D01*
X226802905Y-60592001D01*
X226796386Y-60592338D01*
X226700794Y-60602257D01*
X226687400Y-60605149D01*
X226533216Y-60656588D01*
X226520038Y-60662761D01*
X226382193Y-60748063D01*
X226370792Y-60757099D01*
X226256261Y-60871829D01*
X226247247Y-60883243D01*
X226211204Y-60941716D01*
X226158433Y-60989210D01*
X226088361Y-61000634D01*
X226023237Y-60972360D01*
X226010751Y-60960401D01*
X225946107Y-60889358D01*
X225946105Y-60889357D01*
X225942629Y-60885536D01*
X225938578Y-60882337D01*
X225938574Y-60882333D01*
X225759500Y-60740909D01*
X225759496Y-60740907D01*
X225755445Y-60737707D01*
X225716125Y-60716001D01*
X225677293Y-60694565D01*
X225546631Y-60622436D01*
X225541762Y-60620712D01*
X225541758Y-60620710D01*
X225326663Y-60544541D01*
X225326661Y-60544540D01*
X225321794Y-60542817D01*
X225204383Y-60521902D01*
X225092060Y-60501894D01*
X225092056Y-60501894D01*
X225086972Y-60500988D01*
X225003140Y-60499964D01*
X224853640Y-60498137D01*
X224853638Y-60498137D01*
X224848471Y-60498074D01*
X224612698Y-60534153D01*
X224385982Y-60608255D01*
X224381394Y-60610643D01*
X224381390Y-60610645D01*
X224218437Y-60695473D01*
X224174414Y-60718390D01*
X224170281Y-60721493D01*
X224170278Y-60721495D01*
X223993861Y-60853954D01*
X223983675Y-60861602D01*
X223924132Y-60923910D01*
X223827017Y-61025535D01*
X223818887Y-61034042D01*
X223815973Y-61038314D01*
X223815972Y-61038315D01*
X223780346Y-61090541D01*
X223684475Y-61231082D01*
X223584051Y-61447428D01*
X223520309Y-61677272D01*
X223519760Y-61682409D01*
X223502456Y-61844329D01*
X223499500Y-61871986D01*
X223499500Y-62310463D01*
X215817542Y-62310463D01*
X215818425Y-62308909D01*
X215880358Y-62122732D01*
X215904949Y-61928071D01*
X215905341Y-61900000D01*
X215886194Y-61704728D01*
X215884413Y-61698829D01*
X215884412Y-61698824D01*
X215831265Y-61522793D01*
X215829484Y-61516894D01*
X215737370Y-61343653D01*
X215613361Y-61191602D01*
X215584803Y-61167977D01*
X215545065Y-61109144D01*
X215543442Y-61038166D01*
X215580451Y-60977578D01*
X215587546Y-60971602D01*
X215638449Y-60931833D01*
X215638453Y-60931829D01*
X215643303Y-60928040D01*
X215652820Y-60917015D01*
X215767485Y-60784173D01*
X215767485Y-60784172D01*
X215771509Y-60779511D01*
X215789837Y-60747249D01*
X215818322Y-60697105D01*
X215868425Y-60608909D01*
X215930358Y-60422732D01*
X215954949Y-60228071D01*
X215955341Y-60200000D01*
X215936194Y-60004728D01*
X215934413Y-59998829D01*
X215934412Y-59998824D01*
X215881265Y-59822793D01*
X215879484Y-59816894D01*
X215787370Y-59643653D01*
X215776830Y-59630729D01*
X215749275Y-59565301D01*
X215761469Y-59495359D01*
X215769518Y-59481818D01*
X215771509Y-59479511D01*
X215868425Y-59308909D01*
X215930358Y-59122732D01*
X215954949Y-58928071D01*
X215955341Y-58900000D01*
X215936194Y-58704728D01*
X215934413Y-58698829D01*
X215934412Y-58698824D01*
X215881265Y-58522793D01*
X215879484Y-58516894D01*
X215807484Y-58381481D01*
X215790265Y-58349097D01*
X215790263Y-58349094D01*
X215787370Y-58343653D01*
X215786014Y-58341990D01*
X215765392Y-58275510D01*
X215781821Y-58211359D01*
X215819745Y-58144601D01*
X215868425Y-58058909D01*
X215930358Y-57872732D01*
X215954949Y-57678071D01*
X215955155Y-57663340D01*
X215955292Y-57653523D01*
X215955292Y-57653519D01*
X215955341Y-57650000D01*
X215949062Y-57585963D01*
X224754757Y-57585963D01*
X224771175Y-57781483D01*
X224825258Y-57970091D01*
X224828076Y-57975574D01*
X224912123Y-58139113D01*
X224912126Y-58139117D01*
X224914944Y-58144601D01*
X224954516Y-58194529D01*
X224995237Y-58245907D01*
X225021874Y-58311717D01*
X225008703Y-58381481D01*
X224993013Y-58405162D01*
X224970480Y-58432016D01*
X224967516Y-58437408D01*
X224967513Y-58437412D01*
X224926807Y-58511456D01*
X224875956Y-58603954D01*
X224874095Y-58609821D01*
X224874094Y-58609823D01*
X224873577Y-58611452D01*
X224816628Y-58790978D01*
X224794757Y-58985963D01*
X224811175Y-59181483D01*
X224865258Y-59370091D01*
X224868076Y-59375574D01*
X224952123Y-59539113D01*
X224952126Y-59539117D01*
X224954944Y-59544601D01*
X225076818Y-59698369D01*
X225081511Y-59702363D01*
X225081512Y-59702364D01*
X225202252Y-59805121D01*
X225226238Y-59825535D01*
X225231616Y-59828541D01*
X225231618Y-59828542D01*
X225267932Y-59848837D01*
X225397513Y-59921257D01*
X225584118Y-59981889D01*
X225778946Y-60005121D01*
X225785081Y-60004649D01*
X225785083Y-60004649D01*
X225968434Y-59990541D01*
X225968438Y-59990540D01*
X225974576Y-59990068D01*
X226163556Y-59937303D01*
X226338689Y-59848837D01*
X226368515Y-59825535D01*
X226488453Y-59731829D01*
X226493303Y-59728040D01*
X226497329Y-59723376D01*
X226605975Y-59597509D01*
X226665627Y-59559012D01*
X226736624Y-59558876D01*
X226800101Y-59601575D01*
X226876818Y-59698369D01*
X226881511Y-59702363D01*
X226881512Y-59702364D01*
X227002252Y-59805121D01*
X227026238Y-59825535D01*
X227031616Y-59828541D01*
X227031618Y-59828542D01*
X227067932Y-59848837D01*
X227197513Y-59921257D01*
X227384118Y-59981889D01*
X227578946Y-60005121D01*
X227585081Y-60004649D01*
X227585083Y-60004649D01*
X227768434Y-59990541D01*
X227768438Y-59990540D01*
X227774576Y-59990068D01*
X227963556Y-59937303D01*
X228138689Y-59848837D01*
X228168515Y-59825535D01*
X228288453Y-59731829D01*
X228293303Y-59728040D01*
X228297515Y-59723161D01*
X228417485Y-59584173D01*
X228417485Y-59584172D01*
X228421509Y-59579511D01*
X228429582Y-59565301D01*
X228470348Y-59493539D01*
X228518425Y-59408909D01*
X228555338Y-59297943D01*
X228595819Y-59239620D01*
X228661407Y-59212440D01*
X228731278Y-59225035D01*
X228783248Y-59273405D01*
X228796015Y-59302985D01*
X228797714Y-59308909D01*
X228815258Y-59370091D01*
X228818076Y-59375574D01*
X228902123Y-59539113D01*
X228902126Y-59539117D01*
X228904944Y-59544601D01*
X229026818Y-59698369D01*
X229031511Y-59702363D01*
X229031512Y-59702364D01*
X229152252Y-59805121D01*
X229176238Y-59825535D01*
X229181616Y-59828541D01*
X229181618Y-59828542D01*
X229217932Y-59848837D01*
X229347513Y-59921257D01*
X229534118Y-59981889D01*
X229728946Y-60005121D01*
X229735081Y-60004649D01*
X229735083Y-60004649D01*
X229918434Y-59990541D01*
X229918438Y-59990540D01*
X229924576Y-59990068D01*
X230113556Y-59937303D01*
X230288689Y-59848837D01*
X230318515Y-59825535D01*
X230438453Y-59731829D01*
X230443303Y-59728040D01*
X230447515Y-59723161D01*
X230567485Y-59584173D01*
X230567485Y-59584172D01*
X230571509Y-59579511D01*
X230579582Y-59565301D01*
X230620348Y-59493539D01*
X230668425Y-59408909D01*
X230730358Y-59222732D01*
X230754949Y-59028071D01*
X230755341Y-59000000D01*
X230736194Y-58804728D01*
X230734413Y-58798829D01*
X230734412Y-58798824D01*
X230681265Y-58622793D01*
X230679484Y-58616894D01*
X230587370Y-58443653D01*
X230521143Y-58362450D01*
X230493589Y-58297019D01*
X230505785Y-58227077D01*
X230523402Y-58200489D01*
X230541509Y-58179511D01*
X230638425Y-58008909D01*
X230700358Y-57822732D01*
X230724949Y-57628071D01*
X230725341Y-57600000D01*
X230706194Y-57404728D01*
X230704413Y-57398829D01*
X230704412Y-57398824D01*
X230651265Y-57222793D01*
X230649484Y-57216894D01*
X230557370Y-57043653D01*
X230433361Y-56891602D01*
X230282180Y-56766535D01*
X230109585Y-56673213D01*
X229976499Y-56632016D01*
X229928039Y-56617015D01*
X229928036Y-56617014D01*
X229922152Y-56615193D01*
X229916027Y-56614549D01*
X229916026Y-56614549D01*
X229733147Y-56595327D01*
X229733146Y-56595327D01*
X229727019Y-56594683D01*
X229611710Y-56605177D01*
X229537759Y-56611907D01*
X229537758Y-56611907D01*
X229531618Y-56612466D01*
X229525704Y-56614207D01*
X229525702Y-56614207D01*
X229465193Y-56632016D01*
X229343393Y-56667864D01*
X229337928Y-56670721D01*
X229174972Y-56755912D01*
X229174968Y-56755915D01*
X229169512Y-56758767D01*
X229164712Y-56762627D01*
X229164711Y-56762627D01*
X229130326Y-56790273D01*
X229016600Y-56881711D01*
X228890480Y-57032016D01*
X228887516Y-57037408D01*
X228887513Y-57037412D01*
X228835504Y-57132016D01*
X228795956Y-57203954D01*
X228794095Y-57209821D01*
X228794094Y-57209823D01*
X228787194Y-57231575D01*
X228781036Y-57250989D01*
X228780502Y-57252671D01*
X228740838Y-57311555D01*
X228675636Y-57339647D01*
X228605597Y-57328030D01*
X228552957Y-57280390D01*
X228539778Y-57250989D01*
X228531266Y-57222796D01*
X228531265Y-57222793D01*
X228529484Y-57216894D01*
X228437370Y-57043653D01*
X228313361Y-56891602D01*
X228162180Y-56766535D01*
X227989585Y-56673213D01*
X227856499Y-56632016D01*
X227808039Y-56617015D01*
X227808036Y-56617014D01*
X227802152Y-56615193D01*
X227796027Y-56614549D01*
X227796026Y-56614549D01*
X227613147Y-56595327D01*
X227613146Y-56595327D01*
X227607019Y-56594683D01*
X227491710Y-56605177D01*
X227417759Y-56611907D01*
X227417758Y-56611907D01*
X227411618Y-56612466D01*
X227405704Y-56614207D01*
X227405702Y-56614207D01*
X227345193Y-56632016D01*
X227223393Y-56667864D01*
X227217928Y-56670721D01*
X227054972Y-56755912D01*
X227054968Y-56755915D01*
X227049512Y-56758767D01*
X227044712Y-56762627D01*
X227044711Y-56762627D01*
X227010326Y-56790273D01*
X226896600Y-56881711D01*
X226846967Y-56940862D01*
X226775783Y-57025696D01*
X226716673Y-57065023D01*
X226645686Y-57066149D01*
X226581621Y-57024343D01*
X226473361Y-56891602D01*
X226322180Y-56766535D01*
X226149585Y-56673213D01*
X226016499Y-56632016D01*
X225968039Y-56617015D01*
X225968036Y-56617014D01*
X225962152Y-56615193D01*
X225956027Y-56614549D01*
X225956026Y-56614549D01*
X225773147Y-56595327D01*
X225773146Y-56595327D01*
X225767019Y-56594683D01*
X225651710Y-56605177D01*
X225577759Y-56611907D01*
X225577758Y-56611907D01*
X225571618Y-56612466D01*
X225565704Y-56614207D01*
X225565702Y-56614207D01*
X225505193Y-56632016D01*
X225383393Y-56667864D01*
X225377928Y-56670721D01*
X225214972Y-56755912D01*
X225214968Y-56755915D01*
X225209512Y-56758767D01*
X225204712Y-56762627D01*
X225204711Y-56762627D01*
X225170326Y-56790273D01*
X225056600Y-56881711D01*
X224930480Y-57032016D01*
X224927516Y-57037408D01*
X224927513Y-57037412D01*
X224875504Y-57132016D01*
X224835956Y-57203954D01*
X224834095Y-57209821D01*
X224834094Y-57209823D01*
X224827194Y-57231575D01*
X224776628Y-57390978D01*
X224754757Y-57585963D01*
X215949062Y-57585963D01*
X215936194Y-57454728D01*
X215934413Y-57448829D01*
X215934412Y-57448824D01*
X215881265Y-57272793D01*
X215879484Y-57266894D01*
X215787370Y-57093653D01*
X215663361Y-56941602D01*
X215512180Y-56816535D01*
X215339585Y-56723213D01*
X215211787Y-56683653D01*
X215158039Y-56667015D01*
X215158036Y-56667014D01*
X215152152Y-56665193D01*
X215146027Y-56664549D01*
X215146026Y-56664549D01*
X214963147Y-56645327D01*
X214963146Y-56645327D01*
X214957019Y-56644683D01*
X214834383Y-56655844D01*
X214767759Y-56661907D01*
X214767758Y-56661907D01*
X214761618Y-56662466D01*
X214755704Y-56664207D01*
X214755702Y-56664207D01*
X214689631Y-56683653D01*
X214573393Y-56717864D01*
X214567928Y-56720721D01*
X214404972Y-56805912D01*
X214404968Y-56805915D01*
X214399512Y-56808767D01*
X214394712Y-56812627D01*
X214394711Y-56812627D01*
X214382067Y-56822793D01*
X214246600Y-56931711D01*
X214120480Y-57082016D01*
X214117516Y-57087408D01*
X214117513Y-57087412D01*
X214053681Y-57203523D01*
X214025956Y-57253954D01*
X214024095Y-57259821D01*
X214024094Y-57259823D01*
X213998772Y-57339647D01*
X213966628Y-57440978D01*
X213944757Y-57635963D01*
X213961175Y-57831483D01*
X214015258Y-58020091D01*
X214018076Y-58025574D01*
X214102123Y-58189113D01*
X214102126Y-58189117D01*
X214104944Y-58194601D01*
X214108774Y-58199433D01*
X214112112Y-58204613D01*
X214110332Y-58205760D01*
X214133361Y-58262662D01*
X214118393Y-58335812D01*
X214077705Y-58409823D01*
X214025956Y-58503954D01*
X213966628Y-58690978D01*
X213944757Y-58885963D01*
X213961175Y-59081483D01*
X214015258Y-59270091D01*
X214018076Y-59275574D01*
X214102123Y-59439113D01*
X214102126Y-59439117D01*
X214104944Y-59444601D01*
X214108773Y-59449433D01*
X214108775Y-59449435D01*
X214125048Y-59469966D01*
X214151686Y-59535776D01*
X214138516Y-59605540D01*
X214127610Y-59621998D01*
X214127922Y-59622211D01*
X214124439Y-59627298D01*
X214120480Y-59632016D01*
X214117516Y-59637408D01*
X214117513Y-59637412D01*
X214077705Y-59709823D01*
X214025956Y-59803954D01*
X213966628Y-59990978D01*
X213944757Y-60185963D01*
X213961175Y-60381483D01*
X214015258Y-60570091D01*
X214018076Y-60575574D01*
X214102123Y-60739113D01*
X214102126Y-60739117D01*
X214104944Y-60744601D01*
X214226818Y-60898369D01*
X214266134Y-60931829D01*
X214267345Y-60932860D01*
X214306258Y-60992243D01*
X214306889Y-61063236D01*
X214264633Y-61127011D01*
X214201404Y-61177847D01*
X214201395Y-61177855D01*
X214196600Y-61181711D01*
X214070480Y-61332016D01*
X214067516Y-61337408D01*
X214067513Y-61337412D01*
X214004287Y-61452420D01*
X213975956Y-61503954D01*
X213973578Y-61511452D01*
X213970749Y-61520369D01*
X213931085Y-61579252D01*
X213865882Y-61607345D01*
X213795843Y-61595726D01*
X213743203Y-61548086D01*
X213734296Y-61528211D01*
X213733614Y-61528492D01*
X213731265Y-61522793D01*
X213729484Y-61516894D01*
X213637370Y-61343653D01*
X213513361Y-61191602D01*
X213362180Y-61066535D01*
X213189585Y-60973213D01*
X213059225Y-60932860D01*
X213008039Y-60917015D01*
X213008036Y-60917014D01*
X213002152Y-60915193D01*
X212996027Y-60914549D01*
X212996026Y-60914549D01*
X212813147Y-60895327D01*
X212813146Y-60895327D01*
X212807019Y-60894683D01*
X212722620Y-60902364D01*
X212617759Y-60911907D01*
X212617758Y-60911907D01*
X212611618Y-60912466D01*
X212605704Y-60914207D01*
X212605702Y-60914207D01*
X212488041Y-60948837D01*
X212423393Y-60967864D01*
X212417928Y-60970721D01*
X212254972Y-61055912D01*
X212254968Y-61055915D01*
X212249512Y-61058767D01*
X212244712Y-61062627D01*
X212244711Y-61062627D01*
X212223122Y-61079985D01*
X212096600Y-61181711D01*
X211970480Y-61332016D01*
X211967516Y-61337408D01*
X211967513Y-61337412D01*
X211904287Y-61452420D01*
X211875956Y-61503954D01*
X211816628Y-61690978D01*
X211794757Y-61885963D01*
X210253965Y-61885963D01*
X210236194Y-61704728D01*
X210234413Y-61698829D01*
X210234412Y-61698824D01*
X210181265Y-61522793D01*
X210179484Y-61516894D01*
X210087370Y-61343653D01*
X209963361Y-61191602D01*
X209812180Y-61066535D01*
X209639585Y-60973213D01*
X209509225Y-60932860D01*
X209458039Y-60917015D01*
X209458036Y-60917014D01*
X209452152Y-60915193D01*
X209446027Y-60914549D01*
X209446026Y-60914549D01*
X209263147Y-60895327D01*
X209263146Y-60895327D01*
X209257019Y-60894683D01*
X209172620Y-60902364D01*
X209067759Y-60911907D01*
X209067758Y-60911907D01*
X209061618Y-60912466D01*
X209055704Y-60914207D01*
X209055702Y-60914207D01*
X208938041Y-60948837D01*
X208873393Y-60967864D01*
X208867928Y-60970721D01*
X208704972Y-61055912D01*
X208704968Y-61055915D01*
X208699512Y-61058767D01*
X208694712Y-61062627D01*
X208694711Y-61062627D01*
X208673122Y-61079985D01*
X208546600Y-61181711D01*
X208420480Y-61332016D01*
X208417516Y-61337408D01*
X208417513Y-61337412D01*
X208354287Y-61452420D01*
X208325956Y-61503954D01*
X208266628Y-61690978D01*
X208244757Y-61885963D01*
X208261175Y-62081483D01*
X208315258Y-62270091D01*
X208360681Y-62358475D01*
X208404944Y-62444601D01*
X208402337Y-62445941D01*
X208418991Y-62501920D01*
X208403406Y-62563072D01*
X208328925Y-62698551D01*
X208328920Y-62698562D01*
X208325956Y-62703954D01*
X208324095Y-62709821D01*
X208324094Y-62709823D01*
X208319110Y-62725535D01*
X208266628Y-62890978D01*
X208244757Y-63085963D01*
X208247126Y-63114169D01*
X208257748Y-63240668D01*
X208243516Y-63310223D01*
X208193939Y-63361043D01*
X208124757Y-63376992D01*
X208057935Y-63353006D01*
X208043095Y-63340306D01*
X204547837Y-59845048D01*
X201051883Y-56349095D01*
X201017857Y-56286783D01*
X201022922Y-56215968D01*
X201065469Y-56159132D01*
X201131989Y-56134321D01*
X201140978Y-56134000D01*
X203121879Y-56134000D01*
X203190000Y-56154002D01*
X203238288Y-56211782D01*
X203275901Y-56302588D01*
X203280928Y-56309139D01*
X203367047Y-56421372D01*
X203372075Y-56427925D01*
X203378625Y-56432951D01*
X203378628Y-56432954D01*
X203431244Y-56473327D01*
X203497411Y-56524099D01*
X203527051Y-56536376D01*
X203635739Y-56581396D01*
X203635742Y-56581397D01*
X203643369Y-56584556D01*
X203800000Y-56605177D01*
X203808188Y-56604099D01*
X203831135Y-56601078D01*
X203847581Y-56600000D01*
X208152419Y-56600000D01*
X208168865Y-56601078D01*
X208200000Y-56605177D01*
X208356631Y-56584556D01*
X208364258Y-56581397D01*
X208364261Y-56581396D01*
X208429610Y-56554327D01*
X208502588Y-56524099D01*
X208627925Y-56427925D01*
X208632952Y-56421374D01*
X208632954Y-56421372D01*
X208652327Y-56396124D01*
X208681429Y-56358197D01*
X208724099Y-56302589D01*
X208761712Y-56211782D01*
X208806260Y-56156501D01*
X208878121Y-56134000D01*
X209204206Y-56134000D01*
X209272327Y-56154002D01*
X209318820Y-56207658D01*
X209328924Y-56277932D01*
X209299430Y-56342512D01*
X209283158Y-56358197D01*
X209216600Y-56411711D01*
X209090480Y-56562016D01*
X209087516Y-56567408D01*
X209087513Y-56567412D01*
X209017545Y-56694683D01*
X208995956Y-56733954D01*
X208994095Y-56739821D01*
X208994094Y-56739823D01*
X208973129Y-56805912D01*
X208936628Y-56920978D01*
X208914757Y-57115963D01*
X208931175Y-57311483D01*
X208985258Y-57500091D01*
X208988076Y-57505574D01*
X209072123Y-57669113D01*
X209072126Y-57669117D01*
X209074944Y-57674601D01*
X209196818Y-57828369D01*
X209201511Y-57832363D01*
X209201512Y-57832364D01*
X209335829Y-57946676D01*
X209346238Y-57955535D01*
X209351616Y-57958541D01*
X209351618Y-57958542D01*
X209387932Y-57978837D01*
X209517513Y-58051257D01*
X209704118Y-58111889D01*
X209898946Y-58135121D01*
X209905081Y-58134649D01*
X209905083Y-58134649D01*
X210088434Y-58120541D01*
X210088438Y-58120540D01*
X210094576Y-58120068D01*
X210283556Y-58067303D01*
X210458689Y-57978837D01*
X210469884Y-57970091D01*
X210608453Y-57861829D01*
X210613303Y-57858040D01*
X210631117Y-57837403D01*
X210737485Y-57714173D01*
X210737485Y-57714172D01*
X210741509Y-57709511D01*
X210838425Y-57538909D01*
X210900358Y-57352732D01*
X210924949Y-57158071D01*
X210925217Y-57138869D01*
X210925292Y-57133523D01*
X210925292Y-57133519D01*
X210925341Y-57130000D01*
X210906194Y-56934728D01*
X210904413Y-56928829D01*
X210904412Y-56928824D01*
X210851265Y-56752793D01*
X210849484Y-56746894D01*
X210757370Y-56573653D01*
X210633361Y-56421602D01*
X210564285Y-56364458D01*
X210555373Y-56357085D01*
X210515635Y-56298251D01*
X210514012Y-56227273D01*
X210551021Y-56166686D01*
X210614911Y-56135725D01*
X210635688Y-56134000D01*
X231014000Y-56134000D01*
X231082121Y-56154002D01*
X231128614Y-56207658D01*
X231140000Y-56260000D01*
X231140000Y-76582000D01*
X231119998Y-76650121D01*
X231066342Y-76696614D01*
X231014000Y-76708000D01*
X210494662Y-76708000D01*
X210426541Y-76687998D01*
X210380048Y-76634342D01*
X210369944Y-76564068D01*
X210399438Y-76499488D01*
X210417089Y-76482711D01*
X210492447Y-76423835D01*
X210492453Y-76423829D01*
X210497303Y-76420040D01*
X210527084Y-76385539D01*
X210621485Y-76276173D01*
X210621485Y-76276172D01*
X210625509Y-76271511D01*
X210653220Y-76222732D01*
X210680140Y-76175344D01*
X210722425Y-76100909D01*
X210784358Y-75914732D01*
X210808949Y-75720071D01*
X210809341Y-75692000D01*
X210790194Y-75496728D01*
X210788413Y-75490829D01*
X210788412Y-75490824D01*
X210735265Y-75314793D01*
X210733484Y-75308894D01*
X210641370Y-75135653D01*
X210517361Y-74983602D01*
X210366180Y-74858535D01*
X210193585Y-74765213D01*
X210070452Y-74727097D01*
X210012039Y-74709015D01*
X210012036Y-74709014D01*
X210006152Y-74707193D01*
X210000027Y-74706549D01*
X210000026Y-74706549D01*
X209817147Y-74687327D01*
X209817146Y-74687327D01*
X209811019Y-74686683D01*
X209711654Y-74695726D01*
X209621759Y-74703907D01*
X209621758Y-74703907D01*
X209615618Y-74704466D01*
X209609704Y-74706207D01*
X209609702Y-74706207D01*
X209579456Y-74715109D01*
X209427393Y-74759864D01*
X209421928Y-74762721D01*
X209258972Y-74847912D01*
X209258968Y-74847915D01*
X209253512Y-74850767D01*
X209248712Y-74854627D01*
X209248711Y-74854627D01*
X209231649Y-74868345D01*
X209100600Y-74973711D01*
X208974480Y-75124016D01*
X208971516Y-75129408D01*
X208971513Y-75129412D01*
X208896878Y-75265173D01*
X208879956Y-75295954D01*
X208878095Y-75301821D01*
X208878094Y-75301823D01*
X208862150Y-75352084D01*
X208820628Y-75482978D01*
X208798757Y-75677963D01*
X208815175Y-75873483D01*
X208869258Y-76062091D01*
X208872076Y-76067574D01*
X208956123Y-76231113D01*
X208956126Y-76231117D01*
X208958944Y-76236601D01*
X209080818Y-76390369D01*
X209085511Y-76394363D01*
X209085512Y-76394364D01*
X209193238Y-76486046D01*
X209232151Y-76545429D01*
X209232782Y-76616423D01*
X209194930Y-76676488D01*
X209130614Y-76706553D01*
X209111575Y-76708000D01*
X159465007Y-76708000D01*
X159396886Y-76687998D01*
X159350393Y-76634342D01*
X159340289Y-76564068D01*
X159355451Y-76519763D01*
X159398752Y-76443539D01*
X159418425Y-76408909D01*
X159480358Y-76222732D01*
X159504949Y-76028071D01*
X159505341Y-76000000D01*
X159486194Y-75804728D01*
X159484413Y-75798829D01*
X159484412Y-75798824D01*
X159431265Y-75622793D01*
X159429484Y-75616894D01*
X159399535Y-75560568D01*
X159385215Y-75491031D01*
X159401229Y-75439179D01*
X159407145Y-75428766D01*
X159418425Y-75408909D01*
X159480358Y-75222732D01*
X159504949Y-75028071D01*
X159505341Y-75000000D01*
X159486194Y-74804728D01*
X159484413Y-74798829D01*
X159484412Y-74798824D01*
X159431265Y-74622793D01*
X159429484Y-74616894D01*
X159337370Y-74443653D01*
X159213361Y-74291602D01*
X159062180Y-74166535D01*
X158889585Y-74073213D01*
X158761138Y-74033452D01*
X158708039Y-74017015D01*
X158708036Y-74017014D01*
X158702152Y-74015193D01*
X158696027Y-74014549D01*
X158696026Y-74014549D01*
X158513147Y-73995327D01*
X158513146Y-73995327D01*
X158507019Y-73994683D01*
X158396644Y-74004728D01*
X158317759Y-74011907D01*
X158317758Y-74011907D01*
X158311618Y-74012466D01*
X158305704Y-74014207D01*
X158305702Y-74014207D01*
X158265790Y-74025954D01*
X158123393Y-74067864D01*
X158117928Y-74070721D01*
X157954972Y-74155912D01*
X157954968Y-74155915D01*
X157949512Y-74158767D01*
X157944712Y-74162627D01*
X157944711Y-74162627D01*
X157923333Y-74179815D01*
X157796600Y-74281711D01*
X157670480Y-74432016D01*
X157667516Y-74437408D01*
X157667513Y-74437412D01*
X157661099Y-74449080D01*
X157610753Y-74499139D01*
X157541336Y-74514032D01*
X157474887Y-74489031D01*
X157444614Y-74453601D01*
X157443672Y-74454227D01*
X157440268Y-74449104D01*
X157437370Y-74443653D01*
X157313361Y-74291602D01*
X157162180Y-74166535D01*
X156989585Y-74073213D01*
X156861138Y-74033452D01*
X156808039Y-74017015D01*
X156808036Y-74017014D01*
X156802152Y-74015193D01*
X156796027Y-74014549D01*
X156796026Y-74014549D01*
X156613147Y-73995327D01*
X156613146Y-73995327D01*
X156607019Y-73994683D01*
X156496644Y-74004728D01*
X156417759Y-74011907D01*
X156417758Y-74011907D01*
X156411618Y-74012466D01*
X156405704Y-74014207D01*
X156405702Y-74014207D01*
X156365790Y-74025954D01*
X156223393Y-74067864D01*
X156217928Y-74070721D01*
X156054972Y-74155912D01*
X156054968Y-74155915D01*
X156049512Y-74158767D01*
X156044712Y-74162627D01*
X156044711Y-74162627D01*
X156023333Y-74179815D01*
X155896600Y-74281711D01*
X155770480Y-74432016D01*
X155767516Y-74437408D01*
X155767513Y-74437412D01*
X155707325Y-74546894D01*
X155675956Y-74603954D01*
X155673578Y-74611452D01*
X155670749Y-74620369D01*
X155631085Y-74679252D01*
X155565882Y-74707345D01*
X155495843Y-74695726D01*
X155443203Y-74648086D01*
X155434296Y-74628211D01*
X155433614Y-74628492D01*
X155431265Y-74622793D01*
X155429484Y-74616894D01*
X155337370Y-74443653D01*
X155213361Y-74291602D01*
X155062180Y-74166535D01*
X154889585Y-74073213D01*
X154761138Y-74033452D01*
X154708039Y-74017015D01*
X154708036Y-74017014D01*
X154702152Y-74015193D01*
X154696027Y-74014549D01*
X154696026Y-74014549D01*
X154513147Y-73995327D01*
X154513146Y-73995327D01*
X154507019Y-73994683D01*
X154396644Y-74004728D01*
X154317759Y-74011907D01*
X154317758Y-74011907D01*
X154311618Y-74012466D01*
X154305704Y-74014207D01*
X154305702Y-74014207D01*
X154265790Y-74025954D01*
X154123393Y-74067864D01*
X154117928Y-74070721D01*
X153954972Y-74155912D01*
X153954968Y-74155915D01*
X153949512Y-74158767D01*
X153944712Y-74162627D01*
X153944711Y-74162627D01*
X153923333Y-74179815D01*
X153796600Y-74281711D01*
X153670480Y-74432016D01*
X153667516Y-74437408D01*
X153667513Y-74437412D01*
X153607325Y-74546894D01*
X153575956Y-74603954D01*
X153516628Y-74790978D01*
X153494757Y-74985963D01*
X153511175Y-75181483D01*
X153565258Y-75370091D01*
X153568074Y-75375570D01*
X153568075Y-75375573D01*
X153601922Y-75441431D01*
X153615270Y-75511162D01*
X153600272Y-75559724D01*
X153575956Y-75603954D01*
X153574092Y-75609829D01*
X153574091Y-75609832D01*
X153569980Y-75622793D01*
X153516628Y-75790978D01*
X153494757Y-75985963D01*
X153511175Y-76181483D01*
X153565258Y-76370091D01*
X153644566Y-76524409D01*
X153657913Y-76594136D01*
X153631443Y-76660014D01*
X153573558Y-76701122D01*
X153532499Y-76708000D01*
X143428330Y-76708000D01*
X143360209Y-76687998D01*
X143313716Y-76634342D01*
X143303612Y-76564068D01*
X143318774Y-76519763D01*
X143409379Y-76360272D01*
X143409381Y-76360267D01*
X143412425Y-76354909D01*
X143474358Y-76168732D01*
X143498949Y-75974071D01*
X143499341Y-75946000D01*
X143480194Y-75750728D01*
X143478413Y-75744829D01*
X143478412Y-75744824D01*
X143434332Y-75598824D01*
X143423484Y-75562894D01*
X143420591Y-75557454D01*
X143420589Y-75557448D01*
X143389141Y-75498303D01*
X143374821Y-75428766D01*
X143390835Y-75376914D01*
X143409380Y-75344269D01*
X143412425Y-75338909D01*
X143474358Y-75152732D01*
X143498949Y-74958071D01*
X143499341Y-74930000D01*
X143480194Y-74734728D01*
X143478413Y-74728829D01*
X143478412Y-74728824D01*
X143425265Y-74552793D01*
X143423484Y-74546894D01*
X143331370Y-74373653D01*
X143207361Y-74221602D01*
X143056180Y-74096535D01*
X142883585Y-74003213D01*
X142787733Y-73973542D01*
X142702039Y-73947015D01*
X142702036Y-73947014D01*
X142696152Y-73945193D01*
X142690027Y-73944549D01*
X142690026Y-73944549D01*
X142507147Y-73925327D01*
X142507146Y-73925327D01*
X142501019Y-73924683D01*
X142378383Y-73935844D01*
X142311759Y-73941907D01*
X142311758Y-73941907D01*
X142305618Y-73942466D01*
X142299704Y-73944207D01*
X142299702Y-73944207D01*
X142176248Y-73980542D01*
X142117393Y-73997864D01*
X142111928Y-74000721D01*
X141948972Y-74085912D01*
X141948968Y-74085915D01*
X141943512Y-74088767D01*
X141938712Y-74092627D01*
X141938711Y-74092627D01*
X141904326Y-74120273D01*
X141790600Y-74211711D01*
X141664480Y-74362016D01*
X141661516Y-74367408D01*
X141661513Y-74367412D01*
X141606021Y-74468352D01*
X141569956Y-74533954D01*
X141568095Y-74539821D01*
X141568094Y-74539823D01*
X141546179Y-74608909D01*
X141510628Y-74720978D01*
X141488757Y-74915963D01*
X141505175Y-75111483D01*
X141516231Y-75150040D01*
X141556686Y-75291121D01*
X141559258Y-75300091D01*
X141562073Y-75305568D01*
X141562076Y-75305576D01*
X141600171Y-75379701D01*
X141613519Y-75449431D01*
X141598520Y-75497996D01*
X141569956Y-75549954D01*
X141568095Y-75555821D01*
X141568094Y-75555823D01*
X141548721Y-75616894D01*
X141510628Y-75736978D01*
X141488757Y-75931963D01*
X141505175Y-76127483D01*
X141559258Y-76316091D01*
X141562076Y-76321574D01*
X141646123Y-76485113D01*
X141646126Y-76485117D01*
X141648944Y-76490601D01*
X141652775Y-76495435D01*
X141652776Y-76495436D01*
X141659353Y-76503734D01*
X141685992Y-76569543D01*
X141672822Y-76639308D01*
X141624026Y-76690878D01*
X141560609Y-76708000D01*
X127514899Y-76708000D01*
X127446778Y-76687998D01*
X127400285Y-76634342D01*
X127390181Y-76564068D01*
X127419675Y-76499488D01*
X127437323Y-76482713D01*
X127438448Y-76481834D01*
X127438453Y-76481829D01*
X127443303Y-76478040D01*
X127473084Y-76443539D01*
X127567485Y-76334173D01*
X127567485Y-76334172D01*
X127571509Y-76329511D01*
X127668425Y-76158909D01*
X127730358Y-75972732D01*
X127754949Y-75778071D01*
X127755341Y-75750000D01*
X127736194Y-75554728D01*
X127734413Y-75548829D01*
X127734412Y-75548824D01*
X127681265Y-75372793D01*
X127679484Y-75366894D01*
X127587370Y-75193653D01*
X127497107Y-75082979D01*
X127469553Y-75017548D01*
X127481749Y-74947606D01*
X127499369Y-74921013D01*
X127617480Y-74784180D01*
X127617485Y-74784173D01*
X127621509Y-74779511D01*
X127629632Y-74765213D01*
X127674243Y-74686683D01*
X127718425Y-74608909D01*
X127780358Y-74422732D01*
X127804949Y-74228071D01*
X127805341Y-74200000D01*
X127786194Y-74004728D01*
X127784413Y-73998829D01*
X127784412Y-73998824D01*
X127731265Y-73822793D01*
X127729484Y-73816894D01*
X127637370Y-73643653D01*
X127513361Y-73491602D01*
X127362180Y-73366535D01*
X127189585Y-73273213D01*
X127095868Y-73244203D01*
X127008039Y-73217015D01*
X127008036Y-73217014D01*
X127002152Y-73215193D01*
X126996027Y-73214549D01*
X126996026Y-73214549D01*
X126813147Y-73195327D01*
X126813146Y-73195327D01*
X126807019Y-73194683D01*
X126684383Y-73205844D01*
X126617759Y-73211907D01*
X126617758Y-73211907D01*
X126611618Y-73212466D01*
X126605704Y-73214207D01*
X126605702Y-73214207D01*
X126476734Y-73252165D01*
X126423393Y-73267864D01*
X126417928Y-73270721D01*
X126254972Y-73355912D01*
X126254968Y-73355915D01*
X126249512Y-73358767D01*
X126244712Y-73362627D01*
X126244711Y-73362627D01*
X126229655Y-73374732D01*
X126096600Y-73481711D01*
X125970480Y-73632016D01*
X125967516Y-73637408D01*
X125967513Y-73637412D01*
X125918514Y-73726542D01*
X125875956Y-73803954D01*
X125874095Y-73809821D01*
X125874094Y-73809823D01*
X125852472Y-73877985D01*
X125816628Y-73990978D01*
X125794757Y-74185963D01*
X125811175Y-74381483D01*
X125865258Y-74570091D01*
X125868074Y-74575570D01*
X125868075Y-74575573D01*
X125952123Y-74739113D01*
X125952126Y-74739117D01*
X125954944Y-74744601D01*
X125958774Y-74749434D01*
X125958779Y-74749441D01*
X126053021Y-74868345D01*
X126079659Y-74934155D01*
X126066488Y-75003919D01*
X126046261Y-75031427D01*
X126046600Y-75031711D01*
X125920480Y-75182016D01*
X125917516Y-75187408D01*
X125917513Y-75187412D01*
X125854615Y-75301823D01*
X125825956Y-75353954D01*
X125824095Y-75359821D01*
X125824094Y-75359823D01*
X125810095Y-75403954D01*
X125766628Y-75540978D01*
X125744757Y-75735963D01*
X125761175Y-75931483D01*
X125815258Y-76120091D01*
X125832200Y-76153056D01*
X125902123Y-76289113D01*
X125902126Y-76289117D01*
X125904944Y-76294601D01*
X126026818Y-76448369D01*
X126031511Y-76452363D01*
X126031512Y-76452364D01*
X126071088Y-76486046D01*
X126110001Y-76545429D01*
X126110632Y-76616423D01*
X126072780Y-76676488D01*
X126008464Y-76706553D01*
X125989425Y-76708000D01*
X123613174Y-76708000D01*
X123545053Y-76687998D01*
X123498560Y-76634342D01*
X123488456Y-76564068D01*
X123517792Y-76499669D01*
X123617485Y-76384173D01*
X123617485Y-76384172D01*
X123621509Y-76379511D01*
X123626861Y-76370091D01*
X123671722Y-76291121D01*
X123718425Y-76208909D01*
X123780358Y-76022732D01*
X123804949Y-75828071D01*
X123805341Y-75800000D01*
X123786194Y-75604728D01*
X123784413Y-75598829D01*
X123784412Y-75598824D01*
X123731265Y-75422793D01*
X123729484Y-75416894D01*
X123637370Y-75243653D01*
X123513361Y-75091602D01*
X123508865Y-75087883D01*
X123475114Y-75025553D01*
X123480426Y-74954756D01*
X123502945Y-74916870D01*
X123617485Y-74784173D01*
X123617485Y-74784172D01*
X123621509Y-74779511D01*
X123629632Y-74765213D01*
X123674243Y-74686683D01*
X123718425Y-74608909D01*
X123780358Y-74422732D01*
X123804949Y-74228071D01*
X123805341Y-74200000D01*
X123786194Y-74004728D01*
X123784413Y-73998829D01*
X123784412Y-73998824D01*
X123731265Y-73822793D01*
X123729484Y-73816894D01*
X123637370Y-73643653D01*
X123513361Y-73491602D01*
X123362180Y-73366535D01*
X123189585Y-73273213D01*
X123095868Y-73244203D01*
X123008039Y-73217015D01*
X123008036Y-73217014D01*
X123002152Y-73215193D01*
X122996027Y-73214549D01*
X122996026Y-73214549D01*
X122813147Y-73195327D01*
X122813146Y-73195327D01*
X122807019Y-73194683D01*
X122684383Y-73205844D01*
X122617759Y-73211907D01*
X122617758Y-73211907D01*
X122611618Y-73212466D01*
X122605704Y-73214207D01*
X122605702Y-73214207D01*
X122476734Y-73252165D01*
X122423393Y-73267864D01*
X122417928Y-73270721D01*
X122254972Y-73355912D01*
X122254968Y-73355915D01*
X122249512Y-73358767D01*
X122244712Y-73362627D01*
X122244711Y-73362627D01*
X122124952Y-73458915D01*
X122059329Y-73486011D01*
X121989475Y-73473327D01*
X121937567Y-73424891D01*
X121920000Y-73360718D01*
X121920000Y-73185463D01*
X162799500Y-73185463D01*
X162799712Y-73188036D01*
X162799712Y-73188047D01*
X162813649Y-73357565D01*
X162813650Y-73357571D01*
X162814073Y-73362716D01*
X162838236Y-73458915D01*
X162869813Y-73584627D01*
X162872179Y-73594048D01*
X162874237Y-73598781D01*
X162874238Y-73598784D01*
X162963449Y-73803954D01*
X162967288Y-73812784D01*
X163096845Y-74013049D01*
X163100324Y-74016872D01*
X163100326Y-74016875D01*
X163232951Y-74162627D01*
X163257371Y-74189464D01*
X163261422Y-74192663D01*
X163261426Y-74192667D01*
X163440500Y-74334091D01*
X163440504Y-74334093D01*
X163444555Y-74337293D01*
X163449076Y-74339789D01*
X163449078Y-74339790D01*
X163489341Y-74362016D01*
X163653369Y-74452564D01*
X163658238Y-74454288D01*
X163658242Y-74454290D01*
X163873337Y-74530459D01*
X163873339Y-74530460D01*
X163878206Y-74532183D01*
X163993908Y-74552793D01*
X164107940Y-74573106D01*
X164107944Y-74573106D01*
X164113028Y-74574012D01*
X164196860Y-74575036D01*
X164346360Y-74576863D01*
X164346362Y-74576863D01*
X164351529Y-74576926D01*
X164587302Y-74540847D01*
X164814018Y-74466745D01*
X164818606Y-74464357D01*
X164818610Y-74464355D01*
X165020997Y-74358999D01*
X165020998Y-74358998D01*
X165025586Y-74356610D01*
X165029719Y-74353507D01*
X165029722Y-74353505D01*
X165212190Y-74216503D01*
X165212192Y-74216501D01*
X165216325Y-74213398D01*
X165350289Y-74073213D01*
X165377542Y-74044695D01*
X165377543Y-74044694D01*
X165381113Y-74040958D01*
X165387345Y-74031823D01*
X165394885Y-74020769D01*
X165449796Y-73975766D01*
X165520321Y-73967595D01*
X165584068Y-73998849D01*
X165596220Y-74012083D01*
X165596845Y-74013049D01*
X165600330Y-74016879D01*
X165727512Y-74156649D01*
X165757371Y-74189464D01*
X165761422Y-74192663D01*
X165761426Y-74192667D01*
X165940500Y-74334091D01*
X165940504Y-74334093D01*
X165944555Y-74337293D01*
X165949076Y-74339789D01*
X165949078Y-74339790D01*
X165989341Y-74362016D01*
X166153369Y-74452564D01*
X166158238Y-74454288D01*
X166158242Y-74454290D01*
X166373337Y-74530459D01*
X166373339Y-74530460D01*
X166378206Y-74532183D01*
X166493908Y-74552793D01*
X166607940Y-74573106D01*
X166607944Y-74573106D01*
X166613028Y-74574012D01*
X166696860Y-74575036D01*
X166846360Y-74576863D01*
X166846362Y-74576863D01*
X166851529Y-74576926D01*
X167087302Y-74540847D01*
X167314018Y-74466745D01*
X167318606Y-74464357D01*
X167318610Y-74464355D01*
X167520997Y-74358999D01*
X167520998Y-74358998D01*
X167525586Y-74356610D01*
X167529719Y-74353507D01*
X167529722Y-74353505D01*
X167712190Y-74216503D01*
X167712192Y-74216501D01*
X167716325Y-74213398D01*
X167850289Y-74073213D01*
X167877542Y-74044695D01*
X167877543Y-74044694D01*
X167881113Y-74040958D01*
X167887345Y-74031823D01*
X167894885Y-74020769D01*
X167949796Y-73975766D01*
X168020321Y-73967595D01*
X168084068Y-73998849D01*
X168096220Y-74012083D01*
X168096845Y-74013049D01*
X168100330Y-74016879D01*
X168227512Y-74156649D01*
X168257371Y-74189464D01*
X168261422Y-74192663D01*
X168261426Y-74192667D01*
X168440500Y-74334091D01*
X168440504Y-74334093D01*
X168444555Y-74337293D01*
X168449076Y-74339789D01*
X168449078Y-74339790D01*
X168489341Y-74362016D01*
X168653369Y-74452564D01*
X168658238Y-74454288D01*
X168658242Y-74454290D01*
X168873337Y-74530459D01*
X168873339Y-74530460D01*
X168878206Y-74532183D01*
X168993908Y-74552793D01*
X169107940Y-74573106D01*
X169107944Y-74573106D01*
X169113028Y-74574012D01*
X169196860Y-74575036D01*
X169346360Y-74576863D01*
X169346362Y-74576863D01*
X169351529Y-74576926D01*
X169587302Y-74540847D01*
X169814018Y-74466745D01*
X169818606Y-74464357D01*
X169818610Y-74464355D01*
X170020997Y-74358999D01*
X170020998Y-74358998D01*
X170025586Y-74356610D01*
X170029719Y-74353507D01*
X170029722Y-74353505D01*
X170212190Y-74216503D01*
X170212192Y-74216501D01*
X170216325Y-74213398D01*
X170350289Y-74073213D01*
X170377542Y-74044695D01*
X170377543Y-74044694D01*
X170381113Y-74040958D01*
X170387345Y-74031823D01*
X170394885Y-74020769D01*
X170449796Y-73975766D01*
X170520321Y-73967595D01*
X170584068Y-73998849D01*
X170596220Y-74012083D01*
X170596845Y-74013049D01*
X170600330Y-74016879D01*
X170727512Y-74156649D01*
X170757371Y-74189464D01*
X170761422Y-74192663D01*
X170761426Y-74192667D01*
X170940500Y-74334091D01*
X170940504Y-74334093D01*
X170944555Y-74337293D01*
X170949076Y-74339789D01*
X170949078Y-74339790D01*
X170989341Y-74362016D01*
X171153369Y-74452564D01*
X171158238Y-74454288D01*
X171158242Y-74454290D01*
X171373337Y-74530459D01*
X171373339Y-74530460D01*
X171378206Y-74532183D01*
X171493908Y-74552793D01*
X171607940Y-74573106D01*
X171607944Y-74573106D01*
X171613028Y-74574012D01*
X171696860Y-74575036D01*
X171846360Y-74576863D01*
X171846362Y-74576863D01*
X171851529Y-74576926D01*
X172087302Y-74540847D01*
X172314018Y-74466745D01*
X172318606Y-74464357D01*
X172318610Y-74464355D01*
X172520997Y-74358999D01*
X172520998Y-74358998D01*
X172525586Y-74356610D01*
X172529719Y-74353507D01*
X172529722Y-74353505D01*
X172712190Y-74216503D01*
X172712192Y-74216501D01*
X172716325Y-74213398D01*
X172850289Y-74073213D01*
X172877542Y-74044695D01*
X172877543Y-74044694D01*
X172881113Y-74040958D01*
X172887345Y-74031823D01*
X172894885Y-74020769D01*
X172949796Y-73975766D01*
X173020321Y-73967595D01*
X173084068Y-73998849D01*
X173096220Y-74012083D01*
X173096845Y-74013049D01*
X173100330Y-74016879D01*
X173227512Y-74156649D01*
X173257371Y-74189464D01*
X173261422Y-74192663D01*
X173261426Y-74192667D01*
X173440500Y-74334091D01*
X173440504Y-74334093D01*
X173444555Y-74337293D01*
X173449076Y-74339789D01*
X173449078Y-74339790D01*
X173489341Y-74362016D01*
X173653369Y-74452564D01*
X173658238Y-74454288D01*
X173658242Y-74454290D01*
X173873337Y-74530459D01*
X173873339Y-74530460D01*
X173878206Y-74532183D01*
X173993908Y-74552793D01*
X174107940Y-74573106D01*
X174107944Y-74573106D01*
X174113028Y-74574012D01*
X174196860Y-74575036D01*
X174346360Y-74576863D01*
X174346362Y-74576863D01*
X174351529Y-74576926D01*
X174587302Y-74540847D01*
X174814018Y-74466745D01*
X174818606Y-74464357D01*
X174818610Y-74464355D01*
X175020997Y-74358999D01*
X175020998Y-74358998D01*
X175025586Y-74356610D01*
X175029719Y-74353507D01*
X175029722Y-74353505D01*
X175130481Y-74277852D01*
X175216325Y-74213398D01*
X175219894Y-74209663D01*
X175219901Y-74209657D01*
X175244703Y-74183703D01*
X175306227Y-74148273D01*
X175377140Y-74151730D01*
X175433992Y-74191800D01*
X175545060Y-74329940D01*
X175689074Y-74445731D01*
X175734644Y-74468352D01*
X175848481Y-74524862D01*
X175848485Y-74524864D01*
X175854592Y-74527895D01*
X175861214Y-74529546D01*
X176028497Y-74571255D01*
X176028501Y-74571256D01*
X176033893Y-74572600D01*
X176050706Y-74573746D01*
X176074286Y-74575354D01*
X176074299Y-74575354D01*
X176076434Y-74575500D01*
X177423566Y-74575500D01*
X177425701Y-74575354D01*
X177425714Y-74575354D01*
X177449294Y-74573746D01*
X177466107Y-74572600D01*
X177471499Y-74571256D01*
X177471503Y-74571255D01*
X177638786Y-74529546D01*
X177645408Y-74527895D01*
X177651515Y-74524864D01*
X177651519Y-74524862D01*
X177765356Y-74468352D01*
X177810926Y-74445731D01*
X177857900Y-74407963D01*
X188732757Y-74407963D01*
X188749175Y-74603483D01*
X188803258Y-74792091D01*
X188806076Y-74797574D01*
X188890123Y-74961113D01*
X188890126Y-74961117D01*
X188892944Y-74966601D01*
X189014818Y-75120369D01*
X189019511Y-75124363D01*
X189019512Y-75124364D01*
X189141971Y-75228584D01*
X189164238Y-75247535D01*
X189169616Y-75250541D01*
X189169618Y-75250542D01*
X189205932Y-75270837D01*
X189335513Y-75343257D01*
X189522118Y-75403889D01*
X189716946Y-75427121D01*
X189723081Y-75426649D01*
X189723083Y-75426649D01*
X189906434Y-75412541D01*
X189906438Y-75412540D01*
X189912576Y-75412068D01*
X190101556Y-75359303D01*
X190276689Y-75270837D01*
X190279622Y-75268546D01*
X190347040Y-75249163D01*
X190407797Y-75265173D01*
X190547513Y-75343257D01*
X190734118Y-75403889D01*
X190928946Y-75427121D01*
X190935081Y-75426649D01*
X190935083Y-75426649D01*
X191118434Y-75412541D01*
X191118438Y-75412540D01*
X191124576Y-75412068D01*
X191313556Y-75359303D01*
X191488689Y-75270837D01*
X191518515Y-75247535D01*
X191602375Y-75182016D01*
X191643303Y-75150040D01*
X191651017Y-75141104D01*
X191767485Y-75006173D01*
X191767485Y-75006172D01*
X191771509Y-75001511D01*
X191802132Y-74947606D01*
X191816617Y-74922107D01*
X191868425Y-74830909D01*
X191930358Y-74644732D01*
X191954949Y-74450071D01*
X191955341Y-74422000D01*
X191953965Y-74407963D01*
X197194757Y-74407963D01*
X197211175Y-74603483D01*
X197265258Y-74792091D01*
X197268076Y-74797574D01*
X197352123Y-74961113D01*
X197352126Y-74961117D01*
X197354944Y-74966601D01*
X197476818Y-75120369D01*
X197481511Y-75124363D01*
X197481512Y-75124364D01*
X197603971Y-75228584D01*
X197626238Y-75247535D01*
X197631616Y-75250541D01*
X197631618Y-75250542D01*
X197667932Y-75270837D01*
X197797513Y-75343257D01*
X197984118Y-75403889D01*
X198178946Y-75427121D01*
X198185081Y-75426649D01*
X198185083Y-75426649D01*
X198368434Y-75412541D01*
X198368438Y-75412540D01*
X198374576Y-75412068D01*
X198563556Y-75359303D01*
X198738689Y-75270837D01*
X198768515Y-75247535D01*
X198852375Y-75182016D01*
X198893303Y-75150040D01*
X198897323Y-75145382D01*
X198897330Y-75145376D01*
X198953843Y-75079905D01*
X199013496Y-75041408D01*
X199084492Y-75041273D01*
X199147969Y-75083971D01*
X199157806Y-75096382D01*
X199176818Y-75120369D01*
X199181511Y-75124363D01*
X199181512Y-75124364D01*
X199303971Y-75228584D01*
X199326238Y-75247535D01*
X199331616Y-75250541D01*
X199331618Y-75250542D01*
X199367932Y-75270837D01*
X199497513Y-75343257D01*
X199684118Y-75403889D01*
X199878946Y-75427121D01*
X199885081Y-75426649D01*
X199885083Y-75426649D01*
X200068434Y-75412541D01*
X200068438Y-75412540D01*
X200074576Y-75412068D01*
X200263556Y-75359303D01*
X200438689Y-75270837D01*
X200468515Y-75247535D01*
X200552375Y-75182016D01*
X200593303Y-75150040D01*
X200601017Y-75141104D01*
X200717485Y-75006173D01*
X200717485Y-75006172D01*
X200721509Y-75001511D01*
X200752132Y-74947606D01*
X200766617Y-74922107D01*
X200818425Y-74830909D01*
X200880358Y-74644732D01*
X200904949Y-74450071D01*
X200905341Y-74422000D01*
X200886194Y-74226728D01*
X200884413Y-74220829D01*
X200884412Y-74220824D01*
X200831265Y-74044793D01*
X200829484Y-74038894D01*
X200737370Y-73865653D01*
X200613361Y-73713602D01*
X200462180Y-73588535D01*
X200289585Y-73495213D01*
X200172325Y-73458915D01*
X200108039Y-73439015D01*
X200108036Y-73439014D01*
X200102152Y-73437193D01*
X200096027Y-73436549D01*
X200096026Y-73436549D01*
X199913147Y-73417327D01*
X199913146Y-73417327D01*
X199907019Y-73416683D01*
X199784383Y-73427844D01*
X199717759Y-73433907D01*
X199717758Y-73433907D01*
X199711618Y-73434466D01*
X199705704Y-73436207D01*
X199705702Y-73436207D01*
X199628548Y-73458915D01*
X199523393Y-73489864D01*
X199517928Y-73492721D01*
X199354972Y-73577912D01*
X199354968Y-73577915D01*
X199349512Y-73580767D01*
X199344712Y-73584627D01*
X199344711Y-73584627D01*
X199333323Y-73593783D01*
X199196600Y-73703711D01*
X199192642Y-73708428D01*
X199192639Y-73708431D01*
X199146777Y-73763087D01*
X199087667Y-73802413D01*
X199016680Y-73803539D01*
X198952613Y-73761730D01*
X198942730Y-73749612D01*
X198913361Y-73713602D01*
X198762180Y-73588535D01*
X198589585Y-73495213D01*
X198472325Y-73458915D01*
X198408039Y-73439015D01*
X198408036Y-73439014D01*
X198402152Y-73437193D01*
X198396027Y-73436549D01*
X198396026Y-73436549D01*
X198213147Y-73417327D01*
X198213146Y-73417327D01*
X198207019Y-73416683D01*
X198084383Y-73427844D01*
X198017759Y-73433907D01*
X198017758Y-73433907D01*
X198011618Y-73434466D01*
X198005704Y-73436207D01*
X198005702Y-73436207D01*
X197928548Y-73458915D01*
X197823393Y-73489864D01*
X197817928Y-73492721D01*
X197654972Y-73577912D01*
X197654968Y-73577915D01*
X197649512Y-73580767D01*
X197644712Y-73584627D01*
X197644711Y-73584627D01*
X197633323Y-73593783D01*
X197496600Y-73703711D01*
X197370480Y-73854016D01*
X197367516Y-73859408D01*
X197367513Y-73859412D01*
X197298411Y-73985109D01*
X197275956Y-74025954D01*
X197274095Y-74031821D01*
X197274094Y-74031823D01*
X197246292Y-74119466D01*
X197216628Y-74212978D01*
X197194757Y-74407963D01*
X191953965Y-74407963D01*
X191936194Y-74226728D01*
X191934413Y-74220829D01*
X191934412Y-74220824D01*
X191881265Y-74044793D01*
X191879484Y-74038894D01*
X191787370Y-73865653D01*
X191663361Y-73713602D01*
X191512180Y-73588535D01*
X191339585Y-73495213D01*
X191222325Y-73458915D01*
X191158039Y-73439015D01*
X191158036Y-73439014D01*
X191152152Y-73437193D01*
X191146027Y-73436549D01*
X191146026Y-73436549D01*
X190963147Y-73417327D01*
X190963146Y-73417327D01*
X190957019Y-73416683D01*
X190834383Y-73427844D01*
X190767759Y-73433907D01*
X190767758Y-73433907D01*
X190761618Y-73434466D01*
X190755704Y-73436207D01*
X190755702Y-73436207D01*
X190678548Y-73458915D01*
X190573393Y-73489864D01*
X190427239Y-73566272D01*
X190401077Y-73579949D01*
X190331442Y-73593783D01*
X190282773Y-73579123D01*
X190269729Y-73572070D01*
X190127585Y-73495213D01*
X190010325Y-73458915D01*
X189946039Y-73439015D01*
X189946036Y-73439014D01*
X189940152Y-73437193D01*
X189934027Y-73436549D01*
X189934026Y-73436549D01*
X189751147Y-73417327D01*
X189751146Y-73417327D01*
X189745019Y-73416683D01*
X189622383Y-73427844D01*
X189555759Y-73433907D01*
X189555758Y-73433907D01*
X189549618Y-73434466D01*
X189543704Y-73436207D01*
X189543702Y-73436207D01*
X189466548Y-73458915D01*
X189361393Y-73489864D01*
X189355928Y-73492721D01*
X189192972Y-73577912D01*
X189192968Y-73577915D01*
X189187512Y-73580767D01*
X189182712Y-73584627D01*
X189182711Y-73584627D01*
X189171323Y-73593783D01*
X189034600Y-73703711D01*
X188908480Y-73854016D01*
X188905516Y-73859408D01*
X188905513Y-73859412D01*
X188836411Y-73985109D01*
X188813956Y-74025954D01*
X188812095Y-74031821D01*
X188812094Y-74031823D01*
X188784292Y-74119466D01*
X188754628Y-74212978D01*
X188732757Y-74407963D01*
X177857900Y-74407963D01*
X177954940Y-74329940D01*
X178070731Y-74185926D01*
X178120074Y-74086526D01*
X178149862Y-74026519D01*
X178149864Y-74026515D01*
X178152895Y-74020408D01*
X178162835Y-73980542D01*
X178196255Y-73846503D01*
X178196256Y-73846499D01*
X178197600Y-73841107D01*
X178199294Y-73816252D01*
X178200354Y-73800714D01*
X178200354Y-73800701D01*
X178200500Y-73798566D01*
X178200500Y-73137963D01*
X180350757Y-73137963D01*
X180367175Y-73333483D01*
X180421258Y-73522091D01*
X180424076Y-73527574D01*
X180508123Y-73691113D01*
X180508126Y-73691117D01*
X180510944Y-73696601D01*
X180632818Y-73850369D01*
X180637511Y-73854363D01*
X180637512Y-73854364D01*
X180770559Y-73967595D01*
X180782238Y-73977535D01*
X180787616Y-73980541D01*
X180787618Y-73980542D01*
X180828897Y-74003612D01*
X180953513Y-74073257D01*
X181140118Y-74133889D01*
X181334946Y-74157121D01*
X181341081Y-74156649D01*
X181341083Y-74156649D01*
X181524434Y-74142541D01*
X181524438Y-74142540D01*
X181530576Y-74142068D01*
X181719556Y-74089303D01*
X181894689Y-74000837D01*
X181901851Y-73995242D01*
X182019760Y-73903121D01*
X182049303Y-73880040D01*
X182057017Y-73871104D01*
X182173485Y-73736173D01*
X182173485Y-73736172D01*
X182177509Y-73731511D01*
X182184309Y-73719542D01*
X182224323Y-73649104D01*
X182274425Y-73560909D01*
X182336358Y-73374732D01*
X182360949Y-73180071D01*
X182361341Y-73152000D01*
X182342194Y-72956728D01*
X182340413Y-72950829D01*
X182340412Y-72950824D01*
X182287265Y-72774793D01*
X182285484Y-72768894D01*
X182193370Y-72595653D01*
X182069361Y-72443602D01*
X181918180Y-72318535D01*
X181745585Y-72225213D01*
X181630544Y-72189602D01*
X181564039Y-72169015D01*
X181564036Y-72169014D01*
X181558152Y-72167193D01*
X181552027Y-72166549D01*
X181552026Y-72166549D01*
X181369147Y-72147327D01*
X181369146Y-72147327D01*
X181363019Y-72146683D01*
X181259742Y-72156082D01*
X181173759Y-72163907D01*
X181173758Y-72163907D01*
X181167618Y-72164466D01*
X181161704Y-72166207D01*
X181161702Y-72166207D01*
X181042012Y-72201434D01*
X180979393Y-72219864D01*
X180973928Y-72222721D01*
X180810972Y-72307912D01*
X180810968Y-72307915D01*
X180805512Y-72310767D01*
X180800712Y-72314627D01*
X180800711Y-72314627D01*
X180787439Y-72325298D01*
X180652600Y-72433711D01*
X180526480Y-72584016D01*
X180523516Y-72589408D01*
X180523513Y-72589412D01*
X180464463Y-72696824D01*
X180431956Y-72755954D01*
X180430095Y-72761821D01*
X180430094Y-72761823D01*
X180408062Y-72831278D01*
X180372628Y-72942978D01*
X180350757Y-73137963D01*
X178200500Y-73137963D01*
X178200500Y-72201434D01*
X178199694Y-72189602D01*
X178198122Y-72166549D01*
X178197600Y-72158893D01*
X178195833Y-72151803D01*
X178154546Y-71986214D01*
X178154483Y-71985963D01*
X188694757Y-71985963D01*
X188711175Y-72181483D01*
X188765258Y-72370091D01*
X188768076Y-72375574D01*
X188852123Y-72539113D01*
X188852126Y-72539117D01*
X188854944Y-72544601D01*
X188976818Y-72698369D01*
X189126238Y-72825535D01*
X189131616Y-72828541D01*
X189131618Y-72828542D01*
X189167932Y-72848837D01*
X189297513Y-72921257D01*
X189484118Y-72981889D01*
X189678946Y-73005121D01*
X189685081Y-73004649D01*
X189685083Y-73004649D01*
X189868434Y-72990541D01*
X189868438Y-72990540D01*
X189874576Y-72990068D01*
X190063556Y-72937303D01*
X190238689Y-72848837D01*
X190247472Y-72841975D01*
X190313467Y-72815799D01*
X190386514Y-72831278D01*
X190547513Y-72921257D01*
X190734118Y-72981889D01*
X190928946Y-73005121D01*
X190935081Y-73004649D01*
X190935083Y-73004649D01*
X191118434Y-72990541D01*
X191118438Y-72990540D01*
X191124576Y-72990068D01*
X191313556Y-72937303D01*
X191488689Y-72848837D01*
X191518515Y-72825535D01*
X191574679Y-72781655D01*
X191643303Y-72728040D01*
X191671739Y-72695097D01*
X191767485Y-72584173D01*
X191767485Y-72584172D01*
X191771509Y-72579511D01*
X191868425Y-72408909D01*
X191930358Y-72222732D01*
X191954949Y-72028071D01*
X191955341Y-72000000D01*
X191953965Y-71985963D01*
X197194757Y-71985963D01*
X197211175Y-72181483D01*
X197265258Y-72370091D01*
X197268076Y-72375574D01*
X197352123Y-72539113D01*
X197352126Y-72539117D01*
X197354944Y-72544601D01*
X197476818Y-72698369D01*
X197626238Y-72825535D01*
X197631616Y-72828541D01*
X197631618Y-72828542D01*
X197667932Y-72848837D01*
X197797513Y-72921257D01*
X197984118Y-72981889D01*
X198178946Y-73005121D01*
X198185081Y-73004649D01*
X198185083Y-73004649D01*
X198368434Y-72990541D01*
X198368438Y-72990540D01*
X198374576Y-72990068D01*
X198563556Y-72937303D01*
X198738689Y-72848837D01*
X198768515Y-72825535D01*
X198824679Y-72781655D01*
X198893303Y-72728040D01*
X198897323Y-72723382D01*
X198897330Y-72723376D01*
X198953843Y-72657905D01*
X199013496Y-72619408D01*
X199084492Y-72619273D01*
X199147969Y-72661971D01*
X199164723Y-72683109D01*
X199176818Y-72698369D01*
X199326238Y-72825535D01*
X199331616Y-72828541D01*
X199331618Y-72828542D01*
X199367932Y-72848837D01*
X199497513Y-72921257D01*
X199684118Y-72981889D01*
X199878946Y-73005121D01*
X199885081Y-73004649D01*
X199885083Y-73004649D01*
X200068434Y-72990541D01*
X200068438Y-72990540D01*
X200074576Y-72990068D01*
X200263556Y-72937303D01*
X200369151Y-72883963D01*
X205242757Y-72883963D01*
X205259175Y-73079483D01*
X205313258Y-73268091D01*
X205316076Y-73273574D01*
X205400123Y-73437113D01*
X205400126Y-73437117D01*
X205402944Y-73442601D01*
X205524818Y-73596369D01*
X205529511Y-73600363D01*
X205529512Y-73600364D01*
X205656490Y-73708430D01*
X205674238Y-73723535D01*
X205679616Y-73726541D01*
X205679618Y-73726542D01*
X205715932Y-73746837D01*
X205845513Y-73819257D01*
X206032118Y-73879889D01*
X206226946Y-73903121D01*
X206233081Y-73902649D01*
X206233083Y-73902649D01*
X206416434Y-73888541D01*
X206416438Y-73888540D01*
X206422576Y-73888068D01*
X206611556Y-73835303D01*
X206617056Y-73832525D01*
X206617058Y-73832524D01*
X206698130Y-73791572D01*
X206767952Y-73778712D01*
X206816410Y-73794050D01*
X206824491Y-73798566D01*
X206856135Y-73816252D01*
X206856141Y-73816254D01*
X206861513Y-73819257D01*
X207048118Y-73879889D01*
X207242946Y-73903121D01*
X207249081Y-73902649D01*
X207249083Y-73902649D01*
X207432434Y-73888541D01*
X207432438Y-73888540D01*
X207438576Y-73888068D01*
X207627556Y-73835303D01*
X207802689Y-73746837D01*
X207816339Y-73736173D01*
X207934759Y-73643653D01*
X207957303Y-73626040D01*
X207985147Y-73593783D01*
X208081485Y-73482173D01*
X208081485Y-73482172D01*
X208085509Y-73477511D01*
X208115402Y-73424891D01*
X208121644Y-73413902D01*
X208182425Y-73306909D01*
X208244358Y-73120732D01*
X208268949Y-72926071D01*
X208269341Y-72898000D01*
X208250194Y-72702728D01*
X208248413Y-72696829D01*
X208248412Y-72696824D01*
X208195265Y-72520793D01*
X208193484Y-72514894D01*
X208101370Y-72341653D01*
X207977361Y-72189602D01*
X207826180Y-72064535D01*
X207653585Y-71971213D01*
X207559869Y-71942203D01*
X207472039Y-71915015D01*
X207472036Y-71915014D01*
X207466152Y-71913193D01*
X207460027Y-71912549D01*
X207460026Y-71912549D01*
X207277147Y-71893327D01*
X207277146Y-71893327D01*
X207271019Y-71892683D01*
X207148383Y-71903844D01*
X207081759Y-71909907D01*
X207081758Y-71909907D01*
X207075618Y-71910466D01*
X207069704Y-71912207D01*
X207069702Y-71912207D01*
X206993848Y-71934532D01*
X206887393Y-71965864D01*
X206814727Y-72003853D01*
X206745093Y-72017687D01*
X206696425Y-72003027D01*
X206643008Y-71974145D01*
X206643006Y-71974144D01*
X206637585Y-71971213D01*
X206543869Y-71942203D01*
X206456039Y-71915015D01*
X206456036Y-71915014D01*
X206450152Y-71913193D01*
X206444027Y-71912549D01*
X206444026Y-71912549D01*
X206261147Y-71893327D01*
X206261146Y-71893327D01*
X206255019Y-71892683D01*
X206132383Y-71903844D01*
X206065759Y-71909907D01*
X206065758Y-71909907D01*
X206059618Y-71910466D01*
X206053704Y-71912207D01*
X206053702Y-71912207D01*
X205943988Y-71944498D01*
X205871393Y-71965864D01*
X205865930Y-71968720D01*
X205865928Y-71968721D01*
X205702972Y-72053912D01*
X205702968Y-72053915D01*
X205697512Y-72056767D01*
X205692712Y-72060627D01*
X205692711Y-72060627D01*
X205658326Y-72088273D01*
X205544600Y-72179711D01*
X205418480Y-72330016D01*
X205415516Y-72335408D01*
X205415513Y-72335412D01*
X205361473Y-72433711D01*
X205323956Y-72501954D01*
X205322095Y-72507821D01*
X205322094Y-72507823D01*
X205312168Y-72539113D01*
X205264628Y-72688978D01*
X205242757Y-72883963D01*
X200369151Y-72883963D01*
X200438689Y-72848837D01*
X200468515Y-72825535D01*
X200524679Y-72781655D01*
X200593303Y-72728040D01*
X200621739Y-72695097D01*
X200717485Y-72584173D01*
X200717485Y-72584172D01*
X200721509Y-72579511D01*
X200818425Y-72408909D01*
X200880358Y-72222732D01*
X200904949Y-72028071D01*
X200905341Y-72000000D01*
X200886194Y-71804728D01*
X200884413Y-71798829D01*
X200884412Y-71798824D01*
X200831265Y-71622793D01*
X200829484Y-71616894D01*
X200737370Y-71443653D01*
X200613361Y-71291602D01*
X200462180Y-71166535D01*
X200289585Y-71073213D01*
X200115665Y-71019376D01*
X200056505Y-70980125D01*
X200027958Y-70915120D01*
X200039087Y-70845001D01*
X200086358Y-70792030D01*
X200119039Y-70777654D01*
X200263556Y-70737303D01*
X200438689Y-70648837D01*
X200468515Y-70625535D01*
X200588453Y-70531829D01*
X200593303Y-70528040D01*
X200623084Y-70493539D01*
X200717485Y-70384173D01*
X200717485Y-70384172D01*
X200721509Y-70379511D01*
X200818425Y-70208909D01*
X200880358Y-70022732D01*
X200904949Y-69828071D01*
X200905341Y-69800000D01*
X200886194Y-69604728D01*
X200884413Y-69598829D01*
X200884412Y-69598824D01*
X200831265Y-69422793D01*
X200829484Y-69416894D01*
X200737370Y-69243653D01*
X200613361Y-69091602D01*
X200462180Y-68966535D01*
X200289585Y-68873213D01*
X200163467Y-68834173D01*
X200108039Y-68817015D01*
X200108036Y-68817014D01*
X200102152Y-68815193D01*
X200096027Y-68814549D01*
X200096026Y-68814549D01*
X199913147Y-68795327D01*
X199913146Y-68795327D01*
X199907019Y-68794683D01*
X199784383Y-68805844D01*
X199717759Y-68811907D01*
X199717758Y-68811907D01*
X199711618Y-68812466D01*
X199705704Y-68814207D01*
X199705702Y-68814207D01*
X199588041Y-68848837D01*
X199523393Y-68867864D01*
X199517928Y-68870721D01*
X199354972Y-68955912D01*
X199354968Y-68955915D01*
X199349512Y-68958767D01*
X199344712Y-68962627D01*
X199344711Y-68962627D01*
X199325541Y-68978040D01*
X199196600Y-69081711D01*
X199192642Y-69086428D01*
X199192639Y-69086431D01*
X199146777Y-69141087D01*
X199087667Y-69180413D01*
X199016680Y-69181539D01*
X198952613Y-69139730D01*
X198952322Y-69139373D01*
X198913361Y-69091602D01*
X198762180Y-68966535D01*
X198589585Y-68873213D01*
X198463467Y-68834173D01*
X198408039Y-68817015D01*
X198408036Y-68817014D01*
X198402152Y-68815193D01*
X198396027Y-68814549D01*
X198396026Y-68814549D01*
X198213147Y-68795327D01*
X198213146Y-68795327D01*
X198207019Y-68794683D01*
X198084383Y-68805844D01*
X198017759Y-68811907D01*
X198017758Y-68811907D01*
X198011618Y-68812466D01*
X198005704Y-68814207D01*
X198005702Y-68814207D01*
X197888041Y-68848837D01*
X197823393Y-68867864D01*
X197817928Y-68870721D01*
X197654972Y-68955912D01*
X197654968Y-68955915D01*
X197649512Y-68958767D01*
X197644712Y-68962627D01*
X197644711Y-68962627D01*
X197625541Y-68978040D01*
X197496600Y-69081711D01*
X197370480Y-69232016D01*
X197367516Y-69237408D01*
X197367513Y-69237412D01*
X197306410Y-69348559D01*
X197275956Y-69403954D01*
X197216628Y-69590978D01*
X197194757Y-69785963D01*
X197211175Y-69981483D01*
X197265258Y-70170091D01*
X197268076Y-70175574D01*
X197352123Y-70339113D01*
X197352126Y-70339117D01*
X197354944Y-70344601D01*
X197476818Y-70498369D01*
X197626238Y-70625535D01*
X197631616Y-70628541D01*
X197631618Y-70628542D01*
X197667932Y-70648837D01*
X197797513Y-70721257D01*
X197982430Y-70781340D01*
X198041035Y-70821414D01*
X198068672Y-70886810D01*
X198056565Y-70956767D01*
X198008559Y-71009073D01*
X197979068Y-71022046D01*
X197823393Y-71067864D01*
X197817928Y-71070721D01*
X197654972Y-71155912D01*
X197654969Y-71155914D01*
X197649512Y-71158767D01*
X197644712Y-71162627D01*
X197644711Y-71162627D01*
X197618560Y-71183653D01*
X197496600Y-71281711D01*
X197370480Y-71432016D01*
X197367516Y-71437408D01*
X197367513Y-71437412D01*
X197346773Y-71475138D01*
X197275956Y-71603954D01*
X197274095Y-71609821D01*
X197274094Y-71609823D01*
X197254986Y-71670060D01*
X197216628Y-71790978D01*
X197194757Y-71985963D01*
X191953965Y-71985963D01*
X191936194Y-71804728D01*
X191934413Y-71798829D01*
X191934412Y-71798824D01*
X191881265Y-71622793D01*
X191879484Y-71616894D01*
X191787370Y-71443653D01*
X191663361Y-71291602D01*
X191512180Y-71166535D01*
X191339585Y-71073213D01*
X191174291Y-71022046D01*
X191158039Y-71017015D01*
X191158036Y-71017014D01*
X191152152Y-71015193D01*
X191146027Y-71014549D01*
X191146026Y-71014549D01*
X191114201Y-71011204D01*
X191006164Y-70999849D01*
X190946587Y-70975337D01*
X190896152Y-70999856D01*
X190886638Y-71001088D01*
X190767759Y-71011907D01*
X190767758Y-71011907D01*
X190761618Y-71012466D01*
X190755704Y-71014207D01*
X190755702Y-71014207D01*
X190729068Y-71022046D01*
X190573393Y-71067864D01*
X190399512Y-71158767D01*
X190394711Y-71162627D01*
X190394005Y-71163089D01*
X190326052Y-71183653D01*
X190263166Y-71164711D01*
X190262180Y-71166535D01*
X190089585Y-71073213D01*
X189924291Y-71022046D01*
X189908039Y-71017015D01*
X189908036Y-71017014D01*
X189902152Y-71015193D01*
X189896027Y-71014549D01*
X189896026Y-71014549D01*
X189864201Y-71011204D01*
X189756164Y-70999849D01*
X189696587Y-70975337D01*
X189646152Y-70999856D01*
X189636638Y-71001088D01*
X189517759Y-71011907D01*
X189517758Y-71011907D01*
X189511618Y-71012466D01*
X189505704Y-71014207D01*
X189505702Y-71014207D01*
X189479068Y-71022046D01*
X189323393Y-71067864D01*
X189317928Y-71070721D01*
X189154972Y-71155912D01*
X189154969Y-71155914D01*
X189149512Y-71158767D01*
X189144712Y-71162627D01*
X189144711Y-71162627D01*
X189118560Y-71183653D01*
X188996600Y-71281711D01*
X188870480Y-71432016D01*
X188867516Y-71437408D01*
X188867513Y-71437412D01*
X188846773Y-71475138D01*
X188775956Y-71603954D01*
X188774095Y-71609821D01*
X188774094Y-71609823D01*
X188754986Y-71670060D01*
X188716628Y-71790978D01*
X188694757Y-71985963D01*
X178154483Y-71985963D01*
X178152895Y-71979592D01*
X178149864Y-71973485D01*
X178149862Y-71973481D01*
X178109753Y-71892683D01*
X178070731Y-71814074D01*
X177954940Y-71670060D01*
X177810926Y-71554269D01*
X177728167Y-71513187D01*
X177651519Y-71475138D01*
X177651515Y-71475136D01*
X177645408Y-71472105D01*
X177593461Y-71459153D01*
X177471503Y-71428745D01*
X177471499Y-71428744D01*
X177466107Y-71427400D01*
X177449294Y-71426254D01*
X177425714Y-71424646D01*
X177425701Y-71424646D01*
X177423566Y-71424500D01*
X176076434Y-71424500D01*
X176074299Y-71424646D01*
X176074286Y-71424646D01*
X176050706Y-71426254D01*
X176033893Y-71427400D01*
X176028501Y-71428744D01*
X176028497Y-71428745D01*
X175906539Y-71459153D01*
X175854592Y-71472105D01*
X175848485Y-71475136D01*
X175848481Y-71475138D01*
X175771833Y-71513187D01*
X175689074Y-71554269D01*
X175545060Y-71670060D01*
X175435503Y-71806321D01*
X175377230Y-71846876D01*
X175306281Y-71849488D01*
X175251236Y-71816443D01*
X175249890Y-71817886D01*
X175246106Y-71814357D01*
X175242629Y-71810536D01*
X175238578Y-71807337D01*
X175238574Y-71807333D01*
X175059500Y-71665909D01*
X175059496Y-71665907D01*
X175055445Y-71662707D01*
X175016125Y-71641001D01*
X174999682Y-71631924D01*
X174846631Y-71547436D01*
X174841762Y-71545712D01*
X174841758Y-71545710D01*
X174626663Y-71469541D01*
X174626661Y-71469540D01*
X174621794Y-71467817D01*
X174486141Y-71443653D01*
X174392060Y-71426894D01*
X174392056Y-71426894D01*
X174386972Y-71425988D01*
X174303140Y-71424964D01*
X174153640Y-71423137D01*
X174153638Y-71423137D01*
X174148471Y-71423074D01*
X173912698Y-71459153D01*
X173685982Y-71533255D01*
X173681394Y-71535643D01*
X173681390Y-71535645D01*
X173479003Y-71641001D01*
X173474414Y-71643390D01*
X173470281Y-71646493D01*
X173470278Y-71646495D01*
X173287810Y-71783497D01*
X173283675Y-71786602D01*
X173280103Y-71790340D01*
X173132786Y-71944498D01*
X173118887Y-71959042D01*
X173115973Y-71963314D01*
X173115972Y-71963315D01*
X173105115Y-71979231D01*
X173050204Y-72024234D01*
X172979679Y-72032405D01*
X172915932Y-72001151D01*
X172903780Y-71987917D01*
X172903155Y-71986951D01*
X172890898Y-71973481D01*
X172746107Y-71814358D01*
X172746105Y-71814357D01*
X172742629Y-71810536D01*
X172738578Y-71807337D01*
X172738574Y-71807333D01*
X172559500Y-71665909D01*
X172559496Y-71665907D01*
X172555445Y-71662707D01*
X172516125Y-71641001D01*
X172499682Y-71631924D01*
X172346631Y-71547436D01*
X172341762Y-71545712D01*
X172341758Y-71545710D01*
X172126663Y-71469541D01*
X172126661Y-71469540D01*
X172121794Y-71467817D01*
X171986141Y-71443653D01*
X171892060Y-71426894D01*
X171892056Y-71426894D01*
X171886972Y-71425988D01*
X171803140Y-71424964D01*
X171653640Y-71423137D01*
X171653638Y-71423137D01*
X171648471Y-71423074D01*
X171412698Y-71459153D01*
X171185982Y-71533255D01*
X171181394Y-71535643D01*
X171181390Y-71535645D01*
X170979003Y-71641001D01*
X170974414Y-71643390D01*
X170970281Y-71646493D01*
X170970278Y-71646495D01*
X170787810Y-71783497D01*
X170783675Y-71786602D01*
X170780103Y-71790340D01*
X170632786Y-71944498D01*
X170618887Y-71959042D01*
X170615973Y-71963314D01*
X170615972Y-71963315D01*
X170605115Y-71979231D01*
X170550204Y-72024234D01*
X170479679Y-72032405D01*
X170415932Y-72001151D01*
X170403780Y-71987917D01*
X170403155Y-71986951D01*
X170390898Y-71973481D01*
X170246107Y-71814358D01*
X170246105Y-71814357D01*
X170242629Y-71810536D01*
X170238578Y-71807337D01*
X170238574Y-71807333D01*
X170059500Y-71665909D01*
X170059496Y-71665907D01*
X170055445Y-71662707D01*
X170016125Y-71641001D01*
X169999682Y-71631924D01*
X169846631Y-71547436D01*
X169841762Y-71545712D01*
X169841758Y-71545710D01*
X169626663Y-71469541D01*
X169626661Y-71469540D01*
X169621794Y-71467817D01*
X169486141Y-71443653D01*
X169392060Y-71426894D01*
X169392056Y-71426894D01*
X169386972Y-71425988D01*
X169303140Y-71424964D01*
X169153640Y-71423137D01*
X169153638Y-71423137D01*
X169148471Y-71423074D01*
X168912698Y-71459153D01*
X168685982Y-71533255D01*
X168681394Y-71535643D01*
X168681390Y-71535645D01*
X168479003Y-71641001D01*
X168474414Y-71643390D01*
X168470281Y-71646493D01*
X168470278Y-71646495D01*
X168287810Y-71783497D01*
X168283675Y-71786602D01*
X168280103Y-71790340D01*
X168132786Y-71944498D01*
X168118887Y-71959042D01*
X168115973Y-71963314D01*
X168115972Y-71963315D01*
X168105115Y-71979231D01*
X168050204Y-72024234D01*
X167979679Y-72032405D01*
X167915932Y-72001151D01*
X167903780Y-71987917D01*
X167903155Y-71986951D01*
X167890898Y-71973481D01*
X167746107Y-71814358D01*
X167746105Y-71814357D01*
X167742629Y-71810536D01*
X167738578Y-71807337D01*
X167738574Y-71807333D01*
X167559500Y-71665909D01*
X167559496Y-71665907D01*
X167555445Y-71662707D01*
X167516125Y-71641001D01*
X167499682Y-71631924D01*
X167346631Y-71547436D01*
X167341762Y-71545712D01*
X167341758Y-71545710D01*
X167126663Y-71469541D01*
X167126661Y-71469540D01*
X167121794Y-71467817D01*
X166986141Y-71443653D01*
X166892060Y-71426894D01*
X166892056Y-71426894D01*
X166886972Y-71425988D01*
X166803140Y-71424964D01*
X166653640Y-71423137D01*
X166653638Y-71423137D01*
X166648471Y-71423074D01*
X166412698Y-71459153D01*
X166185982Y-71533255D01*
X166181394Y-71535643D01*
X166181390Y-71535645D01*
X165979003Y-71641001D01*
X165974414Y-71643390D01*
X165970281Y-71646493D01*
X165970278Y-71646495D01*
X165787810Y-71783497D01*
X165783675Y-71786602D01*
X165780103Y-71790340D01*
X165632786Y-71944498D01*
X165618887Y-71959042D01*
X165615973Y-71963314D01*
X165615972Y-71963315D01*
X165605115Y-71979231D01*
X165550204Y-72024234D01*
X165479679Y-72032405D01*
X165415932Y-72001151D01*
X165403780Y-71987917D01*
X165403155Y-71986951D01*
X165390898Y-71973481D01*
X165246107Y-71814358D01*
X165246105Y-71814357D01*
X165242629Y-71810536D01*
X165238578Y-71807337D01*
X165238574Y-71807333D01*
X165059500Y-71665909D01*
X165059496Y-71665907D01*
X165055445Y-71662707D01*
X165016125Y-71641001D01*
X164999682Y-71631924D01*
X164846631Y-71547436D01*
X164841762Y-71545712D01*
X164841758Y-71545710D01*
X164626663Y-71469541D01*
X164626661Y-71469540D01*
X164621794Y-71467817D01*
X164486141Y-71443653D01*
X164392060Y-71426894D01*
X164392056Y-71426894D01*
X164386972Y-71425988D01*
X164303140Y-71424964D01*
X164153640Y-71423137D01*
X164153638Y-71423137D01*
X164148471Y-71423074D01*
X163912698Y-71459153D01*
X163685982Y-71533255D01*
X163681394Y-71535643D01*
X163681390Y-71535645D01*
X163479003Y-71641001D01*
X163474414Y-71643390D01*
X163470281Y-71646493D01*
X163470278Y-71646495D01*
X163287810Y-71783497D01*
X163283675Y-71786602D01*
X163280103Y-71790340D01*
X163132786Y-71944498D01*
X163118887Y-71959042D01*
X163115973Y-71963314D01*
X163115972Y-71963315D01*
X163093338Y-71996495D01*
X162984475Y-72156082D01*
X162962426Y-72203583D01*
X162887885Y-72364169D01*
X162884051Y-72372428D01*
X162820309Y-72602272D01*
X162819760Y-72607409D01*
X162801872Y-72774793D01*
X162799500Y-72796986D01*
X162799500Y-73185463D01*
X121920000Y-73185463D01*
X121920000Y-69735963D01*
X188694757Y-69735963D01*
X188711175Y-69931483D01*
X188765258Y-70120091D01*
X188768076Y-70125574D01*
X188852123Y-70289113D01*
X188852126Y-70289117D01*
X188854944Y-70294601D01*
X188976818Y-70448369D01*
X189126238Y-70575535D01*
X189131616Y-70578541D01*
X189131618Y-70578542D01*
X189167932Y-70598837D01*
X189297513Y-70671257D01*
X189484118Y-70731889D01*
X189640138Y-70750493D01*
X189697841Y-70775182D01*
X189746669Y-70750595D01*
X189759669Y-70748910D01*
X189868434Y-70740541D01*
X189868438Y-70740540D01*
X189874576Y-70740068D01*
X190063556Y-70687303D01*
X190238689Y-70598837D01*
X190247472Y-70591975D01*
X190313467Y-70565799D01*
X190386514Y-70581278D01*
X190547513Y-70671257D01*
X190734118Y-70731889D01*
X190890138Y-70750493D01*
X190947841Y-70775182D01*
X190996669Y-70750595D01*
X191009669Y-70748910D01*
X191118434Y-70740541D01*
X191118438Y-70740540D01*
X191124576Y-70740068D01*
X191313556Y-70687303D01*
X191488689Y-70598837D01*
X191518515Y-70575535D01*
X191574679Y-70531655D01*
X191643303Y-70478040D01*
X191657174Y-70461971D01*
X191767485Y-70334173D01*
X191767485Y-70334172D01*
X191771509Y-70329511D01*
X191868425Y-70158909D01*
X191930358Y-69972732D01*
X191954949Y-69778071D01*
X191955341Y-69750000D01*
X191936194Y-69554728D01*
X191934413Y-69548829D01*
X191934412Y-69548824D01*
X191881265Y-69372793D01*
X191879484Y-69366894D01*
X191787370Y-69193653D01*
X191663361Y-69041602D01*
X191512180Y-68916535D01*
X191339585Y-68823213D01*
X191245869Y-68794203D01*
X191158039Y-68767015D01*
X191158036Y-68767014D01*
X191152152Y-68765193D01*
X191146027Y-68764549D01*
X191146026Y-68764549D01*
X190963147Y-68745327D01*
X190963146Y-68745327D01*
X190957019Y-68744683D01*
X190870840Y-68752526D01*
X190767759Y-68761907D01*
X190767758Y-68761907D01*
X190761618Y-68762466D01*
X190755704Y-68764207D01*
X190755702Y-68764207D01*
X190671080Y-68789113D01*
X190573393Y-68817864D01*
X190399512Y-68908767D01*
X190394711Y-68912627D01*
X190394005Y-68913089D01*
X190326052Y-68933653D01*
X190263166Y-68914711D01*
X190262180Y-68916535D01*
X190089585Y-68823213D01*
X189995869Y-68794203D01*
X189908039Y-68767015D01*
X189908036Y-68767014D01*
X189902152Y-68765193D01*
X189896027Y-68764549D01*
X189896026Y-68764549D01*
X189713147Y-68745327D01*
X189713146Y-68745327D01*
X189707019Y-68744683D01*
X189620840Y-68752526D01*
X189517759Y-68761907D01*
X189517758Y-68761907D01*
X189511618Y-68762466D01*
X189505704Y-68764207D01*
X189505702Y-68764207D01*
X189421080Y-68789113D01*
X189323393Y-68817864D01*
X189317928Y-68820721D01*
X189154972Y-68905912D01*
X189154969Y-68905914D01*
X189149512Y-68908767D01*
X189144712Y-68912627D01*
X189144711Y-68912627D01*
X189131609Y-68923161D01*
X188996600Y-69031711D01*
X188870480Y-69182016D01*
X188867516Y-69187408D01*
X188867513Y-69187412D01*
X188788813Y-69330567D01*
X188775956Y-69353954D01*
X188716628Y-69540978D01*
X188694757Y-69735963D01*
X121920000Y-69735963D01*
X121920000Y-61750000D01*
X154000000Y-61750000D01*
X162000000Y-61750000D01*
X162000000Y-59000000D01*
X154000000Y-59000000D01*
X154000000Y-61750000D01*
X121920000Y-61750000D01*
X121920000Y-59637595D01*
X121940002Y-59569474D01*
X121993658Y-59522981D01*
X122063932Y-59512877D01*
X122127662Y-59541641D01*
X122226238Y-59625535D01*
X122231616Y-59628541D01*
X122231618Y-59628542D01*
X122267932Y-59648837D01*
X122397513Y-59721257D01*
X122584118Y-59781889D01*
X122778946Y-59805121D01*
X122785081Y-59804649D01*
X122785083Y-59804649D01*
X122968434Y-59790541D01*
X122968438Y-59790540D01*
X122974576Y-59790068D01*
X123163556Y-59737303D01*
X123338689Y-59648837D01*
X123345325Y-59643653D01*
X123488453Y-59531829D01*
X123493303Y-59528040D01*
X123506392Y-59512877D01*
X123617485Y-59384173D01*
X123617485Y-59384172D01*
X123621509Y-59379511D01*
X123626861Y-59370091D01*
X123681786Y-59273405D01*
X123718425Y-59208909D01*
X123780358Y-59022732D01*
X123804949Y-58828071D01*
X123805341Y-58800000D01*
X123786194Y-58604728D01*
X123784413Y-58598829D01*
X123784412Y-58598824D01*
X123731265Y-58422793D01*
X123729484Y-58416894D01*
X123637370Y-58243653D01*
X123513361Y-58091602D01*
X123508865Y-58087883D01*
X123475114Y-58025553D01*
X123480426Y-57954756D01*
X123502945Y-57916870D01*
X123617485Y-57784173D01*
X123617485Y-57784172D01*
X123621509Y-57779511D01*
X123718425Y-57608909D01*
X123780358Y-57422732D01*
X123804949Y-57228071D01*
X123805341Y-57200000D01*
X123786194Y-57004728D01*
X123784413Y-56998829D01*
X123784412Y-56998824D01*
X123731265Y-56822793D01*
X123729484Y-56816894D01*
X123637370Y-56643653D01*
X123513361Y-56491602D01*
X123362180Y-56366535D01*
X123357772Y-56364152D01*
X123312737Y-56309783D01*
X123304197Y-56239302D01*
X123335117Y-56175392D01*
X123395682Y-56138345D01*
X123428485Y-56134000D01*
X126202984Y-56134000D01*
X126271105Y-56154002D01*
G37*
G04 #@! TD.AperFunction*
M02*
